<?xml version="1.0" encoding="UTF-8" standalone="no"?>
<!-- Created with Inkscape (http://www.inkscape.org/) -->

<svg
   xmlns:dc="http://purl.org/dc/elements/1.1/"
   xmlns:cc="http://creativecommons.org/ns#"
   xmlns:rdf="http://www.w3.org/1999/02/22-rdf-syntax-ns#"
   xmlns:svg="http://www.w3.org/2000/svg"
   xmlns="http://www.w3.org/2000/svg"
   xmlns:xlink="http://www.w3.org/1999/xlink"
   xmlns:sodipodi="http://sodipodi.sourceforge.net/DTD/sodipodi-0.dtd"
   xmlns:inkscape="http://www.inkscape.org/namespaces/inkscape"
   width="744.09448819"
   height="1052.3622047"
   id="svg2"
   version="1.1"
   inkscape:version="0.48.2 r9819"
   sodipodi:docname="jQueryVectorMap2.svg">
  <defs
     id="defs4">
    <linearGradient
       id="grad1"
       x1="0%"
       y1="0%"
       x2="100%"
       y2="0%">
      <stop
         id="stop3877"
         style="stop-color:#c6fee1;stop-opacity:1;"
         offset="0" />
      <stop
         offset="1"
         style="stop-color:#1b8e59;stop-opacity:1;"
         id="stop2994" />
    </linearGradient>
    <radialGradient
       inkscape:collect="always"
       xlink:href="#grad1"
       id="radialGradient3875"
       cx="311.64743"
       cy="211.06638"
       fx="311.64743"
       fy="211.06638"
       r="306.65445"
       gradientTransform="matrix(1,0,0,0.63101605,0,77.880106)"
       gradientUnits="userSpaceOnUse" />
  </defs>
  <sodipodi:namedview
     id="base"
     pagecolor="#ffffff"
     bordercolor="#666666"
     borderopacity="1.0"
     inkscape:pageopacity="0.0"
     inkscape:pageshadow="2"
     inkscape:zoom="1.4"
     inkscape:cx="421.64717"
     inkscape:cy="840.1561"
     inkscape:document-units="px"
     inkscape:current-layer="svg2"
     showgrid="false"
     inkscape:window-width="1920"
     inkscape:window-height="1153"
     inkscape:window-x="-4"
     inkscape:window-y="12"
     inkscape:window-maximized="1" />
  <metadata
     id="metadata7">
    <rdf:RDF>
      <cc:Work
         rdf:about="">
        <dc:format>image/svg+xml</dc:format>
        <dc:type
           rdf:resource="http://purl.org/dc/dcmitype/StillImage" />
        <dc:title></dc:title>
      </cc:Work>
    </rdf:RDF>
  </metadata>
  <path
     style="fill:url(#radialGradient3875);fill-opacity:1.0"
     d="M 68.1875 17.5625 L 67.90625 17.78125 L 67.65625 17.9375 C 67.68962 19.772745 69.598945 21.557658 69.8125 23.40625 C 68.531166 24.961203 68.630513 26.849498 68.9375 28.53125 C 67.729575 30.293085 70.046917 31.76486 69.40625 33.5 C 67.003747 34.51439 67.777939 31.017147 66.15625 30.15625 C 63.927261 28.661359 67.137708 27.565661 66.9375 26.53125 C 65.269095 25.790478 65.436424 29.118965 64.46875 29.3125 C 61.619115 29.726264 59.298683 27.50116 56.5625 27.1875 C 53.265732 25.912839 50.240856 23.931837 48.21875 20.96875 C 46.129907 20.314736 46.923397 24.272374 46.0625 25.59375 C 45.642062 27.462363 47.787487 28.99156 47 31.09375 C 47.347028 33.669767 46.112728 36.129067 47.09375 38.625 C 46.386347 40.547002 50.270425 42.307743 49.0625 42.875 C 46.760102 42.17427 44.926421 45.020457 47.5625 45.78125 C 48.610258 46.428591 47.170203 50.000202 45.375 49.40625 C 44.153728 50.841078 46.216345 53.982704 48.125 52.1875 C 50.640954 51.153089 49.975776 54.534847 52.03125 54.28125 C 53.906537 54.121083 54.875639 56.496318 55.0625 58.03125 C 55.0892 59.686307 54.94841 62.044193 54.875 63.21875 C 56.630162 64.393307 58.228852 66.052111 60.53125 65.625 C 62.666808 66.065459 63.661477 63.439331 65.84375 65.28125 C 67.852509 65.601583 70.103734 66.341867 71.71875 67.75 C 73.740856 68.363973 75.739325 66.548866 77.1875 68.4375 C 79.483225 69.30507 81.634463 68.454327 83.75 67.5 C 84.410688 68.687905 86.684456 68.388347 88.40625 68.375 C 91.976635 68.248201 95.53851 68.265061 98.96875 69.40625 C 103.63361 70.367251 108.16523 71.698644 112.75 73 C 115.73311 59.085505 118.70439 45.164494 121.6875 31.25 C 108.46706 28.627268 95.420126 25.105872 82.5 21.46875 C 77.64828 20.447687 72.899075 19.130801 68.1875 17.5625 z M 65.1875 21.1875 C 64.606491 21.277893 63.948156 21.799529 63.71875 22.25 C 62.751075 21.288999 61.503631 21.657241 63.21875 23.90625 C 62.998521 21.376949 66.202646 24.216482 66.0625 21.59375 C 65.877307 21.235877 65.536105 21.133264 65.1875 21.1875 z M 65.375 23.34375 L 65.28125 23.53125 C 63.192407 25.56003 66.175835 24.965439 65.375 23.34375 z M 122.34375 31.46875 C 119.34062 45.429959 116.34688 59.38254 113.34375 73.34375 C 113.69078 75.392551 114.8744 76.853937 116.65625 77.875 C 116.9232 79.890433 116.24001 81.515381 114.625 82.75 C 113.09006 84.551877 111.70369 86.716345 110.5625 88.625 C 110.82277 90.580371 108.82657 91.002874 107.71875 91.84375 C 106.53752 93.385356 104.89142 94.708192 105.125 96.84375 C 104.69789 98.465439 108.24417 97.234046 107.84375 99.75 C 104.38014 107.20443 103.32942 115.43096 101.09375 123.3125 C 100.56654 125.42136 100.27721 126.57197 99.75 128.6875 C 137.73623 137.25643 141.28573 137.67877 162.1875 141.65625 C 164.02274 129.91068 165.85226 118.15182 167.6875 106.40625 C 165.91232 105.84566 167.31087 102.05934 164.875 103.09375 C 164.04747 104.22826 163.77539 106.39395 161.40625 105.40625 C 159.33076 104.0782 156.87189 104.51071 154.65625 105.03125 C 152.96782 103.85669 150.71916 103.69632 149.53125 105.625 C 148.36337 105.5916 147.32257 103.3772 147.65625 102.0625 C 148.93092 99.4064 145.78069 98.119571 144.3125 96.53125 C 143.65848 92.607162 141.97099 88.756289 142.625 84.71875 C 141.38371 84.71205 139.79404 86.52893 138.3125 87.15625 C 136.83763 87.276376 135.28221 85.075293 135.5625 83.59375 C 136.35666 80.010017 138.29207 76.677803 139.5 73.1875 C 140.80135 71.425665 140.23079 69.470868 137.875 69.4375 C 136.84059 67.18849 134.61673 65.676441 134.15625 63.09375 C 133.28201 61.338589 133.21045 58.756035 130.78125 58.5625 C 130.12056 57.327881 128.65245 55.570738 129.5 54.0625 C 130.89479 52.073762 129.26291 50.274863 128.46875 48.40625 C 127.04727 46.370796 128.82617 43.941065 128.90625 41.71875 C 129.50688 38.815726 130.1248 35.934274 130.71875 33.03125 C 127.92918 32.510708 125.13332 31.989292 122.34375 31.46875 z M 132.25 33.375 C 131.37659 33.392518 130.784 33.842505 130.9375 35.4375 C 130.12999 39.27483 129.33208 43.131419 128.53125 46.96875 C 129.09183 48.810669 130.68962 50.548866 130.65625 52.4375 C 129.65521 54.29944 129.98561 56.099818 131 57.875 C 133.26903 58.135271 133.8105 60.184776 134.53125 62 C 135.48557 64.228989 136.21179 66.57704 138.09375 68.21875 C 138.68103 69.69362 141.62065 69.012539 141 71.375 C 139.51178 75.519317 137.35571 79.556849 136.28125 83.78125 C 136.29455 86.010238 138.57005 87.272106 140.125 85.25 C 141.19945 83.628311 143.87732 83.230129 143.25 85.90625 C 142.91631 89.443268 144.44821 92.793066 144.96875 96.25 C 146.23674 97.584724 148.47638 98.553418 148.75 100.46875 C 148.27617 101.74341 148.50395 106.33544 150.3125 103.90625 C 151.54712 102.64493 153.59366 103.70128 154.875 104.46875 C 157.06394 103.38095 159.72577 103.66951 161.78125 104.9375 C 164.24381 105.21112 162.79359 101.60478 165.75 102.21875 C 167.55855 101.93846 167.10542 106.66597 167.90625 104.9375 C 168.27997 102.7619 168.63751 100.58185 169.03125 98.40625 C 192.76931 101.4027 216.51193 104.38522 240.25 107.375 C 242.18534 88.395231 244.0959 69.410597 246.03125 50.4375 C 226.78453 48.909241 207.6445 46.504086 188.53125 43.78125 C 170.70602 41.031719 152.91083 37.9529 135.3125 33.96875 C 134.29478 33.765205 133.12341 33.357482 132.25 33.375 z M 594.9375 37.90625 L 593.875 38.96875 C 592.4335 39.842994 591.42372 40.792395 590.65625 42.09375 C 589.12799 42.494167 587.30159 41.18387 587.375 39.46875 C 585.39293 38.921513 585.1628 41.926505 584.46875 43.28125 C 583.74132 46.144232 582.27965 48.880345 581.8125 51.75 C 581.7725 53.77878 582.47455 56.170789 580.90625 57.8125 C 580.95965 59.761196 580.41476 61.928624 582.25 63.25 C 581.33572 67.053963 578.10901 70.174857 578.65625 74.3125 C 575.80661 72.837631 577.47247 75.960512 577.90625 77.46875 C 580.24869 84.863119 582.70787 92.250971 584.75 99.71875 C 584.89015 101.72751 588.63547 100.62823 587.78125 103.53125 C 589.7166 104.86598 589.16209 100.92636 589.5625 99.625 C 588.88847 97.429379 591.36142 96.526662 590 94.53125 C 590.62732 93.83052 591.93466 90.590388 593.0625 92.21875 C 594.41724 92.906133 596.58815 90.961321 597.5625 90.09375 C 596.90848 87.410956 600.37172 88.913732 600.71875 86.53125 C 599.97798 84.789436 601.218 82.89055 600.34375 81.5625 C 598.72874 80.501395 602.70932 78.493157 602.5625 81.0625 C 604.07741 81.382834 603.99228 82.933381 605 83.6875 C 606.29468 81.805539 603.55035 81.137793 605.21875 79.65625 C 606.84044 79.115687 607.31465 77.003715 609.25 77.4375 C 609.13655 78.411849 609.92915 79.683029 610.75 78.375 C 612.71205 76.43965 614.2438 73.653376 617 72.8125 C 617.78082 71.070685 619.22391 68.980905 617.46875 67.3125 C 617.1017 66.218027 615.00116 64.054262 614.6875 65.5625 C 614.18698 67.297641 611.57976 65.141509 611.40625 64.09375 C 611.47295 62.225137 611.60451 59.311138 608.875 60.21875 C 606.23225 61.126362 606.45073 58.18387 605.75 56.46875 C 604.10829 51.029751 602.46088 45.595249 600.8125 40.15625 C 598.90384 39.322048 597.00632 38.213237 594.9375 37.90625 z M 331.6875 48.0625 C 331.22702 49.744252 332.30739 53.011027 330.8125 53.625 C 324.37246 53.6183 317.94004 53.60042 311.5 53.59375 C 312.27414 55.509079 312.96376 57.433297 312.15625 59.46875 C 312.18965 63.299407 311.64145 67.384379 313.84375 70.78125 C 315.20517 73.303878 314.26982 76.462545 314.84375 79.21875 C 315.39099 83.783505 316.02417 88.312044 317.21875 92.75 C 317.25215 95.305996 317.78602 97.979489 317.21875 100.46875 C 316.17099 101.62996 313.9548 102.65077 315.75 104.3125 C 317.01132 105.53377 319.12616 106.26613 318.8125 108.375 C 318.99936 116.3166 318.9803 124.29505 319.09375 132.25 C 336.92566 131.99641 354.73059 131.7536 372.5625 131.5 C 372.46239 129.08415 372.25896 126.18399 369.65625 125.15625 C 367.64082 124.04843 365.49013 123.11278 364.5625 120.84375 C 364.082 118.43457 361.01842 120.0524 360.53125 117.75 C 359.49017 116.35521 357.01048 117.5257 356.15625 115.25 C 355.04843 113.84854 355.79331 111.57889 355.40625 109.84375 C 354.51198 107.88838 356.52637 106.51427 356.40625 104.8125 C 356.27277 102.6636 352.82408 102.23291 354.90625 99.84375 C 355.17986 96.860642 358.48721 96.26935 359.96875 94.09375 C 360.12892 91.51106 359.50955 88.672523 360.34375 86.25 C 361.51831 84.154483 363.76826 82.83664 365.84375 82.0625 C 367.12509 80.674388 368.28912 79.015029 369.9375 78.1875 C 371.6326 74.870712 373.96182 71.53473 377.8125 70.59375 C 380.84899 69.272374 383.91647 67.977307 386.90625 66.5625 C 387.39342 64.46031 384.43886 66.422355 383.53125 66.5625 C 382.98401 63.979809 380.71173 64.50943 378.65625 64.65625 C 377.15469 64.075645 375.09671 66.547843 374.65625 64.21875 C 373.90213 61.882984 371.66429 64.71527 370.75 65.65625 C 369.19505 66.74405 366.60294 66.429113 365.375 65.28125 C 366.00232 63.245797 362.29036 65.007482 362.34375 62.625 C 362.23697 61.090068 360.02826 63.480905 358.5 61.8125 C 356.47122 61.205201 354.83069 59.68039 352.96875 58.90625 C 351.30702 59.173195 349.02933 57.316886 348.46875 59.90625 C 347.68793 60.433466 343.71707 61.124009 344.53125 58.875 C 342.53584 58.89502 340.50104 58.853263 339.5 57.71875 C 337.76485 58.112493 335.68263 57.421682 335.5625 55.40625 C 334.97522 53.217303 334.60614 50.99901 334.3125 48.75 C 333.49165 48.349583 332.60178 48.089194 331.6875 48.0625 z M 246.75 50.53125 C 245.22175 65.253252 243.72244 79.965498 242.1875 94.6875 C 259.8459 95.681869 277.46449 97.172354 295.15625 97.3125 C 302.39046 97.486014 309.60955 97.638986 316.84375 97.8125 C 316.85075 94.121989 315.93495 90.601636 315.1875 87.03125 C 314.33995 82.079425 313.83464 77.087735 313.78125 72.0625 C 312.03944 69.286275 311.01707 66.078018 311.4375 62.78125 C 311.14386 60.612324 311.90318 58.370092 311.65625 56.28125 C 311.55615 53.605129 309.75992 53.204242 307.4375 53.53125 C 290.65335 53.21759 273.83119 52.841397 257.09375 51.5 C 253.64349 51.172992 250.20026 50.858257 246.75 50.53125 z M 48.6875 52.8125 C 47.476538 52.863921 45.767662 53.881094 44.8125 54.03125 C 42.863804 59.109874 41.85419 64.569676 39.03125 69.28125 C 37.122595 74.973847 35.059593 80.562799 32.25 85.875 C 30.207872 90.286261 26.903141 94.110558 24.6875 98.375 C 24.000117 102.71285 24.281889 107.06627 24.46875 111.4375 C 49.314632 117.24354 74.154119 122.56895 99 128.375 C 101.3024 119.59919 103.32536 111.21574 105.78125 102.5 C 106.58209 100.84494 107.89879 98.447888 105.0625 98.875 C 103.34071 97.687096 104.9126 95.89171 104.8125 94.25 C 106.34743 92.368039 107.70575 90.381759 109.78125 89.09375 C 110.94913 85.703552 113.40999 82.95769 115.8125 80.375 C 116.92032 78.052581 114.18315 77.764272 113.5625 76.0625 C 113.39566 73.533198 111.16712 73.205924 109.125 72.71875 C 104.03302 71.250554 98.881693 69.925515 93.65625 69.03125 C 90.386177 69.05127 87.113823 69.07373 83.84375 69.09375 C 83.209756 67.198442 80.722113 70.313862 79.09375 69.40625 C 77.351935 69.953487 76.153578 67.661561 74.71875 68.5625 C 72.976935 68.52246 71.218835 68.633877 69.9375 67.3125 C 67.875352 66.291437 65.709287 66.110897 63.59375 65.25 C 62.345783 67.272107 59.801558 66.064938 57.90625 66.125 C 56.805103 65.030527 54.035166 64.100828 53.875 62.90625 C 54.609098 61.277887 54.416841 58.962682 54.25 57.1875 C 53.969708 54.571441 51.083563 55.428793 50.0625 54.1875 C 49.952385 53.098866 49.414077 52.781648 48.6875 52.8125 z M 395.9375 62 L 394.40625 62.375 L 390.8125 64.96875 L 389.375 65.53125 L 388.15625 66.90625 L 389.21875 67.65625 L 390.59375 67.03125 L 392.8125 65.75 L 396.25 62.3125 L 395.9375 62 z M 403.375 71.5 L 400.25 71.84375 L 397.3125 73.4375 L 395.8125 74.9375 L 394.9375 76.125 L 393.75 76.6875 L 392.46875 78.625 L 392.375 79.46875 L 389.4375 80.875 L 387.84375 82.1875 L 383.84375 82.8125 L 383.40625 83.25 L 383.40625 83.90625 L 381.03125 85.40625 L 379.1875 85.96875 L 378.71875 86.34375 L 381.21875 89.78125 L 386.46875 90.53125 L 391.96875 92 L 393.875 92.6875 L 401.96875 94.5 L 403.3125 96.03125 L 405.6875 96.9375 L 407 103.8125 L 407.90625 104.5 L 408.6875 105.1875 L 410.8125 100.53125 L 411.46875 97.84375 L 412.75 94.90625 L 413.28125 94.8125 L 414.03125 95.875 L 414.46875 95.875 L 417.5 94.28125 L 418.46875 95.34375 L 418.78125 95.46875 L 419.65625 94.6875 L 420.40625 92.65625 L 422.03125 92.125 L 426.65625 91.6875 L 427.96875 89.9375 L 431.40625 89.84375 L 435.3125 90.71875 L 436.5 90.71875 L 438.65625 89.75 L 440.15625 89.84375 L 441.5625 89.40625 L 444.03125 89.75 L 444.5625 89.9375 L 445.4375 89.75 L 444.5625 89.09375 L 443.71875 88.65625 L 441.5625 86.59375 L 441.5625 81.96875 L 440.59375 81.65625 L 439.84375 82.40625 L 435.71875 83.46875 L 434.4375 83.8125 L 432.5 83.25 L 432.15625 83.0625 L 432.15625 79.28125 L 431.1875 79.15625 L 429.46875 80.03125 L 426.46875 81.3125 L 422.03125 81.53125 L 419.75 82.28125 L 417.0625 84.65625 L 416 85.3125 L 415.21875 85.3125 L 414.375 85.84375 L 413.28125 85.53125 L 412.21875 84.65625 L 411.25 85.3125 L 408.65625 85.40625 L 406.8125 83.59375 L 405.84375 81.53125 L 404.875 80.78125 L 402.71875 80.125 L 401.21875 80.125 L 400.34375 79.28125 L 397.96875 81.21875 L 397.3125 81.96875 L 396.78125 81.65625 L 397 79.90625 L 398.625 77.75 L 398.9375 76.125 L 400.46875 75.59375 L 401.4375 73.5625 L 403.90625 72.90625 L 404.125 72.25 L 403.375 71.5 z M 576 74 C 575.87987 74.286966 575.74512 74.556785 575.625 74.84375 C 574.69069 74.570132 573.04651 74.392414 573.59375 76.875 C 573.74056 79.297524 573.11836 82.102255 575.09375 83.9375 C 575.31398 85.792766 575.15782 87.493242 573.65625 88.78125 C 573.52945 90.669884 569.65109 90.515179 571.40625 92.34375 C 572.18039 97.24886 571.04004 102.38314 571 107.375 C 571.80083 108.67636 571.64681 110.30002 571.5 111.875 C 570.78592 114.4043 574.72566 111.83285 576.09375 111.90625 C 578.71648 111.04535 581.73585 110.76375 584.125 109.5625 C 584.63887 107.49368 587.046 107.72487 588.09375 106.25 C 589.82222 103.90089 586.07597 104.41976 586.75 101.84375 C 584.194 101.85075 583.91653 100.20261 583.65625 98.09375 C 581.09358 90.098755 578.7829 81.774766 576 74 z M 572.625 79.03125 C 567.0859 80.43271 561.57036 81.84854 556.03125 83.25 C 556.15805 87.254171 559.12064 90.730364 558.5 94.78125 C 556.84494 97.604191 561.50368 99.668265 559.96875 102.53125 C 560.56938 103.59235 563.08792 103.83563 562.6875 106.03125 C 563.40825 108.84084 564.58696 111.58151 563.90625 114.53125 C 566.14192 114.1909 568.6387 113.75264 570.6875 113.21875 C 570.54735 111.79727 571.67392 109.37476 570.3125 108 C 570.44597 102.90135 571.01366 97.824068 571.09375 92.71875 C 568.92482 91.110408 571.29875 90.208883 572.5 89.28125 C 573.80803 87.759665 575.08632 85.897107 574.21875 83.875 C 572.47026 82.7872 573.53929 79.885473 572.625 79.03125 z M 608.15625 79.375 C 607.96897 79.382508 607.74148 79.490628 607.53125 79.6875 C 605.65596 80.822016 608.7751 83.129406 608.28125 80.5 C 609.02202 80.049531 608.71809 79.352477 608.15625 79.375 z M 374.0625 81.84375 C 373.77991 81.886711 373.53638 81.997302 373.40625 82.1875 C 370.69676 84.022745 367.59169 85.448528 364.375 86.0625 C 362.453 85.34175 360.67627 85.339025 360.65625 87.875 C 360.33592 90.103989 360.99776 92.560734 360.34375 94.65625 C 358.99568 96.83185 355.73781 97.346979 355.4375 100.25 C 353.68233 102.10527 356.92416 102.28912 356.9375 103.9375 C 358.13208 105.87285 355.49736 107.08923 356.03125 109.03125 C 356.22479 110.98662 355.78477 113.37164 356.8125 115 C 357.7001 117.32242 360.71155 115.14241 361.21875 117.625 C 362.25983 119.13323 364.8945 118.30989 365.375 120.8125 C 366.80982 124.21604 371.83604 124.05282 372.84375 127.75 C 373.29756 130.00569 373.0639 132.63626 374.125 134.625 C 376.3006 135.32573 375.44034 137.53328 374.3125 138.78125 C 373.78528 141.424 375.99623 144.34131 378.8125 144.28125 C 380.33408 145.34903 382.04919 145.40074 384.03125 145.09375 C 392.72698 144.57988 401.42927 144.04512 410.125 143.53125 C 410.1116 140.56149 408.79491 137.79772 408.875 134.78125 C 407.74048 133.41983 408.29651 132.01279 408.84375 130.53125 C 409.05731 128.63594 410.91608 127.21204 409.875 125.25 C 409.17427 123.28795 409.28944 121.12476 411.03125 119.75 C 410.89778 117.86136 410.67934 116.4041 410.90625 114.46875 C 410.14545 111.66583 412.67427 109.45101 413.375 106.875 C 413.98897 106.12088 415.49001 101.31805 413.875 103.59375 C 412.10649 106.1364 410.53513 108.93605 408.40625 111.125 C 407.83231 112.49976 406.27222 114.15836 404.9375 114.125 C 403.22238 113.28412 405.11748 111.12508 405.53125 109.84375 C 405.84491 107.8817 407.65604 107.01639 408.25 105.28125 C 406.04103 104.42035 406.42012 101.92868 405.90625 100 C 405.91965 97.937852 405.07338 96.608257 403.03125 96.28125 C 401.6031 93.832032 398.33789 94.425515 395.96875 93.53125 C 391.21046 92.283283 386.47852 90.587918 381.5 90.1875 C 379.84494 89.827125 379.59435 86.510708 377.8125 87.03125 C 376.67131 86.003513 375.2522 86.571087 373.9375 87.125 C 372.06889 86.244082 374.39027 84.069578 374.9375 82.875 C 376.02864 82.204302 374.91026 81.714866 374.0625 81.84375 z M 555.625 83.375 C 554.07672 83.808785 552.51703 84.222465 550.96875 84.65625 L 550.9375 84.65625 C 549.13562 85.403695 547.297 85.76059 545.375 85.59375 C 541.99147 86.07425 538.6165 87.412233 536.78125 90.46875 C 534.88594 92.757801 533.49701 95.461587 531.96875 97.9375 C 530.86761 99.512474 528.10106 100.42451 528.28125 102.5 C 528.16779 104.87581 532.11301 103.00163 531.21875 105.4375 C 529.42354 106.97243 531.75392 108.26878 531.59375 109.84375 C 531.92743 112.1595 528.76535 111.1586 528.03125 112.5 C 526.95013 114.30855 525.80144 116.91165 523.21875 116.53125 C 521.18997 116.24428 519.63016 117.92543 517.875 118.3125 C 516.2066 117.81198 514.74117 116.94365 512.8125 117.4375 C 509.2688 117.57764 505.73279 118.73572 502.65625 120.4375 C 502.46272 121.61873 503.0728 124.60466 504.78125 124.53125 C 505.81566 126.18631 506.15898 127.85669 504.34375 129.03125 C 503.33604 130.20581 503.13747 131.86177 501.5625 132.5625 C 500.27449 133.32329 499.78981 134.90637 498.375 135.59375 C 498.59523 137.64255 498.22409 140.44818 501.09375 139 C 515.86914 136.15704 530.61931 133.2206 545.28125 129.84375 C 545.93527 132.41309 549.07988 130.71147 549.59375 132.5 C 550.02086 134.45537 550.50682 137.44078 553.15625 137.09375 C 555.25177 138.36174 557.75195 139.54588 560.28125 139.90625 C 562.0898 140.21991 565.05635 140.88997 564.5625 143.3125 C 564.34227 144.6272 563.47917 148.3378 565.875 147.25 C 569.41202 146.14885 573.20132 145.36362 575.9375 142.6875 C 578.09308 141.02577 580.45904 139.5864 582.1875 137.4375 C 580.19209 135.80914 579.0665 137.75448 577.625 139.0625 C 575.68298 140.10359 573.63344 141.39693 571.53125 141.9375 C 569.79611 141.51706 568.30719 141.35713 567.40625 143.3125 C 566.71887 144.67391 564.16272 145.30759 564.75 143.21875 C 567.59296 141.97079 563.3033 140.55739 564.53125 139.0625 C 565.32541 136.97365 564.90593 134.47899 564.8125 132.25 C 563.85817 127.32487 562.32629 122.4157 563.09375 117.34375 C 563.04035 114.36732 564.15601 111.36086 562.78125 108.53125 C 561.96707 106.8228 562.45166 103.96536 560.0625 103.625 C 558.06709 103.18455 560.57952 100.76131 559.03125 99.5 C 557.89673 97.878311 556.9122 96.216599 558 94.28125 C 558.2536 90.430572 555.43814 87.232351 555.625 83.375 z M 602.90625 84.375 C 602.73272 84.425756 602.53189 84.575521 602.3125 84.875 C 604.15775 88.769891 604.12094 84.019708 602.90625 84.375 z M 447.78125 87 L 446.3125 87.15625 L 445.21875 87.25 L 445 88 L 445.65625 88.34375 L 446.09375 90 L 448.25 90.09375 L 449.125 89.3125 C 449.125 89.3125 449.06397 88.325528 448.84375 88.21875 C 448.63019 88.105298 447.78125 87 447.78125 87 z M 436.90625 93.1875 L 434.96875 94.375 L 433.03125 95.875 L 433.25 98.25 L 433.90625 98.46875 L 435.3125 98.8125 L 435.625 99.34375 L 433.90625 99.875 L 432.15625 100.09375 L 431.1875 101.28125 L 431 102.6875 L 431.1875 103.75 L 431.40625 107.4375 L 429.0625 108.8125 L 428.625 108.71875 L 428.625 105.90625 L 429.46875 104.3125 L 429.90625 102.6875 L 429.375 102.15625 L 428.0625 102.6875 L 427.4375 105.5 L 425.59375 106.25 L 424.40625 107.53125 L 424.28125 108.1875 L 424.71875 108.71875 L 424.28125 110.4375 L 422.78125 110.78125 L 422.78125 111.53125 L 423.3125 113.15625 L 422.5625 117.25 L 421.5 119.9375 L 421.9375 123.0625 L 422.25 123.84375 L 421.71875 125.4375 L 421.5 126 L 421.28125 127.8125 L 423.65625 131.8125 L 425.59375 136.125 L 426.5625 139.375 L 426.03125 142.5 L 425.375 146.46875 L 423.75 149.9375 L 423.53125 151.78125 L 421.375 153.84375 L 424.3125 153.71875 L 438.59375 152.21875 L 443.46875 151.5625 L 443.53125 152.65625 L 448.09375 151.84375 L 454.96875 150.84375 L 455.8125 150.75 C 451.7628 151.38352 447.73933 152.08418 443.71875 152.90625 C 444.68642 164.80531 446.45712 176.62096 447.625 188.5 C 447.16452 191.04932 450.33308 190.02054 451.78125 189.5 C 453.60983 189.77361 455.00371 190.92599 455.4375 192.78125 C 456.27837 194.43631 459.33295 192.2243 460.09375 194.5 C 461.55527 195.52107 463.06613 192.92587 464.78125 194.09375 C 466.463 194.12045 468.52957 195.1113 469.34375 193.0625 C 470.33812 192.69545 472.91081 190.49823 472.9375 192.59375 C 473.1911 194.28218 475.51114 194.96463 476.8125 195.71875 C 479.16829 196.13919 478.36369 193.13028 479.625 192.0625 C 479.5516 190.23393 479.74376 188.22666 480.53125 186.625 C 482.21967 184.74971 483.08751 189.63788 483.875 186.875 C 482.52693 185.36009 483.21867 183.27222 484.5 181.9375 C 485.21408 179.22801 487.17746 180.32137 488.8125 179 C 490.76787 176.89113 493.22626 174.6366 492.8125 171.5 C 493.10614 168.35673 493.57868 164.98978 492.4375 162 C 493.41852 160.34494 494.17488 159.12253 493.09375 157.09375 C 491.73233 152.06851 491.38304 146.83742 490.46875 141.71875 C 489.26083 142.51959 488.05168 143.33084 486.84375 144.125 C 483.60705 145.49977 481.91701 148.73245 479.1875 150.78125 C 476.46467 151.35518 473.79752 151.95352 471.375 153.375 C 469.0993 154.44945 468.43894 150.6194 466.25 151.59375 C 464.16115 152.49469 462.59224 150.87424 460.84375 150 C 459.74217 150.1473 458.63042 150.30515 457.53125 150.46875 L 457.625 150.15625 L 457.75 149.1875 L 459.15625 146.6875 L 460.46875 145.53125 L 460.34375 142.15625 L 461.40625 141.09375 L 462.125 140.875 L 462.28125 138.5 L 463.28125 136.46875 L 464 136.875 L 464.125 137.3125 L 464.65625 137.40625 L 465.9375 136.78125 L 465.71875 130.40625 L 463.5625 124.90625 L 462.0625 118.875 L 460.4375 116.71875 L 458.71875 115.53125 L 457.625 116.28125 L 455.0625 117.46875 L 453.75 120.8125 L 451.90625 123.28125 L 451.15625 123.71875 L 450.1875 123.28125 C 450.1875 123.28125 448.44905 122.30211 448.5625 121.875 C 448.66928 121.44121 448.90625 118.53125 448.90625 118.53125 L 451.15625 117.6875 L 451.6875 115.40625 L 452.125 113.6875 L 453.75 112.59375 L 453.53125 105.90625 L 452.46875 104.40625 L 451.59375 103.875 L 451.0625 102.46875 L 451.59375 101.9375 L 452.65625 102.15625 L 452.78125 101.0625 L 451.15625 99.5625 L 450.28125 97.84375 L 448.5625 97.84375 L 445.5625 96.84375 L 441.875 94.59375 L 440.03125 94.59375 L 439.625 95.03125 L 438.96875 94.6875 L 436.90625 93.1875 z M 242.03125 95.34375 C 240.86336 109.29829 239.69913 123.23296 238.53125 137.1875 C 255.6691 138.24193 272.82422 139.29048 289.96875 140.03125 C 292.3579 140.02425 294.87176 139.68814 297.1875 139.875 C 298.38875 141.81035 300.67747 142.47142 302.3125 143.90625 C 304.68164 142.93857 307.32324 142.63834 309.8125 142.625 C 311.44754 144.40685 314.67618 144.15872 315.9375 146.1875 C 316.81841 149.36414 318.12465 147.41501 316.0625 145.40625 C 315.04144 143.95807 317.02702 142.34499 317.09375 140.75 C 317.89459 138.83467 318.00664 137.23102 316.03125 136.25 C 315.69757 134.88858 315.56074 131.80319 317.65625 132.34375 C 319.40474 132.15689 317.89662 128.82529 318.34375 127.34375 C 318.13019 120.87034 318.49141 114.35297 317.9375 107.90625 C 317.77733 105.51709 313.75191 105.09084 314.3125 102.28125 C 315.03992 101.46707 318.19838 99.368209 316.15625 98.6875 C 297.98399 98.093548 279.75722 98.021904 261.625 96.59375 C 255.09153 96.179986 248.56472 95.757514 242.03125 95.34375 z M 169.5625 99.125 C 166.46594 118.58527 163.37781 138.03973 160.28125 157.5 C 185.24058 160.49645 209.85317 163.00355 234.8125 166 C 236.48091 146.51304 238.48784 127.51154 240.15625 108.03125 C 216.62507 105.06149 193.09368 102.08809 169.5625 99.125 z M 587.53125 107.65625 C 586.9106 107.92987 586.30815 108.21971 585.6875 108.5 L 585.65625 108.5 C 584.96219 110.56882 582.98027 110.82957 581.125 111.25 C 575.37234 112.79828 569.67861 114.32936 563.8125 115.34375 C 563.7391 118.52706 563.02043 121.7563 563.78125 124.90625 C 570.89532 123.17111 578.17565 122.03969 585.15625 119.9375 C 587.53874 121.81279 589.17259 124.42398 590.6875 127 C 592.10898 126.47945 590.67854 123.55974 593.1875 123.40625 C 595.14287 121.2173 594.41824 126.59775 595.3125 125.15625 C 596.73398 123.0941 599.38478 122.56175 601.59375 121.6875 C 601.52035 119.4118 600.12665 115.97554 597.34375 116.65625 C 598.43822 116.58955 600.5804 117.21878 600.59375 119.1875 C 601.161 120.68239 598.88875 121.67755 597.6875 122.03125 C 595.43849 122.37161 594.3876 120.8398 593.5 119.03125 C 592.57904 117.66315 591.09648 114.68086 589.28125 116.65625 C 588.01994 115.50839 587.205 113.94574 588.40625 112.4375 C 589.94119 110.87588 589.20633 108.29692 587.53125 107.65625 z M 24.28125 112.125 C 23.980938 113.04596 23.69989 113.95405 23.40625 114.875 C 23.33951 117.57114 23.657495 120.32504 22.0625 122.6875 C 20.821207 125.14339 20.372732 128.19684 17.75 129.625 C 16.95584 131.03313 15.410487 131.8887 15.34375 133.9375 C 14.049068 136.26659 17.000958 137.71518 17.28125 139.9375 C 18.308988 142.19985 18.848827 144.55534 18.375 147.03125 C 18.375 148.97995 16.507951 150.3799 16.875 152.46875 C 16.90837 154.45081 15.384669 156.37439 16.90625 158.15625 C 18.628044 161.49306 21.154771 164.781 21.375 168.625 C 21.014625 170.4736 20.725137 172.23625 22.59375 173.4375 C 23.661529 174.73885 25.603266 175.85013 24.46875 177.71875 C 23.314214 180.30144 23.685382 183.09422 23.71875 185.84375 C 24.839918 187.6256 25.631504 190.37224 28.1875 190.21875 C 29.175195 191.7737 28.825411 193.44049 28.03125 194.96875 C 26.362846 195.98981 25.126597 196.79559 25.59375 199.03125 C 25.773938 201.36034 28.439937 202.58203 28.5 205.03125 C 29.474348 209.16889 31.253428 212.97421 33.5625 216.53125 C 34.036327 218.24637 35.006153 219.43106 35.5 220.8125 C 35.339833 223.03482 34.195334 225.15057 33.875 227.40625 C 32.76718 229.14807 34.693887 231.1107 36.5625 230.84375 C 39.251968 230.94386 41.410317 233.04407 43.90625 233.53125 C 45.908335 233.1642 47.049909 235.46263 47.9375 236.9375 C 48.965237 238.74605 49.518894 240.94398 51.78125 241.53125 C 53.456329 242.29205 55.939735 241.57475 56.59375 243.84375 C 58.202092 245.65898 54.995275 247.20117 57.53125 247.28125 C 59.353148 248.52922 61.227777 246.11388 62.5625 246.78125 C 63.983981 248.15601 65.256472 249.59802 65.84375 251.5 C 68.713406 254.77007 66.817811 259.35017 67.71875 263.1875 C 77.54899 264.48218 87.353023 266.34079 97.25 266.78125 C 99.105265 267.57541 101.39191 263.80307 99.15625 263.65625 C 97.067408 264.08336 97.268978 260.98962 98.25 260.5625 C 100.35219 259.97523 101.52394 258.01723 101.34375 255.875 C 101.65741 253.2189 103.52017 250.89734 106.15625 250.25 C 108.4453 248.88858 105.96324 247.88112 105.65625 246.40625 C 105.50276 243.97038 104.33324 241.83673 103.21875 239.78125 C 104.56682 237.33871 101.75232 237.57369 101.125 235.625 C 86.042618 212.86796 70.964051 190.13204 55.875 167.375 C 60.059358 152.3994 64.221891 137.40642 68.40625 122.4375 C 53.697595 118.99391 38.996579 115.56859 24.28125 112.125 z M 584.65625 120.78125 C 583.53508 121.10826 582.40242 121.42299 581.28125 121.75 C 582.04872 124.85991 582.79503 127.98385 583.5625 131.09375 C 585.27094 130.76675 586.68126 129.54617 587.46875 128.03125 C 590.25165 128.53845 590.13048 126.2737 588.46875 124.71875 C 587.27417 123.42406 586.37804 121.18834 584.65625 120.78125 z M 580.625 121.96875 C 579.67734 122.15562 578.7289 122.31314 577.78125 122.5 C 573.16978 123.52774 568.58022 124.55934 563.96875 125.59375 C 565.41692 129.7314 565.79396 134.15548 565.59375 138.5 C 563.84526 141.36966 567.34238 140.10346 568.25 138.375 C 569.64478 137.11368 571.04875 135.88567 572.25 134.4375 C 573.62477 135.33844 575.41231 133.2018 577.1875 133.46875 C 579.17623 133.01494 580.99092 131.99321 582.90625 131.3125 C 582.13879 128.19592 581.39246 125.08533 580.625 121.96875 z M 69.1875 122.59375 C 65.003142 137.47592 60.809359 152.36116 56.625 167.25 C 71.942829 190.34016 87.275922 213.44109 102.59375 236.53125 C 105.0363 238.29976 104.72786 234.21364 104.78125 232.71875 C 105.02817 229.09497 105.0195 225.22028 105.5 221.75 C 106.86809 220.39526 108.3479 220.42555 109.5625 221.5 C 111.31098 221.39322 112.11432 225.43363 113.5625 222.34375 C 115.39107 221.79651 115.34259 219.91109 115.65625 218.0625 C 120.66146 190.78742 125.67561 163.49383 130.6875 136.21875 C 110.18614 131.67402 89.688856 127.13849 69.1875 122.59375 z M 602.8125 126.8125 C 602.73741 126.80151 602.55913 126.89097 602.1875 127.15625 L 602.125 127.375 C 601.25743 128.87156 603.1379 126.86011 602.8125 126.8125 z M 595.78125 126.875 C 595.38751 127.32881 594.98749 127.76494 594.59375 128.21875 C 595.65485 128.73929 598.65758 126.72151 595.78125 126.875 z M 543.84375 130.6875 C 543.42144 130.70418 542.94348 130.84547 542.40625 131.1875 C 539.30969 131.90157 536.22156 132.62967 533.125 133.34375 C 521.45634 135.59825 509.86049 138.28048 498.125 140.1875 C 497.71791 138.85277 498.45992 134.56964 496.53125 137.3125 C 495.0764 139.1344 492.86682 139.82428 491.125 141.3125 C 492.13939 147.81928 492.87471 154.36091 494.75 160.6875 C 495.51079 164.75173 496.27046 168.81076 497.03125 172.875 C 502.93741 171.92734 508.89935 171.379 514.71875 169.9375 C 525.65681 167.6351 536.747 165.61945 547.625 163.34375 C 549.28005 161.29495 552.99768 162.22188 553.625 159.21875 C 554.05211 157.64378 556.8537 156.55592 556.5 155.28125 C 554.96507 154.01994 552.55031 153.42983 552.25 151.1875 C 550.15448 151.91492 549.28868 148.57721 550.15625 147.65625 C 552.73226 146.92215 549.83719 145.17784 550.53125 143.65625 C 552.213 142.40161 551.27841 140.21883 552.40625 138.9375 C 554.98894 137.13562 550.43134 138.20993 549.9375 136.28125 C 549.03656 134.8264 549.74562 131.46283 547.15625 132.34375 C 545.98504 131.77816 545.11069 130.63745 543.84375 130.6875 z M 371.8125 132.125 C 371.68396 132.13288 371.53517 132.17579 371.375 132.21875 C 353.52307 132.49236 335.69568 132.75763 317.84375 133.03125 C 315.56137 132.99785 316.39049 136.81166 318.3125 137.21875 C 318.67287 138.60019 317.81546 140.59674 317.375 142.125 C 315.95352 144.00696 316.7478 145.75786 318.0625 147.40625 C 318.87668 150.3026 319.57332 153.31541 320.78125 156.125 C 321.18167 158.27391 321.61645 160.37651 323.03125 162.125 C 323.04465 164.45409 323.87512 166.60109 324.5625 168.75 C 324.5358 171.11246 324.60063 173.43997 325.96875 175.46875 C 340.78418 174.78804 355.60872 174.30602 370.4375 173.71875 C 370.95137 174.67307 372.62755 178.47116 373.375 176.5625 C 372.73433 174.8941 374.16168 173.53972 375.75 173.40625 C 375.16272 171.65776 376.53201 170.34659 377.40625 169.21875 C 378.2538 167.27006 376.49321 166.52826 375.8125 165 C 376.27298 163.06465 377.02101 161.48178 379.25 161.375 C 381.172 160.82109 383.63411 160.1525 383.6875 157.75 C 384.86205 155.72122 386.16278 152.41693 383.5 150.96875 C 381.67143 150.26135 382.34032 147.4445 380.03125 147.53125 C 379.60413 146.21655 379.44774 144.3517 377.21875 144.71875 C 375.3835 144.18486 374.20348 142.40717 373.65625 140.71875 C 372.74863 138.79007 374.99025 137.58345 374.75 135.875 C 372.36001 135.62474 373.74058 132.00683 371.8125 132.125 z M 131.3125 136.4375 C 126.77628 161.23326 122.23038 186.04799 117.6875 210.84375 C 136.08666 213.45981 154.47583 216.07144 172.875 218.6875 C 175.57114 199.28061 178.26593 179.87563 180.96875 160.46875 C 173.74122 159.70795 166.53335 158.90337 159.3125 158.0625 C 160.26683 152.77032 161.19429 147.48847 161.875 142.15625 C 151.68438 140.25427 141.50312 138.33948 131.3125 136.4375 z M 238.5 137.8125 C 237.3855 147.20896 236.59331 156.60355 235.8125 166 L 235.84375 166 C 243.02456 166.64067 250.03793 167.84143 257.21875 168.46875 C 256.97182 173.21369 256.73358 177.94256 256.5 182.6875 C 280.85204 183.5484 305.2038 183.92575 329.5625 184.40625 C 329.35562 183.62544 327.47562 181.71396 326.875 180.3125 C 325.54695 178.90437 326.64479 176.88112 325.25 175.40625 C 323.63498 173.27737 324.14163 170.65462 323.78125 168.21875 C 322.67343 166.31009 322.81058 164.04001 322.25 162.03125 C 320.28795 160.12927 320.69945 157.35367 319.625 155.03125 C 318.87088 152.96243 318.16864 150.87644 317.875 148.6875 C 315.53256 149.56841 315.93303 146.65794 314.625 145.84375 C 313.02333 144.72259 310.90358 144.60686 309.46875 143.21875 C 306.93945 143.26545 304.38492 143.89938 302.0625 144.5 C 300.38075 143.03181 298.03589 142.42412 296.78125 140.46875 C 287.69846 141.10942 278.60737 140.13251 269.53125 139.71875 C 259.18714 139.01802 248.83743 138.52658 238.5 137.8125 z M 553.78125 138.3125 C 553.34079 138.81302 552.9092 139.31198 552.46875 139.8125 C 553.15613 141.80791 551.25392 143.03065 551.09375 144.8125 C 553.00241 145.9003 551.40973 148.05107 550.46875 148.625 C 550.19513 151.20101 553.1499 149.75342 553.25 152.0625 C 554.16429 153.52402 556.40976 154.06242 557.4375 155.34375 C 557.33739 157.08557 554.87308 157.6978 554.3125 159.40625 C 554.13899 161.45505 551.56006 161.52641 551.5 163.375 C 550.83931 164.96332 551.02789 166.76655 552.65625 167.6875 C 554.55823 169.52942 557.22981 170.36473 559.8125 170.625 C 560.13283 171.65941 558.56921 175.39583 560.53125 173 C 561.5323 171.38498 560.94325 169.03102 562.625 167.65625 C 564.2934 164.93341 565.97511 161.77706 565.875 158.59375 C 564.97407 155.87758 566.39806 152.5739 564.65625 150.03125 C 563.92215 150.91216 560.54483 150.85474 561.90625 149.5 C 563.50124 148.57236 564.15402 147.07646 563.5 145.28125 C 563.64015 143.73965 564.55727 141.67012 562.375 141.15625 C 559.47197 140.38879 556.49074 139.73398 553.78125 138.3125 z M 409.78125 144.21875 C 399.93099 144.77266 390.10026 145.32109 380.25 145.875 L 380.21875 145.90625 C 380.02521 147.62805 383.03241 147.119 382.71875 149.28125 C 384.10019 150.67603 386.54384 152.09294 385.65625 154.46875 C 385.44937 156.49753 383.90741 158.08711 383.59375 160.0625 C 382.00543 161.87105 379.54393 162.04684 377.375 162.6875 C 376.30055 164.33589 376.6638 165.95891 378.21875 167 C 378.63919 169.16892 377.51407 170.39589 376.40625 171.9375 C 377.34723 174.36002 374.81207 173.83975 374.03125 175.28125 C 374.752 177.36342 372.62404 177.82345 372.34375 179.71875 C 372.47055 182.35483 373.2299 185.1885 374.53125 187.4375 C 376.98715 190.08026 379.46414 192.72238 382.6875 194.4375 C 382.28041 196.35951 382.25259 198.91069 384.96875 198.25 C 386.33685 198.25 389.07161 198.49632 389.125 200.03125 C 388.9982 202.96097 386.72395 205.54327 386.9375 208.40625 C 388.00528 210.96225 390.5119 212.58975 392.6875 214.03125 C 394.93651 213.83771 396.26462 214.87144 396.625 217.09375 C 397.29903 218.85559 399.18938 220.25671 397.78125 222.21875 C 398.1483 223.37996 399.50171 227.34212 400.65625 224.90625 C 401.46376 222.91751 404.25607 221.73298 406.03125 223.28125 C 408.10007 224.92297 410.00029 223.58853 408.125 221.40625 C 407.47099 219.1439 409.87683 218.09068 411.71875 217.84375 C 412.39278 216.80934 410.65417 214.85147 412.65625 213.84375 C 413.8575 211.19433 412.25439 207.60008 414.84375 205.53125 C 415.79808 203.54919 417.00043 201.53333 417.78125 199.53125 C 417.86795 197.52916 417.31322 195.73546 416.21875 194.09375 C 415.91844 191.03055 417.11084 188.01192 416.25 184.96875 C 415.47586 174.95832 414.78017 164.92123 413.8125 154.9375 C 413.13179 152.86868 412.71544 150.63535 411.09375 149.09375 C 409.57884 147.87247 410.7556 145.14638 409.78125 144.21875 z M 442.90625 152.1875 C 441.78508 152.29428 440.68367 152.39322 439.5625 152.5 L 439.5625 152.46875 C 433.47616 153.0894 427.32755 153.8141 421.28125 154.28125 C 419.54611 154.54153 418.47603 157.65146 416.6875 156.25 C 414.1315 154.35469 414.909 157.47026 415.0625 159.21875 C 415.79659 169.10238 416.90117 178.99137 417.375 188.875 C 416.86781 191.33756 416.44601 194.14082 418.28125 196.15625 C 418.34795 198.15167 419.1951 200.35586 417.5 201.9375 C 416.27873 203.7594 415.80464 205.9763 414.15625 207.53125 C 414.21635 208.91936 412.81413 213.02878 415.25 211 C 417.5791 210.59958 420.07928 209.96695 422.375 210.09375 C 423.94998 212.81659 424.14653 209.66588 425.875 209.21875 C 427.22974 207.47026 429.09503 210.61154 429.46875 209.9375 C 428.62787 207.6618 431.47566 207.40518 432.84375 206.4375 C 433.57118 206.85794 436.90677 208.71405 436.40625 206.03125 C 436.09926 204.38287 437.75595 202.86905 438.84375 201.78125 C 440.91925 200.85361 441.7072 199.19107 441.59375 196.96875 C 442.81502 196.30139 444.88858 196.28685 446.25 195.3125 C 449.07294 194.62511 446.42183 193.00336 447.0625 191.375 C 446.50859 182.99293 445.19798 174.60081 444.34375 166.21875 C 443.7765 161.55389 443.3734 156.86571 442.90625 152.1875 z M 181.53125 160.65625 C 178.84178 179.99639 176.31446 198.69111 173.625 218.03125 C 200.24606 220.76076 226.69811 223.53288 253.3125 225.96875 C 254.38695 206.97564 255.4568 187.99312 256.53125 169 C 231.5252 166.2171 206.5373 163.43915 181.53125 160.65625 z M 494.0625 160.75 L 493.8125 161 L 493.6875 161.125 C 492.61972 162.61321 494.54448 164.45935 493.84375 166.28125 C 493.72363 168.97739 493.42139 171.69221 493.28125 174.375 C 491.98657 176.76416 490.333 179.28085 487.84375 180.46875 C 485.74156 179.58116 485.22795 182.65796 484 183.8125 C 482.95892 185.33408 485.77455 187.07544 483.8125 188.25 C 482.09738 190.63915 482.05379 185.05174 480.8125 187.78125 C 479.93158 189.50972 480.82059 191.80215 479.90625 193.34375 C 478.69165 194.37149 479.57878 196.8161 477.15625 196.5625 C 475.66804 196.6493 476.17746 200.67998 477.8125 201.09375 C 479.30739 202.07477 479.45999 204.27501 481.46875 205.0625 C 482.75008 206.37053 483.01825 208.51314 485.09375 209.09375 C 486.18822 210.55527 487.12779 212.39713 489.25 212.34375 C 491.00516 212.67743 492.42746 209.76242 494.0625 211.4375 C 495.05687 211.97806 496.69121 211.05963 497.125 210.21875 C 497.41196 207.16891 499.41444 208.43366 501.15625 207.3125 C 502.75124 206.68518 504.37236 206.65282 504.90625 204.34375 C 504.06538 202.61528 505.09662 201.01183 505.9375 199.25 C 507.42572 196.03998 509.09587 192.81795 509.0625 189.1875 C 510.83101 187.64589 511.52768 191.55983 513.75 190.125 C 514.84447 188.94377 514.5123 186.34384 515.5 185.0625 C 517.81575 185.32277 517.48181 182.42795 519.34375 181.59375 C 520.87201 179.51825 521.68199 177.04021 521.375 174.4375 C 522.0824 173.5766 524.79727 175.5213 526.21875 175.875 C 528.42104 178.11067 529.11937 174.56894 528.125 173.1875 C 526.79027 171.66591 524.69966 170.70073 523.03125 170 C 520.82228 170.65401 519.3794 173.65729 516.75 172.65625 C 515.5087 172.50275 515.18631 175.31674 513.53125 175.25 C 511.60257 175.72383 510.99489 178.17831 509.5 179.40625 C 508.7659 179.36625 508.82669 176.18335 508.40625 174.96875 C 508.39925 172.34602 507.22591 171.41855 504.75 172.40625 C 501.9404 172.80666 499.14667 173.23369 496.34375 173.6875 C 495.56294 169.38301 494.82997 165.06115 494.0625 160.75 z M 550.71875 162.4375 L 550.5 162.5 C 548.01742 162.66684 548.17767 164.85194 549.21875 166.59375 C 551.45442 171.19187 551.80182 176.33123 553.25 181.15625 C 555.55239 181.22965 557.79559 180.8197 560.03125 180.3125 C 559.23042 178.86433 559.57434 176.0625 557.8125 176.0625 C 555.87715 175.26167 555.01842 173.61618 554.53125 171.6875 C 553.92395 169.61201 552.1163 168.37625 550.875 166.78125 C 549.64039 165.56665 551.51958 163.08484 550.71875 162.4375 z M 546.65625 164.25 C 546.01316 164.23815 545.24713 164.42717 544.40625 164.75 C 543.91908 164.85678 543.42468 164.95572 542.9375 165.0625 L 542.96875 165.09375 C 531.41672 167.21596 519.91825 169.6351 508.40625 171.9375 C 508.9001 173.95293 509.28009 176.00703 509.59375 178.0625 C 511.0219 176.79451 511.79771 174.49332 514 174.5 C 515.42816 173.26538 515.77493 170.99049 517.84375 172.125 C 520.15282 172.24513 521.45459 168.56146 523.84375 169.5625 C 525.59891 170.6503 527.62883 171.41264 528.75 173.28125 C 531.54624 173.35465 531.21899 175.77289 532.59375 176.59375 C 534.41565 177.33452 535.93614 177.39118 536.84375 176.25 C 539.70673 177.17096 538.34639 178.73489 537.8125 180.84375 C 537.8726 182.82582 535.32608 184.12079 536.6875 186.15625 C 538.75632 187.03049 540.96942 186.96028 543.125 187.09375 C 544.57317 188.14818 547.68503 187.77635 545.65625 185.6875 C 545.92987 183.85893 543.59766 183.45145 543.4375 181.65625 C 542.30298 179.87439 542.48009 178.02698 543.1875 176.125 C 544.30866 174.50998 541.31581 173.56111 542.9375 172.5 C 543.7717 171.47894 543.20448 169.73537 544.90625 169.375 C 545.98738 167.35957 548.30399 168.38286 546.46875 170.03125 C 544.77365 172.01999 545.95404 173.04875 546.875 174.25 C 547.76833 176.49916 546.5479 177.52879 545.9375 178.90625 C 546.38078 178.57183 548.22857 178.7125 548 180.3125 C 545.89781 181.40697 547.02365 184.39333 548.71875 185.1875 C 550.70749 185.84818 552.44069 183.99559 553.375 186.625 C 554.37604 189.12761 556.65077 187.17886 558.3125 186.625 C 560.14107 185.81749 560.64798 183.31734 560.1875 181.46875 C 559.43339 180.41431 556.94786 182.09703 555.40625 181.75 C 552.83024 182.59088 552.15985 180.91861 551.90625 178.65625 C 550.78509 174.6721 550.45293 170.4047 548.4375 166.6875 C 548.42081 164.88562 547.72807 164.26975 546.65625 164.25 z M 529.125 174.21875 C 529.01822 175.1931 529.29308 178.16153 527.53125 177.09375 C 525.80945 176.64662 523.23917 174.93634 522.03125 175.25 C 522.4984 177.73259 521.08356 179.79071 520.0625 181.90625 C 518.02704 182.66704 518.52539 185.79184 516.15625 185.625 C 515.07513 186.78621 515.18526 189.16623 514.53125 190.78125 C 512.4691 191.54204 510.93091 190.4413 509.65625 189.59375 C 509.72965 193.93161 507.18027 197.56924 505.71875 201.5 C 504.5909 202.65453 506.50676 204.06029 505.21875 205.375 C 504.31781 207.7508 502.69542 207.17523 501.09375 208.15625 C 499.27852 208.89035 497.83368 208.50714 497.5 211.25 C 496.11856 212.01079 494.26312 213.004 492.875 211.5625 C 491.28668 212.57022 489.51819 213.69945 487.65625 212.625 C 485.86104 212.618 485.07318 208.24707 483.625 210.65625 C 481.44273 213.38576 478.32953 215.64221 476.78125 218.71875 C 477.06821 220.88768 473.80803 220.93498 472.5 222.15625 C 469.65037 223.45761 474.94101 222.0983 475.96875 222.125 C 479.67928 221.59778 483.40567 221.21207 487.15625 221.21875 C 488.4576 219.45024 490.45056 219.98697 492.3125 220.09375 C 497.55796 219.88019 502.77456 218.67435 508 218.09375 C 516.5756 217.15944 524.96624 215.26151 533.375 213.40625 C 541.14976 211.7245 548.93731 210.05675 556.71875 208.375 C 555.62427 206.59981 554.88672 203.90532 552.4375 205.59375 C 551.10945 206.94849 548.01561 204.37796 550.625 203.9375 C 552.39351 202.85637 549.47086 201.23674 549.4375 199.96875 C 547.6156 199.55499 547.49887 196.54811 549.78125 197.5625 C 549.6678 196.64821 548.97235 195.15602 548.71875 193.78125 C 549.69978 191.43881 548.14075 190.4393 546.21875 190.3125 C 546.42563 188.03013 544.29828 188.38155 542.75 187.6875 C 540.52769 187.82764 538.02699 187.50348 536.125 186.5625 C 535.31082 184.95416 535.52724 183.1433 536.96875 181.96875 C 537.89638 180.08011 536.76544 178.16165 534.75 177.78125 C 532.98149 177.22734 530.10997 177.61362 530.9375 174.9375 C 530.38359 174.73729 529.55211 174.21875 529.125 174.21875 z M 369.09375 174.4375 C 368.9802 174.44789 368.87888 174.49454 368.75 174.53125 C 354.94228 175.04511 341.11354 175.54863 327.3125 176.0625 C 325.71751 175.75552 327.17025 178.74684 327.34375 179.78125 C 328.97878 181.99689 330.36636 185.02989 333.0625 185.9375 C 334.93779 185.77733 335.45349 187.70807 334.90625 189.15625 C 332.75734 190.25072 333.75659 192.51358 335.03125 193.875 C 335.63187 195.57677 338.12564 195.91655 338.3125 197.625 C 339.71396 206.28068 339.05223 215.08341 339.3125 223.8125 C 339.3125 227.62981 339.35415 231.45271 339.78125 235.25 C 356.45863 234.62268 373.13513 234.03633 389.8125 233.5625 C 391.82793 232.81505 392.73434 234.71051 393.375 236.21875 C 393.72203 238.54117 391.44798 239.21083 390.59375 240.8125 C 392.1754 241.23961 394.33191 241.23719 396.09375 240.75 C 397.06809 238.35417 397.34714 235.76596 397.6875 233.25 C 398.24808 231.36137 401.19046 231.31427 400.75 229.21875 C 401.66429 227.25671 400.85619 226.16145 399.28125 226.375 C 397.84642 225.16708 397.38834 223.02762 397.375 221.3125 C 398.34267 219.41719 395.959 217.91321 395.71875 216.03125 C 395.2783 213.86899 392.15941 215.45569 391.125 213.59375 C 389.36317 212.03213 386.97838 210.95558 386.53125 208.40625 C 385.90393 206.26402 387.53496 204.11553 387.96875 202 C 389.43694 199.64421 387.08916 198.83528 385.09375 198.96875 C 383.31857 199.22902 381.5213 198.21872 381.875 196.25 C 382.44893 193.53384 378.74161 193.547 377.59375 191.625 C 375.79187 189.35597 373.1037 187.58321 372.75 184.5 C 372.0159 182.39113 371.31146 179.9168 372.3125 177.78125 C 370.8735 176.94287 370.79706 174.28167 369.09375 174.4375 z M 536.5625 177.25 L 536.34375 177.5 L 536.1875 177.75 C 537.96935 180.03905 538.76479 177.06981 536.5625 177.25 z M 545.90625 178.9375 C 545.85075 178.98923 545.8254 179.05743 545.84375 179.125 C 545.86752 179.06235 545.8798 178.99859 545.90625 178.9375 z M 256.5 183.4375 L 253.9375 225.90625 C 270.66159 226.68706 287.38756 227.72914 304.125 228.15625 C 315.61697 228.20295 327.10178 228.58156 338.59375 228.28125 C 338.42691 219.81242 338.7484 211.29255 338.28125 202.84375 C 337.87416 200.95511 338.18251 198.67964 337.375 197.03125 C 335.34622 195.67651 333.34671 193.54541 332.90625 191.15625 C 332.61929 189.48117 335.79001 188.11809 333.78125 186.75 C 331.76582 187.11037 331.08217 184.5177 329 185.125 C 304.83482 184.57776 280.6585 184.21832 256.5 183.4375 z M 550.46875 186.8125 C 550.40694 186.8075 550.32091 186.82873 550.25 186.84375 C 551.13092 187.50444 550.64398 190.13316 551.625 189.90625 C 551.32469 189.08665 551.39593 186.88755 550.46875 186.8125 z M 558.71875 187.25 C 557.5732 187.70689 556.4268 188.17463 555.28125 188.625 C 555.57488 191.76828 553.17755 194.43501 553.53125 197.625 C 553.30434 200.36786 555.28316 201.45334 555.84375 198.25 C 556.98494 196.22122 555.68761 193.9256 556.375 191.75 C 556.64194 190.06158 558.81218 189.15198 558.71875 187.25 z M 451.875 190.25 C 451.42733 190.26577 450.97344 190.51861 450.46875 190.65625 C 448.62683 190.14238 446.47026 191.37439 448.21875 193.15625 C 449.23314 195.25844 446.13144 195.92004 444.75 196.6875 C 442.78796 197.0412 441.60138 197.55046 441.875 199.90625 C 441.10753 201.68143 438.33696 202.06953 437.65625 204.125 C 436.21475 205.05931 438.17041 208.2627 435.78125 208.0625 C 433.73912 208.46959 432.85314 206.22091 431.03125 208.15625 C 429.52301 208.4966 430.304 212.80811 428.46875 210.21875 C 426.95384 208.52365 424.7375 210.31187 424.34375 212.09375 C 423.06909 212.80783 422.09224 209.5979 420.34375 210.8125 C 418.12811 211.21959 415.34711 211.12163 413.71875 212.75 C 413.77215 214.5185 411.46591 215.26633 412.59375 216.78125 C 414.15538 218.55643 411.0878 218.58623 410 219 C 407.61752 219.90094 409.55339 221.8871 409.5 223.46875 C 409.72023 225.77115 406.99829 224.44925 405.84375 223.96875 C 404.17535 222.44049 401.64311 223.71422 401.0625 225.65625 C 402.97116 227.17783 401.04343 228.81465 401.34375 230.75 C 399.028 232.11142 399.21255 232.59735 401.96875 232.34375 C 405.86614 232.35075 409.74551 231.6857 413.65625 231.8125 C 413.1891 229.31657 414.29835 228.49736 416.6875 229.03125 C 432.92442 227.02249 449.28766 225.8844 465.53125 224.0625 C 468.4009 223.59535 471.00586 222.48091 473.375 220.8125 C 475.57729 220.27861 476.0605 219.01183 476.78125 217.25 C 479.09032 214.52049 481.52621 211.84815 483.96875 209.21875 C 481.78648 208.39122 481.96596 205.55475 479.84375 204.59375 C 478.10861 203.75955 478.4684 201.4984 476.40625 201.03125 C 474.81793 199.26942 476.92432 196.15486 474.375 195.09375 C 472.35956 195.08675 472.81195 191.98921 471.34375 192.75 C 469.37504 193.15709 468.89192 195.93187 466.65625 194.9375 C 464.86105 194.78401 462.97911 194.16951 461.4375 195.4375 C 459.43542 195.99141 458.77115 193.02809 456.46875 194.0625 C 454.12631 194.60974 455.00992 190.57797 452.6875 190.53125 C 452.3972 190.30351 452.1436 190.24054 451.875 190.25 z M 557.03125 208.9375 C 556.00351 209.17108 554.97191 209.42268 553.9375 209.65625 C 541.72478 212.19222 529.57649 214.97037 517.34375 217.40625 C 508.84156 218.41396 500.38598 220.13815 491.84375 220.71875 C 489.62811 220.17152 491.07509 223.19833 490.1875 224.40625 C 488.43901 225.30052 487.87149 227.46167 486.84375 228.65625 C 484.6815 227.74864 483.4413 229.63742 482.59375 231.3125 C 481.86633 230.9321 480.61281 231.33598 480.3125 230.375 C 478.96443 231.68303 477.39746 232.85078 477.4375 234.90625 C 474.99496 235.64035 473.23207 237.47809 471.25 238.90625 C 469.48817 239.53357 467.40697 240.35098 466.3125 241.8125 C 466.79967 244.52199 464.32106 244.0157 462.90625 245.34375 C 461.58487 248.47367 464.72969 247.10678 466.625 247 C 470.90279 246.20584 475.52676 246.66225 479.4375 244.5 C 482.801 243.23201 485.7294 240.56526 489.5 240.71875 C 493.83785 240.29164 498.27592 240.31006 502.59375 240.25 C 504.58916 240.6037 504.83095 243.44693 506.3125 243.59375 C 509.89623 243.05319 513.56584 242.48633 517.15625 242.40625 C 520.74665 243.31386 523.567 246.06369 526.84375 247.71875 C 529.23958 249.48058 531.47674 251.48848 533.8125 253.34375 C 535.91469 252.76982 538.00522 252.28093 540.1875 252.1875 C 540.8949 249.151 541.57683 245.98535 543.8125 243.65625 C 546.61542 240.80662 549.96035 238.13611 554.03125 237.46875 C 555.97328 238.77011 556.50807 235.5253 557.5625 234.4375 C 559.37772 231.10069 555.9196 237.04857 555.90625 233.625 C 553.32356 234.09215 552.29059 233.46469 553.71875 230.96875 C 555.56734 228.13247 551.87416 229.27994 552.28125 226.9375 C 551.3336 224.42821 554.20596 228.38971 555.6875 227.46875 C 557.56279 227.54885 559.07924 226.22815 559.40625 224.40625 C 559.70656 222.4709 562.468 222.61638 561.59375 220.09375 C 558.91096 218.47206 564.41309 219.65102 561.84375 217.46875 C 559.49463 215.17302 558.3593 211.89391 557.03125 208.9375 z M 117.59375 211.5 C 116.92638 215.04369 116.26111 218.58131 115.59375 222.125 C 113.93202 222.085 113.53481 225.08812 111.3125 224.09375 C 110.81865 222.17842 108.92847 222.18431 107.59375 221.25 C 105.09781 221.74385 106.01938 224.33012 105.8125 226.21875 C 105.46547 229.58225 105.53241 233.03152 105.21875 236.375 C 103.75723 237.92995 103.5943 240.23541 105.0625 241.84375 C 106.61078 243.59224 105.43881 246.85849 107.78125 247.90625 C 108.43526 250.30208 105.838 251.12788 104.15625 251.96875 C 101.96063 253.61046 101.99416 256.52833 101.59375 258.9375 C 100.75954 260.56587 98.35466 260.55946 98.28125 262.28125 C 98.59491 263.7361 102.40442 262.53628 100.5625 265.3125 C 100.12872 267.14775 98.467558 267.59227 96.8125 267.8125 C 94.409998 268.78018 95.034678 270.94365 97.34375 271.4375 C 107.14729 276.66962 116.36118 282.87806 126.03125 288.34375 C 129.89528 290.47264 133.55833 293.15564 137.5625 294.9375 C 145.37731 296.82613 153.41337 297.23984 161.375 298.1875 C 165.18564 271.90679 169.00186 245.62446 172.8125 219.34375 C 154.40666 216.72102 135.99959 214.12273 117.59375 211.5 z M 173.5625 218.5625 C 169.69848 245.13017 165.83945 271.71357 161.96875 298.28125 C 165.18543 298.70168 168.40832 299.11081 171.625 299.53125 C 171.91197 297.30893 172.21304 295.09731 172.5 292.875 C 178.97341 293.46895 185.43951 294.10478 191.90625 294.71875 C 191.30563 292.62324 190.98956 290.73105 193.8125 291.71875 C 206.01855 292.57297 218.14226 294.2516 230.375 294.71875 C 232.01004 294.31833 235.49852 296.12677 235.71875 294.03125 C 237.76088 278.72865 238.20956 263.28894 239.4375 247.90625 C 239.79788 242.7075 240.36081 237.50458 240.78125 232.3125 C 242.92348 232.74629 241.58688 229.11809 242.1875 227.75 C 243.38208 224.82695 240.25241 225.47658 238.34375 225.15625 C 216.7546 222.95395 195.15166 220.76479 173.5625 218.5625 z M 489.0625 220.625 C 488.52194 221.05211 487.97806 221.47914 487.4375 221.90625 C 481.518 221.83285 475.59821 222.8979 469.71875 223.71875 C 462.88496 225.62741 455.71937 225.49864 448.71875 226.40625 C 437.81405 227.37392 426.91592 228.61093 416.03125 229.71875 C 412.98141 228.57756 415.74614 233.53653 412.65625 232.46875 C 408.00474 232.50875 403.40151 233.28452 398.75 232.9375 C 398.11601 235.78046 397.15238 239.11261 396.96875 241.4375 C 396.31709 241.74577 396.90486 243.18957 396.28125 244.28125 C 395.78132 245.15619 395.53984 245.7757 395.46875 246.9375 C 395.41165 248.22807 395.20491 248.74208 394.96875 250.125 C 394.4783 251.21799 394.39916 251.58214 394.375 252.28125 C 394.3497 253.00822 393.82011 253.21217 393.78125 254.09375 C 416.41149 251.91815 439.30726 249.70685 461.9375 247.53125 C 461.78401 245.83615 462.43721 244.0036 464.3125 243.75 C 466.38799 243.48306 464.96646 240.14194 467.5625 239.875 C 469.41109 238.52693 471.89102 238.40167 473.3125 236.40625 C 474.48706 234.89802 477.50995 235.30843 477.15625 232.8125 C 477.95041 231.63127 479.24324 230.26779 480.53125 229.59375 C 481.2253 229.33348 480.69525 230.76875 481.65625 230.375 C 483.24457 230.74872 483.14081 227.47881 485.15625 227.8125 C 487.35854 228.66004 486.94717 225.87213 488.46875 225.03125 C 489.83684 224.40393 490.99118 220.56494 489.0625 220.625 z M 565.0625 221.9375 C 564.87263 221.86998 565.42755 225.25269 565.375 225.46875 C 565.42155 225.54713 565.47327 225.61185 565.5 225.6875 C 565.5303 224.54948 565.17437 223.2381 565.1875 222.1875 C 565.12577 222.01649 565.08962 221.94715 565.0625 221.9375 z M 565.5 225.6875 C 565.49046 226.0457 565.41573 226.37658 565.3125 226.6875 C 565.50681 226.39957 565.63262 226.06288 565.5 225.6875 z M 565.3125 226.6875 C 564.67578 227.63102 563.0194 228.0479 565.03125 227.28125 C 565.15797 227.10494 565.2437 226.89472 565.3125 226.6875 z M 243 225.75 C 242.81982 227.95897 242.64894 230.16603 242.46875 232.375 C 254.15426 233.12245 265.83907 233.5374 277.53125 234.03125 C 276.61696 243.12072 275.61621 252.20089 275.65625 261.34375 C 275.04228 263.96648 277.97481 265.18286 279.75 266.4375 C 280.12372 262.72697 281.73286 267.41109 282.59375 265.5625 C 283.2144 264.56145 286.2986 266.70268 284.84375 268.53125 C 285.90486 268.97171 288.02904 268.87576 289.34375 269.75 C 291.20569 269.08932 292.78328 271.96851 294.03125 270.59375 C 295.24585 269.30574 297.7677 270.38255 298.375 271.9375 C 300.00336 272.46472 299.4958 275.83069 301.53125 273.96875 C 302.45889 272.86761 305.70637 273.19293 306 274.78125 C 306.85423 275.78229 309.80298 277.26375 310.9375 276.0625 C 311.15773 274.22725 313.19249 272.09422 314 274.84375 C 316.39583 275.09735 318.63299 276.17639 320.96875 276.84375 C 322.49034 275.60246 322.61424 273.71495 325.34375 274.5625 C 327.03217 275.84383 327.88742 273.61441 329.5625 273.78125 C 330.12976 275.39626 333.02681 275.37952 333.6875 273.4375 C 335.82306 273.30402 336.13382 275.91664 338.0625 276.34375 C 339.30379 276.61069 342.25899 278.77115 341.625 276.46875 C 341.41144 268.28022 341.6901 260.06809 341.15625 251.90625 C 340.38878 247.88206 340.49904 243.76963 340.21875 239.71875 C 339.33783 236.1884 338.82585 232.57463 338.8125 228.9375 C 325.45859 229.37796 312.11058 228.90137 298.75 228.78125 C 280.16397 227.90034 261.55266 227.25824 243 225.75 z M 241.40625 233.0625 C 241.05922 237.11339 240.72203 241.19911 240.375 245.25 C 239.2821 259.14753 238.69043 273.09797 237.25 286.96875 C 236.90964 289.85843 236.59703 292.742 236.25 295.625 C 224.34427 295.04439 212.43942 294.33928 200.59375 293.03125 C 197.81753 292.75763 195.05747 292.51483 192.28125 292.28125 C 191.83411 294.77718 193.78752 294.74664 194.96875 296.375 C 196.47699 297.59628 195.71339 300.40509 198.0625 300.71875 C 200.41161 301.03908 200.01698 303.77629 201.71875 304.9375 C 203.97444 307.03969 205.37918 310.23253 208.5625 311 C 209.83716 311.84755 211.24005 313.13011 211.59375 314.625 C 212.05423 317.26776 214.61366 319.31117 213.90625 322.1875 C 213.31897 325.62442 215.36784 328.61233 217.84375 330.78125 C 219.2986 332.74997 221.29591 333.97554 223.625 334.65625 C 224.87964 335.9576 225.62895 337.23889 227.4375 337.90625 C 229.16597 338.02638 231.02905 340.79636 232.34375 338.6875 C 234.07222 336.59198 235.9946 334.41913 236.375 331.65625 C 237.21588 329.77429 238.77006 328.7751 240.71875 328.28125 C 242.53398 327.22015 244.25267 326.85226 245.6875 328.6875 C 248.96424 329.0679 252.49931 329.02841 255.5625 330.15625 C 257.45113 331.11058 257.28943 333.205 259.03125 334.40625 C 260.18578 335.77434 262.25224 336.64622 262.90625 338.28125 C 263.82054 339.66269 264.66748 341.12016 264.6875 342.96875 C 265.76863 345.8651 267.45796 348.63734 268.21875 351.59375 C 268.05859 353.44234 271.33104 353.26582 271.53125 355.28125 C 273.02614 358.00409 274.45747 361.40033 277.6875 362.28125 C 279.87644 363.61597 277.69395 365.63954 278.28125 367.28125 C 280.47019 367.86186 278.27193 370.42195 278.90625 371.75 C 280.59467 372.65761 281.81886 373.86899 281.71875 376.03125 C 281.97903 378.26024 283.15545 380.58867 285.53125 381.0625 C 287.54001 382.3505 290.00279 382.4962 292.125 383.34375 C 293.64659 384.53832 295.55374 386.05963 297.5625 385.21875 C 299.87157 385.52574 302.07736 386.07704 303.8125 387.71875 C 304.76683 389.41385 308.15569 387.13388 306.6875 385.8125 C 305.32608 383.55014 305.83357 380.60547 304.8125 378.15625 C 304.39207 376.10745 303.22195 374.19594 304.15625 372.09375 C 304.93707 368.82368 306.06293 365.55344 306.84375 362.25 C 304.59474 361.57596 305.46731 358.61781 307.65625 359.125 C 310.31903 359.4053 310.06753 354.84015 312.84375 355.09375 C 316.3474 354.05266 318.91563 351.08684 322.3125 349.71875 C 326.92397 347.84347 331.40895 345.38681 334.8125 341.65625 C 336.53429 339.66751 339.52597 339.03597 340.59375 336.5 C 343.93056 335.01846 347.1329 333.21407 350.75 332.5 C 350.10266 330.73816 351.09111 329.26248 351.625 327.6875 C 351.88527 325.69209 351.77682 323.63408 352.4375 321.71875 C 350.33531 320.20384 352.67639 318.4184 353.34375 316.75 C 353.21028 314.88139 354.29381 312.60834 353.40625 311 C 353.60645 309.04462 352.4288 307.55983 351.1875 306.125 C 349.54579 304.36316 350.43567 301.52307 348.59375 299.78125 C 346.90533 296.73141 347.53421 292.98183 347.09375 289.625 C 347.10715 286.28819 347.21048 282.94179 346.75 279.625 C 344.99484 278.08339 343.08472 281.18799 341.75 278.71875 C 339.68118 277.33731 336.63144 277.2954 335.25 274.90625 C 333.70839 273.25119 332.67983 276.81714 330.4375 275.5625 C 329.16284 273.7406 328.06375 275.58738 326.46875 275.6875 C 324.95384 274.92003 322.4196 274.68149 322.40625 276.84375 C 320.56433 278.42539 318.43291 276.23358 316.4375 276 C 314.43541 276.92096 312.93282 273.44197 312.21875 274.75 C 312.11864 276.52518 310.55432 278.1433 308.8125 276.96875 C 306.65692 276.86864 305.51407 275.3093 304.40625 274.375 C 302.43754 273.21379 301.54309 275.92975 299.78125 274.96875 C 298.79356 274.04111 298.52435 272.55559 297.15625 271.1875 C 295.11413 269.29887 293.80771 273.30579 292.40625 271.34375 C 291.03816 269.93561 288.70665 270.8038 287.125 269.5625 C 284.74919 269.95625 283.40277 269.3952 284.34375 266.8125 C 283.08243 265.57789 282.84923 267.61966 281.1875 266.71875 C 280.79376 266.44514 278.87816 267.89743 277.84375 265.96875 C 276.57576 264.70077 274.39725 263.84308 275.03125 261.6875 C 275.05125 254.62681 275.21527 247.5698 276.15625 240.5625 C 276.35646 238.56708 276.55647 236.56458 276.75 234.5625 C 264.97106 234.14206 253.17851 233.6965 241.40625 233.0625 z M 389.875 234.21875 C 389.36176 234.2297 388.83548 234.27368 388.375 234.34375 C 372.24486 234.85762 356.12347 235.39238 340 235.90625 C 341.15453 239.17633 341.01123 242.59645 341.03125 246 C 342.46608 254.14848 341.7731 262.42768 342 270.65625 C 342.0134 273.13217 342.01795 275.61784 342.03125 278.09375 C 343.40602 280.22931 345.42566 277.11381 347.1875 279.0625 C 348.20856 280.23706 346.58691 284.10698 349.15625 283.40625 C 360.90849 283.166 372.65401 282.92775 384.40625 282.6875 C 385.72095 280.95236 384.69034 278.73577 383.5625 277.1875 C 385.76479 276.11304 382.50331 274.55887 384.125 272.84375 C 384.62552 270.99516 384.54739 268.61969 386.65625 267.71875 C 385.40161 265.66995 388.04048 264.19933 388.78125 262.4375 C 391.29721 262.1839 389.82385 260.25855 390.53125 258.84375 C 391.27869 257.06189 391.77696 256.13862 393.15625 255.0625 C 393.07335 254.77977 393.07179 253.93327 393.40625 253.34375 C 393.9016 252.47056 393.91266 251.45447 394.1875 250.25 C 394.75494 249.72595 394.77947 248.13281 394.90625 246.6875 C 394.96315 244.74848 396.26574 244.46849 396.125 241.375 C 394.35649 241.94226 391.56978 241.50636 389.78125 241.40625 C 389.72115 239.15057 392.71388 238.81363 392.59375 236.53125 C 392.88405 234.59423 391.41473 234.1859 389.875 234.21875 z M 39.5 238.125 C 39.319813 240.16045 44.82062 240.19193 42.625 239.53125 C 41.5372 239.29767 40.521064 237.86473 39.5 238.125 z M 36.0625 238.375 C 36.28273 240.85092 39.940629 238.74206 36.9375 238.375 C 36.643861 238.382 36.349466 238.3617 36.0625 238.375 z M 500.53125 240.90625 C 499.4929 240.93128 498.42597 241.06629 497.5 241.03125 C 495.63139 241.07795 493.74361 241.1095 491.875 241.15625 C 489.03204 241.42319 486.09 241.45691 483.6875 243.21875 C 481.55194 244.38663 479.36278 245.35118 477.09375 246.21875 C 478.56862 248.42772 474.23656 248.03076 475.53125 250.5 C 477.04616 251.99489 479.01646 253.25476 481.21875 252.6875 C 482.90718 254.78969 483.76063 257.31921 485.5625 259.28125 C 486.1698 261.12317 489.00839 260.64833 490.15625 262.25 C 491.6111 263.17096 492.13106 265.08656 493.90625 265.59375 C 495.90166 266.89511 496.14729 269.86357 498.75 270.4375 C 501.15918 270.85126 501.26474 273.63319 502.3125 275.375 C 502.56609 277.61066 503.65141 278.5963 505.5 279.34375 C 507.74234 280.53832 506.67187 284.1606 509.28125 284.78125 C 511.70377 283.86029 513.15321 281.68355 514.875 279.875 C 513.3067 277.25227 515.05978 277.68494 516.875 276.9375 C 518.17636 275.33583 520.24165 274.70749 521.0625 272.71875 C 522.51068 271.38403 523.62851 269.71332 524.65625 268.125 C 526.53153 268.01155 526.93646 265.74892 527.9375 264.78125 C 527.75064 262.02504 528.81665 259.51415 530.03125 257.125 C 530.71863 255.71686 534.71956 254.10295 532.34375 252.875 C 528.3596 249.30462 523.81232 246.55568 519.1875 243.90625 C 516.21774 242.11772 512.69211 243.83705 509.46875 243.84375 C 507.75363 243.69025 505.05423 245.50929 504.59375 243 C 503.90136 241.12305 502.26183 240.86454 500.53125 240.90625 z M 475.3125 246.53125 C 475.05564 246.55418 474.7554 246.60408 474.375 246.6875 C 465.92311 247.69399 457.45189 248.71227 449 249.71875 C 448.50615 254.43033 451.85722 258.17825 452.53125 262.65625 C 453.43886 267.04082 454.8139 271.3005 455.875 275.625 C 456.50232 278.88173 457.32017 282.27653 459.5625 284.8125 C 458.99525 287.14827 461.80179 286.91148 461.28125 289.09375 C 460.01994 292.06351 458.89685 295.54147 460.71875 298.53125 C 460.75215 300.28641 461.34967 302.1262 460.46875 303.78125 C 462.43747 304.40857 461.45012 306.47778 462.53125 307.8125 C 463.43219 309.59436 464.99156 310.96927 467.09375 310.46875 C 475.33567 310.46175 483.57726 309.59459 491.8125 309.1875 C 494.02814 308.80043 496.25099 308.68114 498.5 308.78125 C 497.97946 311.61086 500.54024 311.57965 499.90625 308.75 C 499.30562 307.32184 497.92547 304.57277 500.28125 304.3125 C 502.41681 304.64618 504.58775 304.92659 506.75 305 C 506.18941 302.46402 506.19493 299.93799 507.0625 297.46875 C 507.19597 295.10629 508.80487 292.97867 508.53125 290.65625 C 508.05075 288.70088 510.71112 287.14319 510.4375 285.28125 C 508.97598 286.19554 506.90837 284.81131 506.875 283.15625 C 506.50128 281.07408 505.05939 279.27849 502.84375 279.125 C 501.95616 276.52229 501.1129 273.6756 499.53125 271.5 C 497.44908 270.78592 495.44405 269.48354 494.75 267.28125 C 493.37523 265.72629 491.26682 265.15621 490.3125 263.1875 C 488.92438 261.7193 486.80252 261.28261 485.1875 260.375 C 484.68031 258.68658 483.04967 257.65929 482.5625 255.9375 C 481.65489 254.18234 480.55971 252.81897 478.4375 253.40625 C 476.88255 252.35849 473.67831 251.17708 474.90625 248.78125 C 476.08581 247.60753 477.11049 246.37075 475.3125 246.53125 z M 448.46875 249.78125 C 438.79867 250.56874 429.13882 251.33751 419.46875 252.125 C 419.33527 261.71499 419.53423 271.31626 419.09375 280.90625 C 419.06705 286.91918 418.52192 292.98252 419.0625 298.96875 C 420.09691 305.64237 421.0177 312.33549 421.625 319.0625 C 423.6738 319.78992 424.08867 317.75824 424.5625 316.25 C 424.36229 313.65396 427.39874 314.26126 427.8125 316.25 C 428.293 317.62477 430.55272 319.76654 428.34375 320.6875 C 428.24365 321.30147 432.44353 320.07805 432.25 318.75 C 431.95636 316.74124 432.68619 314.16884 430.34375 313.28125 C 428.81549 312.69397 428.31645 309.55339 430.125 309.5 C 439.52146 308.25871 448.96975 307.08876 458.40625 306.28125 C 460.20812 306.99533 462.9043 306.12656 460.375 304.625 C 459.17375 303.29027 461.00169 301.27974 460.1875 299.53125 C 459.98062 297.46243 458.43158 295.57517 459.3125 293.40625 C 459.3195 291.45755 460.96747 289.83705 460.59375 287.875 C 458.24463 287.57469 459.69869 284.46736 457.75 283.40625 C 455.42758 279.5222 455.51639 274.71137 453.78125 270.59375 C 452.43318 265.19479 451.54688 259.64144 448.9375 254.65625 C 448.59714 253.06125 448.2285 251.42296 448.46875 249.78125 z M 53.1875 250.71875 C 53.054028 251.77319 56.122126 254.70377 55.28125 252.28125 C 54.860812 251.64058 53.928272 250.78549 53.1875 250.71875 z M 418.75 252.1875 C 410.64156 253.02838 402.54594 253.87788 394.4375 254.71875 C 393.46982 255.87996 391.74417 256.82799 391.34375 258.75 C 390.40945 260.23154 392.28078 262.56102 389.53125 262.78125 C 388.54355 264.09596 386.36696 265.72725 387.28125 267.5625 C 386.37364 268.78377 384.89534 270.20788 384.96875 272.25 C 383.52725 274.02519 385.99585 275.77205 384.78125 277 C 384.48094 278.22795 386.28813 279.94569 385.6875 281.6875 C 384.40617 283.49605 384.60054 286.07376 385.28125 288.0625 C 386.34903 289.66417 385.78128 291.7532 387.75 292.6875 C 387.11601 294.37593 386.80699 295.1978 386.5 296.90625 C 384.79823 300.21636 382.4646 303.32887 381.25 306.8125 C 381.257 308.80123 380.28865 310.89262 381.15625 312.78125 C 388.76417 312.541 396.41421 312.94913 403.96875 311.78125 C 405.80399 313.25612 402.49464 316.04419 404.84375 317.21875 C 406.72571 318.29987 406.36305 320.67746 407.4375 322.3125 C 408.81894 321.07121 409.13479 318.17894 411.34375 319.59375 C 413.48599 319.14661 415.90872 317.59918 417.9375 319.1875 C 420.35335 319.67468 421.93611 319.00653 420.875 316.34375 C 420.33444 309.6034 418.87976 302.94576 418.3125 296.21875 C 418.4059 281.54347 419.31059 266.86279 418.75 252.1875 z M 51.875 257.8125 C 51.82818 257.84931 51.814937 258.0383 51.875 258.46875 C 51.78157 259.50316 54.03589 261.06766 52.78125 259.3125 C 52.546005 258.97715 52.015459 257.70207 51.875 257.8125 z M 382.75 283.15625 C 382.47909 283.17201 382.15831 283.24903 381.78125 283.375 C 370.43609 283.56186 359.09515 283.75063 347.75 283.9375 C 347.8167 288.96273 347.60033 294.16618 348.875 299.03125 C 350.26311 300.69298 350.74852 302.70364 350.96875 304.8125 C 352.21671 306.66777 354.48505 308.10905 354.03125 310.625 C 355.1057 312.07985 353.9002 314.42355 354.09375 316.21875 C 354.37404 317.98059 351.1817 319.48053 352.75 320.96875 C 353.46407 322.47699 352.14597 324.51942 352.40625 326.28125 C 352.65984 328.43016 350.79651 330.06317 351.34375 332.21875 C 354.80068 330.61708 358.67994 331.65349 362.34375 331.5 C 366.16106 332.63452 370.05833 334.75084 374.0625 334.34375 C 376.01787 332.84219 378.03372 334.58835 380.0625 334.96875 C 380.78325 332.69972 377.24193 334.42764 376.1875 333.5 C 374.91284 333.25975 374.25838 331.95285 375.40625 331.21875 C 376.79436 330.48466 378.13307 330.49588 379.1875 331.25 C 380.62233 330.32236 382.93454 331.09526 383.375 332.84375 C 383.15477 335.2596 385.63371 333.96982 386.875 334.9375 C 389.431 335.93854 385.94261 337.66368 387.4375 338.53125 C 389.3595 339.17859 391.25882 340.48518 393.1875 340.71875 C 395.52994 340.68535 395.05746 337.69725 397.5 337.9375 C 398.72127 336.00215 400.47087 337.79155 400.4375 339.5 C 401.45856 340.59447 403.09808 337.0179 401.75 337.03125 C 401.89682 334.78224 403.2281 334.90569 404.65625 333.4375 C 405.71736 334.07149 405.26007 335.32449 405.59375 336.21875 C 407.81607 336.47902 410.54452 336.92419 411.8125 338.90625 C 413.67444 338.95965 415.27097 339.66129 415.53125 337.21875 C 413.74272 337.03856 412.76055 334.63327 410.625 335.09375 C 409.08339 335.13375 406.43115 333.99733 406.53125 332.5625 C 407.61238 330.14665 408.00847 331.41809 407.875 329.65625 C 409.797 330.38368 411.67963 328.12445 410.03125 326.65625 C 410.33824 323.57304 407.52098 326.56337 407.78125 328.125 C 406.87364 328.93251 403.55086 327.47911 404.71875 325.9375 C 405.85994 324.70956 407.5289 322.94754 406.1875 321.3125 C 406.1007 319.1369 404.37541 317.82317 403.1875 316.375 C 403.53453 314.57312 404.70821 311.45744 401.625 312.71875 C 394.66441 313.57298 387.61895 313.18178 380.625 313.46875 C 379.55055 310.98616 380.62982 308.306 380.75 305.75 C 382.52518 302.50663 384.38806 299.32166 386.25 296.125 C 384.88858 294.24304 388.59297 293.13599 385.75 291.78125 C 385.3963 290.34642 384.90614 288.6736 384.21875 287.21875 C 384.17202 285.40853 384.64634 283.04594 382.75 283.15625 z M 74.25 301.6875 C 73.441215 301.67616 72.771637 302.49267 72 303.53125 L 71.96875 303.46875 C 70.453838 303.8358 68.720953 303.69046 67.40625 303.25 C 65.797908 304.06418 63.654738 305.93483 61.90625 304.5 C 59.837428 305.12064 59.547439 307.04727 58.40625 308.46875 C 57.191651 310.1505 55.600072 310.90286 53.53125 310.5625 C 51.862845 309.93518 49.872647 309.79727 48.53125 311.21875 C 49.885995 314.1151 52.786646 316.65895 52.40625 320.0625 C 51.171631 322.02454 56.641273 322.05151 54.21875 323.40625 C 54.318854 325.27487 56.263027 327.18806 56.15625 328.65625 C 54.587949 330.13112 52.648384 328.42256 51 327.96875 C 48.837747 327.54164 49.162839 325.71672 50.4375 324.46875 C 49.389742 323.46104 45.533166 323.26338 46.09375 325.21875 C 44.752352 325.24545 43.57921 324.1248 41.9375 324.71875 C 39.454914 324.42511 37.946644 325.13722 39.96875 327.40625 C 42.424642 328.37393 40.676591 330.56677 40.75 332.46875 C 41.257195 334.22391 43.178741 335.7305 45.1875 335.25 C 47.323058 335.21 49.114762 337.63843 51.34375 336.34375 C 52.785252 335.47618 54.891625 335.703 54.53125 337.625 C 52.842824 339.00644 53.635153 341.68901 52.6875 343.4375 C 51.37947 344.69214 49.656016 344.51682 48.28125 343.5625 C 47.26686 344.47678 45.148181 346.0056 44.09375 345.03125 C 44.57425 342.55534 40.900098 342.60957 40.40625 344.625 C 39.598742 347.27443 36.236418 347.60321 34.875 349.71875 C 34.407847 351.33377 33.835629 354.20444 36.03125 353.9375 C 36.872126 354.67827 35.235259 357.1445 34.1875 357.625 C 35.268627 359.08652 35.953284 360.66476 36 362.5 C 37.141188 363.53441 40.232534 363.83441 41 362.40625 C 42.635037 361.77226 42.212715 365.12703 42.40625 366.375 C 44.054634 368.34371 39.704157 367.24855 41.3125 369.4375 C 40.745242 371.39287 40.14697 372.78493 42.65625 371.25 C 44.498169 370.93634 46.070451 370.80098 46.4375 372.65625 C 48.165967 370.04686 47.933062 374.49536 48.59375 375.75 C 48.987494 375.24948 49.456915 371.96359 51.21875 373.71875 C 51.105298 376.73523 54.793437 373.41389 55.09375 373.6875 C 55.454126 375.6362 54.008355 376.52057 53.1875 377.96875 C 52.179784 379.46364 51.803154 381.72227 50.375 382.75 C 47.79231 382.46971 48.108981 385.47978 46.6875 386.09375 C 44.918991 385.61325 42.871051 386.5641 41.0625 387.03125 C 40.161562 388.63959 38.666925 389.84499 37.21875 388.25 C 35.510303 388.2834 33.459723 388.71135 32.125 389.8125 C 30.469942 391.43419 27.885239 391.89098 25.65625 391.34375 C 23.800984 390.06909 20.924303 393.6091 23.59375 392.875 C 25.262155 391.60034 26.709033 393.28792 28.4375 393.28125 C 29.91237 392.51378 31.218144 391.44577 33 391.90625 C 34.54828 389.67058 36.39929 391.71683 38.28125 391.15625 C 39.630155 390.9285 42.192199 389.09754 42.03125 390.6875 C 42.654032 389.68874 44.350469 389.84461 45.5 390.21875 C 48.309593 390.85941 45.680422 388.11768 46.875 387.9375 C 49.190745 386.5694 51.887859 386.31174 54.34375 385.4375 C 58.000893 383.30862 62.093059 381.65515 65.15625 378.71875 C 68.005885 376.73669 63.327242 376.39531 64.375 374.5 C 65.496168 372.87831 67.415074 371.96048 69.34375 371.5 C 70.344793 369.4512 71.71295 367.42084 73.28125 365.8125 C 74.942981 364.93158 76.497914 363.53592 78.5 364.25 C 80.281856 364.72382 80.999212 367.79532 78.15625 366.6875 C 77.308701 365.43286 74.449368 366.64406 74.65625 368.3125 C 74.516104 369.94087 72.92743 371.12164 72.59375 372.75 C 75.790413 373.31726 72.768626 375.10773 71.6875 375.28125 C 72.801995 376.55591 75.444089 375.69246 76.71875 374.53125 C 77.552953 373.29663 79.022373 371.99904 80.34375 371.71875 C 81.551675 373.58736 83.760388 370.94189 84.1875 373.53125 C 84.661327 375.38652 88.19478 370.29419 86.40625 371.46875 C 84.499363 373.42599 83.933391 373.33642 84.90625 371.03125 C 84.51918 372.01811 84.052809 372.94478 84.15625 371.15625 C 83.615687 369.02736 83.5314 367.15317 86.1875 366.90625 C 87.989377 366.33232 89.750958 366.3314 90.03125 368.59375 C 90.311542 370.91617 92.565172 370.46867 94 371.75 C 95.608342 373.2182 97.18997 373.05095 99.21875 372.9375 C 102.1151 372.62384 104.55661 375.6431 107.40625 375.0625 C 109.06798 374.7822 110.82181 371.58946 110.28125 374.90625 C 108.77301 376.79489 110.25569 377.6391 111.9375 378.5 C 114.02634 379.40094 115.86856 380.5977 117.25 382.40625 C 118.12424 384.42168 121.28825 382.59642 121.375 384.03125 C 118.81901 384.86545 120.539 386.39949 121.5 387.6875 C 122.70793 388.98885 121.72853 391.49576 123.9375 391.5625 C 124.69829 392.41672 126.27797 396.53101 126.625 395.15625 C 126.39142 393.60797 126.14589 389.92006 127.6875 392.65625 C 127.93442 393.6039 128.37512 398.45526 129.0625 395.8125 C 129.77658 392.55578 131.20317 395.94601 130.5625 397.78125 C 132.78482 398.90909 129.71867 399.99684 131 401.03125 C 131.46048 398.869 131.87025 400.78117 132.4375 402.0625 C 133.13823 402.72986 133.47014 404.70932 134.53125 404.5625 C 133.41008 403.41464 132.58351 400.40692 134.8125 402.5625 C 136.42752 404.42444 137.49925 403.96013 136.625 401.4375 C 134.85649 399.66232 136.80881 398.1244 138.34375 399.90625 C 140.42592 399.87285 140.24663 403.39131 141.875 402.9375 C 144.08396 400.82197 142.88431 397.681 142.34375 395.125 C 140.14145 394.09059 137.65346 393.45189 135.53125 392.4375 C 134.53021 388.88046 131.31438 386.60895 129.90625 383.21875 C 129.61261 380.99643 126.75656 381.49181 126.0625 379.75 C 124.51422 378.60213 124.27254 376.80135 123.03125 375.5 C 121.9301 374.47893 119.53728 376.1407 119.34375 377.46875 C 119.73749 379.5309 117.19003 379.50383 115.96875 380.625 C 116.00215 377.77536 113.10167 376.49996 111.5 374.53125 C 110.61241 373.2032 110.62009 370.95332 108.53125 372.96875 C 106.9496 373.12892 104.27469 372.77147 104.96875 370.5625 C 105.03545 352.07658 105.11409 333.60425 105.1875 315.125 C 103.35225 313.87036 101.24477 312.341 99.0625 312.1875 C 97.380748 313.33537 95.704529 312.92244 94.15625 311.78125 C 92.341026 311.93474 90.721793 311.33864 89 309.84375 C 86.944525 308.01518 83.289168 309.95557 81.6875 307.40625 C 82.441618 305.03044 79.531654 304.17142 78.34375 306 C 76.948964 306.17351 77.901662 303.13252 75.90625 302.71875 C 75.26308 302.00551 74.735271 301.6943 74.25 301.6875 z M 84.90625 371.03125 C 84.965033 370.89197 85.023782 370.78091 85.09375 370.625 C 85.570914 369.00665 85.29332 370.04439 84.90625 371.03125 z M 42.03125 390.6875 C 41.887531 390.91798 41.792511 391.22962 41.78125 391.59375 C 41.927236 391.21252 42.008257 390.91464 42.03125 390.6875 z M 501.5 305.15625 C 500.92555 305.15198 500.37097 305.1678 499.84375 305.28125 L 499.59375 305.53125 L 499.4375 305.71875 C 500.56535 307.66745 500.44566 309.81985 500.21875 311.96875 C 497.46922 312.32913 498.77571 308.8141 496.5 309.28125 C 492.37571 309.23455 488.26265 310.05371 484.125 310.09375 C 477.39132 310.28729 470.52192 311.53229 463.875 310.53125 C 462.15988 309.48349 462.00504 306.42152 459.5625 306.96875 C 453.47616 306.88865 447.43465 308.14905 441.375 308.65625 C 437.49096 309.07668 433.59612 309.56198 429.71875 310.0625 C 428.77109 312.23143 431.46315 312.99779 432.4375 314.3125 C 432.97138 315.83408 431.40364 319.94341 433.90625 319.0625 C 436.6491 318.26166 439.28236 317.07861 442.21875 317.21875 C 444.44774 316.67152 446.6369 316.74377 448.8125 317.53125 C 451.54201 318.06514 454.0083 319.58243 456.4375 320.84375 C 457.61873 322.13843 460.12384 322.09865 460.4375 324.1875 C 460.3441 326.36977 463.29515 323.55023 464.75 324.53125 C 466.87889 323.99736 468.27121 322.0896 469.90625 320.875 C 473.14962 322.00284 470.32524 318.93283 472.09375 318.21875 C 474.18259 317.66484 476.4906 317.29515 478.3125 318.75 C 480.34128 319.13039 481.92671 320.09834 482.6875 322.09375 C 485.14339 322.10715 484.63986 324.84419 486.375 325.625 C 488.35039 325.95201 488.34686 328.64682 490.5625 328.5 C 492.50452 328.74025 494.20848 329.26645 494.46875 331.46875 C 495.83685 332.87688 497.08516 334.30406 496.53125 336.40625 C 496.65138 338.86214 496.6036 341.31137 495.5625 343.59375 C 495.82277 346.04964 496.47534 348.88594 497.75 350.78125 C 499.25156 348.47218 497.86841 348.1915 496.59375 346.75 C 498.05527 345.57544 499.84039 346.59016 501.46875 346.84375 C 502.01599 348.94594 500.00592 350.58403 499.125 352.3125 C 496.92271 353.78737 500.248 355.05638 500.96875 356.53125 C 503.04424 358.76024 503.87779 361.81561 506 364.03125 C 506.52055 365.55951 507.64769 369.01679 509.0625 366.09375 C 510.7576 365.93358 511.65944 368.40404 512.59375 369.71875 C 512.58035 371.22698 513.89218 374.40041 515 374 C 516.922 373.46611 519.03636 374.45532 520.53125 375.75 C 522.2397 377.9523 523.57585 380.38702 523.5625 383.25 C 524.47679 385.0719 526.59662 383.55443 527.4375 382.5 C 529.93343 382.80031 532.28572 381.68016 533.59375 379.53125 C 532.91972 377.95628 533.20816 376.28037 533.375 374.71875 C 533.3483 373.2639 536.26311 372.59064 534.875 370.375 C 534.22099 366.1506 534.74617 361.72895 533.625 357.53125 C 531.98329 352.90643 528.59616 349.05141 526.6875 344.5 C 525.67978 342.89166 523.8786 341.86342 523.625 339.78125 C 522.99768 338.25967 521.82734 336.48706 523.5625 335.3125 C 523.30223 332.9367 520.32138 331.68291 519 329.6875 C 515.40959 325.9703 513.45949 321.0566 510.75 316.71875 C 509.31517 313.02824 507.89363 309.34188 506.8125 305.53125 C 505.09571 305.56628 503.22336 305.16907 501.5 305.15625 z M 25.03125 332 C 24.852731 332 24.648299 332.30775 24.28125 332.875 C 23.834117 334.95049 27.137187 333.76434 27.4375 336 C 27.597666 338.54933 31.022107 338.59361 29 335.9375 C 28.93326 333.7886 26.385793 334.70389 25.625 332.96875 C 25.371403 332.29471 25.209769 332 25.03125 332 z M 12.90625 347.46875 C 12.665999 347.47575 12.89926 348.15689 12.8125 348.34375 C 14.527619 351.05324 13.787164 349.23726 12.90625 347.46875 z M 166.28125 352.96875 C 165.24957 353.03764 164.28229 353.4244 163.28125 354 C 161.66252 356.51241 164.76785 356.67113 166.4375 357.5625 C 168.47963 357.66927 168.786 354.70909 168.21875 353.1875 C 167.53804 352.9948 166.90026 352.92742 166.28125 352.96875 z M 157.46875 356.5625 L 157.15625 356.625 L 157.0625 356.625 C 154.3797 360.03521 159.47751 356.94293 157.46875 356.5625 z M 27.46875 356.9375 C 27.128396 356.98911 27.461308 357.66316 27.40625 358.21875 C 28.2538 359.41332 30.741645 361.93164 31.5625 359.5625 C 33.070738 357.36021 29.37053 357.65222 28.0625 357.125 C 27.757182 356.97484 27.582201 356.9203 27.46875 356.9375 z M 311.75 357.8125 C 311.70444 357.84019 311.58817 357.97722 311.34375 358.25 C 308.30725 362.43686 312.06889 357.6187 311.75 357.8125 z M 186.78125 360.53125 C 186.0897 360.47452 185.23802 360.92183 184.34375 361.5625 C 184.07881 361.69174 183.82705 361.80826 183.5625 361.9375 C 183.14874 363.33229 184.81369 366.44745 186.46875 366.09375 C 188.07709 365.1194 188.97726 367.24957 190.8125 366.46875 C 191.63336 365.48106 188.29704 364.32826 188.34375 362.40625 C 188.02675 361.13826 187.4728 360.58798 186.78125 360.53125 z M 197.65625 367.96875 C 197.29959 367.97415 196.99641 368.15072 196.84375 368.65625 C 199.2329 369.29024 202.14601 370.6505 204.375 368.96875 C 203.67427 367.88095 200.98642 368.55518 199.625 368.375 C 199.02437 368.37937 198.25068 367.95976 197.65625 367.96875 z M 206.15625 370.25 C 205.72838 370.31726 205.36166 370.66656 204.96875 371.5625 C 206.52371 373.19754 207.37875 376.1196 209.78125 376.5 C 211.35623 376.03952 214.33592 376.06734 214.65625 374.21875 C 213.26147 372.54367 210.8255 371.97107 208.75 371.34375 C 207.69473 370.84323 206.86936 370.1379 206.15625 370.25 z M 89.3125 370.4375 C 89.185488 370.41731 88.976616 370.50224 88.625 370.75 C 88.657533 372.49056 89.862886 370.525 89.3125 370.4375 z M 200.9375 371.78125 C 200.52602 371.79611 200.20996 371.95219 200.25 372.25 C 200.05647 374.71257 203.94214 374.8828 202.6875 372.59375 C 202.57488 372.07237 201.62331 371.75649 200.9375 371.78125 z M 535.1875 377.34375 C 535.04068 377.77086 534.89682 378.19789 534.75 378.625 C 533.48201 381.68152 535.22754 378.87201 535.1875 377.34375 z M 68.46875 379.90625 C 68.341743 379.91876 67.673834 380.57251 67.59375 380.5625 C 65.461031 382.49487 62.771976 383.66523 60.5625 385.46875 C 60.70932 387.30399 61.231608 390.56798 63.6875 388.90625 C 65.355904 387.94525 67.007867 386.98102 68.65625 386 C 67.428305 383.79103 68.120933 383.90773 65.625 383.6875 C 62.855448 383.7476 66.320569 381.18562 67.375 382.59375 C 69.870934 381.8997 70.010037 381.02382 68.375 380.15625 C 68.491788 379.97606 68.511086 379.90208 68.46875 379.90625 z M 216.84375 381.53125 C 216.57898 381.53152 216.30154 381.65335 216.03125 382.03125 C 216.21144 383.66629 218.1523 384.6747 216.34375 386.15625 C 215.90997 387.77126 212.64082 388.06856 214.65625 389.84375 C 216.23122 390.81809 216.0177 393.06549 216.625 394.59375 C 216.1445 396.38895 215.64781 399.11452 217.75 399.96875 C 219.61861 401.93746 220.77841 398.69914 221.90625 397.53125 C 222.7538 396.40341 224.44896 394.77353 225.84375 395.78125 C 227.87253 395.24068 230.07481 394.18111 231.0625 392.3125 C 229.20056 391.43826 227.80423 390.19382 227.34375 388.125 C 225.74208 384.56796 221.37114 383.94023 218.28125 382.125 C 217.74319 381.90811 217.28503 381.53079 216.84375 381.53125 z M 533.28125 382.5625 C 533.17352 382.5946 532.86307 383.01763 532.3125 384.09375 C 532.07892 384.46747 531.85858 384.84503 531.625 385.21875 C 532.79956 384.31489 533.51825 382.49187 533.28125 382.5625 z M 527.0625 389.09375 C 526.98835 389.11672 526.83991 389.21233 526.53125 389.375 L 526.3125 389.5 C 523.25849 391.65474 527.58157 388.93298 527.0625 389.09375 z M 520.4375 390.84375 C 520.03208 390.89881 519.67012 391.1178 519.15625 391.625 C 516.88055 393.73387 522.94946 391.42076 521.875 391.09375 C 521.27437 390.90689 520.84292 390.78869 520.4375 390.84375 z M 38.15625 392.6875 C 37.951344 392.68057 37.66046 392.78224 37.21875 393.03125 C 37.988718 394.56576 39.044175 392.71753 38.15625 392.6875 z M 14.4375 393.0625 C 14.308094 393.05771 14.175148 393.07248 14.03125 393.09375 C 13.797674 393.14715 13.55275 393.19661 13.3125 393.25 C 13.666202 394.89171 10.634378 396.49045 14.03125 395.65625 C 16.658988 395.95031 16.378587 393.1343 14.4375 393.0625 z M 55.25 393.375 C 55.138781 393.36715 55.007671 393.46473 54.84375 393.71875 C 55.695053 395.29664 55.731951 393.40901 55.25 393.375 z M 516.21875 393.6875 C 516.20207 393.68854 516.16048 393.69995 516.09375 393.75 C 516.1338 393.83008 516.2688 393.68437 516.21875 393.6875 z M 39.84375 393.78125 C 39.611216 393.77465 39.331465 393.98892 39.125 394.625 C 40.60696 394.84981 40.355324 393.79577 39.84375 393.78125 z M 8.5 394.09375 C 7.8059437 394.28729 7.13823 394.48729 6.4375 394.6875 C 3.2074687 396.39595 6.1468522 395.88335 7.96875 395.0625 C 9.8974258 395.16928 11.309593 394.74777 8.5 394.09375 z M 10.75 395.4375 C 10.753024 395.44501 10.877946 395.49532 11.25 395.59375 C 11.890667 395.69886 10.740928 395.41498 10.75 395.4375 z "
     id="jvectormap1_hi" />
</svg>
