<svg xmlns="http://www.w3.org/2000/svg" xmlns:xlink="http://www.w3.org/1999/xlink" viewBox="0 0 1000 722"><defs><clipPath id="clip-path"><rect x="393.8" y="31.06" width="10.28" height="18.91" fill="none"/></clipPath><clipPath id="clip-path-2"><rect x="460.27" y="30.94" width="18.5" height="19.15" fill="none"/></clipPath></defs><title>gc_sprite</title><g style="isolation:isolate"><g id="Layer_1" data-name="Layer 1"><circle cx="255.04" cy="40.01" r="16.5" fill="#0096d7"/><polygon points="262.82 44.69 258.15 40.02 262.82 35.35 259.71 32.24 255.04 36.9 250.37 32.23 247.26 35.35 251.93 40.02 247.26 44.69 250.37 47.79 255.04 43.13 259.71 47.79 262.82 44.69" fill="#fff"/><path d="M198.59,40a16.5,16.5,0,1,1-16.5-16.5A16.5,16.5,0,0,1,198.59,40Z" fill="#a33340"/><path d="M182.16,46.52a6.43,6.43,0,1,1,4-11.44L183,37.83l8.4,1.24,0-8.49-2.95,2.55A9.35,9.35,0,1,0,191,43.26l-3-.44A6.44,6.44,0,0,1,182.16,46.52Z" fill="#fff"/><path d="M127.16,40a16.5,16.5,0,1,1-16.5-16.5A16.5,16.5,0,0,1,127.16,40Z" fill="#7dac5b"/><polygon points="120.91 35.47 117.12 31.69 108.04 40.77 104.2 36.92 100.41 40.71 108.04 48.34 108.04 48.33 108.05 48.34 120.91 35.47" fill="#fff"/><polygon points="469.02 111.02 472.32 114.52 475.61 118.02 469.02 118.02 462.43 118.02 465.73 114.52 469.02 111.02" fill="#5d9732"/><path d="M397.34,118.9v-3.26h-3.28v-2.25h3.28v-3.26h2.19v3.26h3.29v2.25h-3.29v3.26h-2.19Z" fill="#5d9732"/><polygon points="254.52 323.91 254.52 317.91 252.52 317.91 252.52 323.91 250.64 323.91 253.45 328.78 256.26 323.91 254.52 323.91" fill="#5d9732"/><rect x="245.95" y="327.91" width="15" height="3" fill="#5d9732"/><polygon points="324.83 323.91 324.83 317.91 322.83 317.91 322.83 323.91 320.95 323.91 323.76 328.78 326.57 323.91 324.83 323.91" fill="#0096d7"/><rect x="316.26" y="327.91" width="15" height="3" fill="#0096d7"/><polygon points="398.51 323.91 398.51 317.91 396.51 317.91 396.51 323.91 394.63 323.91 397.44 328.78 400.25 323.91 398.51 323.91"/><rect x="389.94" y="327.91" width="15" height="3"/><polygon points="470.09 323.91 470.09 317.91 468.09 317.91 468.09 323.91 466.21 323.91 469.02 328.78 471.83 323.91 470.09 323.91" fill="#fff"/><rect x="461.52" y="327.91" width="15" height="3" fill="#fff"/><polygon points="323.76 43.09 321.4 40.02 319.03 36.94 323.76 36.94 328.49 36.94 326.13 40.02 323.76 43.09" fill="#5d9732"/><line x1="531.83" y1="114.52" x2="545.24" y2="114.52" fill="none" stroke="#333" stroke-miterlimit="10"/><polygon points="544.51 117.01 548.83 114.52 544.51 112.03 544.51 117.01" fill="#333"/><g opacity="0.2" style="mix-blend-mode:multiply"><g clip-path="url(#clip-path)"><path d="M396.63,34c0-1.85,3.77-2,3.77,1.74,0,4-2.32,3.39-2.32,8.52h1.45c0.85-5.1,4.56-5.36,4.56-8.46,0-2.67-1.23-3.71-2.56-4.29s-4.58-.78-6,0.29c-0.91.69-2.29,2.43-1.48,4.26,0.35,0.78,2.37,1.13,2.81.09s-0.23-1.52-.23-2.14" fill="#2a4b11"/><path d="M400.63,48.11a1.85,1.85,0,1,1-1.85-1.85,1.85,1.85,0,0,1,1.85,1.85" fill="#2a4b11"/></g></g><path d="M395.63,33c0-1.85,3.77-2,3.77,1.74,0,4-2.32,3.39-2.32,8.52h1.45c0.85-5.1,4.56-5.36,4.56-8.46,0-2.67-1.23-3.71-2.56-4.29s-4.58-.78-6,0.29c-0.91.69-2.29,2.43-1.48,4.26,0.35,0.78,2.37,1.13,2.81.09s-0.23-1.52-.23-2.14" fill="#5d9732"/><path d="M399.63,47.11a1.85,1.85,0,1,1-1.85-1.85,1.85,1.85,0,0,1,1.85,1.85" fill="#5d9732"/><g opacity="0.2" style="mix-blend-mode:multiply"><g clip-path="url(#clip-path-2)"><polygon points="471.3 39.37 475.64 35.07 478.73 38.18 478.76 30.97 471.54 30.94 474.65 34.07 470.31 38.37 471.3 39.37" fill="#2a4b11"/><polygon points="478.77 50.05 478.75 42.83 475.64 45.97 471.3 41.67 470.31 42.66 474.65 46.96 471.56 50.08 478.77 50.05" fill="#2a4b11"/><polygon points="467.49 30.96 460.27 30.99 460.3 38.2 463.41 35.07 467.75 39.37 468.73 38.37 464.39 34.07 467.49 30.96" fill="#2a4b11"/><polygon points="467.75 41.67 463.41 45.97 460.32 42.85 460.29 50.06 467.5 50.1 464.39 46.96 468.73 42.66 467.75 41.67" fill="#2a4b11"/></g></g><polygon points="470.3 38.37 474.64 34.07 477.73 37.18 477.76 29.97 470.54 29.94 473.65 33.07 469.31 37.37 470.3 38.37" fill="#5d9732"/><polygon points="477.77 49.05 477.75 41.83 474.64 44.97 470.3 40.67 469.31 41.66 473.65 45.96 470.56 49.08 477.77 49.05" fill="#5d9732"/><polygon points="466.49 29.96 459.27 29.99 459.3 37.2 462.41 34.07 466.75 38.37 467.73 37.37 463.39 33.07 466.49 29.96" fill="#5d9732"/><polygon points="466.75 40.67 462.41 44.97 459.32 41.85 459.29 49.06 466.5 49.1 463.39 45.96 467.73 41.66 466.75 40.67" fill="#5d9732"/><g id="column_button_-_inactive" data-name="column button - inactive"><polygon points="615.4 40.02 611.9 37.63 608.4 35.25 608.4 40.02 608.4 44.78 611.9 42.4 615.4 40.02" fill="#5d9232"/><polygon points="536.83 40.02 540.33 37.63 543.83 35.25 543.83 40.02 543.83 44.78 540.33 42.4 536.83 40.02" fill="#5d9232"/><path d="M398.49,189a4.92,4.92,0,1,1,3.07-8.75l-2.44,2.11,6.42,0.95v-6.49l-2.26,2a7.16,7.16,0,1,0,1.95,7.75l-2.29-.34A4.92,4.92,0,0,1,398.49,189Z" fill="#a6a6a6"/><path d="M469.07,189a4.92,4.92,0,1,1,3.07-8.75l-2.44,2.11,6.42,0.95v-6.49l-2.26,2a7.16,7.16,0,1,0,1.95,7.75l-2.29-.34A4.92,4.92,0,0,1,469.07,189Z" fill="#5d9732"/><path d="M833.45,187.76a3.69,3.69,0,1,1,2.31-6.57l-1.83,1.58,4.82,0.71v-4.87L837,180.08a5.37,5.37,0,1,0,1.46,5.81l-1.72-.25A3.69,3.69,0,0,1,833.45,187.76Z" fill="#666"/><path d="M906.71,187.76a3.69,3.69,0,1,1,2.31-6.57l-1.83,1.58,4.82,0.71v-4.87l-1.69,1.46a5.37,5.37,0,1,0,1.46,5.81l-1.72-.25A3.69,3.69,0,0,1,906.71,187.76Z"/><path d="M978.14,187.76a3.69,3.69,0,1,1,2.31-6.57l-1.83,1.58,4.82,0.71v-4.87l-1.69,1.46a5.37,5.37,0,1,0,1.46,5.81l-1.72-.25A3.69,3.69,0,0,1,978.14,187.76Z" fill="#fff"/><rect x="828.47" y="109.57" width="3.3" height="9.9" fill="#666"/><rect x="835.07" y="109.57" width="3.3" height="9.9" fill="#666"/><rect x="901.72" y="109.57" width="3.3" height="9.9"/><rect x="908.32" y="109.57" width="3.3" height="9.9"/><rect x="973.16" y="109.57" width="3.3" height="9.9" fill="#fff"/><rect x="979.76" y="109.57" width="3.3" height="9.9" fill="#fff"/><polygon points="828.23 45.87 838.6 40.01 828.23 34.16 828.23 45.87" fill="#666"/><polygon points="901.49 45.87 911.86 40.01 901.49 34.16 901.49 45.87"/><polygon points="972.92 45.87 983.29 40.01 972.92 34.16 972.92 45.87" fill="#fff"/><path d="M251,467.83l-7.39-1.62,14.48-5.47-5.47,14.48Zm0.71-.71,1.16,5.27,3.91-10.34Z" fill="#0096d7"/><path d="M321.66,467.83l-7.39-1.62,14.48-5.47-5.47,14.48Zm0.71-.71,1.16,5.27,3.91-10.34Z" fill="#cbcbcb"/></g><polygon points="37.4 45.02 33.93 40.02 30.46 35.02 37.4 35.02 44.34 35.02 40.87 40.02 37.4 45.02" fill="#5d9732"/><g opacity="0.2" style="mix-blend-mode:darken"><rect x="245.91" y="111.02" width="1" height="7"/><rect x="248.85" y="111.02" width="1" height="7"/><rect x="251.98" y="111.02" width="1" height="7"/><rect x="255.1" y="111.02" width="1" height="7"/></g><g opacity="0.4" style="mix-blend-mode:lighten"><rect x="244.91" y="111.02" width="1" height="7" fill="#fff"/><rect x="247.85" y="111.02" width="1" height="7" fill="#fff"/><rect x="250.98" y="111.02" width="1" height="7" fill="#fff"/><rect x="254.1" y="111.02" width="1" height="7" fill="#fff"/></g><g opacity="0.2" style="mix-blend-mode:darken"><rect x="321.69" y="118.11" width="7" height="1"/><rect x="321.69" y="115.17" width="7" height="1"/><rect x="321.69" y="112.05" width="7" height="1"/><rect x="321.69" y="108.92" width="7" height="1"/></g><g opacity="0.4" style="mix-blend-mode:lighten"><rect x="321.69" y="119.11" width="7" height="1" fill="#fff"/><rect x="321.69" y="116.17" width="7" height="1" fill="#fff"/><rect x="321.69" y="113.05" width="7" height="1" fill="#fff"/><rect x="321.69" y="109.92" width="7" height="1" fill="#fff"/></g><polygon points="38.23 107.91 28.98 107.91 28.98 121.12 38.23 121.12 45.83 114.52 38.23 107.91" fill="#5d9732"/><rect x="33.02" y="111.02" width="1" height="7" opacity="0.2" style="mix-blend-mode:darken"/><rect x="32.02" y="111.02" width="1" height="7" fill="#fff" opacity="0.4" style="mix-blend-mode:lighten"/><rect x="36.08" y="111.9" width="1" height="1.94" opacity="0.2" style="mix-blend-mode:darken"/><rect x="35.08" y="111.9" width="1" height="1.94" fill="#fff" opacity="0.4" style="mix-blend-mode:lighten"/><rect x="36.08" y="114.9" width="1" height="1.94" opacity="0.2" style="mix-blend-mode:darken"/><rect x="35.08" y="114.9" width="1" height="1.94" fill="#fff" opacity="0.4" style="mix-blend-mode:lighten"/><polygon points="108.01 121.12 117.27 121.12 117.27 107.91 108.01 107.91 100.42 114.52 108.01 121.12" fill="#5d9732"/><rect x="112.22" y="111.02" width="1" height="7" opacity="0.2" style="mix-blend-mode:darken"/><rect x="113.22" y="111.02" width="1" height="7" fill="#fff" opacity="0.4" style="mix-blend-mode:lighten"/><rect x="109.16" y="115.2" width="1" height="1.94" opacity="0.2" style="mix-blend-mode:darken"/><rect x="110.16" y="115.2" width="1" height="1.94" fill="#fff" opacity="0.4" style="mix-blend-mode:lighten"/><rect x="109.16" y="112.2" width="1" height="1.94" opacity="0.2" style="mix-blend-mode:darken"/><rect x="110.16" y="112.2" width="1" height="1.94" fill="#fff" opacity="0.4" style="mix-blend-mode:lighten"/><polygon points="176.38 111.77 176.38 122.09 187.2 122.09 187.2 111.77 181.79 106.94 176.38 111.77" fill="#5d9732"/><rect x="178.92" y="117.56" width="5.74" height="0.9" opacity="0.2" style="mix-blend-mode:darken"/><rect x="178.92" y="118.46" width="5.74" height="0.9" fill="#fff" opacity="0.4" style="mix-blend-mode:lighten"/><rect x="179.64" y="114.81" width="1.59" height="0.9" opacity="0.2" style="mix-blend-mode:darken"/><rect x="179.64" y="115.71" width="1.59" height="0.9" fill="#fff" opacity="0.4" style="mix-blend-mode:lighten"/><rect x="182.1" y="114.81" width="1.59" height="0.9" opacity="0.2" style="mix-blend-mode:darken"/><rect x="182.1" y="115.71" width="1.59" height="0.9" fill="#fff" opacity="0.4" style="mix-blend-mode:lighten"/><polygon points="38.23 177.42 28.98 177.42 28.98 190.63 38.23 190.63 45.83 184.03 38.23 177.42" fill="#0096d7"/><rect x="33.02" y="180.53" width="1" height="7" opacity="0.3" style="mix-blend-mode:darken"/><rect x="32.02" y="180.53" width="1" height="7" fill="#fff" opacity="0.5" style="mix-blend-mode:lighten"/><rect x="36.08" y="181.41" width="1" height="1.94" opacity="0.3" style="mix-blend-mode:darken"/><rect x="35.08" y="181.41" width="1" height="1.94" fill="#fff" opacity="0.5" style="mix-blend-mode:lighten"/><rect x="36.08" y="184.41" width="1" height="1.94" opacity="0.3" style="mix-blend-mode:darken"/><rect x="35.08" y="184.41" width="1" height="1.94" fill="#fff" opacity="0.5" style="mix-blend-mode:lighten"/><polygon points="108.01 190.63 117.27 190.63 117.27 177.42 108.01 177.42 100.42 184.03 108.01 190.63" fill="#0096d7"/><rect x="112.22" y="180.53" width="1" height="7" opacity="0.3" style="mix-blend-mode:darken"/><rect x="113.22" y="180.53" width="1" height="7" fill="#fff" opacity="0.5" style="mix-blend-mode:lighten"/><rect x="109.16" y="184.71" width="1" height="1.94" opacity="0.3" style="mix-blend-mode:darken"/><rect x="110.16" y="184.71" width="1" height="1.94" fill="#fff" opacity="0.5" style="mix-blend-mode:lighten"/><rect x="109.16" y="181.71" width="1" height="1.94" opacity="0.3" style="mix-blend-mode:darken"/><rect x="110.16" y="181.71" width="1" height="1.94" fill="#fff" opacity="0.5" style="mix-blend-mode:lighten"/><polygon points="176.38 181.28 176.38 191.6 187.2 191.6 187.2 181.28 181.79 176.46 176.38 181.28" fill="#0096d7"/><rect x="178.92" y="187.07" width="5.74" height="0.9" opacity="0.3" style="mix-blend-mode:darken"/><rect x="178.92" y="187.97" width="5.74" height="0.9" fill="#fff" opacity="0.5" style="mix-blend-mode:lighten"/><rect x="179.64" y="184.32" width="1.59" height="0.9" opacity="0.3" style="mix-blend-mode:darken"/><rect x="179.64" y="185.22" width="1.59" height="0.9" fill="#fff" opacity="0.5" style="mix-blend-mode:lighten"/><rect x="182.1" y="184.32" width="1.59" height="0.9" opacity="0.3" style="mix-blend-mode:darken"/><rect x="182.1" y="185.22" width="1.59" height="0.9" fill="#fff" opacity="0.5" style="mix-blend-mode:lighten"/><polygon points="605.01 174.33 613.77 184.03 605.01 193.73 605.01 203.99 613.78 194.01 622.79 184.03 613.78 174.05 605.01 164.07 605.01 174.33" fill="#5d9232"/><polygon points="540.84 174.05 531.83 184.03 540.84 194.01 550.08 203.99 550.08 193.73 541.32 184.03 550.08 174.33 550.08 164.07 540.84 174.05" fill="#5d9232"/><polygon points="605.01 242.11 613.77 251.81 605.01 261.51 605.01 271.77 613.78 261.79 622.79 251.81 613.78 241.83 605.01 231.85 605.01 242.11" fill="#ccc"/><polygon points="540.84 241.83 531.83 251.81 540.84 261.79 550.08 271.77 550.08 261.51 541.32 251.81 550.08 242.11 550.08 231.85 540.84 241.83" fill="#ccc"/><path d="M247,256.59a2.18,2.18,0,0,0,1.95,2.15c0.9,0,3.66-4,4.08-4.38a3.9,3.9,0,0,1-1.41-1.41c-0.47.46-4.37,2.9-4.61,3.64" fill="#0091d2"/><path d="M257.93,245.16a4.94,4.94,0,1,0,2.75,7l0.12-.24c0.07-.15.13-0.3,0.18-0.45a4.91,4.91,0,0,0,.25-2c0-.07,0-0.14,0-0.21a4.94,4.94,0,0,0-3.28-4m1.79,5.84a3.59,3.59,0,0,1-.36.75l-0.18.26a3.6,3.6,0,1,1-1.68-5.59h0a3.57,3.57,0,0,1,2.06,1.83l0.08,0.19,0.07,0.18a3.56,3.56,0,0,1,0,2.38" fill="#0091d2"/><path d="M316.64,256.59a2.18,2.18,0,0,0,1.95,2.15c0.9,0,3.66-4,4.08-4.38a3.9,3.9,0,0,1-1.41-1.41c-0.47.46-4.37,2.9-4.61,3.64" fill="#5d9732"/><path d="M327.59,245.16a4.94,4.94,0,1,0,2.75,7l0.12-.24c0.07-.15.13-0.3,0.18-0.45a4.91,4.91,0,0,0,.25-2c0-.07,0-0.14,0-0.21a4.94,4.94,0,0,0-3.28-4m1.79,5.84a3.59,3.59,0,0,1-.36.75l-0.18.26a3.6,3.6,0,1,1-1.68-5.59h0a3.57,3.57,0,0,1,2.06,1.83l0.08,0.19,0.07,0.18a3.56,3.56,0,0,1,0,2.38" fill="#5d9732"/><path d="M391.32,256.59a2.18,2.18,0,0,0,1.95,2.15c0.9,0,3.66-4,4.08-4.38a3.9,3.9,0,0,1-1.41-1.41c-0.47.46-4.37,2.9-4.61,3.64" fill="#a6a6a6"/><path d="M402.27,245.16a4.94,4.94,0,1,0,2.75,7l0.12-.24c0.07-.15.13-0.3,0.18-0.45a4.91,4.91,0,0,0,.25-2c0-.07,0-0.14,0-0.21a4.94,4.94,0,0,0-3.28-4m1.79,5.84a3.59,3.59,0,0,1-.36.75l-0.18.26a3.6,3.6,0,1,1-1.68-5.59h0a3.57,3.57,0,0,1,2.06,1.83l0.08,0.19,0.07,0.18a3.56,3.56,0,0,1,0,2.38" fill="#a6a6a6"/><circle cx="323.76" cy="184.03" r="6.6" fill="#b3b3b3"/><polygon points="326.87 185.9 325.01 184.03 326.87 182.16 325.63 180.92 323.76 182.78 321.89 180.92 320.65 182.16 322.52 184.03 320.65 185.9 321.89 187.14 323.76 185.27 325.63 187.14 326.87 185.9" fill="#fff"/><circle cx="255.04" cy="184.03" r="6.6" fill="#a33340"/><polygon points="258.16 185.9 256.29 184.03 258.15 182.16 256.91 180.92 255.04 182.78 253.17 180.92 251.93 182.16 253.8 184.03 251.93 185.9 253.17 187.14 255.04 185.27 256.91 187.14 258.16 185.9" fill="#fff"/><path d="M331.3,396.93v3.47h-1.66v-1.73h-1.18v1.73h-1.66v-1.73h-2.21v1H322.8c-0.32,1.92-1.36,3.34-2.61,3.34s-2.08-1.14-2.49-2.77a1.8,1.8,0,0,1,0-3.55c0.41-1.63,1.37-2.77,2.49-2.77s2.18,1.26,2.55,3h8.55Zm-12.7.58a0.93,0.93,0,1,0,1,.93,0.95,0.95,0,0,0-1-.93" fill="#cbcbcb"/><path d="M261,396.93v3.47h-1.66v-1.73h-1.18v1.73h-1.66v-1.73h-2.21v1h-1.78c-0.31,1.92-1.36,3.34-2.6,3.34s-2.08-1.14-2.49-2.77a1.8,1.8,0,0,1,0-3.55c0.41-1.63,1.37-2.77,2.49-2.77s2.17,1.26,2.55,3H261Zm-12.7.58a0.93,0.93,0,1,0,1,.93,1,1,0,0,0-1-.93" fill="#0096d7"/><polygon points="187.2 254.56 187.2 244.24 176.38 244.24 176.38 254.56 181.79 259.39 187.2 254.56" fill="#5d9732"/><rect x="178.92" y="247.87" width="5.74" height="0.9" opacity="0.2" style="mix-blend-mode:darken"/><rect x="178.92" y="246.97" width="5.74" height="0.9" fill="#fff" opacity="0.4" style="mix-blend-mode:lighten"/><rect x="182.35" y="250.62" width="1.59" height="0.9" opacity="0.2" style="mix-blend-mode:darken"/><rect x="182.35" y="249.73" width="1.59" height="0.9" fill="#fff" opacity="0.4" style="mix-blend-mode:lighten"/><rect x="179.89" y="250.62" width="1.59" height="0.9" opacity="0.2" style="mix-blend-mode:darken"/><rect x="179.89" y="249.73" width="1.59" height="0.9" fill="#fff" opacity="0.4" style="mix-blend-mode:lighten"/><polygon points="114.25 254.56 114.25 244.24 103.43 244.24 103.43 254.56 108.84 259.39 114.25 254.56" fill="#0096d7"/><rect x="105.98" y="247.87" width="5.74" height="0.9" opacity="0.2" style="mix-blend-mode:darken"/><rect x="105.98" y="246.97" width="5.74" height="0.9" fill="#fff" opacity="0.4" style="mix-blend-mode:lighten"/><rect x="109.4" y="250.62" width="1.59" height="0.9" opacity="0.2" style="mix-blend-mode:darken"/><rect x="109.4" y="249.73" width="1.59" height="0.9" fill="#fff" opacity="0.4" style="mix-blend-mode:lighten"/><rect x="106.94" y="250.62" width="1.59" height="0.9" opacity="0.2" style="mix-blend-mode:darken"/><rect x="106.94" y="249.73" width="1.59" height="0.9" fill="#fff" opacity="0.4" style="mix-blend-mode:lighten"/><path d="M405,396.93v3.47h-1.66v-1.73h-1.18v1.73h-1.66v-1.73h-2.21v1h-1.78c-0.32,1.92-1.36,3.34-2.61,3.34s-2.08-1.14-2.49-2.77a1.8,1.8,0,0,1,0-3.55c0.41-1.63,1.37-2.77,2.49-2.77s2.18,1.26,2.55,3H405Zm-12.7.58a0.93,0.93,0,1,0,1,.93,0.95,0.95,0,0,0-1-.93" fill="#5d9732"/><circle cx="182.92" cy="612.3" r="16.5" fill="#0096d7"/><polygon points="190.7 616.97 186.03 612.3 190.7 607.63 187.59 604.52 182.92 609.18 178.25 604.52 175.14 607.63 179.81 612.3 175.14 616.97 178.25 620.08 182.92 615.41 187.59 620.08 190.7 616.97" fill="#fff"/><circle cx="38.54" cy="540.86" r="16.5" fill="#7dac5b"/><polygon points="48.79 536.32 45 532.53 35.92 541.61 32.08 537.77 28.29 541.56 35.92 549.19 35.92 549.18 35.93 549.19 48.79 536.32" fill="#fff"/><circle cx="182.92" cy="540.86" r="16.5" fill="#33abdf"/><polygon points="190.7 545.53 186.03 540.86 190.7 536.19 187.59 533.08 182.92 537.75 178.25 533.08 175.14 536.19 179.81 540.86 175.14 545.53 178.25 548.64 182.92 543.97 187.59 548.64 190.7 545.53" fill="#fff"/><path d="M55,612.29a16.5,16.5,0,1,1-16.5-16.5A16.5,16.5,0,0,1,55,612.29Z" fill="#5d9732"/><polygon points="48.79 607.75 45 603.97 35.92 613.05 32.08 609.21 28.29 613 35.91 620.63 35.92 620.62 35.93 620.63 48.79 607.75" fill="#fff"/><g opacity="0.9"><circle cx="109.97" cy="612.3" r="9.9" fill="#a33340"/><path d="M110,616.2a3.86,3.86,0,1,1,2.41-6.86L110.51,611l5,0.74v-5.09l-1.77,1.53a5.61,5.61,0,1,0,1.53,6.08L113.5,614A3.86,3.86,0,0,1,110,616.2Z" fill="#fff"/></g><circle cx="109.97" cy="540.86" r="9.9" fill="#b55c66"/><path d="M110,544.76a3.86,3.86,0,1,1,0-7.72,3.83,3.83,0,0,1,2.41.85l-1.91,1.65,5,0.74V535.2l-1.77,1.53a5.61,5.61,0,1,0,1.53,6.08l-1.79-.27A3.86,3.86,0,0,1,110,544.76Z" fill="#fff"/><polygon points="253.67 543.67 253.67 547.67 249.67 547.67 249.67 543.67 246.28 543.67 251.51 534.6 256.74 543.67 253.67 543.67" fill="#5d9232"/><polygon points="323.67 538.67 323.67 534.67 327.67 534.67 327.67 538.67 330.74 538.67 325.51 547.73 320.27 538.67 323.67 538.67" fill="#6f2e9f"/><polygon points="253.67 613.67 253.67 616.67 250.67 616.67 250.67 613.67 248.26 613.67 252 607.19 255.74 613.67 253.67 613.67" fill="#5d9232"/><polygon points="324.67 610.67 324.67 606.67 327.67 606.67 327.67 610.67 329.74 610.67 326 617.15 322.26 610.67 324.67 610.67" fill="#6f2e9f"/><path d="M397.44,459.22a8,8,0,1,0,8,8A8,8,0,0,0,397.44,459.22Zm0.64,14.37-0.64-1.48-0.64,1.48a6.41,6.41,0,0,1-5.73-5.73l1.48-.64-1.48-.64a6.41,6.41,0,0,1,5.73-5.73l0.64,1.48,0.64-1.48a6.41,6.41,0,0,1,5.73,5.73l-1.48.64,1.48,0.64A6.41,6.41,0,0,1,398.08,473.59Z" fill="#5d9732"/><path d="M401.19,463.32l-3.82,2.13h-0.08a1.79,1.79,0,0,0-1.79,1.79s0,0.05,0,.08l-2.13,3.82L397.2,469h0.08a1.79,1.79,0,0,0,1.79-1.78s0-.06,0-0.08Zm-3.9,4.69a0.79,0.79,0,1,1,.79-0.79A0.79,0.79,0,0,1,397.29,468Z" fill="#5d9732"/><path d="M466.75,459.22a8,8,0,1,0,8,8A8,8,0,0,0,466.75,459.22Zm0.64,14.37-0.64-1.48-0.64,1.48a6.41,6.41,0,0,1-5.73-5.73l1.48-.64-1.48-.64a6.41,6.41,0,0,1,5.73-5.73l0.64,1.48,0.64-1.48a6.41,6.41,0,0,1,5.73,5.73l-1.48.64,1.48,0.64A6.41,6.41,0,0,1,467.39,473.59Z" fill="#0096d7"/><path d="M470.65,463.32l-3.82,2.13h-0.08a1.79,1.79,0,0,0-1.79,1.79s0,0.05,0,.08l-2.13,3.82,3.82-2.13h0.08a1.79,1.79,0,0,0,1.79-1.78s0-.06,0-0.08Zm-3.9,4.69a0.79,0.79,0,1,1,.79-0.79A0.79,0.79,0,0,1,466.75,468Z" fill="#0096d7"/></g></g></svg>