<?xml version="1.0" encoding="UTF-8"?>
<svg width="38pt" version="1.1" xmlns="http://www.w3.org/2000/svg" height="38pt" viewBox="0 0 38 38" xmlns:xlink="http://www.w3.org/1999/xlink">
 <defs>
  <clipPath id="Clip0">
   <path d="M0 0 L31.12 0 L31.12 29.77 L0 29.77 L0 0 Z" transform="translate(4, 0)"/>
  </clipPath>
 </defs>
 <g id="Background">
  <g id="a-z" clip-path="url(#Clip0)">
   <path style="fill:#5d9731; fill-rule:evenodd;stroke:none;" d="M11.63 13.88 L4.95 13.88 L4.16 15.71 C3.93435 16.1837 3.80195 16.6963 3.77 17.22 C3.74403 17.6972 3.99245 18.1475 4.41 18.38 C5.00242 18.5981 5.62871 18.7098 6.26 18.71 L6.26 19.22 L0 19.22 L0 18.68 C0.633141 18.5982 1.21907 18.3017 1.66 17.84 C2.33334 16.9776 2.87584 16.0207 3.27 15 L10 0 L10.26 0 L17.05 15.43 C17.422 16.4345 17.9631 17.368 18.65 18.19 C19.0251 18.5005 19.4933 18.6765 19.98 18.69 L19.98 19.2 L10.95 19.2 L10.95 18.68 L11.33 18.68 C11.8613 18.7255 12.3947 18.6216 12.87 18.38 C13.0758 18.2336 13.1927 17.9923 13.18 17.74 C13.1795 17.5669 13.1525 17.3949 13.1 17.23 C13.1 17.15 12.96 16.8167 12.68 16.23 L11.63 13.88 Z M11.16 12.88 L8.36 6.4 L5.47 12.88 L11.16 12.88 Z" transform="translate(4, 0)"/>
   <path style="fill:#bfd5ad; fill-rule:evenodd;stroke:none;" d="M16.87 0.01 L5.87 17.77 L9.45 17.77 C10.6423 17.8213 11.8361 17.7137 13 17.45 C14.1037 17.116 15.0913 16.4784 15.85 15.61 C16.7097 14.5815 17.2793 13.3422 17.5 12.02 L18.04 12.02 L17.28 18.82 L0 18.82 L11.08 1.03 L8.29 1.03 C7.57518 1.01056 6.85989 1.04398 6.15 1.13 C5.50059 1.24881 4.87961 1.48974 4.32 1.84 C3.74938 2.20151 3.26746 2.68684 2.91 3.26 C2.4944 3.95624 2.19704 4.71654 2.03 5.51 L1.52 5.51 L2.03 0 L16.87 0 L16.87 0.01 Z" transform="translate(17.08, 10.95)"/>
  </g>
 </g>
</svg>
