<?xml version="1.0" encoding="UTF-8"?>
<svg width="38pt" version="1.1" xmlns="http://www.w3.org/2000/svg" height="38pt" viewBox="0 0 38 38" xmlns:xlink="http://www.w3.org/1999/xlink">
 <defs>
  <clipPath id="Clip0">
   <path d="M0 0 L35.7812 0 L35.7812 33.29 L0 33.29 L0 0 Z" transform="translate(1, 0)"/>
  </clipPath>
 </defs>
 <g id="Background">
  <g id="analysis-projections" clip-path="url(#Clip0)">
   <path style="fill:none;stroke:#bfd5ad; stroke-width:2; stroke-linecap:butt; stroke-linejoin:miter; stroke-dasharray:none;" d="M29.6 24.8 L0.16 24.8 L0 24.8 L0 0 " transform="translate(2, 1)"/>
   <path style="fill:none;stroke:#bfd5ad; stroke-width:4; stroke-linecap:butt; stroke-linejoin:miter; stroke-dasharray:none;" d="M12.09 3.33 L7.34 0 L0 10.94 " transform="translate(4.63, 11.83)"/>
   <path style="fill:none;stroke:#bfd5ad; stroke-width:4; stroke-linecap:butt; stroke-linejoin:miter; stroke-dasharray:none;" d="M0.69 0 L0 1.33 " transform="translate(27.78, 3.49)"/>
   <path style="fill:none;stroke:#bfd5ad; stroke-width:4; stroke-linecap:butt; stroke-linejoin:miter; stroke-dasharray:2 2 ; stroke-dashoffset:0;" d="M4.31 0 L0 8.38 " transform="translate(22.24, 7.21)"/>
   <path style="fill:none;stroke:#bfd5ad; stroke-width:4; stroke-linecap:butt; stroke-linejoin:miter; stroke-dasharray:none;" d="M1.91 0 L1.22 1.33 L0 0.47 " transform="translate(19.71, 16.78)"/>
   <path style="fill:none;stroke:#bfd5ad; stroke-width:4; stroke-linecap:butt; stroke-linejoin:miter; stroke-dasharray:none;" d="M1.23 0.86 L0 0 " transform="translate(16.72, 15.16)"/>
   <path style="fill:#5d9731; fill-rule:evenodd;stroke:none;" d="M5.32 12.95 C4.03 13.64 0.69 12.06 0.32 9.79 C0 7.97 7.02 0.98 7.71 0 C8.60174 1.038 9.74483 1.8299 11.03 2.3 C10.26 3.41 6.74 12.15 5.32 12.91 " transform="translate(10.3, 19.65)"/>
   <path style="fill:#5d9731; fill-rule:evenodd;stroke:none;" d="M20.105 5.37852 C18.2331 2.01197 14.6124 0 10.765 0.188521 L10.335 0.188521 C8.92964 0.317565 7.56696 0.739995 6.33502 1.42852 C6.03502 1.59852 5.75502 1.77852 5.48502 1.95852 L5.04502 2.27852 C1.13139 5.32303 0 10.7547 2.37259 15.1086 C4.74517 19.4625 9.92289 21.4562 14.6028 19.8178 C19.2826 18.1794 22.0862 13.3915 21.225 8.50852 C21.0289 7.41001 20.6504 6.35206 20.105 5.37852 Z M7.67502 3.84852 C9.13657 3.0308 10.8351 2.74123 12.485 3.02852 L12.875 3.10852 L13.285 3.19852 C15.1721 3.72826 16.7678 4.99262 17.715 6.70852 L17.715 6.70852 C19.6776 10.2608 18.399 14.7312 14.855 16.7085 C11.6894 18.4498 7.72859 17.6434 5.49591 14.8029 C3.26323 11.9624 3.41521 7.92319 5.85502 5.25852 C5.99502 5.09852 6.14502 4.94852 6.30502 4.80852 C6.72781 4.42217 7.19431 4.08656 7.69502 3.80852 " transform="translate(14.695, 1.03148)"/>
  </g>
 </g>
</svg>
