<?xml version="1.0" encoding="UTF-8"?>
<svg width="38pt" version="1.1" xmlns="http://www.w3.org/2000/svg" height="40pt" viewBox="0 0 38 40" xmlns:xlink="http://www.w3.org/1999/xlink">
 <defs>
  <clipPath id="Clip0">
   <path d="M0 0 L25.8824 0 L25.8824 39.09 L0 39.09 L0 0 Z" transform="translate(7, 0)"/>
  </clipPath>
 </defs>
 <g id="Background">
  <g id="beta" clip-path="url(#Clip0)">
   <path style="fill:#5d9731; fill-rule:evenodd;stroke:none;" d="M2 0 C0.895431 0 0 0.895431 0 2 C0 3.10457 0.895431 4 2 4 C3.10457 4 4 3.10457 4 2 C4 0.895431 3.10457 0 2 0 Z M2.3 2.64 C1.74772 2.64 1.3 2.19228 1.3 1.64 C1.3 1.08772 1.74772 0.64 2.3 0.64 C2.85228 0.64 3.3 1.08772 3.3 1.64 C3.28911 2.18446 2.84457 2.62011 2.3 2.62 L2.3 2.64 Z" transform="translate(17.9271, 3.55)"/>
   <path style="fill:#5d9731; fill-rule:evenodd;stroke:none;" d="M1.11 0 C0.496964 5.68434e-14 0 0.496964 0 1.11 C0 1.72304 0.496964 2.22 1.11 2.22 C1.72304 2.22 2.22 1.72304 2.22 1.11 C2.22 0.496964 1.72304 5.68434e-14 1.11 5.68434e-14 L1.11 0 Z M1.27 1.45 C0.977289 1.45 0.74 1.21271 0.74 0.92 C0.74 0.627289 0.977289 0.39 1.27 0.39 C1.56271 0.39 1.8 0.627289 1.8 0.92 C1.8 1.21271 1.56271 1.45 1.27 1.45 L1.27 1.45 Z" transform="translate(20.5571, 1.01)"/>
   <path style="fill:#5d9731; fill-rule:evenodd;stroke:none;" d="M0.59 0 C0.264152 0 0 0.264152 0 0.59 C0 0.915848 0.264152 1.18 0.59 1.18 C0.915848 1.18 1.18 0.915848 1.18 0.59 C1.18 0.264152 0.915848 0 0.59 0 Z M0.68 0.77 C0.52536 0.77 0.4 0.64464 0.4 0.49 C0.4 0.33536 0.52536 0.21 0.68 0.21 C0.83464 0.21 0.96 0.33536 0.96 0.49 C0.96 0.64464 0.83464 0.77 0.68 0.77 L0.68 0.77 Z" transform="translate(18.8371, 0)"/>
   <path style="fill:#5d9731; fill-rule:evenodd;stroke:none;" d="M25.2371 26.2 L16.6971 10.56 L16.6971 3.48 C16.8218 3.44222 16.9487 3.41216 17.0771 3.39 C17.5038 3.35265 17.9088 3.18509 18.2371 2.91 C18.3056 2.84508 18.3601 2.7668 18.3971 2.68 C18.5996 2.03278 18.7008 1.35814 18.6971 0.68 C18.6971 0.304446 18.3927 0 18.0171 0 L7.8271 0 C7.45546 0.00546592 7.15706 0.308317 7.1571 0.68 C7.15279 1.35819 7.254 2.03292 7.4571 2.68 C7.49363 2.76709 7.54815 2.84547 7.6171 2.91 C7.94544 3.18509 8.35038 3.35265 8.7771 3.39 C8.90552 3.41206 9.03243 3.44212 9.1571 3.48 L9.1571 10.56 L0.647099 26.17 C0.0784518 27.0972 0 28.244 0.437099 29.24 C1.0771 30.37 2.5971 30.94 4.9671 30.94 L20.9271 30.94 C23.2971 30.94 24.8171 30.37 25.4571 29.24 C25.8824 28.2512 25.8004 27.1173 25.2371 26.2 L25.2371 26.2 Z M20.6871 20.68 L5.1671 20.68 L5.7671 19.59 L9.9971 19.59 C10.3699 19.59 10.6721 19.2878 10.6721 18.915 C10.6721 18.5422 10.3699 18.24 9.9971 18.24 L6.5071 18.24 L8.1071 15.3 L12.1071 15.3 C12.4799 15.3 12.7821 14.9978 12.7821 14.625 C12.7821 14.2522 12.4799 13.95 12.1071 13.95 L8.8071 13.95 L10.3871 11.05 C10.4396 10.9515 10.4671 10.8416 10.4671 10.73 L10.4671 3.4 C10.4696 3.36671 10.4696 3.33329 10.4671 3.3 C10.3209 2.59809 9.70407 2.0938 8.9871 2.09 C8.8622 2.07115 8.73863 2.04443 8.6171 2.01 C8.56718 1.79284 8.53375 1.57221 8.5171 1.35 L17.2871 1.35 C17.2704 1.5722 17.2369 1.79282 17.1871 2.01 C17.0656 2.04443 16.942 2.07115 16.8171 2.09 C16.1001 2.0938 15.4833 2.59809 15.3371 3.3 C15.3348 3.3333 15.3348 3.3667 15.3371 3.4 L15.3371 10.75 C15.3367 10.8617 15.3642 10.9717 15.4171 11.07 L20.6871 20.68 Z" transform="translate(7, 8.15)"/>
  </g>
 </g>
</svg>
