<?xml version="1.0" encoding="UTF-8"?>
<svg width="38pt" version="1.1" xmlns="http://www.w3.org/2000/svg" height="38pt" viewBox="0 0 38 38" xmlns:xlink="http://www.w3.org/1999/xlink">
 <defs>
  <clipPath id="Clip0">
   <path d="M0 0 L34.86 0 L34.86 34.39 L0 34.39 L0 0 Z" transform="translate(2, 0)"/>
  </clipPath>
 </defs>
 <g id="Background">
  <g id="coal" clip-path="url(#Clip0)">
   <path style="fill:#bfd5ad; fill-rule:evenodd;stroke:none;" d="M22.11 0 L0 18.44 C0 18.44 0.28 21.09 3.81 22.44 L24.35 2.25 L22.11 0 Z" transform="translate(2, 9.95)"/>
   <path style="fill:#5d9731; fill-rule:evenodd;stroke:none;" d="M17.51 18.34 C16.94 15.2 14.7 11.81 12.13 8.81 L12.77 8.16 L9.08 4.48 L8.57 5 C6.75172 3.23105 4.83891 1.56194 2.84 0 L0 2.94 L5.56 8.07 L4.93 8.71 L8.67 12.39 L9.43 11.61 L17.37 18.88 L17.51 18.34 Z" transform="translate(19.35, 0)"/>
   <path style="fill:#5d9731; fill-rule:evenodd;stroke:none;" d="M4.45 2.14 L0 8.02 L0.57 12.1 L4.45 14.88 L7.67 16.15 L10.75 14.88 L14.63 12.1 L15.21 8.02 L10.75 2.14 L7.67 0 L4.45 2.14 Z" transform="translate(19.6, 18.24)"/>
  </g>
 </g>
</svg>
