<?xml version="1.0" encoding="UTF-8"?>
<svg width="38pt" version="1.1" xmlns="http://www.w3.org/2000/svg" height="38pt" viewBox="0 0 38 38" xmlns:xlink="http://www.w3.org/1999/xlink">
 <defs>
  <clipPath id="Clip0">
   <path d="M0 0 L38 0 L38 38 L0 38 L0 0 Z" transform="translate(0, 0)"/>
  </clipPath>
 </defs>
 <g id="Background">
  <g id="consumption" clip-path="url(#Clip0)">
   <path style="fill:#5d9731; fill-rule:evenodd;stroke:none;" d="M0.14 12.57 L13.53 12.57 C13.5253 12.414 13.4558 12.267 13.338 12.1645 C13.2203 12.0619 13.0652 12.0132 12.91 12.03 L12.91 7.14 L13.69 7.14 L11.15 3.47 L11.15 0 L9.36 0 L9.36 1.73 L3.75 1.73 L0 7.14 L0.76 7.14 L0.76 12.03 C0.604813 12.0132 0.449659 12.0619 0.331952 12.1645 C0.214245 12.267 0.144669 12.414 0.14 12.57 L0.14 12.57 Z M12.37 12.03 L7.37 12.03 L7.37 7.14 L12.37 7.14 L12.37 12.03 L12.37 12.03 Z M6.88 12.03 L4.88 12.03 L4.88 8.77 L3.27 8.77 L3.27 12.03 L1.27 12.03 L1.27 7.14 L6.86 7.14 L6.86 12.03 L6.86 12.03 L6.88 12.03 Z M10.57 2.63 L10.57 0.58 L9.95 0.58 L9.95 1.73 L10.58 2.64 L10.58 2.64 L10.57 2.63 Z M10.57 10.4 L9.27 10.4 L9.27 7.68 L10.57 7.68 L10.57 10.4 L10.57 10.4 Z M3.98 2.79 L1.35 6.6 L6.55 6.6 L3.98 2.79 Z" transform="translate(2.17, 3.72)"/>
   <path style="fill:#5d9731; fill-rule:evenodd;stroke:none;" d="M1.37 10.46 L5.02 10.46 L5.02 11.29 L1.37 11.29 L1.37 10.46 L1.37 10.46 Z M0.02 13.73 L13.29 13.73 C13.2853 13.574 13.2158 13.427 13.098 13.3245 C12.9803 13.2219 12.8252 13.1732 12.67 13.19 L12.67 3.88 L6.67 3.88 L6.67 4.57 L12 4.57 L12 13.16 L11.02 13.16 L11.02 11.25 L10.12 11.25 L10.12 13.16 L9.25 13.16 L9.25 11.25 L8.35 11.25 L8.35 13.16 L7.52 13.16 L7.52 11.25 L6.62 11.25 L6.62 13.16 L5.74 13.16 L5.74 1.57 L0.62 1.57 L0.62 13.18 C0.464813 13.1632 0.309659 13.2119 0.191952 13.3145 C0.0742454 13.417 0.00466868 13.564 0 13.72 L7.10543e-15 13.72 L0.02 13.73 Z M3.73 13.19 L2.66 13.19 L2.66 12.19 L3.71 12.19 L3.71 13.19 L3.71 13.19 L3.73 13.19 Z M10.02 0 L4.11 0 L4.11 0.72 L9.28 0.72 L9.28 3.08 L10.02 3.08 L10.02 5.68434e-14 L10.02 5.68434e-14 Z M6.63 5.63 L7.53 5.63 L7.53 6.57 L6.62 6.57 L6.62 5.67 L6.62 5.67 L6.63 5.63 Z M8.36 5.63 L9.26 5.63 L9.26 6.57 L8.36 6.57 L8.36 5.67 L8.36 5.67 L8.36 5.63 Z M6.62 7.57 L7.52 7.57 L7.52 8.47 L6.62 8.47 L6.62 7.57 L6.62 7.57 Z M8.35 7.57 L9.25 7.57 L9.25 8.47 L8.35 8.47 L8.35 7.57 L8.35 7.57 Z M6.62 9.47 L7.52 9.47 L7.52 10.37 L6.62 10.37 L6.62 9.47 L6.62 9.47 Z M8.35 9.47 L9.25 9.47 L9.25 10.37 L8.35 10.37 L8.35 9.47 L8.35 9.47 Z M10.08 5.67 L11.02 5.67 L11.02 6.57 L10.12 6.57 L10.12 5.67 L10.12 5.67 L10.08 5.67 Z M10.08 7.57 L11.02 7.57 L11.02 8.47 L10.12 8.47 L10.12 7.57 L10.12 7.57 L10.08 7.57 Z M10.08 9.47 L11.02 9.47 L11.02 10.37 L10.12 10.37 L10.12 9.47 L10.12 9.47 L10.08 9.47 Z M1.37 8.57 L5.02 8.57 L5.02 9.4 L1.37 9.4 L1.37 8.57 L1.37 8.57 Z M1.37 6.64 L5.02 6.64 L5.02 7.47 L1.37 7.47 L1.37 6.57 L1.37 6.57 L1.37 6.64 Z M1.37 4.71 L5.02 4.71 L5.02 5.54 L1.37 5.54 L1.37 4.71 L1.37 4.71 Z M1.37 2.78 L5.02 2.78 L5.02 3.57 L1.37 3.57 L1.37 2.74 L1.37 2.74 L1.37 2.78 Z" transform="translate(21.98, 2.43)"/>
   <path style="fill:#5d9731; fill-rule:evenodd;stroke:none;" d="M1.95 6 L3.04 6 L3.25 6 L3.58 0 L5.4 0 L5.78 7 L3.87 7.66 L3.87 7.4 C3.8646 6.94938 3.50062 6.5854 3.05 6.58 L1.95 6.58 C1.49938 6.5854 1.1354 6.94938 1.13 7.4 L1.13 8.13 L3.13 8.13 L3.13 8.65 L1.1 8.65 L1.1 9.25 L3.1 9.25 L3.1 9.77 L1.1 9.77 L1.1 10.37 L3.1 10.37 L3.1 10.9 L1.1 10.9 L1.1 11.51 L3.1 11.51 L3.1 12 L1.1 12 L1.1 12.53 L3.84 12.53 L3.84 11 L8.98 11 L8.98 9.22 C8.37829 9.22248 7.87657 9.68095 7.82 10.28 L6.92 10.28 C6.96285 9.16647 7.87565 8.28453 8.99 8.28 L8.99 7.45 L5.84 8.54 L5.93 10.25 L3.87 10.25 L3.87 8.44 L9.01 6.67 L9.01 4.78 L12.71 4.78 L12.71 12.56 C12.8599 12.5432 13.01 12.5898 13.1239 12.6886 C13.2379 12.7873 13.3054 12.9293 13.31 13.08 L0 13.08 C0.00464382 12.9293 0.0721138 12.7873 0.186081 12.6886 C0.300049 12.5898 0.450129 12.5432 0.6 12.56 L0.6 12 C0.456406 12 0.34 11.8836 0.34 11.74 C0.34 11.5964 0.456406 11.48 0.6 11.48 L0.6 10.87 C0.453645 10.87 0.335 10.7514 0.335 10.605 C0.335 10.4586 0.453645 10.34 0.6 10.34 L0.6 9.74 C0.456406 9.74 0.34 9.62359 0.34 9.48 C0.34 9.33641 0.456406 9.22 0.6 9.22 L0.6 8.62 C0.456406 8.62 0.34 8.50359 0.34 8.36 C0.34 8.21641 0.456406 8.1 0.6 8.1 L0.6 7.37 C0.594644 7.00851 0.734508 6.65997 0.988265 6.40245 C1.24202 6.14493 1.58847 5.99996 1.95 6 L1.95 6 Z M11.88 12.52 L11.1 12.52 L11.1 11.63 L11.87 11.63 L11.87 12.52 L11.87 12.52 L11.88 12.52 Z M9.01 12.52 L7.84 12.52 L7.84 11.68 L9.01 11.68 L9.01 12.52 L9.01 12.52 Z M6.94 12.52 L6.02 12.52 L6.02 11.68 L6.94 11.68 L6.94 12.52 L6.94 12.52 Z M11.1 7 L11.1 6.5 L11.87 6.5 L11.87 7 L11.1 7 Z M11.1 10.59 L11.1 10.06 L11.87 10.06 L11.87 10.59 L11.1 10.59 Z M10.33 8.19 L10.33 7.66 L11.1 7.66 L11.1 8.19 L10.34 8.19 L10.33 8.19 Z" transform="translate(2.9, 22)"/>
   <path style="fill:#5d9731; fill-rule:evenodd;stroke:none;" d="M10.89 2.63 L10.26 2.63 C10.1588 2.63304 10.0655 2.68531 10.01 2.77 L9.26 0.77 L9.26 0.77 C9.04361 0.342499 8.62621 0.0529555 8.15 5.68434e-14 L3.15 0 C2.67379 0.0529555 2.25639 0.342499 2.04 0.77 L1.24 2.83 C1.21535 2.68408 1.08797 2.57793 0.94 2.58 L0.31 2.58 C0.138792 2.58 0 2.71879 0 2.89 L0 3.14 C0 3.31121 0.138792 3.45 0.31 3.45 L0.99 3.45 C0.863085 3.55813 0.754956 3.68654 0.67 3.83 C0.469477 4.30641 0.403749 4.82877 0.48 5.34 C0.48 6.49 0.72 6.9 1 7.04 L1.22 7.17 L1.22 8.24 C1.22 8.59 1.3 8.69 1.64 8.69 L2.4 8.69 C2.74 8.69 2.82 8.59 2.82 8.24 L2.82 7.17 L8.45 7.17 L8.45 8.24 C8.45 8.59 8.53 8.69 8.87 8.69 L9.67 8.69 C10.01 8.69 10.09 8.59 10.09 8.24 L10.09 7.17 L10.31 7.05 C10.59 6.91 10.83 6.5 10.83 5.35 C10.9063 4.83877 10.8405 4.31641 10.64 3.84 C10.5567 3.70701 10.452 3.58874 10.33 3.49 L10.92 3.49 C11.0912 3.49 11.23 3.35121 11.23 3.18 L11.23 2.93 C11.2276 2.84406 11.1897 2.76296 11.1252 2.70608 C11.0608 2.6492 10.9756 2.62165 10.89 2.63 L10.89 2.63 Z M2.48 5.91 C2.11549 5.91 1.82 5.61451 1.82 5.25 C1.82 4.88549 2.11549 4.59 2.48 4.59 C2.84451 4.59 3.14 4.88549 3.14 5.25 C3.14 5.61451 2.84451 5.91 2.48 5.91 Z M7.22 5.66 L4.07 5.66 C4.02876 5.67355 3.98349 5.65896 3.95794 5.62387 C3.93239 5.58878 3.93239 5.54122 3.95794 5.50613 C3.98349 5.47104 4.02876 5.45645 4.07 5.47 L7.22 5.47 C7.26124 5.45645 7.30651 5.47104 7.33206 5.50613 C7.35761 5.54122 7.35761 5.58878 7.33206 5.62387 C7.30651 5.65896 7.26124 5.67355 7.22 5.66 L7.22 5.66 Z M7.45 5.33 L3.85 5.33 C3.80876 5.34355 3.76349 5.32896 3.73794 5.29387 C3.71239 5.25878 3.71239 5.21122 3.73794 5.17613 C3.76349 5.14104 3.80876 5.12645 3.85 5.14 L7.45 5.14 C7.49184 5.12884 7.53611 5.14587 7.55967 5.1822 C7.58324 5.21853 7.58075 5.26589 7.5535 5.29955 C7.52625 5.3332 7.48044 5.34549 7.44 5.33 L7.45 5.33 Z M3.96 4.9 C3.95986 4.87165 3.97175 4.84457 3.99273 4.8255 C4.01371 4.80643 4.04179 4.79716 4.07 4.8 L7.22 4.8 C7.26124 4.78645 7.30651 4.80104 7.33206 4.83613 C7.35761 4.87122 7.35761 4.91878 7.33206 4.95387 C7.30651 4.98896 7.26124 5.00355 7.22 4.99 L4.07 4.99 C4.04345 4.99279 4.01689 4.98485 3.99623 4.96794 C3.97557 4.95104 3.96252 4.92658 3.96 4.9 L3.96 4.9 Z M8.83 5.9 C8.46549 5.9 8.17 5.60451 8.17 5.24 C8.17 4.87549 8.46549 4.58 8.83 4.58 C9.19451 4.58 9.49 4.87549 9.49 5.24 C9.49268 5.41677 9.42433 5.58722 9.30026 5.71317 C9.1762 5.83911 9.00679 5.91002 8.83 5.91 L8.83 5.9 Z M9.56 3.46 L1.72 3.46 C1.67267 3.47139 1.62315 3.45305 1.59465 3.41359 C1.56614 3.37412 1.56431 3.32135 1.59 3.28 C1.59 3.11 2.31 1.44 2.45 0.98 C2.60413 0.669233 2.92315 0.474711 3.27 0.48 L8 0.48 C8.34619 0.477116 8.66403 0.670921 8.82 0.98 C8.96 1.44 9.64 3.11 9.68 3.28 C9.70139 3.32105 9.69935 3.37037 9.67463 3.4095 C9.64992 3.44864 9.60626 3.47168 9.56 3.47 L9.56 3.46 Z" transform="translate(23.33, 26.17)"/>
   <path style="fill:#bfd5ad; fill-rule:evenodd;stroke:none;" d="M38 19 L19 19 L19 0 L18 0 L18 19 L0 19 L0 20 L18 20 L18 38 L19 38 L19 20 L38 20 L38 19 Z" transform="translate(0, 0)"/>
  </g>
 </g>
</svg>
