<?xml version="1.0" encoding="UTF-8"?>
<svg width="38pt" version="1.1" xmlns="http://www.w3.org/2000/svg" height="38pt" viewBox="0 0 38 38" xmlns:xlink="http://www.w3.org/1999/xlink">
 <defs>
  <clipPath id="Clip0">
   <path d="M0 0 L36.8542 0 L36.8542 36.55 L0 36.55 L0 0 Z" transform="translate(1, 0)"/>
  </clipPath>
 </defs>
 <g id="Background">
  <g id="data-tools" clip-path="url(#Clip0)">
   <path style="fill:#bfd5ad; fill-rule:evenodd;stroke:none;" d="M0 32.07 L18.89 4.92 C16.68 3.99 13.84 3.79 9.8 3.92 C9.73685 3.92686 9.67315 3.92686 9.61 3.92 L9.52 3.92 C9.29444 3.86888 9.09944 3.72805 8.98 3.53 L8.98 3.53 C8.93901 3.45104 8.90875 3.36697 8.89 3.28 C8.89 3.28 8.89 3.22 8.89 3.19 C8.89 3.16 8.89 3.19 8.89 3.19 C8.89 3.19 8.89 3.19 8.89 3.13 C8.8861 3.08341 8.8861 3.03659 8.89 2.99 C8.88392 2.93015 8.88392 2.86985 8.89 2.81 C8.9108 2.75075 8.9376 2.69379 8.97 2.64 C8.99582 2.58761 9.02592 2.53743 9.06 2.49 C9.10022 2.44675 9.14368 2.40663 9.19 2.37 L9.33 2.27 C9.38732 2.24028 9.44766 2.21681 9.51 2.2 L9.64 2.2 C24.04 0 24.64 2.2 28.17 14.58 L28.3 14.92 C28.3035 14.9733 28.3035 15.0267 28.3 15.08 C28.3042 15.1366 28.3042 15.1934 28.3 15.25 C28.2761 15.3692 28.2426 15.4862 28.2 15.6 C28.1704 15.6493 28.137 15.6961 28.1 15.74 C28.0647 15.7905 28.0245 15.8374 27.98 15.88 C27.9334 15.9182 27.8832 15.9517 27.83 15.98 C27.7894 16.0109 27.7459 16.0377 27.7 16.06 L27.7 16.06 C27.6138 16.0724 27.5262 16.0724 27.44 16.06 C27.2429 16.0555 27.0516 15.9929 26.89 15.88 C26.8403 15.8321 26.7967 15.7784 26.76 15.72 C26.6741 15.6436 26.6029 15.5521 26.55 15.45 C25.04 11.45 23.7 8.78 22.05 6.99 L3.19 34.15 L0 32.07 Z" transform="translate(9.55, 2.4)"/>
   <path style="fill:#5d9731; fill-rule:evenodd;stroke:none;" d="M1.95 0 C1.95 0 7.95 0.76 9.58 1.57 C11.75 2.68 14.9 8.06 14.9 8.06 L11.33 10.7 L27.8 33.83 L24.7 36.03 L8.27 12.95 L4.86 15.48 C4.86 15.48 0.54 10.05 0.24 7.65 C0 5.77 1.95 0 1.95 0 Z" transform="translate(1, 0)"/>
  </g>
 </g>
</svg>
