<?xml version="1.0" encoding="UTF-8"?>
<svg width="76pt" version="1.1" xmlns="http://www.w3.org/2000/svg" height="58pt" viewBox="0 0 76 58" xmlns:xlink="http://www.w3.org/1999/xlink">
 <defs/>
 <g id="Background">
  <path style="fill:#ffffff; fill-rule:evenodd;stroke:none;" d="M7.11106 3.67098 C8.34126 2.27673 10.1331 1.50935 11.9911 1.58098 C13.7923 1.54307 15.5254 2.26974 16.7611 3.58098 C18.0876 5.04109 18.7753 6.971 18.6711 8.94098 L18.6711 9.43098 L5.06106 9.43098 C5.07629 7.34099 5.79887 5.31777 7.11106 3.69098 Z M22.6611 20.821 C21.6398 21.9601 20.4809 22.9678 19.2111 23.821 C17.9303 24.5264 16.4824 24.8719 15.0211 24.821 C13.211 24.7915 11.4583 24.1816 10.0211 23.081 C8.36174 21.8586 7.08801 20.1857 6.35106 18.261 C5.46386 15.9492 5.03587 13.4866 5.09106 11.011 L5.09106 10.661 L23.4811 10.661 L23.4811 10.111 C23.488 7.39651 22.3036 4.81568 20.2411 3.05098 C18.1975 1.10821 15.4806 0.0329314 12.6611 0.0509801 C9.26027 0 6.00646 1.43518 3.75106 3.98098 C1.31969 6.60819 0.0131661 10.0827 0.111058 13.661 C0 17.197 1.38299 20.6164 3.92106 23.081 C6.51293 25.5688 10.0005 26.9033 13.5911 26.781 C15.5549 26.8347 17.5019 26.4055 19.2611 25.531 C21.0849 24.4801 22.6661 23.0556 23.9011 21.351 L23.9011 21.351 L22.6611 20.821 Z" transform="translate(0, 29.439)"/>
  <path style="fill:#ffffff; fill-rule:evenodd;stroke:none;" d="M14.0431 21.4599 C13.5433 22.4249 12.7668 23.2187 11.8131 23.7399 C10.9147 24.3122 9.87791 24.6301 8.81312 24.6599 C7.74823 24.6512 6.74891 24.1442 6.11312 23.2899 C5.36158 22.3717 4.96105 21.2162 4.98312 20.0299 C4.9154 18.7966 5.29142 17.5799 6.04312 16.5999 C6.74979 15.7532 8.36979 14.8999 10.9031 14.0399 C12.2698 13.5732 13.3131 13.1899 14.0331 12.8899 L14.0331 21.4499 L14.0431 21.4599 Z M22.4031 22.4599 C22.0831 23.4599 21.0631 24.6599 20.3031 24.6299 C19.7824 24.6497 19.3157 24.311 19.1731 23.8099 C18.9233 22.7931 18.8223 21.7456 18.8731 20.6999 L18.8731 9.90986 C18.8862 6.32683 16.8244 3.05998 13.5845 1.52999 C10.3445 0 6.51178 0.483358 3.75312 2.76986 C2.08557 4.1708 0.934513 6.08923 0.483121 8.21986 L1.72312 8.73986 C2.13967 7.19165 3.02731 5.81126 4.26312 4.78986 C5.42912 3.8326 6.89458 3.3158 8.40312 3.32986 C9.95183 3.26278 11.4515 3.88094 12.5031 5.01986 C13.5636 6.24893 14.1113 7.83843 14.0331 9.45986 L14.0331 11.3399 C12.5198 12.0619 10.9343 12.6217 9.30312 13.0099 C5.56979 14.0565 3.09312 15.1532 1.87312 16.2999 C0.663402 17.4292 0 19.0258 0.0531208 20.6799 C0.0347147 22.4963 0.808754 24.2306 2.17312 25.4299 C3.53941 26.7357 5.36329 27.4538 7.25312 27.4299 C8.44437 27.4583 9.62475 27.1976 10.6931 26.6699 C11.9538 25.9198 13.0823 24.967 14.0331 23.8499 C14.8198 26.2432 16.2465 27.4365 18.3131 27.4299 C19.6029 27.4799 20.852 26.9737 21.7431 26.0399 C22.5288 25.1657 23.0218 24.0679 23.1531 22.8999 L22.4031 22.4599 Z" transform="translate(42.8279, 28.8701)"/>
  <path style="fill:#ffffff; fill-rule:evenodd;stroke:none;" d="M10.47 24.16 C9.86 23.69 9.56 22.77 9.56 21.37 L9.56 0 L8 0 L8 0 C6.51 0.68 0 0.86 0 0.86 L0 2.04 C2.11 2.04 3.44 2.29 4 2.77 C4.56 3.25 4.8 4.27 4.8 5.77 L4.8 21.3 C4.8 22.72 4.51 23.6567 3.93 24.11 C3.35 24.56 2.05 24.79 0.03 24.79 L0.03 25.97 L13.77 25.97 L13.77 24.79 C12.6245 24.8969 11.4735 24.6527 10.47 24.09 " transform="translate(26.2111, 29.39)"/>
  <path style="fill:#5d9731; fill-rule:evenodd;stroke:none;" d="M0.01 25.34 C0.12 25.22 0.27 25.07 0.47 24.87 C7.62009 17.8961 15.7325 11.9827 24.56 7.31 C29.0538 4.92714 33.8512 3.16763 38.82 2.08 C48.92 0 55.18 2.43 57.07 4.01 C57.331 4.20829 57.5459 4.46075 57.7 4.75 C51.5849 4.13977 45.4122 4.47707 39.4 5.75 C27.89 8.13 16.24 13.49 4.79 21.7 C3.31 22.76 1.84 23.87 0.43 24.99 C0.292116 25.1007 0.14859 25.2042 0 25.3 " transform="translate(8.39106, 0)"/>
  <path style="fill:#ffc402; fill-rule:evenodd;stroke:none;" d="M0 25.1348 C0.11 24.9448 0.28 24.6748 0.55 24.2748 C3.03 20.6948 6.87 15.4848 9.88 11.9348 C17.03 3.48475 23.8 1.05475 27.2 0.354753 C28.3388 0.104175 29.5049 0 30.67 0.0447533 C30.5823 0.174489 30.4818 0.295094 30.37 0.404753 C22.2319 4.57603 14.7573 9.93093 8.19 16.2948 C6.05 18.4148 4.05 20.6648 2.44 22.4748 C1.81 23.1848 1.23 23.8448 0.71 24.4148 C0.38 24.7648 0.16 24.9948 1.13687e-13 25.1448 " transform="translate(5.92106, 0.825247)"/>
  <path style="fill:#0097d7; fill-rule:evenodd;stroke:none;" d="M58.51 35.84 C58.5488 35.3706 58.6428 34.9074 58.79 34.46 C60.93 27.98 60.79 21.97 58.28 17.07 C53.13 6.88 40.62 2.74 24.81 6 C16.8691 7.75013 9.24149 10.7007 2.19 14.75 C1.75 14.99 1.32 15.24 0.9 15.5 C0.49 15.74 0.2 15.9 0 16 C0.18 15.85 0.44 15.65 0.81 15.39 C3.01304 13.8491 5.29262 12.4206 7.64 11.11 C14.0789 7.48206 21.0265 4.84258 28.25 3.28 C44.17 0 57.01 3.79 61.75 13.18 C63.3719 16.5011 63.9938 20.222 63.54 23.89 C63.1524 28.2953 61.4052 32.4713 58.54 35.84 " transform="translate(11.8711, 9.19)"/>
  <path style="fill:#ffffff; fill-rule:evenodd;stroke:none;" d="M5.42 2.71 C5.42 4.20669 4.20669 5.42 2.71 5.42 C1.21331 5.42 0 4.20669 0 2.71 C0 1.21331 1.21331 0 2.71 0 C4.20669 0 5.42 1.21331 5.42 2.71 Z" transform="translate(30.1611, 20.84)"/>
 </g>
</svg>
