<?xml version="1.0" encoding="UTF-8"?>
<svg width="284pt" version="1.1" xmlns="http://www.w3.org/2000/svg" height="58pt" viewBox="0 0 284 58" xmlns:xlink="http://www.w3.org/1999/xlink">
 <defs/>
 <g id="Background">
  <path style="fill:#ffffff; fill-rule:evenodd;stroke:none;" d="M9.75 0.06 L13.99 0.06 L13.99 0.49 C13.5418 0.490062 13.1035 0.622236 12.73 0.87 C12.4787 1.04508 12.298 1.30384 12.22 1.6 C12.1372 2.11565 12.1038 2.638 12.12 3.16 L12.12 7.38 C12.137 8.18183 12.0969 8.98386 12 9.78 C11.8939 10.3478 11.6424 10.8784 11.27 11.32 C10.8175 11.8635 10.2318 12.2804 9.57 12.53 C8.76444 12.8448 7.90471 12.9977 7.04 12.98 C6.05146 13.01 5.06933 12.8115 4.17 12.4 C3.47067 12.091 2.88637 11.5697 2.5 10.91 C2.13181 10.1477 1.95993 9.30557 2 8.46 L2 3.21 C2.02186 2.54201 1.99176 1.87333 1.91 1.21 C1.8821 0.962243 1.74683 0.739228 1.54 0.6 C1.14094 0.451976 0.714102 0.393927 0.29 0.43 L0 0.43 L0 0 L5.8 0 L5.8 0.43 L5.55 0.43 C5.13743 0.399401 4.72287 0.450371 4.33 0.58 C4.11999 0.705477 3.97697 0.91817 3.94 1.16 C3.85058 1.82268 3.81713 2.49171 3.84 3.16 L3.84 7.16 C3.80828 8.14716 3.87191 9.13507 4.03 10.11 C4.18702 10.734 4.57241 11.2764 5.11 11.63 C5.8102 12.0944 6.64083 12.3223 7.48 12.28 C8.20604 12.2897 8.92567 12.1431 9.59 11.85 C10.1464 11.6196 10.6326 11.2472 11 10.77 C11.2912 10.3746 11.4832 9.91503 11.56 9.43 C11.6458 8.70999 11.6825 7.98499 11.67 7.26 L11.67 2.94 C11.6899 2.43369 11.6496 1.92681 11.55 1.43 C11.4686 1.14042 11.2788 0.893318 11.02 0.74 C10.6267 0.538966 10.1917 0.4328 9.75 0.43 L9.75 0 L9.75 0.06 Z" transform="translate(93.0911, 23.25)"/>
  <path style="fill:#ffffff; fill-rule:evenodd;stroke:none;" d="M0.00153676 1.00422 C0 0.738418 0.10435 0.48294 0.291537 0.294221 C0.480256 0.107034 0.735734 0.00268423 1.00154 0.00422099 C1.27079 0 1.53037 0.104553 1.72154 0.294221 C1.90872 0.48294 2.01307 0.738418 2.01154 1.00422 C2.01818 1.41496 1.77294 1.78798 1.39323 1.94473 C1.01351 2.10147 0.576563 2.01005 0.291537 1.71422 C0.10435 1.5255 0 1.27002 0.00153676 1.00422 Z" transform="translate(106.74, 34.2958)"/>
  <path style="fill:#ffffff; fill-rule:evenodd;stroke:none;" d="M0.01 12.8213 L0.01 8.74134 L0.47 8.74134 C0.996667 11.408 2.25333 12.7413 4.24 12.7413 C5.00747 12.7864 5.75858 12.507 6.31 11.9713 C6.77321 11.5226 7.03631 10.9063 7.04 10.2613 C7.05403 9.66105 6.8187 9.08177 6.39 8.66134 C5.68911 8.07073 4.89044 7.6071 4.03 7.29134 C3.23594 6.96543 2.46716 6.58104 1.73 6.14134 C1.22443 5.82445 0.807982 5.38392 0.52 4.86134 C0.231622 4.35199 0.0800362 3.77666 0.08 3.19134 C0.0577872 2.33863 0.399619 1.51678 1.02 0.931339 C1.66052 0.324283 2.51807 0 3.4 0.0313391 C3.91809 0.0270049 4.43281 0.115048 4.92 0.291339 C5.48571 0.534631 5.98596 0.908103 6.38 1.38134 C6.65433 1.07101 6.82555 0.683152 6.87 0.271339 L7.28 0.271339 L7.28 3.59134 L6.87 3.59134 C6.68799 2.72224 6.24901 1.92789 5.61 1.31134 C5.0473 0.774153 4.29793 0.476556 3.52 0.481339 C2.90347 0.427596 2.29503 0.65118 1.86 1.09134 C1.52297 1.45663 1.33403 1.93433 1.33 2.43134 C1.3285 2.99918 1.56845 3.54089 1.99 3.92134 C2.70557 4.49868 3.50469 4.96399 4.36 5.30134 C5.17444 5.64686 5.969 6.03746 6.74 6.47134 C7.19188 6.82407 7.5924 7.23805 7.93 7.70134 C8.16454 8.28045 8.31604 8.88982 8.38 9.51134 C8.41795 10.5089 8.02443 11.4745 7.3 12.1613 C6.50076 12.8601 5.46009 13.219 4.4 13.1613 C3.05716 13.1844 1.77667 12.5957 0.92 11.5613 C0.683284 11.9351 0.526653 12.3539 0.46 12.7913 L0 12.7913 L0.01 12.8213 Z" transform="translate(111.251, 23.0387)"/>
  <path style="fill:#ffffff; fill-rule:evenodd;stroke:none;" d="M0.0115368 1.0058 C0.01 0.739995 0.11435 0.484517 0.301537 0.295798 C0.489303 0.106486 0.744899 0 1.01154 0 C1.27817 0 1.53377 0.106486 1.72154 0.295798 C2.1109 0.690682 2.10642 1.32644 1.71154 1.7158 C1.31665 2.10516 0.680897 2.10068 0.291537 1.7058 C0.10435 1.51708 0 1.2616 0.00153676 0.995798 " transform="translate(121.36, 34.2942)"/>
  <path style="fill:#ffffff; fill-rule:evenodd;stroke:none;" d="M10.3 8.77 L10.75 8.77 L10.47 12.72 L0 12.72 L0 12.27 L0.3 12.27 C0.722909 12.3186 1.1503 12.231 1.52 12.02 C1.70303 11.8503 1.82588 11.6257 1.87 11.38 C1.94242 10.716 1.96915 10.0477 1.95 9.38 L1.95 3.16 C1.96787 2.52225 1.94114 1.88402 1.87 1.25 C1.84529 0.993112 1.71029 0.759599 1.5 0.61 C1.12042 0.453933 0.708668 0.39217 0.3 0.43 L0.3 0 L9.3 0 L9.59 3.16 L9.16 3.16 C9.04966 2.48949 8.80106 1.84927 8.43 1.28 C8.1866 0.939096 7.83362 0.69201 7.43 0.58 C6.79399 0.46029 6.14687 0.409995 5.5 0.43 L3.74 0.43 L3.74 5.75 L5.09 5.75 C5.52944 5.77549 5.96986 5.72128 6.39 5.59 C6.61419 5.50702 6.79241 5.33244 6.88 5.11 C6.98038 4.69795 7.02079 4.27359 7 3.85 L7.43 3.85 L7.43 8.27 L7 8.27 C7.03249 7.78948 6.97136 7.30722 6.82 6.85 C6.72127 6.6266 6.53221 6.45572 6.3 6.38 C5.91947 6.29543 5.52939 6.2618 5.14 6.28 L3.74 6.28 L3.74 9.28 C3.65318 10.1772 3.75189 11.0826 4.03 11.94 C4.47097 12.2861 5.03692 12.4312 5.59 12.34 L6.53 12.34 C7.08808 12.356 7.64425 12.2679 8.17 12.08 C8.67068 11.8528 9.09703 11.4888 9.4 11.03 C9.8462 10.3595 10.1586 9.60906 10.32 8.82 " transform="translate(130.181, 23.28)"/>
  <path style="fill:#ffffff; fill-rule:evenodd;stroke:none;" d="M2.11 0.0253848 L2.4 0.0253848 C2.56221 0.536243 2.6432 1.0694 2.64 1.60538 C3.03006 1.12267 3.50861 0.718785 4.05 0.415385 C4.52286 0.159207 5.0522 0.0251524 5.59 0.0253848 C6.11667 0 6.63894 0.132308 7.09 0.405385 C7.44617 0.616878 7.71287 0.951141 7.84 1.34538 C7.97004 1.87515 8.02724 2.42017 8.01 2.96538 L8.01 5.36538 C7.98082 5.90499 7.98082 6.44578 8.01 6.98538 C8.03061 7.17003 8.13844 7.33363 8.3 7.42538 C8.58751 7.5456 8.89912 7.59696 9.21 7.57538 L9.21 8.00538 L5.3 8.00538 L5.3 7.54538 L5.48 7.54538 C5.78772 7.58417 6.09927 7.51337 6.36 7.34538 C6.49068 7.2256 6.57258 7.0618 6.59 6.88538 C6.59 6.71538 6.59 6.19538 6.59 5.34538 L6.59 2.87538 C6.60369 2.44013 6.57354 2.0046 6.5 1.57538 C6.42759 1.29542 6.25731 1.05064 6.02 0.885385 C5.73065 0.674236 5.3778 0.56838 5.02 0.585385 C4.55207 0.587407 4.09559 0.730275 3.71 0.995385 C3.24003 1.32022 2.839 1.73486 2.53 2.21538 L2.53 5.33538 C2.51352 5.8759 2.53022 6.41692 2.58 6.95538 C2.60436 7.14141 2.71573 7.30476 2.88 7.39538 C3.17057 7.51715 3.4858 7.56854 3.8 7.54538 L3.8 7.97538 L0 7.97538 L0 7.54538 C0.305826 7.56641 0.612624 7.52209 0.9 7.41538 C1.0601 7.33775 1.17476 7.1898 1.21 7.01538 C1.26878 6.46079 1.28883 5.90277 1.27 5.34538 L1.27 3.06538 C1.28522 2.52154 1.26853 1.97727 1.22 1.43538 C1.19123 1.25363 1.08065 1.09513 0.92 1.00538 C0.629428 0.883621 0.314201 0.832225 0 0.855385 L0 0.445385 C0.714158 0.366679 1.42014 0.226152 2.11 0.0253848 " transform="translate(142.081, 28.0046)"/>
  <path style="fill:#ffffff; fill-rule:evenodd;stroke:none;" d="M5.29245 2.64779 C5.30091 2.51793 5.30091 2.38765 5.29245 2.25779 C5.32706 1.79977 5.16439 1.34878 4.84538 1.01831 C4.52637 0.687846 4.0814 0.509365 3.62245 0.527788 C2.48245 0.527788 1.81579 1.23445 1.62245 2.64779 L5.30245 2.64779 L5.29245 2.64779 Z M6.93245 3.02779 L1.58245 3.02779 C1.58245 3.38779 1.58245 3.66779 1.58245 3.84779 C1.52059 4.88612 1.73814 5.92205 2.21245 6.84779 C2.60978 7.50421 3.33623 7.88858 4.10245 7.84779 C5.15009 7.90658 6.12053 7.29704 6.52245 6.32779 L6.97245 6.32779 C6.77528 6.95537 6.3509 7.48673 5.78245 7.81779 C4.6146 8.49927 3.17031 8.49927 2.00245 7.81779 C1.41759 7.4841 0.928546 7.00539 0.582452 6.42779 C0.198568 5.76697 0.00799857 5.01162 0.032452 4.24779 C0 3.14894 0.381943 2.07808 1.10245 1.24779 C1.76851 0.469027 2.74788 0.0288607 3.77245 0.047788 C4.64612 0 5.49711 0.336014 6.10245 0.967788 C6.62211 1.50909 6.93074 2.21858 6.97245 2.96779 " transform="translate(152.439, 27.9022)"/>
  <path style="fill:#ffffff; fill-rule:evenodd;stroke:none;" d="M2.66 1.98 C2.85905 1.43346 3.20509 0.952469 3.66 0.59 C4.04837 0.247866 4.54281 0.050087 5.06 0.03 C5.43323 0.00185238 5.79965 0.141093 6.06 0.41 C6.27625 0.613734 6.40526 0.893258 6.42 1.19 C6.42336 1.36411 6.3588 1.53268 6.24 1.66 C6.12682 1.78273 5.96694 1.85177 5.8 1.85 C5.43552 1.80494 5.14545 1.52304 5.09 1.16 C5.05009 0.907606 4.84438 0.714242 4.59 0.69 C4.19853 0.738495 3.84059 0.93536 3.59 1.24 C3.25282 1.54915 3.00426 1.94269 2.87 2.38 C2.74836 2.91106 2.69459 3.45541 2.71 4 L2.71 5.37 C2.71 6.19 2.71 6.7 2.71 6.91 C2.72006 7.1061 2.8196 7.28674 2.98 7.4 C3.23751 7.53715 3.52943 7.59623 3.82 7.57 L4.09 7.57 L4.09 8 L0.02 8 L0.02 7.55 L0.22 7.55 C0.495216 7.5712 0.771156 7.51946 1.02 7.4 C1.17631 7.30275 1.28226 7.14199 1.31 6.96 C1.33943 6.42374 1.33943 5.88626 1.31 5.35 L1.31 3.19 C1.31 2.36 1.31 1.85 1.31 1.64 C1.2971 1.44471 1.1982 1.26522 1.04 1.15 C0.783525 1.00999 0.490733 0.950734 0.2 0.98 L0 0.98 L0 0.55 C0.77834 0.436008 1.54479 0.251926 2.29 0 C2.49791 0.64596 2.59924 1.32147 2.59 2 " transform="translate(160.621, 28)"/>
  <path style="fill:#ffffff; fill-rule:evenodd;stroke:none;" d="M1.79296 3.01886 C1.73829 3.64857 1.91224 4.27691 2.28296 4.78886 C2.59997 5.15779 3.06677 5.36362 3.55296 5.34886 C4.02235 5.35143 4.46889 5.14646 4.77296 4.78886 C5.17008 4.22805 5.3512 3.54264 5.28296 2.85886 C5.35934 2.1761 5.16552 1.49056 4.74296 0.94886 C4.41973 0.616944 3.97626 0.429462 3.51296 0.42886 C2.99753 0.398588 2.50534 0.646592 2.22296 1.07886 C1.89576 1.67061 1.74644 2.34427 1.79296 3.01886 Z M6.00296 1.01886 C6.3828 0.498542 6.97077 0.169864 7.61296 0.11886 C7.8684 0.106407 8.1189 0.192294 8.31296 0.35886 C8.46921 0.495185 8.56011 0.691523 8.56296 0.89886 C8.59179 1.05881 8.54418 1.22304 8.43427 1.34276 C8.32436 1.46249 8.16479 1.52394 8.00296 1.50886 C7.76938 1.4906 7.56523 1.34423 7.47296 1.12886 C7.39985 0.945647 7.2372 0.813261 7.04296 0.77886 C6.72241 0.823737 6.4356 1.00163 6.25296 1.26886 C6.57023 1.75349 6.74042 2.31962 6.74296 2.89886 C6.74879 3.64655 6.45743 4.36594 5.93296 4.89886 C5.19046 5.55991 4.21533 5.89815 3.22296 5.83886 C1.90296 5.83886 1.22296 6.14886 1.22296 6.63886 C1.23519 6.88933 1.42443 7.0954 1.67296 7.12886 C2.27932 7.2732 2.89972 7.35034 3.52296 7.35886 C4.3232 7.37906 5.11989 7.47278 5.90296 7.63886 C6.8165 7.88184 7.50876 8.62871 7.6818 9.55804 C7.85485 10.4874 7.47782 11.4333 6.71296 11.9889 C5.85059 12.55 4.82961 12.8167 3.80296 12.7489 C2.82796 12.7977 1.85947 12.5651 1.01296 12.0789 C0.403969 11.7274 0.0242841 11.0819 0.0129633 10.3789 C0 10.0401 0.10615 9.70749 0.312963 9.43886 C0.52065 9.18744 0.83788 9.05309 1.16296 9.07886 C1.25237 9.0643 1.34355 9.0643 1.43296 9.07886 C1.07535 9.43897 0.868008 9.92157 0.852963 10.4289 C0.855708 10.9852 1.14729 11.5002 1.62296 11.7889 C2.32064 12.1983 3.12607 12.3866 3.93296 12.3289 C4.68302 12.3729 5.42801 12.1806 6.06296 11.7789 C6.53971 11.4735 6.8266 10.945 6.82296 10.3789 C6.8725 9.84402 6.6072 9.32903 6.14296 9.05886 C5.37207 8.74491 4.54516 8.59177 3.71296 8.60886 C2.81567 8.65092 1.92119 8.47957 1.10296 8.10886 C0.743549 7.90165 0.516656 7.5235 0.502963 7.10886 C0.502963 6.28886 1.07296 5.77553 2.21296 5.56886 C1.68259 5.27353 1.22479 4.86357 0.872963 4.36886 C0.574483 3.92225 0.417653 3.396 0.422963 2.85886 C0.412688 2.08764 0.750671 1.3529 1.34296 0.85886 C1.93925 0.318803 2.71857 0.0256644 3.52296 0.0388601 C4.46378 0 5.37662 0.363681 6.03296 1.03886 " transform="translate(167.468, 28.0311)"/>
  <path style="fill:#ffffff; fill-rule:evenodd;stroke:none;" d="M5 6.17 L6.79 1.92 C6.94009 1.59605 7.06707 1.26188 7.17 0.92 C7.17 0.61 6.82 0.44 6.17 0.43 L6.17 0 L8.86 0 L8.86 0.43 C8.52208 0.416141 8.19207 0.534516 7.94 0.76 C7.63226 1.16681 7.38938 1.61884 7.22 2.1 L3.8 10.34 C3.59275 10.9155 3.30306 11.4578 2.94 11.95 C2.73905 12.2058 2.43516 12.3596 2.11 12.37 C1.95121 12.4026 1.78638 12.3577 1.66599 12.2492 C1.5456 12.1406 1.48398 11.9813 1.5 11.82 C1.58047 11.2891 1.97682 10.861 2.5 10.74 C2.77295 10.6345 3.02899 10.4896 3.26 10.31 C3.42964 10.1253 3.55904 9.90735 3.64 9.67 L4.37 7.85 L1.5 1.68 C1.34606 1.31219 1.12952 0.973845 0.86 0.68 C0.606052 0.513093 0.302293 0.43892 0 0.47 L0 0.04 L3.52 0.04 L3.52 0.47 C2.9 0.47 2.59 0.62 2.59 0.85 C2.67257 1.17003 2.79345 1.47892 2.95 1.77 L5 6.17 Z" transform="translate(176.191, 28.38)"/>
  <path style="fill:#ffffff; fill-rule:evenodd;stroke:none;" d="M0.01 0.43 L0.01 0 L5.81 0 L5.81 0.43 L5.54 0.43 C5.12409 0.396989 4.70579 0.448001 4.31 0.58 C4.10097 0.706506 3.95829 0.918687 3.92 1.16 C3.831 1.82272 3.79755 2.49171 3.82 3.16 L3.82 9.38 C3.80209 10.0475 3.82547 10.7154 3.89 11.38 C3.91443 11.6507 4.04801 11.8998 4.26 12.07 C4.61821 12.2512 5.02033 12.3274 5.42 12.29 L5.8 12.29 L5.8 12.72 L0 12.72 L0 12.24 L0.37 12.24 C0.758545 12.2699 1.14815 12.1975 1.5 12.03 C1.71181 11.8771 1.85538 11.6474 1.9 11.39 C1.97675 10.7263 2.00683 10.058 1.99 9.39 L1.99 3.17 C2.00903 2.50203 1.97895 1.83356 1.9 1.17 C1.87481 0.921328 1.73889 0.697251 1.53 0.56 C1.12766 0.411153 0.697396 0.353101 0.27 0.39 L0 0.39 L0.01 0.43 Z" transform="translate(190.281, 23.31)"/>
  <path style="fill:#ffffff; fill-rule:evenodd;stroke:none;" d="M2.12 0.0247763 L2.37 0.0247763 C2.53237 0.535596 2.61336 1.06878 2.61 1.60478 C2.9997 1.12171 3.47833 0.71777 4.02 0.414776 C4.49286 0.158598 5.0222 0.0245438 5.56 0.0247763 C6.08661 0 6.6087 0.132264 7.06 0.404776 C7.41496 0.617663 7.68124 0.951409 7.81 1.34478 C7.94004 1.87454 7.99724 2.41956 7.98 2.96478 L7.98 5.36478 C7.95191 5.90441 7.95191 6.44514 7.98 6.98478 C8.00216 7.16886 8.10957 7.33183 8.27 7.42478 C8.55751 7.54499 8.86912 7.59635 9.18 7.57478 L9.18 8.00478 L5.37 8.00478 L5.37 7.54478 L5.55 7.54478 C5.85776 7.58444 6.16961 7.51356 6.43 7.34478 C6.56068 7.22499 6.64258 7.0612 6.66 6.88478 C6.66 6.71144 6.66 6.19811 6.66 5.34478 L6.66 2.87478 C6.67376 2.43952 6.64361 2.00398 6.57 1.57478 C6.49759 1.29481 6.32731 1.05003 6.09 0.884776 C5.80065 0.673628 5.4478 0.567772 5.09 0.584776 C4.62217 0.587414 4.16586 0.730227 3.78 0.994776 C3.31364 1.32063 2.91606 1.73519 2.61 2.21478 L2.61 5.33478 C2.59487 5.87529 2.61156 6.41622 2.66 6.95478 C2.68587 7.14022 2.79682 7.30295 2.96 7.39478 C3.25057 7.51654 3.5658 7.56794 3.88 7.54478 L3.88 7.97478 L0 7.97478 L0 7.54478 C0.305849 7.56642 0.612777 7.52208 0.9 7.41478 C1.06296 7.33832 1.18118 7.19054 1.22 7.01478 C1.27808 6.46013 1.29813 5.90216 1.28 5.34478 L1.28 3.06478 C1.29502 2.52093 1.27832 1.97668 1.23 1.43478 C1.20268 1.25244 1.09169 1.09336 0.93 1.00478 C0.639428 0.883012 0.324201 0.831616 0.01 0.854776 L0.01 0.444776 C0.724235 0.366572 1.43026 0.226036 2.12 0.0247763 Z" transform="translate(197.111, 28.0052)"/>
  <path style="fill:#ffffff; fill-rule:evenodd;stroke:none;" d="M4.43 5.22183 L4.43 5.65183 L2.82 5.65183 L2.82 10.2518 C2.82 11.0718 2.82 11.5818 2.82 11.7918 C2.82912 11.9858 2.92449 12.1655 3.08 12.2818 C3.33458 12.4171 3.62275 12.4761 3.91 12.4518 L4.31 12.4518 L4.31 12.8818 L0.17 12.8818 L0.17 12.4318 C0.47255 12.4527 0.776046 12.4083 1.06 12.3018 C1.21912 12.223 1.33335 12.0756 1.37 11.9018 C1.42878 11.3472 1.44883 10.7892 1.43 10.2318 L1.43 5.63183 L0 5.63183 L0 5.20183 L1.49 5.20183 L1.49 4.51183 C1.47843 3.9138 1.50851 3.31568 1.58 2.72183 C1.66091 2.25227 1.84165 1.80555 2.11 1.41183 C2.38417 0.99274 2.75889 0.648956 3.2 0.411828 C3.67906 0.155148 4.2167 0.0276308 4.76 0.0418275 C5.36239 0 5.96383 0.135585 6.49 0.431828 C6.8506 0.618241 7.09712 0.969352 7.15 1.37183 C7.15335 1.54199 7.08429 1.70556 6.96 1.82183 C6.84247 1.93699 6.68455 2.00159 6.52 2.00183 C6.0979 1.93257 5.74817 1.63664 5.61 1.23183 C5.41084 0.780581 4.98145 0.473867 4.49 0.431828 C4.11489 0.437193 3.75645 0.587736 3.49 0.851828 C3.19405 1.13174 3.00636 1.50711 2.96 1.91183 C2.88692 2.81987 2.86022 3.73106 2.88 4.64183 L2.88 5.22183 L4.49 5.22183 L4.43 5.22183 Z" transform="translate(206.991, 23.1182)"/>
  <path style="fill:#ffffff; fill-rule:evenodd;stroke:none;" d="M1.59227 4.51055 C1.497 5.51018 1.72859 6.51375 2.25227 7.37055 C2.73327 7.89382 3.41151 8.19162 4.12227 8.19162 C4.83302 8.19162 5.51127 7.89382 5.99227 7.37055 C6.5078 6.51069 6.73551 5.50876 6.64227 4.51055 C6.72751 3.50651 6.50049 2.50065 5.99227 1.63055 C5.5212 1.08641 4.83698 0.773746 4.11727 0.773746 C3.39755 0.773746 2.71333 1.08641 2.24227 1.63055 C1.73263 2.50375 1.50559 3.51322 1.59227 4.52055 Z M0.0422657 4.52055 C0.0142231 3.41991 0.441081 2.35639 1.22227 1.58055 C2.83257 0 5.41197 0 7.02227 1.58055 C7.80345 2.35639 8.23031 3.41991 8.20227 4.52055 C8.24192 5.6448 7.80633 6.73378 7.00227 7.52055 C6.22159 8.25493 5.18383 8.65351 4.11227 8.63055 C3.03956 8.6554 2.00185 8.24824 1.23227 7.50055 C0.431874 6.71205 0 5.62329 0.0422657 4.50055 " transform="translate(212.439, 27.6895)"/>
  <path style="fill:#ffffff; fill-rule:evenodd;stroke:none;" d="M2.67 1.98 C2.86951 1.43371 3.21547 0.952828 3.67 0.59 C4.05837 0.247866 4.55281 0.050087 5.07 0.03 C5.44302 0.00325114 5.80888 0.142275 6.07 0.41 C6.28172 0.615958 6.40689 0.894922 6.42 1.19 C6.42443 1.36429 6.35972 1.53326 6.24 1.66 C6.12682 1.78273 5.96694 1.85177 5.8 1.85 C5.43552 1.80494 5.14545 1.52304 5.09 1.16 C5.05009 0.907606 4.84438 0.714242 4.59 0.69 C4.19853 0.738495 3.84059 0.93536 3.59 1.24 C3.25206 1.54852 3.00337 1.94228 2.87 2.38 C2.7492 2.9112 2.69545 3.45544 2.71 4 L2.71 5.37 C2.71 6.19 2.71 6.7 2.71 6.91 C2.72006 7.1061 2.8196 7.28674 2.98 7.4 C3.2377 7.5366 3.52946 7.59565 3.82 7.57 L4.08 7.57 L4.08 8 L0.01 8 L0.01 7.55 L0.2 7.55 C0.475242 7.57167 0.751306 7.51991 1 7.4 C1.15729 7.30376 1.26357 7.14249 1.29 6.96 C1.31829 6.42371 1.31829 5.88629 1.29 5.35 L1.29 3.19 C1.29 2.36 1.29 1.85 1.29 1.64 C1.2771 1.44471 1.1782 1.26522 1.02 1.15 C0.766427 1.01197 0.477421 0.952773 0.19 0.98 L0 0.98 L0 0.55 C0.778329 0.435954 1.54477 0.251874 2.29 0 C2.49861 0.645795 2.59996 1.32142 2.59 2 " transform="translate(221.811, 28)"/>
  <path style="fill:#ffffff; fill-rule:evenodd;stroke:none;" d="M2.23 0.022612 L2.32 0.022612 C2.51808 0.535463 2.60994 1.0832 2.59 1.63261 C2.95408 1.14262 3.41323 0.731084 3.94 0.422612 C4.41394 0.158873 4.94762 0.0211489 5.49 0.022612 C6.0327 0 6.56853 0.150593 7.02 0.452612 C7.43487 0.774319 7.72479 1.23042 7.84 1.74261 C8.24618 1.2293 8.74057 0.792476 9.3 0.452612 C9.76049 0.17915 10.2845 0.030909 10.82 0.022612 C11.3529 0.00603368 11.8787 0.148786 12.33 0.432612 C12.6907 0.638903 12.9589 0.975141 13.08 1.37261 C13.1852 1.92947 13.2288 2.49621 13.21 3.06261 L13.21 5.36261 C13.1803 5.90554 13.1803 6.44969 13.21 6.99261 C13.2388 7.17437 13.3494 7.33287 13.51 7.42261 C13.8022 7.53816 14.1167 7.58603 14.43 7.56261 L14.43 7.99261 L10.6 7.99261 L10.6 7.54261 C10.8928 7.56493 11.1869 7.52048 11.46 7.41261 C11.6182 7.32498 11.7284 7.17067 11.76 6.99261 C11.8145 6.44441 11.8346 5.89333 11.82 5.34261 L11.82 2.78261 C11.8312 2.39053 11.801 1.99836 11.73 1.61261 C11.6633 1.34074 11.4998 1.10252 11.27 0.942612 C10.9777 0.739273 10.6254 0.640608 10.27 0.662612 C9.83145 0.673999 9.40642 0.816835 9.05 1.07261 C8.57294 1.41751 8.15716 1.84005 7.82 2.32261 L7.82 5.32261 C7.82 6.14261 7.82 6.65261 7.82 6.86261 C7.83049 7.05621 7.92557 7.23539 8.08 7.35261 C8.32959 7.49162 8.61572 7.55094 8.9 7.52261 L8.9 7.95261 L5.2 7.95261 L5.2 7.54261 C5.49605 7.56438 5.79324 7.51997 6.07 7.41261 C6.22912 7.33377 6.34335 7.18637 6.38 7.01261 C6.43806 6.46131 6.45811 5.90667 6.44 5.35261 L6.44 3.23261 C6.45061 2.74462 6.42386 2.25653 6.36 1.77261 C6.3035 1.46161 6.13217 1.1832 5.88 0.992612 C5.59365 0.773606 5.24029 0.660531 4.88 0.672612 C4.45983 0.683311 4.05105 0.811486 3.7 1.04261 C3.23391 1.34927 2.81885 1.7272 2.47 2.16261 L2.47 5.35261 C2.47 6.19261 2.47 6.72261 2.47 6.92261 C2.48689 7.11374 2.58996 7.28676 2.75 7.39261 C3.0208 7.52178 3.32096 7.57699 3.62 7.55261 L3.62 7.98261 L0 7.98261 L0 7.54261 C0.292837 7.56563 0.587052 7.52116 0.86 7.41261 C1.01772 7.32934 1.12836 7.17814 1.16 7.00261 C1.21467 6.45108 1.23471 5.89666 1.22 5.34261 L1.22 3.05261 C1.22 2.17261 1.22 1.64261 1.22 1.45261 C1.20087 1.26486 1.09307 1.0976 0.93 1.00261 C0.653427 0.881135 0.351199 0.829619 0.05 0.852612 L0.05 0.442612 C0.792911 0.381275 1.52711 0.24047 2.24 0.022612 " transform="translate(229.481, 28.0074)"/>
  <path style="fill:#ffffff; fill-rule:evenodd;stroke:none;" d="M4.99596 3.40348 L3.99596 3.81348 C2.38262 4.48015 1.57596 5.30348 1.57596 6.28348 C1.55795 6.62763 1.66843 6.96619 1.88596 7.23348 C2.08512 7.47313 2.38461 7.60624 2.69596 7.59348 C3.0469 7.57349 3.38877 7.47434 3.69596 7.30348 C4.159 7.06055 4.5948 6.7689 4.99596 6.43348 L4.99596 3.43348 L4.99596 3.40348 Z M7.70596 6.68348 L8.04596 6.68348 C8.09262 7.11244 7.94447 7.53971 7.64229 7.84771 C7.3401 8.15571 6.91572 8.31197 6.48596 8.27348 C6.1213 8.29295 5.76317 8.17118 5.48596 7.93348 C5.21801 7.66365 5.04889 7.31133 5.00596 6.93348 C4.47146 7.32412 3.89849 7.65919 3.29596 7.93348 C2.86434 8.14082 2.39449 8.25658 1.91596 8.27348 C1.43058 8.28367 0.956801 8.12456 0.575956 7.82348 C0.20847 7.5402 0 7.09721 0.0159558 6.63348 C0.0373768 5.95392 0.388014 5.32725 0.955956 4.95348 C1.75874 4.37683 2.63263 3.90627 3.55596 3.55348 L5.00596 2.96348 L5.00596 2.63348 C5.02158 2.24746 4.98798 1.86102 4.90596 1.48348 C4.81193 1.21339 4.62379 0.9862 4.37596 0.843483 C4.03252 0.638222 3.63541 0.540686 3.23596 0.563483 C2.29596 0.563483 1.77262 0.876816 1.66596 1.50348 C1.69987 1.74033 1.63588 1.98078 1.48872 2.16944 C1.34157 2.3581 1.12393 2.47871 0.885956 2.50348 C0.733632 2.52977 0.577833 2.48265 0.465618 2.37634 C0.353403 2.27003 0.29793 2.117 0.315956 1.96348 C0.386762 1.48662 0.665026 1.06557 1.07596 0.813483 C2.3636 0.0886008 3.91412 0 5.27596 0.573483 C5.64669 0.756797 5.94832 1.05492 6.13596 1.42348 C6.30218 1.89138 6.37357 2.3877 6.34596 2.88348 L6.34596 5.98348 C6.31827 6.45299 6.35529 6.92407 6.45596 7.38348 C6.52541 7.58971 6.72986 7.71906 6.94596 7.69348 C7.40532 7.64608 7.74524 7.24435 7.71596 6.78348 " transform="translate(245.125, 27.9165)"/>
  <path style="fill:#ffffff; fill-rule:evenodd;stroke:none;" d="M4.8 2.82 L2.49 2.82 L2.49 7.45 C2.47144 7.93181 2.50159 8.41425 2.58 8.89 C2.63633 9.12912 2.77872 9.33914 2.98 9.48 C3.16498 9.62696 3.39376 9.70791 3.63 9.71 C4.12959 9.68089 4.57565 9.38733 4.8 8.94 L5.1 9.12 C4.92167 9.51499 4.61986 9.84136 4.24 10.05 C3.88982 10.2508 3.49366 10.3576 3.09 10.36 C2.66238 10.3663 2.24565 10.225 1.91 9.96 C1.59457 9.73429 1.36813 9.40525 1.27 9.03 C1.164 8.41261 1.12045 7.78612 1.14 7.16 L1.14 2.82 L0 2.82 L0 2.4 C0.522824 2.37417 1.01468 2.1444 1.37 1.76 C1.80481 1.26855 2.07417 0.652876 2.14 0 L2.44 0 L2.44 2.4 L4.8 2.4 L4.8 2.83 L4.8 2.82 Z" transform="translate(253.681, 25.94)"/>
  <path style="fill:#ffffff; fill-rule:evenodd;stroke:none;" d="M1.05 0.993904 C1.04843 0.732976 1.14891 0.48177 1.33 0.293904 C1.50994 0.105889 1.75977 0.000887045 2.02 0.0039037 C2.27749 0 2.52458 0.105376 2.7 0.293904 C3.08114 0.682747 3.08114 1.30506 2.7 1.6939 C2.52458 1.88243 2.27749 1.98781 2.02 1.9839 C1.75977 1.98692 1.50994 1.88192 1.33 1.6939 C1.14891 1.50604 1.04843 1.25483 1.05 0.993904 Z M2.86 4.9039 L2.86 10.2439 C2.86 11.0572 2.86 11.5706 2.86 11.7839 C2.8729 11.9792 2.9718 12.1587 3.13 12.2739 C3.38439 12.4097 3.67271 12.4687 3.96 12.4439 L4.16 12.4439 L4.16 12.8739 L0.03 12.8739 L0.03 12.4239 L0.35 12.4239 C0.649926 12.4601 0.953231 12.3931 1.21 12.2339 C1.34289 12.1146 1.42814 11.9512 1.45 11.7739 C1.45 11.5939 1.45 11.0839 1.45 10.2239 L1.45 7.9239 C1.4831 7.37054 1.43935 6.81526 1.32 6.2739 C1.26509 6.10745 1.14123 5.97266 0.98 5.9039 C0.741505 5.84438 0.495461 5.82078 0.25 5.8339 L0 5.8339 L0 5.4239 C0.876316 5.35663 1.742 5.18887 2.58 4.9239 L2.79 4.9239 L2.86 4.9039 Z" transform="translate(259.001, 23.1261)"/>
  <path style="fill:#ffffff; fill-rule:evenodd;stroke:none;" d="M1.58227 4.51055 C1.48925 5.51133 1.72442 6.51521 2.25227 7.37055 C2.73327 7.89382 3.41151 8.19162 4.12227 8.19162 C4.83302 8.19162 5.51127 7.89382 5.99227 7.37055 C6.50649 6.51017 6.7341 5.50867 6.64227 4.51055 C6.72856 3.50768 6.50518 2.50248 6.00227 1.63055 C5.52934 1.08599 4.84352 0.773244 4.12227 0.773244 C3.40101 0.773244 2.71519 1.08599 2.24227 1.63055 C1.73325 2.50399 1.50625 3.51327 1.59227 4.52055 Z M0.0422657 4.52055 C0.0142231 3.41991 0.441081 2.35639 1.22227 1.58055 C2.83257 0 5.41197 0 7.02227 1.58055 C7.80345 2.35639 8.23031 3.41991 8.20227 4.52055 C8.24192 5.6448 7.80633 6.73378 7.00227 7.52055 C6.22159 8.25493 5.18383 8.65351 4.11227 8.63055 C3.03956 8.6554 2.00185 8.24824 1.23227 7.50055 C0.431874 6.71205 0 5.62329 0.0422657 4.50055 " transform="translate(264.239, 27.6895)"/>
  <path style="fill:#ffffff; fill-rule:evenodd;stroke:none;" d="M2.23 0.0247763 L2.48 0.0247763 C2.64302 0.535443 2.72403 1.06873 2.72 1.60478 C3.11041 1.1224 3.58889 0.718579 4.13 0.414776 C4.60271 0.1582 5.13215 0.02412 5.67 0.0247763 C6.19661 0 6.7187 0.132264 7.17 0.404776 C7.52496 0.617663 7.79124 0.951409 7.92 1.34478 C8.05004 1.87454 8.10724 2.41956 8.09 2.96478 L8.09 5.36478 C8.06192 5.90441 8.06192 6.44514 8.09 6.98478 C8.11061 7.16943 8.21844 7.33302 8.38 7.42478 C8.66751 7.54499 8.97912 7.59635 9.29 7.57478 L9.29 8.00478 L5.38 8.00478 L5.38 7.54478 L5.56 7.54478 C5.86776 7.58444 6.17961 7.51356 6.44 7.34478 C6.57068 7.22499 6.65258 7.0612 6.67 6.88478 C6.67 6.71144 6.67 6.19811 6.67 5.34478 L6.67 2.87478 C6.6827 2.43954 6.65255 2.00411 6.58 1.57478 C6.50678 1.29518 6.33668 1.05066 6.1 0.884776 C5.81029 0.674354 5.4577 0.568576 5.1 0.584776 C4.63207 0.586799 4.17559 0.729666 3.79 0.994776 C3.32003 1.31962 2.919 1.73425 2.61 2.21478 L2.61 5.33478 C2.59399 5.87529 2.61069 6.41628 2.66 6.95478 C2.68587 7.14022 2.79682 7.30295 2.96 7.39478 C3.25057 7.51654 3.5658 7.56794 3.88 7.54478 L3.88 7.97478 L0 7.97478 L0 7.54478 C0.305826 7.5658 0.612624 7.52148 0.9 7.41478 C1.0601 7.33714 1.17476 7.18919 1.21 7.01478 C1.26859 6.46017 1.28864 5.90216 1.27 5.34478 L1.27 3.06478 C1.28553 2.52093 1.26883 1.97665 1.22 1.43478 C1.19268 1.25244 1.08169 1.09336 0.92 1.00478 C0.629428 0.883012 0.314201 0.831616 0 0.854776 L0 0.444776 C0.714235 0.366572 1.42026 0.226036 2.11 0.0247763 " transform="translate(273.551, 28.0052)"/>
  <path style="fill:#ffffff; fill-rule:evenodd;stroke:none;" d="M8.09 7.81 L5.85 2.4 L3.62 7.81 L8.1 7.81 L8.09 7.81 Z M8.26 8.23 L3.44 8.23 L3.11 9.03 C2.7563 9.75014 2.51034 10.5183 2.38 11.31 C2.35449 11.6473 2.50122 11.9746 2.77 12.18 C3.06134 12.3862 3.41357 12.4883 3.77 12.47 L3.77 12.9 L0 12.9 L0 12.47 C0.473545 12.4281 0.916696 12.219 1.25 11.88 C1.68602 11.2698 2.02347 10.5949 2.25 9.88 L2.71 8.8 L6.39 0 L6.75 0 L11 10.08 L11.58 11.41 C11.6892 11.6875 11.8684 11.9321 12.1 12.12 C12.3964 12.319 12.7431 12.4299 13.1 12.44 L13.1 12.87 L8.1 12.87 L8.1 12.44 C8.51831 12.4651 8.93781 12.4177 9.34 12.3 C9.55167 12.213 9.68158 11.9978 9.66 11.77 C9.568 11.3438 9.42357 10.9307 9.23 10.54 L8.26 8.23 Z" transform="translate(92.7311, 42.74)"/>
  <path style="fill:#ffffff; fill-rule:evenodd;stroke:none;" d="M6.90654 6.56 C6.53505 6.23347 6.11716 5.96387 5.66654 5.76 C5.27108 5.59179 4.84627 5.50343 4.41654 5.5 C3.73225 5.48859 3.08029 5.79063 2.64654 6.32 C2.10258 7.09472 1.851 8.03725 1.93654 8.98 C1.86006 9.95614 2.11746 10.9293 2.66654 11.74 C3.08937 12.3025 3.75287 12.6324 4.45654 12.63 C4.91849 12.6323 5.3732 12.5152 5.77654 12.29 C6.2148 12.0374 6.59611 11.697 6.89654 11.29 L6.89654 6.58 L6.90654 6.56 Z M6.90654 6.02 L6.90654 3.02 C6.90654 2.2 6.90654 1.69 6.90654 1.48 C6.89503 1.28431 6.79582 1.10426 6.63654 0.99 C6.38176 0.855288 6.09376 0.796299 5.80654 0.82 L5.60654 0.82 L5.60654 0.39 C6.44267 0.360995 7.27214 0.230026 8.07654 0 L8.27654 1.13687e-13 L8.27654 10.3 C8.24776 10.843 8.24776 11.387 8.27654 11.93 C8.30016 12.111 8.4076 12.2703 8.56654 12.36 C8.85896 12.4746 9.17327 12.5224 9.48654 12.5 L9.48654 12.93 C8.68094 12.9375 7.87767 13.0179 7.08654 13.17 C6.99772 12.7123 6.96082 12.246 6.97654 11.78 C6.5601 12.1921 6.07652 12.5303 5.54654 12.78 C5.07288 13.0102 4.55316 13.1298 4.02654 13.13 C3.03475 13.1289 2.09412 12.6897 1.45654 11.93 C0 10.2217 0 7.70835 1.45654 6 C2.12999 5.2604 3.0863 4.84224 4.08654 4.85 C4.59007 4.84706 5.08935 4.94216 5.55654 5.13 C6.03877 5.33162 6.48209 5.61589 6.86654 5.97 " transform="translate(105.985, 42.77)"/>
  <path style="fill:#ffffff; fill-rule:evenodd;stroke:none;" d="M2.19 0.09 L2.31 0.09 C2.50754 0.602997 2.59938 1.15062 2.58 1.7 C2.94284 1.20888 3.40224 0.797118 3.93 0.49 C4.40394 0.226261 4.93762 0.0885369 5.48 0.09 C6.02295 0.0652701 6.55943 0.216045 7.01 0.52 C7.42487 0.841707 7.71479 1.29781 7.83 1.81 C8.23587 1.2964 8.73032 0.859518 9.29 0.52 C9.75207 0.241728 10.2806 0.093182 10.82 0.09 C11.3499 0.0723474 11.8728 0.215262 12.32 0.5 C12.68 0.707068 12.948 1.04301 13.07 1.44 C13.1742 1.99699 13.2178 2.56363 13.2 3.13 L13.2 5.43 C13.185 5.97384 13.2017 6.5181 13.25 7.06 C13.2773 7.24233 13.3883 7.40141 13.55 7.49 C13.8421 7.60589 14.1567 7.65376 14.47 7.63 L14.47 8.06 L10.65 8.06 L10.65 7.63 C10.9403 7.64797 11.2308 7.60011 11.5 7.49 C11.6587 7.40792 11.7698 7.25614 11.8 7.08 C11.8545 6.53179 11.8745 5.98071 11.86 5.43 L11.86 2.87 C11.8702 2.47795 11.84 2.08588 11.77 1.7 C11.7148 1.40983 11.5501 1.15202 11.31 0.98 C11.0177 0.776661 10.6654 0.677996 10.31 0.7 C9.87016 0.713064 9.44468 0.859541 9.09 1.12 C8.61368 1.46576 8.19803 1.88816 7.86 2.37 L7.86 5.37 C7.86 6.19 7.86 6.7 7.86 6.91 C7.87308 7.10286 7.96763 7.28105 8.12 7.4 C8.37003 7.53781 8.65579 7.59705 8.94 7.57 L8.94 8 L5.31 8 L5.31 7.57 C5.61013 7.5901 5.91093 7.54225 6.19 7.43 C6.35112 7.35362 6.46624 7.20508 6.5 7.03 C6.55961 6.47546 6.57966 5.91739 6.56 5.36 L6.56 3.24 C6.57092 2.752 6.54417 2.26389 6.48 1.78 C6.42444 1.46864 6.25292 1.18991 6 1 C5.7158 0.775911 5.36175 0.659076 5 0.67 C4.57875 0.683136 4.16975 0.814848 3.82 1.05 C3.35308 1.35559 2.93787 1.73367 2.59 2.17 L2.59 5.36 C2.59 6.2 2.59 6.73 2.59 6.93 C2.60694 7.11846 2.71037 7.28839 2.87 7.39 C3.1405 7.5201 3.44091 7.57534 3.74 7.55 L3.74 7.98 L0 7.98 L0 7.55 C0.293472 7.5671 0.587106 7.5193 0.86 7.41 C1.01772 7.32673 1.12836 7.17552 1.16 7 C1.21537 6.44851 1.23541 5.89405 1.22 5.34 L1.22 3.05 C1.22 2.17667 1.22 1.64 1.22 1.44 C1.19784 1.25591 1.09043 1.09295 0.93 1 C0.653192 0.879306 0.351161 0.827823 0.05 0.85 L0.05 0.42 C0.792839 0.358133 1.52698 0.217339 2.24 0 " transform="translate(116.171, 47.57)"/>
  <path style="fill:#ffffff; fill-rule:evenodd;stroke:none;" d="M1.01 1.05194 C1.00437 0.793205 1.10566 0.543591 1.29 0.361943 C1.67495 0 2.27505 0 2.66 0.361943 C2.83868 0.54732 2.93897 0.794473 2.94 1.05194 C2.94157 1.31287 2.84109 1.56408 2.66 1.75194 C2.27505 2.11389 1.67495 2.11389 1.29 1.75194 C1.10891 1.56408 1.00843 1.31287 1.01 1.05194 Z M2.81 4.96194 L2.81 10.3019 C2.81 11.1219 2.81 11.6319 2.81 11.8419 C2.8229 12.0372 2.9218 12.2167 3.08 12.3319 C3.33458 12.4672 3.62275 12.5262 3.91 12.5019 L4.17 12.5019 L4.17 12.9319 L0.04 12.9319 L0.04 12.5019 L0.36 12.5019 C0.659886 12.5373 0.96293 12.4704 1.22 12.3119 C1.3492 12.191 1.4308 12.0278 1.45 11.8519 C1.45 11.6719 1.45 11.1619 1.45 10.3019 L1.45 7.98194 C1.48388 7.42857 1.44012 6.87318 1.32 6.33194 C1.26509 6.16549 1.14123 6.0307 0.98 5.96194 C0.741358 5.90328 0.495442 5.8797 0.25 5.89194 L0 5.89194 L0 5.46194 C0.875991 5.39228 1.7414 5.22456 2.58 4.96194 L2.79 4.96194 L2.81 4.96194 Z" transform="translate(131.311, 42.6981)"/>
  <path style="fill:#ffffff; fill-rule:evenodd;stroke:none;" d="M2.14 0.0129801 L2.39 0.0129801 C2.55125 0.524061 2.63221 1.05707 2.63 1.59298 C3.01975 1.11264 3.4985 0.71199 4.04 0.41298 C4.51286 0.156802 5.0422 0.0227477 5.58 0.0229801 C6.10643 0 6.62801 0.132134 7.08 0.40298 C7.43496 0.615867 7.70124 0.949613 7.83 1.34298 C7.96004 1.87274 8.01724 2.41776 8 2.96298 L8 5.35298 C7.97161 5.89261 7.97161 6.43335 8 6.97298 C8.02364 7.15652 8.13065 7.31888 8.29 7.41298 C8.57751 7.53319 8.88912 7.58456 9.2 7.56298 L9.2 7.99298 L5.34 7.99298 L5.34 7.56298 L5.52 7.56298 C5.82759 7.59923 6.13829 7.52862 6.4 7.36298 C6.53068 7.24319 6.61258 7.0794 6.63 6.90298 C6.63 6.72298 6.63 6.21298 6.63 5.36298 L6.63 2.90298 C6.64335 2.46773 6.6132 2.03224 6.54 1.60298 C6.48985 1.33106 6.34881 1.08424 6.14 0.90298 C5.84994 0.693274 5.4976 0.587573 5.14 0.60298 C4.67539 0.606388 4.2225 0.749222 3.84 1.01298 C3.36846 1.33596 2.96709 1.75094 2.66 2.23298 L2.66 5.35298 C2.62954 5.89255 2.62954 6.43341 2.66 6.97298 C2.68732 7.15786 2.79788 7.32001 2.96 7.41298 C3.25057 7.53474 3.5658 7.58614 3.88 7.56298 L3.88 7.99298 L0 7.99298 L0 7.56298 C0.306644 7.58305 0.613941 7.53524 0.9 7.42298 C1.0601 7.34534 1.17476 7.19739 1.21 7.02298 C1.26924 6.46842 1.28929 5.91037 1.27 5.35298 L1.27 3.07298 C1.28532 2.52914 1.26862 1.98486 1.22 1.44298 C1.19123 1.26123 1.08065 1.10273 0.92 1.01298 C0.629428 0.891216 0.314201 0.83982 0 0.86298 L0 0.43298 C0.714165 0.354324 1.42015 0.213796 2.11 0.0129801 " transform="translate(136.341, 47.647)"/>
  <path style="fill:#ffffff; fill-rule:evenodd;stroke:none;" d="M1.05 0.984236 C1.04698 0.724009 1.15199 0.474176 1.34 0.294236 C1.51923 0.105199 1.76954 0 2.03 0.00423638 C2.28724 0.00157817 2.53385 0.106748 2.71 0.294236 C2.88868 0.479614 2.98897 0.726767 2.99 0.984236 C2.99157 1.24516 2.89109 1.49637 2.71 1.68424 C2.53314 1.87071 2.287 1.97568 2.03 1.97424 C1.76977 1.97725 1.51994 1.87225 1.34 1.68424 C1.15526 1.49798 1.0511 1.24658 1.05 0.984236 Z M2.86 4.89424 L2.86 10.2342 C2.86 11.0542 2.86 11.5642 2.86 11.7742 C2.87424 11.9691 2.97285 12.1481 3.13 12.2642 C3.38458 12.3995 3.67275 12.4585 3.96 12.4342 L4.16 12.4342 L4.16 12.8642 L0.04 12.8642 L0.04 12.4342 L0.36 12.4342 C0.659926 12.4704 0.963231 12.4034 1.22 12.2442 C1.3492 12.1233 1.4308 11.9601 1.45 11.7842 C1.45 11.6042 1.45 11.0942 1.45 10.2342 L1.45 7.91424 C1.48146 7.36089 1.43773 6.80583 1.32 6.26424 C1.26396 6.09845 1.14047 5.96406 0.98 5.89424 C0.741334 5.83571 0.495438 5.81213 0.25 5.82424 L0 5.82424 L0 5.39424 C0.876025 5.32482 1.74146 5.1571 2.58 4.89424 L2.79 4.89424 L2.86 4.89424 Z" transform="translate(146.231, 42.7658)"/>
  <path style="fill:#ffffff; fill-rule:evenodd;stroke:none;" d="M0.03 8.24794 L0.03 5.73794 L0.39 5.73794 C0.816667 7.19127 1.57333 7.91794 2.66 7.91794 C3.06129 7.94924 3.45393 7.78996 3.72 7.48794 C3.94624 7.22315 4.07038 6.88621 4.07 6.53794 C4.08765 6.1663 3.95 5.80406 3.69 5.53794 C3.24186 5.15886 2.73966 4.84878 2.2 4.61794 C1.58511 4.34512 1.02317 3.96598 0.54 3.49794 C0.2006 3.13559 0.0174028 2.65425 0.03 2.15794 C0.0377959 1.62988 0.22866 1.12091 0.57 0.717937 C0.93615 0.256789 1.50183 0 2.09 0.0279369 C2.73884 0.0142372 3.354 0.316221 3.74 0.837937 C3.89749 0.633196 4.01921 0.403285 4.1 0.157937 L4.45 0.157937 L4.45 2.51794 L4.1 2.51794 C3.98987 1.97734 3.74184 1.4744 3.38 1.05794 C3.07002 0.673859 2.60356 0.449807 2.11 0.447937 C1.77268 0.43041 1.44319 0.553516 1.2 0.787937 C0.977953 0.994892 0.851292 1.2844 0.85 1.58794 C0.846763 1.91887 0.985028 2.23542 1.23 2.45794 C1.65704 2.81748 2.1401 3.10462 2.66 3.30794 C3.43568 3.5685 4.1151 4.05628 4.61 4.70794 C4.83474 5.11606 4.9582 5.57218 4.97 6.03794 C4.99372 6.65074 4.75339 7.24427 4.31 7.66794 C3.86109 8.08706 3.26375 8.31016 2.65 8.28794 C1.9276 8.28082 1.24299 7.96401 0.77 7.41794 C0.577455 7.65206 0.437615 7.92492 0.36 8.21794 L0 8.21794 L0.03 8.24794 Z" transform="translate(151.541, 47.6221)"/>
  <path style="fill:#ffffff; fill-rule:evenodd;stroke:none;" d="M4.8 2.78 L2.49 2.78 L2.49 7.41 C2.47032 7.89182 2.50048 8.37438 2.58 8.85 C2.63633 9.08912 2.77872 9.29914 2.98 9.44 C3.16498 9.58696 3.39376 9.66791 3.63 9.67 C4.12111 9.64894 4.5652 9.37186 4.8 8.94 L5.1 9.12 C4.92426 9.51348 4.62613 9.83967 4.25 10.05 C3.90054 10.2525 3.5039 10.3594 3.1 10.36 C2.67371 10.3683 2.25737 10.2307 1.92 9.97 C1.60518 9.74369 1.37891 9.41489 1.28 9.04 C1.17434 8.42257 1.13078 7.79611 1.15 7.17 L1.15 2.83 L0 2.83 L0 2.4 C0.522824 2.37417 1.01468 2.1444 1.37 1.76 C1.80366 1.26782 2.07285 0.652531 2.14 0 L2.44 0 L2.44 2.4 L4.8 2.4 L4.8 2.83 L4.8 2.78 Z" transform="translate(157.681, 45.61)"/>
  <path style="fill:#ffffff; fill-rule:evenodd;stroke:none;" d="M2.66 1.97675 C2.85905 1.43021 3.20509 0.949218 3.66 0.586749 C4.04923 0.246016 4.54316 0.0484437 5.06 0.0267489 C5.43302 0 5.79888 0.139024 6.06 0.406749 C6.27492 0.614576 6.40046 0.897931 6.41 1.19675 C6.41443 1.37104 6.34972 1.54001 6.23 1.66675 C6.11942 1.79426 5.95878 1.86728 5.79 1.86675 C5.42237 1.82062 5.13134 1.53369 5.08 1.16675 C5.03291 0.919987 4.82982 0.733147 4.58 0.706749 C4.19001 0.752671 3.8323 0.945837 3.58 1.24675 C3.24282 1.5559 2.99426 1.94944 2.86 2.38675 C2.73804 2.91775 2.68427 3.46214 2.7 4.00675 L2.7 5.36675 C2.7 6.18675 2.7 6.69675 2.7 6.90675 C2.71006 7.10285 2.8096 7.28348 2.97 7.39675 C3.22711 7.53502 3.51936 7.59417 3.81 7.56675 L4.08 7.56675 L4.08 7.99675 L0.01 7.99675 L0.01 7.56675 L0.21 7.56675 C0.485344 7.5904 0.761928 7.53855 1.01 7.41675 C1.1683 7.32156 1.27494 7.15976 1.3 6.97675 C1.33005 6.4405 1.33005 5.90299 1.3 5.36675 L1.3 3.20675 C1.3 2.38675 1.3 1.86675 1.3 1.65675 C1.28424 1.46505 1.18564 1.28976 1.03 1.17675 C0.77664 1.03813 0.487454 0.978903 0.2 1.00675 L0 1.00675 L0 0.586749 C0.778853 0.475429 1.54554 0.291288 2.29 0.0367489 C2.49809 0.682668 2.59942 1.3582 2.59 2.03675 " transform="translate(163.291, 47.6433)"/>
  <path style="fill:#ffffff; fill-rule:evenodd;stroke:none;" d="M5.0043 3.40348 L4.0043 3.81348 C2.39097 4.48015 1.5843 5.30348 1.5843 6.28348 C1.56725 6.6275 1.67762 6.96573 1.8943 7.23348 C2.09347 7.47313 2.39296 7.60624 2.7043 7.59348 C3.05524 7.57349 3.39711 7.47434 3.7043 7.30348 C4.16693 7.05984 4.60266 6.76824 5.0043 6.43348 L5.0043 3.43348 L5.0043 3.40348 Z M7.7143 6.67348 L8.0543 6.67348 C8.10092 7.10509 7.9517 7.53488 7.64765 7.84473 C7.3436 8.15459 6.91672 8.31192 6.4843 8.27348 C6.11965 8.29295 5.76152 8.17118 5.4843 7.93348 C5.2157 7.66411 5.04647 7.31155 5.0043 6.93348 C4.47043 7.32507 3.89736 7.6602 3.2943 7.93348 C2.8623 8.13974 2.39268 8.25544 1.9143 8.27348 C1.4288 8.28451 0.954742 8.12531 0.574303 7.82348 C0.208134 7.53915 0 7.09686 0.0143034 6.63348 C0.0627313 5.96248 0.431197 5.35582 1.0043 5.00348 C1.80785 4.42805 2.68158 3.95758 3.6043 3.60348 L5.0043 3.00348 L5.0043 2.63348 C5.02059 2.24744 4.98698 1.86092 4.9043 1.48348 C4.81108 1.21294 4.62273 0.985497 4.3743 0.843483 C4.03374 0.640163 3.6404 0.5427 3.2443 0.563483 C2.3043 0.563483 1.7843 0.873483 1.6743 1.50348 C1.70817 1.74191 1.64285 1.98379 1.49357 2.17275 C1.34429 2.36172 1.12409 2.48125 0.884303 2.50348 C0.73198 2.52977 0.576181 2.48265 0.463966 2.37634 C0.351751 2.27003 0.296278 2.117 0.314303 1.96348 C0.38642 1.48713 0.664349 1.06657 1.0743 0.813483 C2.36195 0.0886008 3.91246 0 5.2743 0.573483 C5.64552 0.759625 5.94958 1.0567 6.1443 1.42348 C6.30726 1.89219 6.37855 2.38785 6.3543 2.88348 L6.3543 5.97348 C6.327 6.44298 6.36401 6.91401 6.4643 7.37348 C6.53684 7.57726 6.7391 7.70521 6.9543 7.68348 C7.41781 7.63603 7.75923 7.2281 7.7243 6.76348 " transform="translate(170.477, 47.5465)"/>
  <path style="fill:#ffffff; fill-rule:evenodd;stroke:none;" d="M4.77 2.82 L2.45 2.82 L2.45 7.45 C2.43032 7.93182 2.46048 8.41438 2.54 8.89 C2.59633 9.12912 2.73872 9.33914 2.94 9.48 C3.1246 9.62765 3.35362 9.70869 3.59 9.71 C4.08892 9.67888 4.53407 9.38592 4.76 8.94 L5.06 9.12 C4.88167 9.51499 4.57986 9.84136 4.2 10.05 C3.85347 10.2508 3.46051 10.3577 3.06 10.36 C2.63371 10.3683 2.21737 10.2307 1.88 9.97 C1.56578 9.74311 1.33967 9.41454 1.24 9.04 C1.13532 8.42245 1.09178 7.79609 1.11 7.17 L1.11 2.83 L0 2.83 L0 2.4 C0.524433 2.38075 1.01869 2.14985 1.37 1.76 C1.80902 1.27022 2.08202 0.654218 2.15 0 L2.45 0 L2.45 2.4 L4.76 2.4 L4.76 2.83 L4.77 2.82 Z" transform="translate(179.031, 45.57)"/>
  <path style="fill:#ffffff; fill-rule:evenodd;stroke:none;" d="M1.05 0.985182 C1.0537 0.726314 1.15766 0.478971 1.34 0.295182 C1.51923 0.106145 1.76954 0.000945874 2.03 0.00518225 C2.28774 0 2.53533 0.105589 2.71 0.295182 C2.88868 0.48056 2.98897 0.727713 2.99 0.985182 C2.99157 1.24611 2.89109 1.49732 2.71 1.68518 C2.53458 1.87371 2.28749 1.97909 2.03 1.97518 C1.76977 1.9782 1.51994 1.8732 1.34 1.68518 C1.15526 1.49892 1.0511 1.24752 1.05 0.985182 Z M2.86 4.89518 L2.86 10.2352 C2.86 11.0552 2.86 11.5652 2.86 11.7752 C2.87424 11.9701 2.97285 12.149 3.13 12.2652 C3.38477 12.3999 3.67278 12.4589 3.96 12.4352 L4.16 12.4352 L4.16 12.8652 L0.03 12.8652 L0.03 12.4352 L0.35 12.4352 C0.65318 12.4729 0.960139 12.4058 1.22 12.2452 C1.34849 12.1237 1.42995 11.9608 1.45 11.7852 C1.45 11.6052 1.45 11.0952 1.45 10.2352 L1.45 7.91518 C1.4831 7.36182 1.43935 6.80654 1.32 6.26518 C1.26626 6.09805 1.14201 5.96283 0.98 5.89518 C0.741382 5.83638 0.495445 5.81279 0.25 5.82518 L0 5.82518 L0 5.39518 C0.876048 5.32594 1.74151 5.15821 2.58 4.89518 L2.79 4.89518 L2.86 4.89518 Z" transform="translate(184.361, 42.7648)"/>
  <path style="fill:#ffffff; fill-rule:evenodd;stroke:none;" d="M1.59227 4.51055 C1.49772 5.51013 1.72926 6.51347 2.25227 7.37055 C2.73327 7.89382 3.41151 8.19162 4.12227 8.19162 C4.83302 8.19162 5.51127 7.89382 5.99227 7.37055 C6.50649 6.51017 6.7341 5.50867 6.64227 4.51055 C6.72817 3.50646 6.50111 2.5004 5.99227 1.63055 C5.5212 1.08641 4.83698 0.773746 4.11727 0.773746 C3.39755 0.773746 2.71333 1.08641 2.24227 1.63055 C1.73263 2.50375 1.50559 3.51322 1.59227 4.52055 Z M0.0422657 4.52055 C0.0142231 3.41991 0.441081 2.35639 1.22227 1.58055 C2.83257 0 5.41197 0 7.02227 1.58055 C7.80345 2.35639 8.23031 3.41991 8.20227 4.52055 C8.24956 5.64612 7.81277 6.73809 7.00227 7.52055 C6.22159 8.25493 5.18383 8.65351 4.11227 8.63055 C3.03956 8.6554 2.00185 8.24824 1.23227 7.50055 C0.431874 6.71205 0 5.62329 0.0422657 4.50055 " transform="translate(189.589, 47.3195)"/>
  <path style="fill:#ffffff; fill-rule:evenodd;stroke:none;" d="M2.2 0.0129801 L2.45 0.0129801 C2.61419 0.523373 2.69523 1.05685 2.69 1.59298 C3.08046 1.11334 3.55906 0.712813 4.1 0.41298 C4.57286 0.156802 5.1022 0.0227477 5.64 0.0229801 C6.16643 0 6.68801 0.132134 7.14 0.40298 C7.49496 0.615867 7.76124 0.949613 7.89 1.34298 C8.02004 1.87274 8.07724 2.41776 8.06 2.96298 L8.06 5.35298 C8.03176 5.89261 8.03176 6.43335 8.06 6.97298 C8.08364 7.15652 8.19065 7.31888 8.35 7.41298 C8.63751 7.53319 8.94912 7.58456 9.26 7.56298 L9.26 7.99298 L5.35 7.99298 L5.35 7.56298 L5.54 7.56298 C5.84763 7.60006 6.15861 7.52939 6.42 7.36298 C6.55146 7.24378 6.63351 7.07967 6.65 6.90298 C6.65 6.72298 6.65 6.21298 6.65 5.36298 L6.65 2.90298 C6.66342 2.46773 6.63327 2.03223 6.56 1.60298 C6.48935 1.32486 6.32294 1.08055 6.09 0.91298 C5.79994 0.703274 5.4476 0.597573 5.09 0.61298 C4.62207 0.615002 4.16559 0.75787 3.78 1.02298 C3.31189 1.34679 2.91395 1.76174 2.61 2.24298 L2.61 5.36298 C2.59496 5.90349 2.61166 6.44442 2.66 6.98298 C2.68732 7.16786 2.79788 7.33001 2.96 7.42298 C3.25057 7.54474 3.5658 7.59614 3.88 7.57298 L3.88 8.00298 L0 8.00298 L0 7.57298 C0.306644 7.59305 0.613941 7.54524 0.9 7.43298 C1.0601 7.35534 1.17476 7.20739 1.21 7.03298 C1.26802 6.47833 1.28807 5.92036 1.27 5.36298 L1.27 3.08298 C1.28605 2.53914 1.26935 1.99482 1.22 1.45298 C1.19123 1.27123 1.08065 1.11273 0.92 1.02298 C0.629428 0.901216 0.314201 0.84982 0 0.87298 L0 0.44298 C0.714112 0.363977 1.42007 0.223455 2.11 0.0229801 " transform="translate(198.941, 47.647)"/>
  <path style="fill:#ffffff; fill-rule:evenodd;stroke:none;" d="M7.11106 3.67098 C8.34126 2.27673 10.1331 1.50935 11.9911 1.58098 C13.7923 1.54307 15.5254 2.26974 16.7611 3.58098 C18.0876 5.04109 18.7753 6.971 18.6711 8.94098 L18.6711 9.43098 L5.06106 9.43098 C5.07629 7.34099 5.79887 5.31777 7.11106 3.69098 Z M22.6611 20.821 C21.6398 21.9601 20.4809 22.9678 19.2111 23.821 C17.9303 24.5264 16.4824 24.8719 15.0211 24.821 C13.211 24.7915 11.4583 24.1816 10.0211 23.081 C8.36174 21.8586 7.08801 20.1857 6.35106 18.261 C5.46386 15.9492 5.03587 13.4866 5.09106 11.011 L5.09106 10.661 L23.4811 10.661 L23.4811 10.111 C23.488 7.39651 22.3036 4.81568 20.2411 3.05098 C18.1975 1.10821 15.4806 0.0329314 12.6611 0.0509801 C9.26027 0 6.00646 1.43518 3.75106 3.98098 C1.31969 6.60819 0.0131661 10.0827 0.111058 13.661 C0 17.197 1.38299 20.6164 3.92106 23.081 C6.51293 25.5688 10.0005 26.9033 13.5911 26.781 C15.5549 26.8347 17.5019 26.4055 19.2611 25.531 C21.0849 24.4801 22.6661 23.0556 23.9011 21.351 L23.9011 21.351 L22.6611 20.821 Z" transform="translate(0, 29.439)"/>
  <path style="fill:#ffffff; fill-rule:evenodd;stroke:none;" d="M14.0431 21.4599 C13.5433 22.4249 12.7668 23.2187 11.8131 23.7399 C10.9147 24.3122 9.87791 24.6301 8.81312 24.6599 C7.74823 24.6512 6.74891 24.1442 6.11312 23.2899 C5.36158 22.3717 4.96105 21.2162 4.98312 20.0299 C4.9154 18.7966 5.29142 17.5799 6.04312 16.5999 C6.74979 15.7532 8.36979 14.8999 10.9031 14.0399 C12.2698 13.5732 13.3131 13.1899 14.0331 12.8899 L14.0331 21.4499 L14.0431 21.4599 Z M22.4031 22.4599 C22.0831 23.4599 21.0631 24.6599 20.3031 24.6299 C19.7824 24.6497 19.3157 24.311 19.1731 23.8099 C18.9233 22.7931 18.8223 21.7456 18.8731 20.6999 L18.8731 9.90986 C18.8862 6.32683 16.8244 3.05998 13.5845 1.52999 C10.3445 0 6.51178 0.483358 3.75312 2.76986 C2.08557 4.1708 0.934513 6.08923 0.483121 8.21986 L1.72312 8.73986 C2.13967 7.19165 3.02731 5.81126 4.26312 4.78986 C5.42912 3.8326 6.89458 3.3158 8.40312 3.32986 C9.95183 3.26278 11.4515 3.88094 12.5031 5.01986 C13.5636 6.24893 14.1113 7.83843 14.0331 9.45986 L14.0331 11.3399 C12.5198 12.0619 10.9343 12.6217 9.30312 13.0099 C5.56979 14.0565 3.09312 15.1532 1.87312 16.2999 C0.663402 17.4292 0 19.0258 0.0531208 20.6799 C0.0347147 22.4963 0.808754 24.2306 2.17312 25.4299 C3.53941 26.7357 5.36329 27.4538 7.25312 27.4299 C8.44437 27.4583 9.62475 27.1976 10.6931 26.6699 C11.9538 25.9198 13.0823 24.967 14.0331 23.8499 C14.8198 26.2432 16.2465 27.4365 18.3131 27.4299 C19.6029 27.4799 20.852 26.9737 21.7431 26.0399 C22.5288 25.1657 23.0218 24.0679 23.1531 22.8999 L22.4031 22.4599 Z" transform="translate(42.8279, 28.8701)"/>
  <path style="fill:#ffffff; fill-rule:evenodd;stroke:none;" d="M10.47 24.16 C9.86 23.69 9.56 22.77 9.56 21.37 L9.56 0 L8 0 L8 0 C6.51 0.68 0 0.86 0 0.86 L0 2.04 C2.11 2.04 3.44 2.29 4 2.77 C4.56 3.25 4.8 4.27 4.8 5.77 L4.8 21.3 C4.8 22.72 4.51 23.6567 3.93 24.11 C3.35 24.56 2.05 24.79 0.03 24.79 L0.03 25.97 L13.77 25.97 L13.77 24.79 C12.6245 24.8969 11.4735 24.6527 10.47 24.09 " transform="translate(26.2111, 29.39)"/>
  <path style="fill:#5d9731; fill-rule:evenodd;stroke:none;" d="M0.01 25.34 C0.12 25.22 0.27 25.07 0.47 24.87 C7.62009 17.8961 15.7325 11.9827 24.56 7.31 C29.0538 4.92714 33.8512 3.16763 38.82 2.08 C48.92 0 55.18 2.43 57.07 4.01 C57.331 4.20829 57.5459 4.46075 57.7 4.75 C51.5849 4.13977 45.4122 4.47707 39.4 5.75 C27.89 8.13 16.24 13.49 4.79 21.7 C3.31 22.76 1.84 23.87 0.43 24.99 C0.292116 25.1007 0.14859 25.2042 0 25.3 " transform="translate(8.39106, 0)"/>
  <path style="fill:#ffc402; fill-rule:evenodd;stroke:none;" d="M0 25.1348 C0.11 24.9448 0.28 24.6748 0.55 24.2748 C3.03 20.6948 6.87 15.4848 9.88 11.9348 C17.03 3.48475 23.8 1.05475 27.2 0.354753 C28.3388 0.104175 29.5049 0 30.67 0.0447533 C30.5823 0.174489 30.4818 0.295094 30.37 0.404753 C22.2319 4.57603 14.7573 9.93093 8.19 16.2948 C6.05 18.4148 4.05 20.6648 2.44 22.4748 C1.81 23.1848 1.23 23.8448 0.71 24.4148 C0.38 24.7648 0.16 24.9948 1.13687e-13 25.1448 " transform="translate(5.92106, 0.825247)"/>
  <path style="fill:#0097d7; fill-rule:evenodd;stroke:none;" d="M58.51 35.84 C58.5488 35.3706 58.6428 34.9074 58.79 34.46 C60.93 27.98 60.79 21.97 58.28 17.07 C53.13 6.88 40.62 2.74 24.81 6 C16.8691 7.75013 9.24149 10.7007 2.19 14.75 C1.75 14.99 1.32 15.24 0.9 15.5 C0.49 15.74 0.2 15.9 0 16 C0.18 15.85 0.44 15.65 0.81 15.39 C3.01304 13.8491 5.29262 12.4206 7.64 11.11 C14.0789 7.48206 21.0265 4.84258 28.25 3.28 C44.17 0 57.01 3.79 61.75 13.18 C63.3719 16.5011 63.9938 20.222 63.54 23.89 C63.1524 28.2953 61.4052 32.4713 58.54 35.84 " transform="translate(11.8711, 9.19)"/>
  <path style="fill:#ffffff; fill-rule:evenodd;stroke:none;" d="M5.42 2.71 C5.42 4.20669 4.20669 5.42 2.71 5.42 C1.21331 5.42 0 4.20669 0 2.71 C0 1.21331 1.21331 0 2.71 0 C4.20669 0 5.42 1.21331 5.42 2.71 Z" transform="translate(30.1611, 20.84)"/>
  <path style="fill:#ffffff; fill-rule:evenodd;stroke:none;" d="M4.01 8.95 L3.91 9.26 L0 9.26 L0.1 8.95 L0.31 8.95 C0.558626 8.95928 0.805766 8.9078 1.03 8.8 C1.19693 8.7236 1.3365 8.59799 1.43 8.44 C1.55606 8.15174 1.6597 7.85419 1.74 7.55 L3.52 1.65 C3.61921 1.37469 3.68959 1.08983 3.73 0.8 C3.73 0.473333 3.43667 0.31 2.85 0.31 L2.6 0.31 L2.7 0 L6.34 0 L6.24 0.31 L6.06 0.31 C5.85719 0.309152 5.65637 0.349997 5.47 0.43 C5.31106 0.491087 5.17724 0.603777 5.09 0.75 C4.93975 1.09335 4.81605 1.44773 4.72 1.81 L2.99 7.49 C2.89516 7.75568 2.82814 8.03049 2.79 8.31 C2.77801 8.51711 2.89267 8.71085 3.08 8.8 C3.28742 8.90484 3.51768 8.95639 3.75 8.95 L4.02 8.95 L4.01 8.95 Z" transform="translate(92.8211, 3.99)"/>
  <path style="fill:#ffffff; fill-rule:evenodd;stroke:none;" d="M5.14 4.50128 L5.49 4.50128 C5.27565 4.91667 4.99152 5.29213 4.65 5.61128 C4.4151 5.83701 4.10553 5.96866 3.78 5.98128 C3.58615 5.98427 3.39781 5.91675 3.25 5.79128 C3.09486 5.6481 3.0138 5.44178 3.03 5.23128 C3.07922 4.81275 3.18345 4.40254 3.34 4.01128 L4.07 1.93128 C4.21221 1.57471 4.30962 1.20186 4.36 0.821285 C4.36775 0.702802 4.33221 0.585536 4.26 0.491285 C4.1803 0.413456 4.07112 0.373423 3.96 0.381285 C3.35766 0.582731 2.86544 1.02428 2.6 1.60128 C1.962 2.58957 1.47655 3.66835 1.16 4.80128 L0.83 5.89128 L0 5.89128 L1.2 2.01128 C1.34053 1.61009 1.45084 1.19894 1.53 0.781285 C1.54698 0.725891 1.54698 0.666679 1.53 0.611285 C1.4975 0.57429 1.44891 0.555603 1.4 0.561285 C0.927767 0.718507 0.557222 1.08905 0.4 1.56128 L0.09 1.56128 C0.656667 0.527952 1.19667 0.011285 1.71 0.011285 C1.86089 0 2.00852 0.0590544 2.11 0.171285 C2.20814 0.314926 2.25402 0.487887 2.24 0.661285 C2.18461 1.28858 2.02932 1.903 1.78 2.48128 C2.60667 0.834618 3.41 0.011285 4.19 0.011285 C4.43307 0.0116348 4.6677 0.100507 4.85 0.261285 C5.04723 0.450882 5.14985 0.718423 5.13 0.991285 C5.08736 1.38521 4.99323 1.77185 4.85 2.14128 L4.12 4.32128 C4.00019 4.64747 3.90329 4.98161 3.83 5.32128 C3.82388 5.39487 3.84933 5.46758 3.9 5.52128 C3.95228 5.56675 4.02109 5.58848 4.09 5.58128 C4.28413 5.56291 4.46347 5.46966 4.59 5.32128 C4.80858 5.07332 4.99351 4.79761 5.14 4.50128 L5.14 4.50128 Z" transform="translate(98.2911, 7.46871)"/>
  <path style="fill:#ffffff; fill-rule:evenodd;stroke:none;" d="M4.98741 8.16 L5.31741 8.16 C5.11224 8.53269 4.84893 8.87027 4.53741 9.16 C4.31602 9.40927 4.00909 9.5663 3.67741 9.6 C3.46985 9.6161 3.26661 9.5348 3.12741 9.38 C2.99395 9.19072 2.93033 8.96097 2.94741 8.73 C2.93544 8.6103 2.93544 8.4897 2.94741 8.37 C2.55861 9.02581 1.89967 9.47609 1.14741 9.6 C0.839627 9.60166 0.548229 9.46149 0.357407 9.22 C0.117446 8.90944 0 8.52151 0.0274073 8.13 C0.05034 7.38797 0.23822 6.66036 0.577407 6 C0.884144 5.31617 1.34643 4.71348 1.92741 4.24 C2.31413 3.88484 2.80511 3.6639 3.32741 3.61 C3.51082 3.60376 3.69192 3.65251 3.84741 3.75 C4.00227 3.85748 4.1236 4.00654 4.19741 4.18 L5.02741 1.43 C5.09553 1.23839 5.14575 1.04088 5.17741 0.84 C5.18629 0.753301 5.15277 0.667648 5.08741 0.61 C4.94248 0.548066 4.78419 0.523979 4.62741 0.54 L4.43741 0.54 L4.52741 0.25 C5.06527 0.269412 5.60181 0.184517 6.10741 0 L6.27741 0 L4.08741 7.2 C3.91066 7.7113 3.77686 8.23646 3.68741 8.77 C3.67933 8.86084 3.70034 8.95189 3.74741 9.03 C3.79355 9.08653 3.86473 9.11649 3.93741 9.11 C4.11225 9.08943 4.27292 9.00374 4.38741 8.87 C4.61693 8.65995 4.81857 8.42134 4.98741 8.16 L4.98741 8.16 Z M0.857407 8.45 C0.840953 8.65204 0.88629 8.85431 0.987407 9.03 C1.07498 9.15747 1.22305 9.22961 1.37741 9.22 C1.80117 9.1544 2.18201 8.92446 2.43741 8.58 C2.94483 7.958 3.32228 7.2405 3.54741 6.47 C3.78963 5.8721 3.9608 5.24783 4.05741 4.61 C4.05806 4.44118 3.99769 4.27782 3.88741 4.15 C3.77834 4.01368 3.61194 3.93603 3.43741 3.94 C3.06922 3.97849 2.733 4.16649 2.50741 4.46 C2.06165 5.00602 1.70091 5.61624 1.43741 6.27 C1.09739 6.94594 0.899974 7.68456 0.857407 8.44 L0.857407 8.45 Z" transform="translate(104.424, 3.85)"/>
  <path style="fill:#ffffff; fill-rule:evenodd;stroke:none;" d="M3.18099 4.05444 L3.51099 4.05444 C2.93099 5.34778 2.18766 5.99111 1.28099 5.98444 C0.934892 5.99551 0.601667 5.8527 0.370993 5.59444 C0.124994 5.2978 0 4.91925 0.0209927 4.53444 C0.0433611 3.8743 0.196306 3.22514 0.470993 2.62444 C0.764804 1.92611 1.20465 1.29873 1.76099 0.784445 C2.13855 0.359685 2.65723 0.0861321 3.22099 0.014445 C3.44111 0 3.65544 0.0886877 3.80099 0.254445 C3.93647 0.424525 4.00733 0.637094 4.00099 0.854445 C3.96284 1.41018 3.69465 1.92482 3.26099 2.27444 C2.60148 2.82981 1.85476 3.27243 1.05099 3.58444 C0.928885 3.94884 0.864771 4.33015 0.860993 4.71444 C0.842697 4.94723 0.902517 5.17947 1.03099 5.37444 C1.15477 5.52679 1.34524 5.60895 1.54099 5.59444 C2.16099 5.56111 2.70766 5.04778 3.18099 4.05444 Z M1.18099 3.23444 C1.77251 2.97019 2.31122 2.60088 2.77099 2.14444 C3.15911 1.83129 3.41015 1.37941 3.47099 0.884445 C3.48152 0.745535 3.44255 0.607382 3.36099 0.494445 C3.28038 0.403665 3.16208 0.355607 3.04099 0.364445 C2.60422 0.46696 2.23689 0.760826 2.04099 1.16444 C1.63116 1.78564 1.33018 2.47213 1.15099 3.19444 L1.18099 3.23444 Z" transform="translate(110.4, 7.49555)"/>
  <path style="fill:#ffffff; fill-rule:evenodd;stroke:none;" d="M2.02 4.81 L1.71 4.81 L3 2.74 C3.27165 2.32639 3.52197 1.89917 3.75 1.46 C3.91142 1.09278 4.04839 0.715291 4.16 0.33 L4.26 0 L5.08 0 L4.62 1.53 L4.05 3.14 C4.39989 2.45244 5.05095 1.96785 5.81 1.83 C6.15668 1.83507 6.47852 2.01095 6.67 2.3 C6.91717 2.63892 7.04389 3.05076 7.03 3.47 C7.00908 4.12068 6.86663 4.7617 6.61 5.36 C6.35456 6.03318 5.94334 6.6363 5.41 7.12 C4.99728 7.53499 4.44456 7.78104 3.86 7.81 C3.41426 7.84961 3.00978 7.5484 2.92 7.11 L2.12 9.76 C2.05086 9.95472 2.00063 10.1557 1.97 10.36 C1.97 10.4387 2.00705 10.5128 2.07 10.56 C2.25331 10.6358 2.45301 10.6634 2.65 10.64 L2.96 10.64 L2.86 10.94 L0 10.94 L0.1 10.64 L0.24 10.64 C0.482958 10.6648 0.728401 10.6375 0.96 10.56 C1.13256 10.3019 1.25471 10.0135 1.32 9.71 L2.74 5.01 C3.04 4.03 3.37333 3.03 3.74 2.01 C3.74 2.07 3.57 2.28 3.38 2.63 L3.16 2.98 L2.02 4.81 Z M3.28 5.81 C3.18245 6.09438 3.12196 6.39015 3.1 6.69 C3.09166 6.89518 3.15533 7.09682 3.28 7.26 C3.40589 7.41631 3.59966 7.50202 3.8 7.49 C4.1977 7.44611 4.55959 7.23983 4.8 6.92 C5.2583 6.36075 5.59848 5.7144 5.8 5.02 C6.03819 4.37731 6.183 3.70379 6.23 3.02 C6.2442 2.79136 6.1958 2.56318 6.09 2.36 C6.00479 2.21622 5.84692 2.1315 5.68 2.14 C5.29537 2.20225 4.94301 2.39252 4.68 2.68 C4.12198 3.32045 3.73346 4.0906 3.55 4.92 L3.28 5.81 Z" transform="translate(113.241, 5.62)"/>
  <path style="fill:#ffffff; fill-rule:evenodd;stroke:none;" d="M3.21099 4.05444 L3.51099 4.05444 C2.93099 5.34778 2.18766 5.99111 1.28099 5.98444 C0.934892 5.99551 0.601667 5.8527 0.370993 5.59444 C0.124994 5.2978 0 4.91925 0.0209927 4.53444 C0.0433611 3.8743 0.196306 3.22514 0.470993 2.62444 C0.764804 1.92611 1.20465 1.29873 1.76099 0.784445 C2.13855 0.359685 2.65723 0.0861321 3.22099 0.014445 C3.44111 0 3.65544 0.0886877 3.80099 0.254445 C3.93647 0.424525 4.00733 0.637094 4.00099 0.854445 C3.96284 1.41018 3.69465 1.92482 3.26099 2.27444 C2.60148 2.82981 1.85476 3.27243 1.05099 3.58444 C0.929046 3.94888 0.864935 4.33017 0.860993 4.71444 C0.842697 4.94723 0.902517 5.17947 1.03099 5.37444 C1.15477 5.52679 1.34524 5.60895 1.54099 5.59444 C2.18766 5.56111 2.74433 5.04778 3.21099 4.05444 Z M1.21099 3.23444 C1.80251 2.97019 2.34122 2.60088 2.80099 2.14444 C3.18911 1.83129 3.44015 1.37941 3.50099 0.884445 C3.51152 0.745535 3.47255 0.607382 3.39099 0.494445 C3.31038 0.403665 3.19208 0.355607 3.07099 0.364445 C2.63422 0.46696 2.26689 0.760826 2.07099 1.16444 C1.66116 1.78564 1.36018 2.47213 1.18099 3.19444 L1.21099 3.23444 Z" transform="translate(120.97, 7.49555)"/>
  <path style="fill:#ffffff; fill-rule:evenodd;stroke:none;" d="M5.14 4.50128 L5.49 4.50128 C5.27565 4.91667 4.99152 5.29213 4.65 5.61128 C4.4151 5.83701 4.10553 5.96866 3.78 5.98128 C3.58615 5.98427 3.39781 5.91675 3.25 5.79128 C3.09486 5.6481 3.0138 5.44178 3.03 5.23128 C3.07922 4.81275 3.18345 4.40254 3.34 4.01128 L4.07 1.93128 C4.21221 1.57471 4.30962 1.20186 4.36 0.821285 C4.36775 0.702802 4.33221 0.585536 4.26 0.491285 C4.1803 0.413456 4.07112 0.373423 3.96 0.381285 C3.35766 0.582731 2.86544 1.02428 2.6 1.60128 C1.962 2.58957 1.47655 3.66835 1.16 4.80128 L0.83 5.89128 L0 5.89128 L1.2 2.01128 C1.34053 1.61009 1.45084 1.19894 1.53 0.781285 C1.54698 0.725891 1.54698 0.666679 1.53 0.611285 C1.4975 0.57429 1.44891 0.555603 1.4 0.561285 C0.927767 0.718507 0.557222 1.08905 0.4 1.56128 L0.14 1.56128 C0.706667 0.527952 1.24667 0.011285 1.76 0.011285 C1.91089 0 2.05852 0.0590544 2.16 0.171285 C2.25814 0.314926 2.30402 0.487887 2.29 0.661285 C2.23461 1.28858 2.07932 1.903 1.83 2.48128 C2.65667 0.834618 3.46 0.011285 4.24 0.011285 C4.48307 0.0116348 4.7177 0.100507 4.9 0.261285 C5.09723 0.450882 5.19985 0.718423 5.18 0.991285 C5.13736 1.38521 5.04323 1.77185 4.9 2.14128 L4.14 4.30128 C4.02019 4.62747 3.92329 4.96161 3.85 5.30128 C3.84388 5.37487 3.86933 5.44758 3.92 5.50128 C3.97228 5.54675 4.04109 5.56848 4.11 5.56128 C4.30413 5.54291 4.48347 5.44966 4.61 5.30128 C4.82011 5.05835 4.99823 4.78949 5.14 4.50128 L5.14 4.50128 Z" transform="translate(125.341, 7.46871)"/>
  <path style="fill:#ffffff; fill-rule:evenodd;stroke:none;" d="M4.94741 8.19 L5.27741 8.19 C5.07224 8.56269 4.80893 8.90027 4.49741 9.19 C4.27602 9.43927 3.96909 9.5963 3.63741 9.63 C3.42985 9.6461 3.22661 9.5648 3.08741 9.41 C2.96103 9.20733 2.91137 8.96611 2.94741 8.73 C2.93544 8.6103 2.93544 8.4897 2.94741 8.37 C2.55861 9.02581 1.89967 9.47609 1.14741 9.6 C0.839627 9.60166 0.548229 9.46149 0.357407 9.22 C0.117446 8.90944 0 8.52151 0.0274073 8.13 C0.05034 7.38797 0.23822 6.66036 0.577407 6 C0.884144 5.31617 1.34643 4.71348 1.92741 4.24 C2.31413 3.88484 2.80511 3.6639 3.32741 3.61 C3.51082 3.60376 3.69192 3.65251 3.84741 3.75 C4.00227 3.85748 4.1236 4.00654 4.19741 4.18 L5.02741 1.43 C5.09553 1.23839 5.14575 1.04088 5.17741 0.84 C5.18629 0.753301 5.15277 0.667648 5.08741 0.61 C4.94248 0.548066 4.78419 0.523979 4.62741 0.54 L4.43741 0.54 L4.52741 0.25 C5.06527 0.269412 5.60181 0.184517 6.10741 0 L6.27741 0 L4.08741 7.2 C3.91066 7.7113 3.77686 8.23646 3.68741 8.77 C3.67933 8.86084 3.70034 8.95189 3.74741 9.03 C3.79355 9.08653 3.86473 9.11649 3.93741 9.11 C4.11225 9.08943 4.27292 9.00374 4.38741 8.87 C4.60091 8.66684 4.78896 8.4385 4.94741 8.19 L4.94741 8.19 Z M0.817407 8.48 C0.800953 8.68204 0.84629 8.88431 0.947407 9.06 C1.03498 9.18747 1.18305 9.25961 1.33741 9.25 C1.76117 9.1844 2.14201 8.95446 2.39741 8.61 C2.90483 7.988 3.28228 7.2705 3.50741 6.5 C3.74963 5.9021 3.9208 5.27783 4.01741 4.64 C4.01806 4.47118 3.95769 4.30782 3.84741 4.18 C3.73834 4.04368 3.57194 3.96603 3.39741 3.97 C3.02922 4.00849 2.693 4.19649 2.46741 4.49 C2.02165 5.03602 1.66091 5.64624 1.39741 6.3 C1.05392 6.97519 0.853091 7.71385 0.807407 8.47 L0.817407 8.48 Z" transform="translate(131.534, 3.82)"/>
  <path style="fill:#ffffff; fill-rule:evenodd;stroke:none;" d="M3.18099 4.05444 L3.51099 4.05444 C2.93099 5.34778 2.18766 5.99111 1.28099 5.98444 C0.934892 5.99551 0.601667 5.8527 0.370993 5.59444 C0.124994 5.2978 0 4.91925 0.0209927 4.53444 C0.0433611 3.8743 0.196306 3.22514 0.470993 2.62444 C0.764804 1.92611 1.20465 1.29873 1.76099 0.784445 C2.13855 0.359685 2.65723 0.0861321 3.22099 0.014445 C3.44111 0 3.65544 0.0886877 3.80099 0.254445 C3.93647 0.424525 4.00733 0.637094 4.00099 0.854445 C3.96284 1.41018 3.69465 1.92482 3.26099 2.27444 C2.60148 2.82981 1.85476 3.27243 1.05099 3.58444 C0.928885 3.94884 0.864771 4.33015 0.860993 4.71444 C0.842697 4.94723 0.902517 5.17947 1.03099 5.37444 C1.15477 5.52679 1.34524 5.60895 1.54099 5.59444 C2.16099 5.56111 2.70766 5.04778 3.18099 4.05444 Z M1.18099 3.23444 C1.77251 2.97019 2.31122 2.60088 2.77099 2.14444 C3.15911 1.83129 3.41015 1.37941 3.47099 0.884445 C3.48152 0.745535 3.44255 0.607382 3.36099 0.494445 C3.28038 0.403665 3.16208 0.355607 3.04099 0.364445 C2.60422 0.46696 2.23689 0.760826 2.04099 1.16444 C1.63116 1.78564 1.33018 2.47213 1.15099 3.19444 L1.18099 3.23444 Z" transform="translate(137.46, 7.49555)"/>
  <path style="fill:#ffffff; fill-rule:evenodd;stroke:none;" d="M5.14 4.50128 L5.49 4.50128 C5.27565 4.91667 4.99152 5.29213 4.65 5.61128 C4.4151 5.83701 4.10553 5.96866 3.78 5.98128 C3.58615 5.98427 3.39781 5.91675 3.25 5.79128 C3.09486 5.6481 3.0138 5.44178 3.03 5.23128 C3.07922 4.81275 3.18345 4.40254 3.34 4.01128 L4.07 1.93128 C4.21221 1.57471 4.30962 1.20186 4.36 0.821285 C4.36775 0.702802 4.33221 0.585536 4.26 0.491285 C4.1803 0.413456 4.07112 0.373423 3.96 0.381285 C3.35766 0.582731 2.86544 1.02428 2.6 1.60128 C1.962 2.58957 1.47655 3.66835 1.16 4.80128 L0.83 5.89128 L0 5.89128 L1.2 2.01128 C1.34053 1.61009 1.45084 1.19894 1.53 0.781285 C1.54698 0.725891 1.54698 0.666679 1.53 0.611285 C1.4975 0.57429 1.44891 0.555603 1.4 0.561285 C0.927767 0.718507 0.557222 1.08905 0.4 1.56128 L0.09 1.56128 C0.656667 0.527952 1.19667 0.011285 1.71 0.011285 C1.86089 0 2.00852 0.0590544 2.11 0.171285 C2.20814 0.314926 2.25402 0.487887 2.24 0.661285 C2.18461 1.28858 2.02932 1.903 1.78 2.48128 C2.60667 0.834618 3.41 0.011285 4.19 0.011285 C4.43307 0.0116348 4.6677 0.100507 4.85 0.261285 C5.04723 0.450882 5.14985 0.718423 5.13 0.991285 C5.08736 1.38521 4.99323 1.77185 4.85 2.14128 L4.12 4.32128 C4.00019 4.64747 3.90329 4.98161 3.83 5.32128 C3.82388 5.39487 3.84933 5.46758 3.9 5.52128 C3.95228 5.56675 4.02109 5.58848 4.09 5.58128 C4.28413 5.56291 4.46347 5.46966 4.59 5.32128 C4.80858 5.07332 4.99351 4.79761 5.14 4.50128 L5.14 4.50128 Z" transform="translate(141.811, 7.46871)"/>
  <path style="fill:#ffffff; fill-rule:evenodd;stroke:none;" d="M3.29745 2.1 L3.19745 2.4 L2.19745 2.4 L1.29745 5.4 C1.10222 5.95713 0.951739 6.52894 0.84745 7.11 C0.84071 7.19897 0.865491 7.28747 0.91745 7.36 C0.971716 7.4171 1.04895 7.44652 1.12745 7.44 C1.39198 7.37463 1.62117 7.20989 1.76745 6.98 C2.05867 6.62583 2.29776 6.23185 2.47745 5.81 L2.77745 5.81 C2.55094 6.39121 2.211 6.92151 1.77745 7.37 C1.52855 7.67505 1.16903 7.86919 0.77745 7.91 C0.561972 7.91876 0.354792 7.82627 0.21745 7.66 C0.0746263 7.48561 0 7.26529 0.00744983 7.04 C0.0912198 6.45764 0.231893 5.8849 0.42745 5.33 L1.30745 2.42 L0.36745 2.42 L0.46745 2.12 L1.40745 2.12 L2.09745 0 L2.91745 0 L2.29745 2.1 L3.29745 2.1 Z" transform="translate(148.184, 5.55)"/>
  <path style="fill:#ffffff; fill-rule:evenodd;stroke:none;" d="M0.32 6.37647 L0.6 6.37647 C0.567441 7.18337 0.826588 7.97501 1.33 8.60647 C1.7184 9.03694 2.27022 9.2838 2.85 9.28647 C3.32059 9.29252 3.77542 9.11703 4.12 8.79647 C4.47129 8.48947 4.66894 8.04291 4.66 7.57647 C4.67191 7.22756 4.58897 6.88196 4.42 6.57647 C4.18741 6.20313 3.90099 5.86616 3.57 5.57647 C3.06398 5.12911 2.61403 4.62208 2.23 4.06647 C1.98997 3.66146 1.86869 3.19712 1.88 2.72647 C1.88058 2.0202 2.15686 1.34206 2.65 0.836468 C3.08836 0.317424 3.73066 0.0145201 4.41 0.00646762 C5.17886 0 5.87157 0.469768 6.15 1.18647 C6.3414 0.877134 6.48313 0.539703 6.57 0.186468 L6.85 0.186468 L6.49 2.90647 L6.18 2.90647 C6.20094 2.39367 6.11231 1.8823 5.92 1.40647 C5.77566 1.08276 5.54789 0.803216 5.26 0.596468 C4.99972 0.41275 4.68858 0.314864 4.37 0.316468 C3.91988 0.30116 3.49062 0.506461 3.22 0.866468 C2.93913 1.22235 2.78751 1.66311 2.79 2.11647 C2.78103 2.47176 2.88234 2.8211 3.08 3.11647 C3.41588 3.54997 3.79444 3.94863 4.21 4.30647 C4.70736 4.71351 5.12159 5.21261 5.43 5.77647 C5.59158 6.14204 5.67666 6.5368 5.68 6.93647 C5.69865 7.66651 5.39067 8.36681 4.84 8.84647 C4.3284 9.32788 3.65249 9.5961 2.95 9.59647 C2.07348 9.5783 1.26514 9.11961 0.8 8.37647 C0.587911 8.65747 0.43175 8.97658 0.34 9.31647 L0 9.31647 L0.32 6.37647 Z" transform="translate(155.251, 3.77353)"/>
  <path style="fill:#ffffff; fill-rule:evenodd;stroke:none;" d="M3.29745 2.05 L3.19745 2.35 L2.19745 2.35 L1.29745 5.35 C1.10222 5.90713 0.951739 6.47894 0.84745 7.06 C0.84071 7.14897 0.865491 7.23747 0.91745 7.31 C0.971716 7.3671 1.04895 7.39652 1.12745 7.39 C1.39198 7.32463 1.62117 7.15989 1.76745 6.93 C2.05867 6.57583 2.29776 6.18185 2.47745 5.76 L2.77745 5.76 C2.55094 6.34121 2.211 6.87151 1.77745 7.32 C1.52855 7.62505 1.16903 7.81919 0.77745 7.86 C0.561972 7.86876 0.354792 7.77627 0.21745 7.61 C0.0746263 7.43561 0 7.21529 0.00744983 6.99 C0.0912198 6.40764 0.231893 5.8349 0.42745 5.28 L1.30745 2.37 L0.43745 2.37 L0.53745 2.07 L1.43745 2.07 L2.06745 0 L2.88745 0 L2.25745 2.07 L3.25745 2.07 L3.29745 2.05 Z" transform="translate(162.044, 5.6)"/>
  <path style="fill:#ffffff; fill-rule:evenodd;stroke:none;" d="M4.41333 0.170543 L5.23333 0.170543 L4.01333 4.17054 C3.89074 4.51135 3.80035 4.86288 3.74333 5.22054 C3.73719 5.2955 3.75852 5.37014 3.80333 5.43054 C3.85015 5.47916 3.91596 5.50475 3.98333 5.50054 C4.49601 5.33154 4.8996 4.93164 5.07333 4.42054 L5.36333 4.42054 C5.18224 4.83811 4.92445 5.21801 4.60333 5.54054 C4.37735 5.82015 4.05052 5.99973 3.69333 6.04054 C3.49983 6.04899 3.31528 5.9586 3.20333 5.80054 C3.08619 5.62657 3.02672 5.42017 3.03333 5.21054 C3.04573 4.96187 3.09285 4.71616 3.17333 4.48054 C2.92978 4.85761 2.62959 5.1949 2.28333 5.48054 C1.99226 5.78211 1.6011 5.96702 1.18333 6.00054 C0.861615 5.99672 0.559411 5.84562 0.363328 5.59054 C0.120782 5.27702 0 4.88625 0.023328 4.49054 C0.0411498 3.7916 0.222679 3.10659 0.553328 2.49054 C0.887968 1.80995 1.36147 1.207 1.94333 0.720543 C2.34008 0.326053 2.85768 0.0760514 3.41333 0.0105428 C3.61413 0 3.81228 0.0601517 3.97333 0.180543 C4.12375 0.312313 4.22289 0.492899 4.25333 0.690543 L4.41333 0.170543 Z M0.833328 4.75054 C0.820379 4.9855 0.868618 5.21981 0.973328 5.43054 C1.0559 5.57818 1.2143 5.66703 1.38333 5.66054 C1.81449 5.58678 2.201 5.35058 2.46333 5.00054 C2.96582 4.41813 3.34055 3.7368 3.56333 3.00054 C3.79827 2.40362 3.95296 1.77816 4.02333 1.14054 C4.02841 0.965181 3.9757 0.793011 3.87333 0.650543 C3.77591 0.517434 3.61807 0.442269 3.45333 0.450543 C2.89999 0.450543 2.32333 1.00054 1.72333 2.10054 C1.2259 2.90614 0.924482 3.81723 0.843328 4.76054 L0.833328 4.75054 Z" transform="translate(165.358, 7.37946)"/>
  <path style="fill:#ffffff; fill-rule:evenodd;stroke:none;" d="M3.29745 2.05 L3.19745 2.35 L2.19745 2.35 L1.29745 5.35 C1.10222 5.90713 0.951739 6.47894 0.84745 7.06 C0.84071 7.14897 0.865491 7.23747 0.91745 7.31 C0.971716 7.3671 1.04895 7.39652 1.12745 7.39 C1.39198 7.32463 1.62117 7.15989 1.76745 6.93 C2.05867 6.57583 2.29776 6.18185 2.47745 5.76 L2.77745 5.76 C2.55094 6.34121 2.211 6.87151 1.77745 7.32 C1.52855 7.62505 1.16903 7.81919 0.77745 7.86 C0.561972 7.86876 0.354792 7.77627 0.21745 7.61 C0.0746263 7.43561 0 7.21529 0.00744983 6.99 C0.0912198 6.40764 0.231893 5.8349 0.42745 5.28 L1.30745 2.37 L0.36745 2.37 L0.46745 2.07 L1.40745 2.07 L2.03745 0 L2.85745 0 L2.22745 2.07 L3.22745 2.07 L3.29745 2.05 Z" transform="translate(171.514, 5.6)"/>
  <path style="fill:#ffffff; fill-rule:evenodd;stroke:none;" d="M2.61 7.905 L2.94 7.905 C2.72941 8.3434 2.44531 8.7425 2.1 9.085 C1.84726 9.38059 1.48767 9.56398 1.1 9.595 C0.890412 9.59465 0.689331 9.51206 0.54 9.365 C0.369231 9.18542 0.282094 8.94216 0.3 8.695 C0.359705 8.21591 0.487669 7.74783 0.68 7.305 L1.47 5.225 C1.5933 4.93948 1.68388 4.64091 1.74 4.335 C1.74813 4.25986 1.7266 4.18451 1.68 4.125 C1.6263 4.07433 1.55358 4.04888 1.48 4.055 C1.22467 4.10454 0.998691 4.25161 0.85 4.465 C0.640955 4.68825 0.46576 4.94094 0.33 5.215 L0 5.215 C0.211841 4.77223 0.503363 4.37224 0.86 4.035 C1.09759 3.7868 1.41763 3.63389 1.76 3.605 C1.96023 3.59791 2.15365 3.6782 2.29 3.825 C2.43129 3.98056 2.50659 4.18495 2.5 4.395 C2.44628 4.85367 2.32496 5.30186 2.14 5.725 L1.48 7.505 C1.31064 7.89197 1.18973 8.29838 1.12 8.715 C1.1127 8.8211 1.14083 8.92662 1.2 9.015 C1.25662 9.08272 1.34186 9.11979 1.43 9.115 C1.98841 8.91449 2.42357 8.46827 2.61 7.905 L2.61 7.905 Z M2.1 0.595 C2.1 0.266391 2.36639 0 2.695 0 C3.02361 0 3.29 0.266391 3.29 0.595 C3.29262 0.752259 3.23127 0.903841 3.12 1.015 C3.00913 1.12737 2.85786 1.19063 2.7 1.19063 C2.54214 1.19063 2.39087 1.12737 2.28 1.015 C2.16846 0.907296 2.10379 0.76001 2.1 0.605 L2.1 0.595 Z" transform="translate(174.801, 3.845)"/>
  <path style="fill:#ffffff; fill-rule:evenodd;stroke:none;" d="M3.3423 4.26657 C3.33708 4.7054 3.16135 5.12499 2.8523 5.43657 C2.47023 5.81111 1.94602 6.00404 1.4123 5.96657 C1.03299 5.99595 0.656015 5.88571 0.352303 5.65657 C0.141878 5.49634 0.0136203 5.25082 0.00230333 4.98657 C0 4.86721 0.0388411 4.75068 0.112303 4.65657 C0.174152 4.56874 0.274881 4.51651 0.382303 4.51657 C0.486935 4.50607 0.590539 4.54458 0.662915 4.62087 C0.735291 4.69715 0.768293 4.80264 0.752303 4.90657 C0.76155 4.98965 0.76155 5.0735 0.752303 5.15657 C0.745774 5.19631 0.745774 5.23684 0.752303 5.27657 C0.7652 5.40154 0.845951 5.5092 0.962303 5.55657 C1.11862 5.64119 1.29466 5.68261 1.4723 5.67657 C1.77385 5.67679 2.06651 5.57454 2.3023 5.38657 C2.54659 5.19359 2.68707 4.89785 2.6823 4.58657 C2.60991 4.08682 2.42901 3.60897 2.1523 3.18657 C1.82963 2.69842 1.61799 2.14542 1.5323 1.56657 C1.52733 1.13664 1.7188 0.727938 2.0523 0.456573 C2.37592 0.16493 2.79667 0.00447249 3.2323 0.0065735 C3.52845 0 3.81905 0.0875304 4.0623 0.256573 C4.25677 0.36566 4.38422 0.564338 4.4023 0.786573 C4.42055 0.875889 4.3972 0.968658 4.33884 1.03869 C4.28048 1.10872 4.19345 1.14842 4.1023 1.14657 C3.91125 1.10857 3.77331 0.941372 3.7723 0.746573 C3.7172 0.47054 3.46259 0.280657 3.1823 0.306573 C2.93873 0.300042 2.69978 0.373836 2.5023 0.516573 C2.31993 0.640038 2.21115 0.846338 2.2123 1.06657 C2.26124 1.52385 2.41897 1.96275 2.6723 2.34657 C2.89378 2.70812 3.08766 3.08586 3.2523 3.47657 C3.32875 3.73252 3.35923 3.99999 3.3423 4.26657 Z" transform="translate(178.049, 7.48343)"/>
  <path style="fill:#ffffff; fill-rule:evenodd;stroke:none;" d="M3.29745 2.05 L3.19745 2.35 L2.19745 2.35 L1.29745 5.35 C1.10222 5.90713 0.951739 6.47894 0.84745 7.06 C0.84071 7.14897 0.865491 7.23747 0.91745 7.31 C0.971716 7.3671 1.04895 7.39652 1.12745 7.39 C1.39198 7.32463 1.62117 7.15989 1.76745 6.93 C2.05867 6.57583 2.29776 6.18185 2.47745 5.76 L2.77745 5.76 C2.55094 6.34121 2.211 6.87151 1.77745 7.32 C1.52855 7.62505 1.16903 7.81919 0.77745 7.86 C0.561972 7.86876 0.354792 7.77627 0.21745 7.61 C0.0746263 7.43561 0 7.21529 0.00744983 6.99 C0.0912198 6.40764 0.231893 5.8349 0.42745 5.28 L1.30745 2.37 L0.46745 2.37 L0.56745 2.07 L1.46745 2.07 L2.09745 0 L2.91745 0 L2.28745 2.07 L3.28745 2.07 L3.29745 2.05 Z" transform="translate(183.014, 5.6)"/>
  <path style="fill:#ffffff; fill-rule:evenodd;stroke:none;" d="M2.61 7.905 L2.94 7.905 C2.72941 8.3434 2.44531 8.7425 2.1 9.085 C1.84726 9.38059 1.48767 9.56398 1.1 9.595 C0.890412 9.59465 0.689331 9.51206 0.54 9.365 C0.369231 9.18542 0.282094 8.94216 0.3 8.695 C0.359705 8.21591 0.487669 7.74783 0.68 7.305 L1.47 5.225 C1.5933 4.93948 1.68388 4.64091 1.74 4.335 C1.74813 4.25986 1.7266 4.18451 1.68 4.125 C1.6263 4.07433 1.55358 4.04888 1.48 4.055 C1.22467 4.10454 0.998691 4.25161 0.85 4.465 C0.640955 4.68825 0.46576 4.94094 0.33 5.215 L0 5.215 C0.211841 4.77223 0.503363 4.37224 0.86 4.035 C1.09759 3.7868 1.41763 3.63389 1.76 3.605 C1.96023 3.59791 2.15365 3.6782 2.29 3.825 C2.43129 3.98056 2.50659 4.18495 2.5 4.395 C2.45393 4.84533 2.34278 5.28659 2.17 5.705 L1.51 7.485 C1.34064 7.87197 1.21973 8.27838 1.15 8.695 C1.1427 8.8011 1.17083 8.90662 1.23 8.995 C1.28662 9.06272 1.37186 9.09979 1.46 9.095 C2.00257 8.89114 2.4248 8.45422 2.61 7.905 L2.61 7.905 Z M2.1 0.595 C2.1 0.266391 2.36639 0 2.695 0 C3.02361 0 3.29 0.266391 3.29 0.595 C3.29262 0.752259 3.23127 0.903841 3.12 1.015 C3.00913 1.12737 2.85786 1.19063 2.7 1.19063 C2.54214 1.19063 2.39087 1.12737 2.28 1.015 C2.16846 0.907296 2.10379 0.76001 2.1 0.605 L2.1 0.595 Z" transform="translate(186.311, 3.845)"/>
  <path style="fill:#ffffff; fill-rule:evenodd;stroke:none;" d="M3.16697 3.84685 L3.43697 3.84685 C3.25327 4.43471 2.93087 4.96976 2.49697 5.40685 C2.17307 5.75744 1.72381 5.9659 1.24697 5.98685 C0.905606 5.99557 0.579886 5.84382 0.366968 5.57685 C0.120307 5.23861 0 4.82461 0.0269679 4.40685 C0.0881049 2.99814 0.711214 1.67269 1.75697 0.726853 C2.14081 0.324096 2.65411 0.0692161 3.20697 0.00685294 C3.43568 0 3.65806 0.0824978 3.82697 0.236853 C3.98847 0.377766 4.07989 0.582537 4.07697 0.796853 C4.10868 0.916128 4.08207 1.04338 4.00521 1.13994 C3.92835 1.23651 3.81032 1.291 3.68697 1.28685 C3.4203 1.28685 3.2803 1.10685 3.26697 0.746853 C3.25363 0.386853 3.1503 0.25352 2.95697 0.346853 C2.56951 0.439459 2.24335 0.699658 2.06697 1.05685 C1.67842 1.63664 1.38474 2.27464 1.19697 2.94685 C0.996091 3.52436 0.874974 4.12659 0.836968 4.73685 C0.826702 4.96087 0.89773 5.18106 1.03697 5.35685 C1.15332 5.50296 1.33019 5.58772 1.51697 5.58685 C1.86017 5.5503 2.17573 5.38177 2.39697 5.11685 C2.74597 4.75688 3.00918 4.32276 3.16697 3.84685 Z" transform="translate(189.854, 7.46315)"/>
  <path style="fill:#ffffff; fill-rule:evenodd;stroke:none;" d="M3.3423 4.26657 C3.33708 4.7054 3.16135 5.12499 2.8523 5.43657 C2.47023 5.81111 1.94602 6.00404 1.4123 5.96657 C1.03299 5.99595 0.656015 5.88571 0.352303 5.65657 C0.141878 5.49634 0.0136203 5.25082 0.00230333 4.98657 C0 4.86721 0.0388411 4.75068 0.112303 4.65657 C0.174152 4.56874 0.274881 4.51651 0.382303 4.51657 C0.486935 4.50607 0.590539 4.54458 0.662915 4.62087 C0.735291 4.69715 0.768293 4.80264 0.752303 4.90657 C0.76155 4.98965 0.76155 5.0735 0.752303 5.15657 C0.745774 5.19631 0.745774 5.23684 0.752303 5.27657 C0.7652 5.40154 0.845951 5.5092 0.962303 5.55657 C1.11862 5.64119 1.29466 5.68261 1.4723 5.67657 C1.77385 5.67679 2.06651 5.57454 2.3023 5.38657 C2.54659 5.19359 2.68707 4.89785 2.6823 4.58657 C2.60991 4.08682 2.42901 3.60897 2.1523 3.18657 C1.82963 2.69842 1.61799 2.14542 1.5323 1.56657 C1.52733 1.13664 1.7188 0.727938 2.0523 0.456573 C2.37592 0.16493 2.79667 0.00447249 3.2323 0.0065735 C3.52845 0 3.81905 0.0875304 4.0623 0.256573 C4.25677 0.36566 4.38422 0.564338 4.4023 0.786573 C4.42055 0.875889 4.3972 0.968658 4.33884 1.03869 C4.28048 1.10872 4.19345 1.14842 4.1023 1.14657 C3.91125 1.10857 3.77331 0.941372 3.7723 0.746573 C3.7172 0.47054 3.46259 0.280657 3.1823 0.306573 C2.93873 0.300042 2.69978 0.373836 2.5023 0.516573 C2.31993 0.640038 2.21115 0.846338 2.2123 1.06657 C2.26124 1.52385 2.41897 1.96275 2.6723 2.34657 C2.89378 2.70812 3.08766 3.08586 3.2523 3.47657 C3.32875 3.73252 3.35923 3.99999 3.3423 4.26657 Z" transform="translate(194.219, 7.48343)"/>
  <path style="fill:#ffffff; fill-rule:evenodd;stroke:none;" d="M2.15916 3.72686 C1.96795 3.34059 1.86222 2.91766 1.84916 2.48686 C1.84744 2.0539 1.98022 1.6311 2.22916 1.27686 C2.49006 0.905022 2.83199 0.597284 3.22916 0.376859 C3.60155 0.15597 4.02619 0.0385894 4.45916 0.0368593 C4.88972 0.0202391 5.31196 0.158619 5.64916 0.426859 C5.94441 0.649278 6.11837 0.997205 6.11916 1.36686 C6.1198 1.63743 6.03972 1.90205 5.88916 2.12686 C5.7991 2.31757 5.61827 2.44943 5.40916 2.47686 C5.37447 2.48065 5.34004 2.46776 5.31637 2.44212 C5.29271 2.41648 5.28261 2.38113 5.28916 2.34686 C5.30225 2.27385 5.32583 2.20312 5.35916 2.13686 C5.43124 1.96592 5.46863 1.78237 5.46916 1.59686 C5.47655 1.33273 5.35305 1.08199 5.13916 0.926859 C4.90632 0.751097 4.62079 0.659444 4.32916 0.666859 C3.79027 0.676942 3.27826 0.9041 2.90916 1.29686 C2.49478 1.65721 2.25454 2.17774 2.24916 2.72686 C2.2456 2.93455 2.27947 3.14118 2.34916 3.33686 C2.38586 3.45299 2.44348 3.56143 2.51916 3.65686 C2.57863 3.71222 2.65802 3.74108 2.73916 3.73686 C3.36582 3.73686 3.67916 3.92019 3.67916 4.28686 C3.67719 4.38254 3.64181 4.47452 3.57916 4.54686 C3.50685 4.63039 3.39935 4.67487 3.28916 4.66686 C3.08286 4.63669 2.89268 4.53808 2.74916 4.38686 C2.56613 4.20807 2.3246 4.10151 2.06916 4.08686 C1.74624 4.10391 1.44681 4.26093 1.24916 4.51686 C0.996899 4.78858 0.857467 5.1461 0.859157 5.51686 C0.901567 6.36753 1.31454 7.15693 1.98916 7.67686 C2.76861 8.35527 3.77644 8.71266 4.80916 8.67686 C5.78369 8.70337 6.74199 8.42357 7.54916 7.87686 C8.22929 7.48037 8.65937 6.76356 8.68916 5.97686 C8.66965 5.4932 8.44841 5.03984 8.07916 4.72686 C7.66517 4.35071 7.11767 4.15621 6.55916 4.18686 C6.0665 4.17873 5.58375 4.32565 5.17916 4.60686 C4.81032 4.83363 4.58375 5.23391 4.57916 5.66686 C4.57007 5.89714 4.64869 6.12229 4.79916 6.29686 C4.90493 6.4425 5.06962 6.534 5.24916 6.54686 C5.32641 6.55412 5.40266 6.5251 5.45553 6.46831 C5.50841 6.41152 5.53191 6.3334 5.51916 6.25686 L5.51916 6.12686 C5.51916 6.06686 5.51916 6.02686 5.51916 6.00686 C5.50959 5.82624 5.56651 5.64837 5.67916 5.50686 C5.77987 5.3778 5.93548 5.3037 6.09916 5.30686 C6.2562 5.30537 6.40736 5.36655 6.51916 5.47686 C6.644 5.60032 6.7096 5.77159 6.69916 5.94686 C6.70074 6.21757 6.59249 6.47736 6.39916 6.66686 C6.19447 6.86075 5.92098 6.96511 5.63916 6.95686 C5.27938 6.95687 4.93447 6.81327 4.68101 6.55792 C4.42755 6.30258 4.28649 5.95663 4.28916 5.59686 C4.30026 5.01186 4.55378 4.45775 4.98916 4.06686 C5.72584 3.5241 6.6395 3.27784 7.54916 3.37686 C8.37875 3.43443 9.20909 3.27594 9.95916 2.91686 C10.4459 2.63663 10.7354 2.10793 10.7092 1.54686 C10.7231 1.21493 10.6044 0.891085 10.3792 0.646859 C10.159 0.413938 9.84952 0.286522 9.52916 0.296859 C9.39862 0.287953 9.26795 0.312025 9.14916 0.366859 C9.06714 0.40911 9.0166 0.494635 9.01916 0.586859 C9.03378 0.68612 9.07528 0.779489 9.13916 0.856859 C9.23687 0.983363 9.29279 1.13714 9.29916 1.29686 C9.29851 1.46331 9.22987 1.62226 9.10916 1.73686 C8.98159 1.86274 8.80832 1.93132 8.62916 1.92686 C8.4241 1.95456 8.21852 1.8798 8.07916 1.72686 C7.96102 1.58333 7.89729 1.40274 7.89916 1.21686 C7.91317 0.883175 8.08363 0.57561 8.35916 0.386859 C8.69031 0.131002 9.10102 0 9.51916 0.0168593 C9.98108 0.00561259 10.4242 0.199715 10.7292 0.546859 C11.0461 0.892984 11.2179 1.34764 11.2092 1.81686 C11.2135 2.27958 11.0699 2.73157 10.7992 3.10686 C10.5537 3.47256 10.2059 3.75778 9.79916 3.92686 C9.22734 4.1118 8.63014 4.20627 8.02916 4.20686 C8.71433 4.63977 9.1267 5.39641 9.11916 6.20686 C9.10573 6.85329 8.869 7.47515 8.44916 7.96686 C8.02409 8.51678 7.4668 8.95023 6.82916 9.22686 C6.08821 9.5197 5.29556 9.65918 4.49916 9.63686 C3.89007 9.65586 3.28199 9.57479 2.69916 9.39686 C2.22598 9.22786 1.78098 8.9885 1.37916 8.68686 C0.964484 8.38673 0.622701 7.9971 0.379157 7.54686 C0.1388 7.10162 0.01496 6.60282 0.0191575 6.09686 C0 5.51885 0.191957 4.95365 0.559157 4.50686 C0.97584 4.05546 1.5469 3.77707 2.15916 3.72686 L2.15916 3.72686 Z" transform="translate(203.402, 3.82314)"/>
  <path style="fill:#ffffff; fill-rule:evenodd;stroke:none;" d="M6.22 5.88 L3.57 5.88 L2.72 7.18 C2.44 7.60667 2.27 7.88 2.21 8 C2.15138 8.11456 2.12055 8.24131 2.12 8.37 C2.12 8.81667 2.45333 9.05 3.12 9.07 L3.35 9.07 L3.25 9.38 L0 9.38 L0.1 9.07 C0.507983 9.04785 0.897643 8.89339 1.21 8.63 C1.69404 8.13682 2.12014 7.58994 2.48 7 L7.2 0 L7.68 0 L7.36 7.51 L7.36 8.34 C7.32796 8.57284 7.4282 8.80416 7.62 8.94 C7.89057 9.05957 8.18429 9.11763 8.48 9.11 L8.38 9.42 L4.74 9.42 L4.84 9.11 C5.18669 9.13924 5.53435 9.06623 5.84 8.9 C5.9953 8.79082 6.10271 8.62614 6.14 8.44 C6.1845 8.10833 6.21121 7.77452 6.22 7.44 L6.22 5.88 Z M6.22 5.57 L6.4 1.57 L3.76 5.57 L6.22 5.57 Z" transform="translate(217.021, 3.86)"/>
  <path style="fill:#ffffff; fill-rule:evenodd;stroke:none;" d="M5.11 4.50128 L5.46 4.50128 C5.24565 4.91667 4.96152 5.29213 4.62 5.61128 C4.3851 5.83701 4.07553 5.96866 3.75 5.98128 C3.55615 5.98427 3.36781 5.91675 3.22 5.79128 C3.06486 5.6481 2.9838 5.44178 3 5.23128 C3.04922 4.81275 3.15345 4.40254 3.31 4.01128 L4.04 1.93128 C4.18221 1.57471 4.27962 1.20186 4.33 0.821285 C4.33775 0.702802 4.30221 0.585536 4.23 0.491285 C4.1503 0.413456 4.04112 0.373423 3.93 0.381285 C3.32766 0.582731 2.83544 1.02428 2.57 1.60128 C1.932 2.58957 1.44655 3.66835 1.13 4.80128 L0.8 5.89128 L0 5.89128 L1.2 2.01128 C1.34053 1.61009 1.45084 1.19894 1.53 0.781285 C1.54698 0.725891 1.54698 0.666679 1.53 0.611285 C1.4975 0.57429 1.44891 0.555603 1.4 0.561285 C0.927767 0.718507 0.557222 1.08905 0.4 1.56128 L0.09 1.56128 C0.656667 0.527952 1.19667 0.011285 1.71 0.011285 C1.86089 0 2.00852 0.0590544 2.11 0.171285 C2.20814 0.314926 2.25402 0.487887 2.24 0.661285 C2.18461 1.28858 2.02932 1.903 1.78 2.48128 C2.60667 0.834618 3.41 0.011285 4.19 0.011285 C4.43307 0.0116348 4.6677 0.100507 4.85 0.261285 C5.04723 0.450882 5.14985 0.718423 5.13 0.991285 C5.08736 1.38521 4.99323 1.77185 4.85 2.14128 L4.12 4.32128 C4.00019 4.64747 3.90329 4.98161 3.83 5.32128 C3.82388 5.39487 3.84933 5.46758 3.9 5.52128 C3.95228 5.56675 4.02109 5.58848 4.09 5.58128 C4.28413 5.56291 4.46347 5.46966 4.59 5.32128 C4.79805 5.07158 4.97284 4.79594 5.11 4.50128 L5.11 4.50128 Z" transform="translate(226.481, 7.46871)"/>
  <path style="fill:#ffffff; fill-rule:evenodd;stroke:none;" d="M4.41333 0.170543 L5.23333 0.170543 L4.01333 4.17054 C3.89074 4.51135 3.80035 4.86288 3.74333 5.22054 C3.73719 5.2955 3.75852 5.37014 3.80333 5.43054 C3.85015 5.47916 3.91596 5.50475 3.98333 5.50054 C4.49601 5.33154 4.8996 4.93164 5.07333 4.42054 L5.36333 4.42054 C5.18224 4.83811 4.92445 5.21801 4.60333 5.54054 C4.37735 5.82015 4.05052 5.99973 3.69333 6.04054 C3.49983 6.04899 3.31528 5.9586 3.20333 5.80054 C3.08619 5.62657 3.02672 5.42017 3.03333 5.21054 C3.04573 4.96187 3.09285 4.71616 3.17333 4.48054 C2.92978 4.85761 2.62959 5.1949 2.28333 5.48054 C1.99226 5.78211 1.6011 5.96702 1.18333 6.00054 C0.861615 5.99672 0.559411 5.84562 0.363328 5.59054 C0.120782 5.27702 0 4.88625 0.023328 4.49054 C0.0411498 3.7916 0.222679 3.10659 0.553328 2.49054 C0.887968 1.80995 1.36147 1.207 1.94333 0.720543 C2.34008 0.326053 2.85768 0.0760514 3.41333 0.0105428 C3.61413 0 3.81228 0.0601517 3.97333 0.180543 C4.12375 0.312313 4.22289 0.492899 4.25333 0.690543 L4.41333 0.170543 Z M0.823328 4.76054 C0.810379 4.9955 0.858618 5.22981 0.963328 5.44054 C1.0459 5.58818 1.2043 5.67703 1.37333 5.67054 C1.80449 5.59678 2.191 5.36058 2.45333 5.01054 C2.95582 4.42813 3.33055 3.7468 3.55333 3.01054 C3.78827 2.41362 3.94296 1.78816 4.01333 1.15054 C4.01841 0.975181 3.9657 0.803011 3.86333 0.660543 C3.76591 0.527434 3.60807 0.452269 3.44333 0.460543 C2.88999 0.460543 2.31333 1.01054 1.71333 2.11054 C1.21385 2.91229 0.909052 3.81984 0.823328 4.76054 Z" transform="translate(232.658, 7.37946)"/>
  <path style="fill:#ffffff; fill-rule:evenodd;stroke:none;" d="M2.37736 7.78 L2.62736 7.78 C2.1607 9 1.56403 9.61 0.837364 9.61 C0.610269 9.6193 0.390665 9.5278 0.237364 9.36 C0.0823933 9.18748 0 8.96179 0.0073639 8.73 C0.0910141 8.10655 0.238454 7.49333 0.447364 6.9 L2.04736 1.62 C2.13829 1.36609 2.20851 1.10524 2.25736 0.84 C2.26624 0.753301 2.23273 0.667648 2.16736 0.61 C2.02232 0.548486 1.86414 0.524415 1.70736 0.54 L1.43736 0.54 L1.52736 0.25 C2.09113 0.265456 2.65316 0.180812 3.18736 0 L3.35736 0 L1.15736 7.25 C1.15736 7.36 1.05736 7.57 0.957364 7.87 C0.847057 8.15861 0.779673 8.46184 0.757364 8.77 C0.750064 8.87924 0.778114 8.98793 0.837364 9.08 C0.8961 9.15071 0.985799 9.18808 1.07736 9.18 C1.30144 9.14232 1.506 9.02946 1.65736 8.86 C1.97019 8.55427 2.21547 8.18636 2.37736 7.78 L2.37736 7.78 Z" transform="translate(238.854, 3.83)"/>
  <path style="fill:#ffffff; fill-rule:evenodd;stroke:none;" d="M3.70089 1.8708 L3.44089 1.8708 C3.4496 1.36985 3.59857 0.881368 3.87089 0.460802 C4.03856 0.210027 4.31048 0.0483445 4.61089 0.0208022 C4.98223 0.0424967 5.30298 0.288011 5.42089 0.640802 C5.65533 1.23849 5.75768 1.87983 5.72089 2.5208 C5.72884 3.53329 5.60103 4.54227 5.34089 5.5208 C5.84535 4.95144 6.28473 4.32758 6.65089 3.6608 C7.0217 3.08452 7.24177 2.42431 7.29089 1.7408 C7.28759 1.47538 7.21149 1.21595 7.07089 0.990802 C6.95384 0.828129 6.87832 0.63932 6.85089 0.440802 C6.85074 0.327881 6.8896 0.218374 6.96089 0.130802 C7.02174 0.0483338 7.1184 0 7.22089 0.00080225 C7.39684 0.00983236 7.55218 0.118569 7.62089 0.280802 C7.74163 0.540112 7.79659 0.82519 7.78089 1.1108 C7.74725 1.80385 7.57735 2.48346 7.28089 3.1108 C6.90923 3.95917 6.41385 4.74774 5.81089 5.4508 C5.20358 6.17989 4.5594 6.87747 3.88089 7.5408 C3.39145 8.04592 2.83651 8.48315 2.23089 8.8408 C1.81504 9.07448 1.34781 9.2016 0.870887 9.2108 C0.290887 9.2108 0.000886927 9.04414 0.000886927 8.7108 C0 8.57979 0.0684634 8.45808 0.180887 8.3908 C0.296085 8.31296 0.431855 8.27118 0.570887 8.2708 C0.73709 8.28224 0.901468 8.31243 1.06089 8.3608 C1.29457 8.43227 1.53666 8.47262 1.78089 8.4808 C2.06332 8.47702 2.33957 8.3976 2.58089 8.2508 C2.94381 8.02726 3.27941 7.76213 3.58089 7.4608 C3.89833 7.16887 4.17124 6.83195 4.39089 6.4608 C4.6016 5.97358 4.73974 5.4581 4.80089 4.9308 C4.92518 4.15372 4.98538 3.36774 4.98089 2.5808 C4.99867 2.08109 4.93793 1.58168 4.80089 1.1008 C4.77637 0.852945 4.60127 0.64601 4.36089 0.580802 C4.00089 0.587469 3.78089 1.01747 3.70089 1.8708 Z" transform="translate(239.04, 7.4392)"/>
  <path style="fill:#ffffff; fill-rule:evenodd;stroke:none;" d="M3.3423 4.26657 C3.33708 4.7054 3.16135 5.12499 2.8523 5.43657 C2.47023 5.81111 1.94602 6.00404 1.4123 5.96657 C1.03299 5.99595 0.656015 5.88571 0.352303 5.65657 C0.141878 5.49634 0.0136203 5.25082 0.00230333 4.98657 C0 4.86721 0.0388411 4.75068 0.112303 4.65657 C0.174152 4.56874 0.274881 4.51651 0.382303 4.51657 C0.486935 4.50607 0.590539 4.54458 0.662915 4.62087 C0.735291 4.69715 0.768293 4.80264 0.752303 4.90657 C0.76155 4.98965 0.76155 5.0735 0.752303 5.15657 C0.745774 5.19631 0.745774 5.23684 0.752303 5.27657 C0.7652 5.40154 0.845951 5.5092 0.962303 5.55657 C1.11862 5.64119 1.29466 5.68261 1.4723 5.67657 C1.77385 5.67679 2.06651 5.57454 2.3023 5.38657 C2.54659 5.19359 2.68707 4.89785 2.6823 4.58657 C2.60991 4.08682 2.42901 3.60897 2.1523 3.18657 C1.82963 2.69842 1.61799 2.14542 1.5323 1.56657 C1.52733 1.13664 1.7188 0.727938 2.0523 0.456573 C2.37592 0.16493 2.79667 0.00447249 3.2323 0.0065735 C3.52845 0 3.81905 0.0875304 4.0623 0.256573 C4.25677 0.36566 4.38422 0.564338 4.4023 0.786573 C4.42055 0.875889 4.3972 0.968658 4.33884 1.03869 C4.28048 1.10872 4.19345 1.14842 4.1023 1.14657 C3.91125 1.10857 3.77331 0.941372 3.7723 0.746573 C3.7172 0.47054 3.46259 0.280657 3.1823 0.306573 C2.93873 0.300042 2.69978 0.373836 2.5023 0.516573 C2.31993 0.640038 2.21115 0.846338 2.2123 1.06657 C2.26124 1.52385 2.41897 1.96275 2.6723 2.34657 C2.89378 2.70812 3.08766 3.08586 3.2523 3.47657 C3.32875 3.73252 3.35923 3.99999 3.3423 4.26657 Z" transform="translate(247.349, 7.48343)"/>
  <path style="fill:#ffffff; fill-rule:evenodd;stroke:none;" d="M2.61 7.905 L2.94 7.905 C2.72941 8.3434 2.44531 8.7425 2.1 9.085 C1.84726 9.38059 1.48767 9.56398 1.1 9.595 C0.890412 9.59465 0.689331 9.51206 0.54 9.365 C0.369231 9.18542 0.282094 8.94216 0.3 8.695 C0.359705 8.21591 0.487669 7.74783 0.68 7.305 L1.47 5.225 C1.5933 4.93948 1.68388 4.64091 1.74 4.335 C1.74813 4.25986 1.7266 4.18451 1.68 4.125 C1.6263 4.07433 1.55358 4.04888 1.48 4.055 C1.22467 4.10454 0.998691 4.25161 0.85 4.465 C0.640955 4.68825 0.46576 4.94094 0.33 5.215 L0 5.215 C0.211841 4.77223 0.503363 4.37224 0.86 4.035 C1.09759 3.7868 1.41763 3.63389 1.76 3.605 C1.96023 3.59791 2.15365 3.6782 2.29 3.825 C2.43129 3.98056 2.50659 4.18495 2.5 4.395 C2.44628 4.85367 2.32496 5.30186 2.14 5.725 L1.48 7.505 C1.31064 7.89197 1.18973 8.29838 1.12 8.715 C1.1127 8.8211 1.14083 8.92662 1.2 9.015 C1.25662 9.08272 1.34186 9.11979 1.43 9.115 C1.98841 8.91449 2.42357 8.46827 2.61 7.905 Z M2.1 0.595 C2.1 0.266391 2.36639 0 2.695 0 C3.02361 0 3.29 0.266391 3.29 0.595 C3.29262 0.752259 3.23127 0.903841 3.12 1.015 C3.00913 1.12737 2.85786 1.19063 2.7 1.19063 C2.54214 1.19063 2.39087 1.12737 2.28 1.015 C2.17213 0.90567 2.11114 0.758584 2.11 0.605 L2.1 0.595 Z" transform="translate(252.111, 3.845)"/>
  <path style="fill:#ffffff; fill-rule:evenodd;stroke:none;" d="M3.3423 4.26657 C3.33708 4.7054 3.16135 5.12499 2.8523 5.43657 C2.47023 5.81111 1.94602 6.00404 1.4123 5.96657 C1.03299 5.99595 0.656015 5.88571 0.352303 5.65657 C0.141878 5.49634 0.0136203 5.25082 0.00230333 4.98657 C0 4.86721 0.0388411 4.75068 0.112303 4.65657 C0.174152 4.56874 0.274881 4.51651 0.382303 4.51657 C0.486935 4.50607 0.590539 4.54458 0.662915 4.62087 C0.735291 4.69715 0.768293 4.80264 0.752303 4.90657 C0.76155 4.98965 0.76155 5.0735 0.752303 5.15657 C0.745774 5.19631 0.745774 5.23684 0.752303 5.27657 C0.7652 5.40154 0.845951 5.5092 0.962303 5.55657 C1.11862 5.64119 1.29466 5.68261 1.4723 5.67657 C1.77385 5.67679 2.06651 5.57454 2.3023 5.38657 C2.54659 5.19359 2.68707 4.89785 2.6823 4.58657 C2.60991 4.08682 2.42901 3.60897 2.1523 3.18657 C1.82963 2.69842 1.61799 2.14542 1.5323 1.56657 C1.52733 1.13664 1.7188 0.727938 2.0523 0.456573 C2.37592 0.16493 2.79667 0.00447249 3.2323 0.0065735 C3.52845 0 3.81905 0.0875304 4.0623 0.256573 C4.25677 0.36566 4.38422 0.564338 4.4023 0.786573 C4.42055 0.875889 4.3972 0.968658 4.33884 1.03869 C4.28048 1.10872 4.19345 1.14842 4.1023 1.14657 C3.91125 1.10857 3.77331 0.941372 3.7723 0.746573 C3.7172 0.47054 3.46259 0.280657 3.1823 0.306573 C2.93873 0.300042 2.69978 0.373836 2.5023 0.516573 C2.31993 0.640038 2.21115 0.846338 2.2123 1.06657 C2.26124 1.52385 2.41897 1.96275 2.6723 2.34657 C2.89378 2.70812 3.08766 3.08586 3.2523 3.47657 C3.32875 3.73252 3.35923 3.99999 3.3423 4.26657 Z" transform="translate(255.369, 7.48343)"/>
 </g>
</svg>
