<?xml version="1.0" encoding="UTF-8"?>
<svg width="40pt" version="1.1" xmlns="http://www.w3.org/2000/svg" height="38pt" viewBox="0 0 40 38" xmlns:xlink="http://www.w3.org/1999/xlink">
 <defs>
  <clipPath id="Clip0">
   <path d="M0 0 L38.471 0 L38.471 25.8788 L0 25.8788 L0 0 Z" transform="translate(1, 0)"/>
  </clipPath>
 </defs>
 <g id="Background">
  <g id="email-updates" clip-path="url(#Clip0)">
   <path style="fill:#5d9731; fill-rule:evenodd;stroke:none;" d="M26.9213 0.958846 C26.9318 0.875841 26.9318 0.791851 26.9213 0.708846 L26.9213 0.638846 C26.9038 0.576728 26.8804 0.516447 26.8513 0.458846 L26.8513 0.398846 C26.8085 0.330187 26.7582 0.266468 26.7013 0.208846 L26.7013 0.208846 C26.6463 0.158965 26.586 0.115363 26.5213 0.078846 L26.5213 0.078846 L26.3313 0.00884601 L26.2813 0.00884601 C26.2049 0 26.1277 0 26.0513 0.00884601 L0.851315 0.00884601 L0.631315 0.00884601 L0.631315 0.00884601 L0.421315 0.088846 L0.421315 0.088846 C0.359784 0.125418 0.302731 0.169047 0.251315 0.218846 L0.251315 0.218846 C0.189629 0.278379 0.135855 0.345597 0.0913147 0.418846 L0.0913147 0.468846 C0.0590666 0.526207 0.0322821 0.586472 0.0113147 0.648846 L0.0113147 0.718846 C0 0.805143 0 0.892549 0.0113147 0.978846 L0.0113147 13.3488 L0.0113147 13.3488 C0.00929648 13.3855 0.00929648 13.4222 0.0113147 13.4588 L0.0113147 13.5588 L0.0113147 13.6588 L0.0113147 13.7588 L0.0113147 13.8388 L0.0713147 13.9388 L0.0713147 13.9388 L0.171315 14.0388 L0.231315 14.0888 L0.351315 14.1588 L0.421315 14.1588 L0.581315 14.2088 L0.581315 14.2088 L0.801315 14.2088 L26.0013 14.2088 L26.2213 14.2088 L26.2813 14.2088 L26.4313 14.1588 L26.5013 14.1588 L26.6213 14.0788 L26.6813 14.0288 L26.7913 13.9188 L26.7913 13.9188 L26.8513 13.8188 L26.8513 13.7388 L26.8513 13.6388 L26.8513 13.5388 C26.8513 13.5388 26.8513 13.4788 26.8513 13.4388 C26.8532 13.4022 26.8532 13.3655 26.8513 13.3288 L26.8513 13.3288 L26.8513 0.958846 L26.9213 0.958846 Z" transform="translate(12.5393, 0)"/>
   <path style="fill:#ffffff; fill-rule:evenodd;stroke:none;" d="M8.71 5.86 L0 0 L18.1 0 L8.71 5.86 Z" transform="translate(16.6506, 2.05885)"/>
   <path style="fill:#ffffff; fill-rule:evenodd;stroke:none;" d="M0 0 L5.42 3.65 L0 8.16 L0 0 Z" transform="translate(14.2606, 2.97885)"/>
   <path style="fill:#ffffff; fill-rule:evenodd;stroke:none;" d="M5.38 0.06 L8.64 2.25 C8.98692 2.47424 9.43308 2.47424 9.78 2.25 L13.37 0 L19.21 4.51 L0 4.51 L5.38 0.06 Z" transform="translate(16.1206, 7.78885)"/>
   <path style="fill:#ffffff; fill-rule:evenodd;stroke:none;" d="M0 3.73 L5.97 0 L5.97 8.34 L0 3.73 Z" transform="translate(31.3906, 2.89885)"/>
   <path style="fill:#5d9731; fill-rule:evenodd;stroke:none;" d="M27.1006 0.94 C27.111 0.856995 27.111 0.773005 27.1006 0.69 L27.1006 0.62 C27.0825 0.561304 27.0591 0.504397 27.0306 0.45 L27.0306 0.39 C26.9884 0.320826 26.9381 0.257025 26.8806 0.2 L26.8806 0.2 C26.8256 0.150119 26.7652 0.106517 26.7006 0.07 L26.7006 0.07 L26.5106 0 L26.4606 0 L26.2306 0 L0.850569 0 L0.630569 0 L0.630569 0 C0.557785 0.0186917 0.487341 0.0455278 0.420569 0.08 L0.420569 0.08 L0.250569 0.2 L0.250569 0.2 C0.189546 0.256438 0.135798 0.320263 0.0905687 0.39 L0.0905687 0.44 C0.0587587 0.497579 0.0319921 0.557804 0.0105687 0.62 L0.0105687 0.68 C0 0.766344 0 0.853656 0.0105687 0.94 L0.0105687 13.31 L0.0105687 13.31 C0.00810662 13.3466 0.00810662 13.3834 0.0105687 13.42 L0.0105687 13.52 L0.0105687 13.62 L0.0105687 13.72 L0.0105687 13.8 L0.0705687 13.9 L0.0705687 13.9 L0.170569 14 L0.230569 14.05 L0.350569 14.12 L0.420569 14.12 L0.580569 14.17 L0.580569 14.17 L0.800569 14.17 L26.0006 14.17 L26.2206 14.17 L26.2806 14.17 L26.4306 14.12 L26.5006 14.12 L26.6206 14.04 L26.6906 13.99 L26.8006 13.88 L26.8006 13.88 L26.8606 13.78 L26.8606 13.7 L26.8606 13.6 C26.8632 13.5667 26.8632 13.5333 26.8606 13.5 C26.8606 13.5 26.8606 13.44 26.8606 13.4 C26.8624 13.3634 26.8624 13.3266 26.8606 13.29 L26.8606 13.29 L26.8606 0.94 L27.1006 0.94 Z" transform="translate(6.59, 5.83885)"/>
   <path style="fill:#ffffff; fill-rule:evenodd;stroke:none;" d="M8.72 5.86 L0 0 L18.1 0 L8.72 5.86 Z" transform="translate(10.8806, 7.82885)"/>
   <path style="fill:#ffffff; fill-rule:evenodd;stroke:none;" d="M0 0 L5.42 3.65 L0 8.16 L0 0 Z" transform="translate(8.49057, 8.74885)"/>
   <path style="fill:#ffffff; fill-rule:evenodd;stroke:none;" d="M5.38 0.06 L8.64 2.25 C8.98692 2.47424 9.43308 2.47424 9.78 2.25 L13.37 0 L19.21 4.51 L0 4.51 L5.38 0.06 Z" transform="translate(10.3506, 13.5588)"/>
   <path style="fill:#ffffff; fill-rule:evenodd;stroke:none;" d="M0 3.73 L5.97 0 L5.97 8.34 L0 3.73 Z" transform="translate(25.6206, 8.66885)"/>
   <path style="fill:#5d9731; fill-rule:evenodd;stroke:none;" d="M26.9206 0.94 C26.931 0.856995 26.931 0.773005 26.9206 0.69 L26.9206 0.62 C26.9025 0.561304 26.8791 0.504397 26.8506 0.45 L26.8506 0.39 C26.8084 0.320826 26.7581 0.257025 26.7006 0.2 L26.7006 0.2 C26.6459 0.149708 26.5855 0.10607 26.5206 0.07 L26.5206 0.07 L26.3306 0 L26.2806 0 L26.0506 0 L0.850569 0 L0.630569 0 L0.630569 0 L0.420569 0.08 L0.420569 0.08 L0.250569 0.2 L0.250569 0.2 C0.189546 0.256438 0.135798 0.320263 0.0905687 0.39 L0.0905687 0.44 C0.0587587 0.497579 0.0319921 0.557804 0.0105687 0.62 L0.0105687 0.68 C0 0.766344 0 0.853656 0.0105687 0.94 L0.0105687 13.35 L0.0105687 13.35 C0.00830066 13.3866 0.00830066 13.4234 0.0105687 13.46 L0.0105687 13.56 L0.0105687 13.66 L0.0105687 13.76 L0.0105687 13.84 L0.0705687 13.94 L0.0705687 13.94 L0.170569 14.04 L0.0405687 14.15 L0.160569 14.22 L0.230569 14.22 L0.390569 14.27 L0.390569 14.27 L0.610569 14.27 L25.8106 14.27 L26.0306 14.27 L26.0906 14.27 L26.2406 14.22 L26.3106 14.22 L26.4306 14.14 L26.4906 14.09 L26.6006 13.98 L26.6006 13.98 L26.6606 13.88 L26.6606 13.8 L26.6606 13.7 C26.6627 13.6667 26.6627 13.6333 26.6606 13.6 C26.6606 13.6 26.6606 13.54 26.6606 13.5 C26.6606 13.46 26.6606 13.43 26.6606 13.39 C26.6606 13.35 26.6606 13.39 26.6606 13.39 L26.6606 0.94 L26.9206 0.94 Z" transform="translate(1, 11.6088)"/>
   <path style="fill:#ffffff; fill-rule:evenodd;stroke:none;" d="M8.72 5.87 L0 0 L18.1 0 L8.72 5.87 Z" transform="translate(5.11057, 13.5888)"/>
   <path style="fill:#ffffff; fill-rule:evenodd;stroke:none;" d="M0 0 L5.42 3.65 L0 8.15 L0 0 Z" transform="translate(2.72057, 14.5188)"/>
   <path style="fill:#ffffff; fill-rule:evenodd;stroke:none;" d="M5.38 0.06 L8.64 2.25 C8.98279 2.48781 9.43721 2.48781 9.78 2.25 L13.37 0 L19.21 4.51 L0 4.51 L5.38 0.06 Z" transform="translate(4.58057, 19.3288)"/>
   <path style="fill:#ffffff; fill-rule:evenodd;stroke:none;" d="M0 3.73 L5.97 0 L5.97 8.33 L0 3.73 Z" transform="translate(19.8506, 14.4388)"/>
  </g>
 </g>
</svg>
