<?xml version="1.0" encoding="UTF-8"?>
<svg width="38pt" version="1.1" xmlns="http://www.w3.org/2000/svg" height="38pt" viewBox="0 0 38 38" xmlns:xlink="http://www.w3.org/1999/xlink">
 <defs>
  <clipPath id="Clip0">
   <path d="M0 0 L36.7055 0 L36.7055 36.01 L0 36.01 L0 0 Z" transform="translate(1, 0)"/>
  </clipPath>
 </defs>
 <g id="Background">
  <g id="energy-explained" clip-path="url(#Clip0)">
   <path style="fill:#bfd5ad; fill-rule:evenodd;stroke:none;" d="M30.58 0 L6.12 0 C2.74457 0.0109771 0.0109771 2.74457 5.68434e-14 6.12 L0 23 C0.00550563 26.3777 2.7423 29.1145 6.12 29.12 L20.7 29.12 L30.61 36.01 L30.61 29.12 C33.9737 29.0926 36.6892 26.3638 36.7 23 L36.7 6.15 C36.7055 2.76286 33.9671 0.0110285 30.58 0 Z" transform="translate(1, 0)"/>
   <path style="fill:#5d9731; fill-rule:evenodd;stroke:none;" d="M2.2875 0.885266 C3.24107 0.306454 4.34264 0.0180325 5.4575 0.0552663 C6.9152 0 8.3522 0.413578 9.5575 1.23527 C10.6652 2.04513 11.2805 3.36625 11.1875 4.73527 C11.2115 5.58723 10.9628 6.42459 10.4775 7.12527 C10.018 7.69801 9.48318 8.20595 8.8875 8.63527 L8.1175 9.23527 C7.7253 9.52249 7.43182 9.92428 7.2775 10.3853 C7.17303 10.807 7.12594 11.2409 7.1375 11.6753 L4.1375 11.6753 C4.12574 10.8125 4.24373 9.95293 4.4875 9.12527 C4.83432 8.47396 5.33564 7.9177 5.9475 7.50527 L6.7475 6.88527 C6.99173 6.70461 7.20457 6.48501 7.3775 6.23527 C7.66311 5.85445 7.8175 5.39128 7.8175 4.91527 C7.819 4.37262 7.64734 3.84364 7.3275 3.40527 C6.88927 2.89555 6.22429 2.64008 5.5575 2.72527 C4.85447 2.67011 4.17435 2.98927 3.7675 3.56527 C3.42649 4.08562 3.24249 4.69315 3.2375 5.31527 L0.0775044 5.31527 C0 3.5561 0.835463 1.88139 2.2875 0.885266 Z M4.0975 13.1753 L7.3675 13.1753 L7.3675 16.3653 L4.0975 16.3653 L4.0975 13.2053 L4.0975 13.1753 Z" transform="translate(13.6925, 5.63473)"/>
  </g>
 </g>
</svg>
