<?xml version="1.0" encoding="UTF-8"?>
<svg width="38pt" version="1.1" xmlns="http://www.w3.org/2000/svg" height="48pt" viewBox="0 0 38 48" xmlns:xlink="http://www.w3.org/1999/xlink">
 <defs>
  <clipPath id="Clip0">
   <path d="M0 0 L35.2 0 L35.2 46.42 L0 46.42 L0 0 Z" transform="translate(2, 0)"/>
  </clipPath>
 </defs>
 <g id="Background">
  <g id="energy-in-brief" clip-path="url(#Clip0)">
   <path style="fill:#5d9731; fill-rule:evenodd;stroke:none;" d="M6.55 0 C2.93253 0 0 2.93253 0 6.55 C0 10.1675 2.93253 13.1 6.55 13.1 C10.1675 13.1 13.1 10.1675 13.1 6.55 C13.1 2.93253 10.1675 0 6.55 0 Z M6.55 11.81 C3.64498 11.81 1.29 9.45502 1.29 6.55 C1.29 3.64498 3.64498 1.29 6.55 1.29 C9.45502 1.29 11.81 3.64498 11.81 6.55 C11.81 9.45502 9.45502 11.81 6.55 11.81 " transform="translate(13.05, 0)"/>
   <path style="fill:#5d9731; fill-rule:evenodd;stroke:none;" d="M0.64 0 L5.97 0 C6.32346 0 6.61 0.286538 6.61 0.64 L6.61 4.67 C6.61 5.02346 6.32346 5.31 5.97 5.31 L0.64 5.31 C0.286538 5.31 0 5.02346 0 4.67 L0 0.64 C0 0.286538 0.286538 0 0.64 0 Z" transform="translate(16.29, 4.17)"/>
   <path style="fill:#5d9731; fill-rule:evenodd;stroke:none;" d="M17.6 2.84217e-14 C7.87979 5.68434e-14 0 7.87979 0 17.6 C0 27.3202 7.87979 35.2 17.6 35.2 C27.3202 35.2 35.2 27.3202 35.2 17.6 C35.2 7.87979 27.3202 0 17.6 2.84217e-14 Z" transform="translate(2, 11.22)"/>
   <path style="fill:#ffffff; fill-rule:evenodd;stroke:none;" d="M15.29 30.58 C6.84557 30.58 0 23.7344 0 15.29 C0 6.84557 6.84557 0 15.29 0 C23.7344 0 30.58 6.84557 30.58 15.29 C30.58 23.7344 23.7344 30.58 15.29 30.58 " transform="translate(4.31, 13.54)"/>
   <path style="fill:#5d9731; fill-rule:evenodd;stroke:none;" d="M0 0 L4.6 0 L4.6 3.37 L0 3.37 L0 0 Z" transform="translate(17.3, 8.19)"/>
   <path style="fill:#5d9731; fill-rule:evenodd;stroke:none;" d="M3.38 0.594181 C3.34937 0.769057 3.18588 0.888362 3.01 0.864181 L0.36 0.864181 C0.187728 0.88264 0.0305153 0.764731 5.68434e-14 0.594181 L0 0.294181 C0.0305153 0.123631 0.187728 0.00572181 0.36 0.024181 L3.01 0.024181 C3.18588 0 3.34937 0.119305 3.38 0.294181 L3.38 0.594181 L3.38 0.594181 Z" transform="translate(30.87, 28.3858)"/>
   <path style="fill:#5d9731; fill-rule:evenodd;stroke:none;" d="M4.34939 0.149388 L0.349388 2.47939 C0.199849 2.5633 0.0902345 2.7037 0.0451172 2.86913 C0 3.03456 0.0231538 3.21118 0.109388 3.35939 L0.469388 3.97939 C0.554985 4.12723 0.696137 4.23472 0.86142 4.27792 C1.0267 4.32112 1.2024 4.29644 1.34939 4.20939 L2.52939 3.52939 L4.17939 6.38939 L5.85939 5.38939 L4.20939 2.52939 L5.38939 1.84939 C5.53893 1.76548 5.64854 1.62507 5.69366 1.45964 C5.73878 1.29421 5.71562 1.1176 5.62939 0.969388 L5.26939 0.349388 C5.18548 0.199849 5.04507 0.0902345 4.87964 0.0451172 C4.71421 0 4.5376 0.0231538 4.38939 0.109388 " transform="translate(5.85061, 7.76061)"/>
   <path style="fill:#5d9731; fill-rule:evenodd;stroke:none;" d="M1.51 0.141729 L5.51 2.47173 C5.65954 2.55564 5.76915 2.69604 5.81427 2.86147 C5.85939 3.0269 5.83623 3.20352 5.75 3.35173 L5.39 3.97173 C5.3044 4.11957 5.16325 4.22706 4.99797 4.27026 C4.83268 4.31346 4.65699 4.28878 4.51 4.20173 L3.33 3.52173 L1.68 6.38173 L0 5.38173 L1.65 2.52173 L0.47 1.84173 C0.322156 1.75613 0.214669 1.61498 0.17147 1.4497 C0.128271 1.28441 0.152946 1.10872 0.24 0.961729 L0.6 0.341729 C0.685597 0.193884 0.826749 0.086398 0.992032 0.043199 C1.15732 0 1.33301 0.0246743 1.48 0.111729 " transform="translate(27.16, 7.51827)"/>
   <path style="fill:#bfd5ad; fill-rule:evenodd;stroke:none;" d="M0 15.2932 L0 0.00315252 C2.65118 0 5.2572 0.689423 7.56 2.00315 L0 15.2932 Z" transform="translate(19.6, 13.5468)"/>
   <path style="fill:#5d9731; fill-rule:evenodd;stroke:none;" d="M1.54 0.77 C1.54 1.19526 1.19526 1.54 0.77 1.54 C0.344741 1.54 0 1.19526 0 0.77 C0 0.344741 0.344741 0 0.77 0 C1.19526 0 1.54 0.344741 1.54 0.77 " transform="translate(18.83, 28.07)"/>
   <path style="fill:#5d9731; fill-rule:evenodd;stroke:none;" d="M0.594181 0.02 C0.764731 0.0505153 0.88264 0.207728 0.864181 0.38 L0.864181 3.02 C0.88264 3.19227 0.764731 3.34948 0.594181 3.38 L0.294181 3.38 C0.119305 3.34937 0 3.18588 0.024181 3.01 L0.024181 0.36 C0.00572181 0.187728 0.123631 0.0305153 0.294181 5.68434e-14 L0.594181 0 L0.594181 0.02 Z" transform="translate(19.1558, 14.2)"/>
   <path style="fill:#5d9731; fill-rule:evenodd;stroke:none;" d="M5.68434e-14 0.294181 C0.0305153 0.123631 0.187728 0.00572181 0.36 0.024181 L3.01 0.024181 C3.18588 0 3.34937 0.119305 3.38 0.294181 L3.38 0.594181 C3.34937 0.769057 3.18588 0.888362 3.01 0.864181 L0.36 0.864181 C0.187728 0.88264 0.0305153 0.764731 0 0.594181 L5.68434e-14 0.294181 Z" transform="translate(4.95, 28.3958)"/>
   <path style="fill:#5d9731; fill-rule:evenodd;stroke:none;" d="M0.294181 3.38 C0.123631 3.34948 0.00572181 3.19227 0.024181 3.02 L0.024181 0.37 C0 0.194117 0.119305 0.030625 0.294181 5.68434e-14 L0.594181 0 C0.769057 0.030625 0.888362 0.194117 0.864181 0.37 L0.864181 3.02 C0.88264 3.19227 0.764731 3.34948 0.594181 3.38 L0.294181 3.38 Z" transform="translate(19.1558, 40.1)"/>
   <path style="fill:#5d9731; fill-rule:evenodd;stroke:none;" d="M3.13608 0.37813 C3.19839 0.543747 3.11898 0.729032 2.95608 0.79813 L0.656082 2.11813 C0.52934 2.23626 0.332824 2.23626 0.206082 2.11813 L0.0560819 1.85813 C0 1.69544 0.0783562 1.51696 0.236082 1.44813 L2.53608 0.11813 C2.66282 0 2.85934 0 2.98608 0.11813 L3.13608 0.37813 Z" transform="translate(29.2239, 21.2619)"/>
   <path style="fill:#5d9731; fill-rule:evenodd;stroke:none;" d="M0.37813 0.0560819 C0.540825 0 0.719303 0.0783562 0.78813 0.236082 L2.11813 2.53608 C2.23626 2.66282 2.23626 2.85934 2.11813 2.98608 L1.85813 3.13608 C1.69544 3.19216 1.51696 3.11381 1.44813 2.95608 L0.11813 0.656082 C0 0.52934 0 0.332824 0.11813 0.206082 L0.37813 0.0560819 Z" transform="translate(12.0219, 16.0239)"/>
   <path style="fill:#5d9731; fill-rule:evenodd;stroke:none;" d="M0.0560819 1.85813 C0 1.69544 0.0783562 1.51696 0.236082 1.44813 L2.53608 0.11813 C2.66282 0 2.85934 0 2.98608 0.11813 L3.13608 0.37813 C3.19216 0.540825 3.11381 0.719303 2.95608 0.78813 L0.656082 2.11813 C0.52934 2.23626 0.332824 2.23626 0.206082 2.11813 L0.0560819 1.85813 Z" transform="translate(6.78392, 34.1719)"/>
   <path style="fill:#5d9731; fill-rule:evenodd;stroke:none;" d="M1.85813 3.13608 C1.69544 3.19216 1.51696 3.11381 1.44813 2.95608 L0.11813 0.656082 C0 0.52934 0 0.332824 0.11813 0.206082 L0.37813 0.0560819 C0.540825 0 0.719303 0.0783562 0.78813 0.236082 L2.11813 2.53608 C2.23626 2.66282 2.23626 2.85934 2.11813 2.98608 L1.85813 3.13608 Z" transform="translate(24.9319, 38.4539)"/>
   <path style="fill:#5d9731; fill-rule:evenodd;stroke:none;" d="M2.11813 0.216082 C2.23626 0.342824 2.23626 0.53934 2.11813 0.666082 L0.78813 2.95608 C0.719303 3.11381 0.540825 3.19216 0.37813 3.13608 L0.11813 2.98608 C0 2.85934 0 2.66282 0.11813 2.53608 L1.44813 0.236082 C1.51696 0.0783562 1.69544 0 1.85813 0.0560819 L2.11813 0.216082 Z" transform="translate(24.9319, 16.0039)"/>
   <path style="fill:#5d9731; fill-rule:evenodd;stroke:none;" d="M0.206082 0.11813 C0.332824 0 0.52934 0 0.656082 0.11813 L2.95608 1.44813 C3.11381 1.51696 3.19216 1.69544 3.13608 1.85813 L2.98608 2.11813 C2.85934 2.23626 2.66282 2.23626 2.53608 2.11813 L0.236082 0.79813 C0.0783562 0.729303 0 0.550825 0.0560819 0.38813 L0.206082 0.11813 Z" transform="translate(6.78392, 21.2619)"/>
   <path style="fill:#5d9731; fill-rule:evenodd;stroke:none;" d="M0.11813 2.98608 C0 2.85934 0 2.66282 0.11813 2.53608 L1.44813 0.236082 C1.51696 0.0783562 1.69544 0 1.85813 0.0560819 L2.11813 0.206082 C2.23626 0.332824 2.23626 0.52934 2.11813 0.656082 L0.78813 2.95608 C0.719303 3.11381 0.540825 3.19216 0.37813 3.13608 L0.11813 2.98608 Z" transform="translate(12.0319, 38.4539)"/>
   <path style="fill:#5d9731; fill-rule:evenodd;stroke:none;" d="M2.98608 2.11813 C2.85934 2.23626 2.66282 2.23626 2.53608 2.11813 L0.236082 0.78813 C0.0783562 0.719303 0 0.540825 0.0560819 0.37813 L0.206082 0.11813 C0.332824 0 0.52934 0 0.656082 0.11813 L2.95608 1.44813 C3.11763 1.51307 3.19761 1.69525 3.13608 1.85813 L2.98608 2.11813 Z" transform="translate(29.2239, 34.1719)"/>
   <path style="fill:#5d9731; fill-rule:evenodd;stroke:none;" d="M6.38052 0.14 C6.40064 0.605195 6.24742 1.06131 5.95052 1.42 L1.17052 9.7 C1.00993 10.1333 0.692219 10.4902 0.280516 10.7 L0.0205156 10.55 C0 10.0878 0.153419 9.63467 0.450516 9.28 L5.23052 1 C5.39279 0.56776 5.71002 0.211321 6.12052 0 L6.38052 0.14 Z" transform="translate(19.3695, 18.27)"/>
  </g>
 </g>
</svg>
