<?xml version="1.0" encoding="UTF-8"?>
<svg width="40pt" version="1.1" xmlns="http://www.w3.org/2000/svg" height="38pt" viewBox="0 0 40 38" xmlns:xlink="http://www.w3.org/1999/xlink">
 <defs>
  <clipPath id="Clip0">
   <path d="M0 0 L38.06 0 L38.06 39.36 L0 39.36 L0 0 Z" transform="translate(2, 0)"/>
  </clipPath>
 </defs>
 <g id="Background">
  <g id="environment" clip-path="url(#Clip0)">
   <path style="fill:#bfd5ad; fill-rule:evenodd;stroke:none;" d="M12.9 10.79 L12.83 10.92 L15.83 15.78 L10.72 12.94 L9.35 18.53 L7.72 12.88 L7.79 12.88 L7.79 12.88 L2.79 15.88 L5.63 10.74 L5.72 10.8 L5.66 10.67 L5.66 10.73 L0 9.32 L5.66 7.72 L5.66 7.78 L5.66 7.78 L2.66 2.78 L7.8 5.59 L7.8 5.59 L9.17 0 L10.77 5.56 L10.77 5.56 L15.66 2.56 L12.85 7.56 C12.8512 7.60977 12.8729 7.65683 12.91 7.69 L18.4 9.03 L12.9 10.79 Z M9.26 12.7 C9.71397 12.7026 10.1635 12.6107 10.58 12.43 C11.3981 12.0799 12.0499 11.4281 12.4 10.61 C12.7619 9.76373 12.7619 8.80627 12.4 7.96 C12.0499 7.14186 11.3981 6.49005 10.58 6.14 C9.73373 5.77812 8.77627 5.77812 7.93 6.14 C7.11186 6.49005 6.46005 7.14186 6.11 7.96 C5.74812 8.80627 5.74812 9.76373 6.11 10.61 C6.45918 11.4287 7.11127 12.0808 7.93 12.43 C8.34957 12.612 8.80266 12.704 9.26 12.7 L9.26 12.7 Z M9.26 6.47 C10.5831 6.4882 11.71 7.43643 11.9541 8.73692 C12.1981 10.0374 11.4918 11.3297 10.2653 11.8264 C9.03889 12.3231 7.63232 11.8866 6.90265 10.7827 C6.17299 9.67891 6.32246 8.21375 7.26 7.28 C7.78306 6.73845 8.50719 6.43794 9.26 6.45 L9.26 6.47 Z" transform="translate(5, 0)"/>
   <path style="fill:#5d9731; fill-rule:evenodd;stroke:none;" d="M13.61 21.54 L13.61 28.2 L8.94 28.2 L8.94 21.54 L0 21.54 L7.83 12.64 L1.83 12.64 L11.11 0 L20.78 12.64 L14.36 12.64 L22.57 21.54 L13.63 21.54 L13.61 21.54 Z" transform="translate(17.49, 11.16)"/>
   <path style="fill:#5d9731; fill-rule:evenodd;stroke:none;" d="M9.51 15.05 L9.51 19.7 L6.25 19.7 L6.25 15.05 L0 15.05 L5.47 8.83 L1.26 8.83 L7.75 0 L14.51 8.83 L10.03 8.83 L15.77 15.05 L9.52 15.05 L9.51 15.05 Z" transform="translate(2, 19.65)"/>
  </g>
 </g>
</svg>
