<?xml version="1.0" encoding="UTF-8"?>
<svg width="30pt" version="1.1" xmlns="http://www.w3.org/2000/svg" height="30pt" viewBox="0 0 30 30" xmlns:xlink="http://www.w3.org/1999/xlink">
 <defs/>
 <g id="Background">
  <path style="fill:#0097d7; fill-rule:evenodd;stroke:none;" id=" facebook" d="M1.66 30 C0.743207 30 0 29.2568 0 28.34 L1.13687e-13 1.66001 C0 0.743215 0.743207 8.06886e-06 1.66 8.06886e-06 L28.35 8.06886e-06 C28.7893 0 29.2106 0.175211 29.5203 0.486812 C29.83 0.798413 30.0027 1.22067 30 1.66001 L30 28.34 C30 29.2568 29.2568 30 28.34 30 L1.66 30 Z M20.66 30 L20.66 18.38 L24.56 18.38 L25.14 13.85 L20.7 13.85 L20.7 11 C20.7 9.69001 21.06 8.79001 22.94 8.79001 L25.34 8.79001 L25.34 4.79001 C24.1807 4.66769 23.0157 4.60761 21.85 4.61001 C18.39 4.61001 16.03 6.72001 16.03 10.61 L16.03 13.95 L12.12 13.95 L12.12 18.48 L16 18.48 L16 30 L20.68 30 L20.66 30 Z" transform="translate(0, 0)"/>
 </g>
</svg>
