<?xml version="1.0" encoding="UTF-8"?>
<svg width="42pt" version="1.1" xmlns="http://www.w3.org/2000/svg" height="38pt" viewBox="0 0 42 38" xmlns:xlink="http://www.w3.org/1999/xlink">
 <defs>
  <clipPath id="Clip0">
   <path d="M0 0 L41.3113 0 L41.3113 37.33 L0 37.33 L0 0 Z" transform="translate(0, 0)"/>
  </clipPath>
 </defs>
 <g id="Background">
  <g id="featured-reports" clip-path="url(#Clip0)">
   <path style="fill:#bfd5ad; fill-rule:evenodd;stroke:none;" d="M28.13 6.95 L10.55 0.55 L9.03 0 L8.88 0.42 L0.66 22.98 L0 24.8 L1.52 25.36 L19.1 31.76 L20.3 32.19 L20.96 30.37 L29.17 7.8 L29.33 7.38 L28.13 6.95 Z" transform="translate(11.9813, 0)"/>
   <path style="fill:#ffffff; fill-rule:evenodd;stroke:none;" d="M0 21.8009 L7.93487 0 L25.2252 6.29317 L17.2903 28.094 L0 21.8009 Z" transform="translate(14.0265, 2.05134)"/>
   <path style="fill:#bfd5ad; fill-rule:evenodd;stroke:none;" d="M0 1.50351 L0.547232 0 L7.31302 2.46255 L6.76579 3.96605 L0 1.50351 Z" transform="translate(22.3476, 4.08492)"/>
   <path style="fill:#bfd5ad; fill-rule:evenodd;stroke:none;" d="M0 1.50351 L0.547232 0 L7.31302 2.46255 L6.76579 3.96605 L0 1.50351 Z" transform="translate(21.3033, 7.10867)"/>
   <path style="fill:#bfd5ad; fill-rule:evenodd;stroke:none;" d="M0 1.50351 L0.547232 0 L14.8306 5.19871 L14.2833 6.70221 L0 1.50351 Z" transform="translate(20.2008, 10.1156)"/>
   <path style="fill:#bfd5ad; fill-rule:evenodd;stroke:none;" d="M0 1.50351 L0.547232 0 L14.8306 5.19871 L14.2833 6.70221 L0 1.50351 Z" transform="translate(19.1264, 13.1294)"/>
   <path style="fill:#bfd5ad; fill-rule:evenodd;stroke:none;" d="M0 0.751802 L0.273485 0 L6.2879 2.18788 L6.01441 2.93968 L0 0.751802 Z" transform="translate(26.4944, 19.1124)"/>
   <path style="fill:#bfd5ad; fill-rule:evenodd;stroke:none;" d="M0 1.50351 L0.547232 0 L6.56127 2.18893 L6.01403 3.69244 L0 1.50351 Z" transform="translate(25.4121, 21.3636)"/>
   <path style="fill:#bfd5ad; fill-rule:evenodd;stroke:none;" d="M0 1.50351 L0.547232 0 L6.56127 2.18893 L6.01403 3.69244 L0 1.50351 Z" transform="translate(24.3649, 24.4033)"/>
   <path style="fill:#bfd5ad; fill-rule:evenodd;stroke:none;" d="M0 4.51024 L1.64248 0 L7.65613 2.18998 L6.01365 6.70022 L0 4.51024 Z" transform="translate(29.5955, 7.11968)"/>
   <path style="fill:#bfd5ad; fill-rule:evenodd;stroke:none;" d="M1.42 7.29 L0 6.77 L0.66 4.96 L2.46 0 L3.97 0.55 L2.05 5.82 L3.56 6.36 L5.2 1.85 L6.7 2.4 L6.15 3.9 L7.66 4.45 L6.56 7.46 L7.32 7.73 L6.77 9.23 L5.77 8.87 L4.32 8.34 L2.87 7.81 L1.42 7.29 Z" transform="translate(16.0813, 16.12)"/>
   <path style="fill:#bfd5ad; fill-rule:evenodd;stroke:none;" d="M20.49 0 L1.78 0 L0 0 L0 1.2 L0 25.21 L0 27 L1.78 27 L20.49 27 L21 27 L21 25.21 L21 1.2 L21 0 L20.49 0 Z" transform="translate(8.68132, 2.14)"/>
   <path style="fill:#ffffff; fill-rule:evenodd;stroke:none;" d="M0 0 L19 0 L19 23 L0 23 L0 0 Z" transform="translate(9.68132, 4.14)"/>
   <path style="fill:#bfd5ad; fill-rule:evenodd;stroke:none;" d="M0 0 L7 0 L7 1 L0 1 L0 0 Z" transform="translate(11.6813, 6.14)"/>
   <path style="fill:#bfd5ad; fill-rule:evenodd;stroke:none;" d="M0 0 L7 0 L7 1 L0 1 L0 0 Z" transform="translate(11.6813, 9.14)"/>
   <path style="fill:#bfd5ad; fill-rule:evenodd;stroke:none;" d="M0 0 L15 0 L15 2 L0 2 L0 0 Z" transform="translate(11.6813, 12.14)"/>
   <path style="fill:#bfd5ad; fill-rule:evenodd;stroke:none;" d="M0 0 L15 0 L15 2 L0 2 L0 0 Z" transform="translate(11.6813, 15.14)"/>
   <path style="fill:#bfd5ad; fill-rule:evenodd;stroke:none;" d="M0 0 L6 0 L6 1 L0 1 L0 0 Z" transform="translate(20.6813, 18.14)"/>
   <path style="fill:#bfd5ad; fill-rule:evenodd;stroke:none;" d="M0 0 L6 0 L6 1 L0 1 L0 0 Z" transform="translate(20.6813, 21.14)"/>
   <path style="fill:#bfd5ad; fill-rule:evenodd;stroke:none;" d="M0 0 L6 0 L6 2 L0 2 L0 0 Z" transform="translate(20.6813, 24.14)"/>
   <path style="fill:#bfd5ad; fill-rule:evenodd;stroke:none;" d="M0 0 L6 0 L6 4 L0 4 L0 0 Z" transform="translate(20.6813, 6.14)"/>
   <path style="fill:#bfd5ad; fill-rule:evenodd;stroke:none;" d="M1.87 8 L0 8 L0 6.03 L0 0 L1 0 L1 6 L3 6 L3 1 L5 1 L5 3 L6 3 L6 6 L7 6 L7 8 L6.5 8 L4.96 8 L3.41 8 L1.87 8 Z" transform="translate(11.6813, 18.14)"/>
   <path style="fill:#ffffff; fill-rule:evenodd;stroke:none;" d="M0 3.07797 L6.11 0.857966 L7.45 0.397966 C8.56096 0 9.80001 0.413019 10.45 1.39797 L11.67 4.74797 L14.4 3.74797 C14.4 3.74797 17.02 3.04797 17.7 4.91797 L22.41 17.858 L7.41 23.328 L0 3.07797 Z" transform="translate(2.90132, 10.982)"/>
   <path style="fill:#5d9731; fill-rule:evenodd;stroke:none;" d="M0 2.73616 L7.51754 0 L8.06477 1.50351 L0.547232 4.23967 L0 2.73616 Z" transform="translate(10.6352, 16.1736)"/>
   <path style="fill:#5d9731; fill-rule:evenodd;stroke:none;" d="M0 0.547757 L1.50332 0 L2.05107 1.50332 L0.547757 2.05107 L0 0.547757 Z" transform="translate(7.57183, 19.3225)"/>
   <path style="fill:#5d9731; fill-rule:evenodd;stroke:none;" d="M0 2.73485 L7.51802 0 L8.06499 1.5036 L0.54697 4.23845 L0 2.73485 Z" transform="translate(11.7327, 19.2225)"/>
   <path style="fill:#5d9731; fill-rule:evenodd;stroke:none;" d="M0 0.547757 L1.50332 0 L2.05107 1.50332 L0.547757 2.05107 L0 0.547757 Z" transform="translate(8.67583, 22.334)"/>
   <path style="fill:#5d9731; fill-rule:evenodd;stroke:none;" d="M0 2.73747 L7.51706 0 L8.06456 1.50341 L0.547495 4.24089 L0 2.73747 Z" transform="translate(12.8054, 22.1386)"/>
   <path style="fill:#5d9731; fill-rule:evenodd;stroke:none;" d="M0 0.547495 L1.50341 0 L2.05091 1.50341 L0.547495 2.05091 L0 0.547495 Z" transform="translate(9.7698, 25.3917)"/>
   <path style="fill:#5d9731; fill-rule:evenodd;stroke:none;" d="M0 2.73616 L7.51754 0 L8.06477 1.50351 L0.547232 4.23967 L0 2.73616 Z" transform="translate(13.9024, 25.1778)"/>
   <path style="fill:#5d9731; fill-rule:evenodd;stroke:none;" d="M0 0.546707 L1.5037 0 L2.05041 1.5037 L0.546707 2.05041 L0 0.546707 Z" transform="translate(10.8704, 28.4011)"/>
   <path style="fill:#5d9731; fill-rule:evenodd;stroke:none;" d="M0 2.73616 L7.51754 0 L8.06477 1.50351 L0.547232 4.23967 L0 2.73616 Z" transform="translate(9.53209, 13.1714)"/>
   <path style="fill:#5d9731; fill-rule:evenodd;stroke:none;" d="M0 0.547232 L1.50351 0 L2.05074 1.50351 L0.547232 2.05074 L0 0.547232 Z" transform="translate(6.48537, 16.3496)"/>
   <path style="fill:#5d9731; fill-rule:evenodd;stroke:none;" d="M0.101318 4.7053 L8.35132 27.3753 C8.47132 27.7053 9.10132 28.6453 9.43132 28.5353 L26.9813 22.1453 C27.5001 21.6479 27.823 20.9807 27.8913 20.2653 L22.5013 5.4553 C21.9292 4.55488 21.0901 3.85566 20.1013 3.4553 L13.1613 0.455302 C12.2087 0.0667182 11.1553 0 10.1613 0.265302 L8.22132 0.965302 L0.441318 3.7953 C0.138482 3.98948 0 4.36012 0.101318 4.7053 L0.101318 4.7053 Z M2.90132 5.3753 L9.01132 3.1553 L10.3513 2.6953 C11.4623 2.29734 12.7013 2.71035 13.3513 3.6953 L14.5713 7.0453 L17.3013 6.0453 C17.3013 6.0453 19.9213 5.3453 20.6013 7.2153 L25.3113 20.1553 L10.3113 25.6253 L2.90132 5.3753 Z" transform="translate(0, 8.6847)"/>
  </g>
 </g>
</svg>
