<?xml version="1.0" encoding="UTF-8"?>
<svg width="30pt" version="1.1" xmlns="http://www.w3.org/2000/svg" height="30pt" viewBox="0 0 30 30" xmlns:xlink="http://www.w3.org/1999/xlink">
 <defs/>
 <g id="Background">
  <path style="fill:#0097d7; fill-rule:evenodd;stroke:none;" id=" flickr" d="M25.74 0 L5.74 0 C2.74 0 0 1.75 0 4.78 L0 25.28 C0 28.04 2.47 31 5.24 31 L25.74 31 C28.74 31 31 27.81 31 24.78 L31 4.78 C31 1.75 28.77 0 25.74 0 Z M14.87 13.68 C14.87 16.5905 12.5105 18.95 9.6 18.95 C6.68946 18.95 4.33 16.5905 4.33 13.68 C4.33 10.7695 6.68946 8.41 9.6 8.41 C12.5066 8.41552 14.86 10.7734 14.86 13.68 L14.87 13.68 Z M27.55 13.68 C27.55 16.5905 25.1905 18.95 22.28 18.95 C19.3695 18.95 17.01 16.5905 17.01 13.68 C17.01 10.7695 19.3695 8.41 22.28 8.41 C25.1905 8.41 27.55 10.7695 27.55 13.68 L27.55 13.68 Z" transform="translate(0, 0)"/>
 </g>
</svg>
