<?xml version="1.0" encoding="UTF-8"?>
<svg width="38pt" version="1.1" xmlns="http://www.w3.org/2000/svg" height="38pt" viewBox="0 0 38 38" xmlns:xlink="http://www.w3.org/1999/xlink">
 <defs>
  <clipPath id="Clip0">
   <path d="M0 0 L37.22 0 L37.22 31.24 L0 31.24 L0 0 Z" transform="translate(0, 0)"/>
  </clipPath>
 </defs>
 <g id="Background">
  <g id="follow-us" clip-path="url(#Clip0)">
   <path style="fill:#bfd5ad; fill-rule:evenodd;stroke:none;" d="M16.9 13.43 C18.2071 11.8502 18.9931 9.90444 19.15 7.86 C19.15 4.44 16.74 1.49 13.22 0 C13.22 0.18 13.22 0.35 13.22 0.53 C13.22 7.12 7.54 12.63 0 13.92 C2.26903 15.7818 5.12531 16.7776 8.06 16.73 C12.6 16.73 14.92 19.95 18.06 19.95 C17.18 18.87 15.54 15.33 16.9 13.43 Z" transform="translate(18.07, 11.29)"/>
   <path style="fill:#5d9731; fill-rule:evenodd;stroke:none;" d="M29.48 11.83 C29.48 5.3 22.88 0 14.74 0 C6.6 0 0 5.3 0 11.83 C0 14.46 1.41 17.1 3 19.26 C4.87 21.79 2.63 26.51 1.38 27.95 C5.6 27.95 8.69 23.66 14.75 23.66 C22.88 23.62 29.48 18.36 29.48 11.83 Z M14.74 21.08 C11.7002 21.157 8.73018 22.007 6.11 23.55 C6.59916 21.5521 6.23701 19.4407 5.11 17.72 C3.48 15.51 2.62 13.47 2.62 11.82 C2.62 6.72 8.07 2.57 14.78 2.57 C21.49 2.57 26.94 6.72 26.94 11.82 C26.94 16.92 21.45 21.08 14.74 21.08 Z" transform="translate(0, 0)"/>
   <path style="fill:#5d9731; fill-rule:evenodd;stroke:none;" d="M3.5 1.75 C3.5 2.71653 2.71653 3.5 1.75 3.5 C0.783502 3.5 0 2.71653 0 1.75 C0 0.783502 0.783502 0 1.75 0 C2.71653 0 3.5 0.783502 3.5 1.75 Z" transform="translate(7.27, 10.63)"/>
   <path style="fill:#5d9731; fill-rule:evenodd;stroke:none;" d="M3.5 1.75 C3.5 2.71653 2.71653 3.5 1.75 3.5 C0.783502 3.5 0 2.71653 0 1.75 C0 0.783502 0.783502 0 1.75 0 C2.71653 0 3.5 0.783502 3.5 1.75 Z" transform="translate(12.98, 10.63)"/>
   <path style="fill:#5d9731; fill-rule:evenodd;stroke:none;" d="M3.5 1.75 C3.5 2.71653 2.71653 3.5 1.75 3.5 C0.783502 3.5 0 2.71653 0 1.75 C0 0.783502 0.783502 0 1.75 0 C2.71653 0 3.5 0.783502 3.5 1.75 Z" transform="translate(18.68, 10.63)"/>
  </g>
 </g>
</svg>
