<?xml version="1.0" encoding="UTF-8"?>
<svg width="38pt" version="1.1" xmlns="http://www.w3.org/2000/svg" height="39pt" viewBox="0 0 38 39" xmlns:xlink="http://www.w3.org/1999/xlink">
 <defs>
  <clipPath id="Clip0">
   <path d="M0 0 L38.02 0 L38.02 35.3198 L0 35.3198 L0 0 Z" transform="translate(0, 0)"/>
  </clipPath>
 </defs>
 <g id="Background">
  <g id="glossary" clip-path="url(#Clip0)">
   <path style="fill:#5d9731; fill-rule:evenodd;stroke:none;" d="M10.35 6.03 C10.76 7.18 9.04 9.73 7.12 9.77 C5.58 9.77 0.72 3.15 0 2.46 C0.987343 1.85935 1.80082 1.01141 2.36 0 C3.17 0.77 9.92 4.77 10.36 6 " transform="translate(27.26, 12.6998)"/>
   <path style="fill:#5d9731; fill-rule:evenodd;stroke:none;" d="M5.52093 0.649765 C2.52269 1.75925 0.411391 4.471 0.0709335 7.64976 C0.0709335 7.76976 0.0709335 7.88976 0.0709335 8.00976 C0 9.17941 0.173695 10.351 0.580934 11.4498 C0.680934 11.7098 0.790934 11.9698 0.910934 12.2098 C1.03093 12.4498 1.04093 12.4798 1.12093 12.6098 C3.13047 16.2121 7.4538 17.8282 11.3336 16.4274 C15.2133 15.0266 17.5071 11.0214 16.7518 6.96618 C15.9966 2.911 12.4149 0 8.29093 0.0897649 C7.35425 0.110707 6.42786 0.2899 5.55093 0.619765 Z M2.72093 10.6198 C2.2322 9.3146 2.20749 7.881 2.65093 6.55976 C2.65093 6.45976 2.73093 6.34976 2.77093 6.24976 C2.81093 6.14976 2.85093 6.02976 2.90093 5.92976 C3.57343 4.44592 4.81241 3.29338 6.34093 2.72976 L6.34093 2.72976 C6.98235 2.49464 7.65798 2.36628 8.34093 2.34976 C11.2152 2.29174 13.7449 4.23578 14.4286 7.0281 C15.1124 9.82041 13.7672 12.7133 11.1914 13.9899 C8.61557 15.2665 5.49881 14.585 3.69093 12.3498 C3.58093 12.2098 3.47093 12.0698 3.38093 11.9198 C3.11565 11.5231 2.89751 11.0969 2.73093 10.6498 " transform="translate(13.9691, 0)"/>
   <path style="fill:#bfd5ad; fill-rule:evenodd;stroke:none;" d="M21.83 0 L2.43 0 L0 0 L0 0.24 L0 25.14 L0 28 L2.43 28 L21.83 28 L23 28 L23 25.14 L23 0.24 L23 0 L21.83 0 Z" transform="translate(0, 7.31976)"/>
   <path style="fill:#ffffff; fill-rule:evenodd;stroke:none;" d="M0 0 L17 0 L17 24 L0 24 L0 0 Z" transform="translate(4, 9.31976)"/>
   <path style="fill:#5d9731; fill-rule:evenodd;stroke:none;" d="M12.8712 12.8275 L10.0537 12.8275 L8.93375 9.91375 L3.80625 9.91375 L2.7475 12.8275 L0 12.8275 L4.99625 0 L7.735 0 L12.8712 12.8275 Z M8.1025 7.7525 L6.335 2.9925 L4.6025 7.7525 L8.1025 7.7525 Z" transform="translate(7.01688, 14.3523)"/>
  </g>
 </g>
</svg>
