<?xml version="1.0" encoding="UTF-8"?>
<svg width="30pt" version="1.1" xmlns="http://www.w3.org/2000/svg" height="30pt" viewBox="0 0 30 30" xmlns:xlink="http://www.w3.org/1999/xlink">
 <defs>
  <clipPath id="Clip0">
   <path d="M0 0 L30 0 L30 30.0234 L0 30.0234 L0 0 Z" transform="translate(0, 0)"/>
  </clipPath>
 </defs>
 <g id="Background">
  <g id="linked-in" clip-path="url(#Clip0)">
   <path style="fill:#0097d7; fill-rule:evenodd;stroke:none;" d="M27.78 0.0166827 L2.21 0.0166827 C1.00434 0.00555914 0.0164653 0.971079 0 2.17668 L0 27.8467 C0.0164653 29.0523 1.00434 30.0178 2.21 30.0067 L27.78 30.0067 C28.9895 30.0234 29.9835 29.0562 30 27.8467 L30 2.17668 C29.9835 0.967131 28.9895 0 27.78 0.0166827 L27.78 0.0166827 Z" transform="translate(0, 0)"/>
   <path style="fill:#ffffff; fill-rule:evenodd;stroke:none;" d="M0.35 7.12 L4.8 7.12 L4.8 21.44 L0.35 21.44 L0.35 7.12 Z M2.58 5.68434e-14 C4.00489 0 5.16 1.15511 5.16 2.58 C5.16 4.00489 4.00489 5.16 2.58 5.16 C1.15511 5.16 0 4.00489 0 2.58 C0 1.15511 1.15511 0 2.58 0 " transform="translate(4.1, 4.14668)"/>
   <path style="fill:#ffffff; fill-rule:evenodd;stroke:none;" d="M0.01 0.373535 L4.32 0.373535 L4.32 2.37353 L4.32 2.37353 C5.19122 0.887374 6.80847 0 8.53 0.0635346 C13.04 0.0635346 13.87 3.06353 13.87 6.88353 L13.87 14.7335 L9.42 14.7335 L9.42 7.73353 C9.42 6.07353 9.42 3.94353 7.11 3.94353 C4.8 3.94353 4.44 5.75353 4.44 7.62353 L4.44 14.7035 L0 14.7035 L0 0.373535 L0.01 0.373535 Z" transform="translate(11.68, 10.8931)"/>
  </g>
 </g>
</svg>
