<?xml version="1.0" encoding="UTF-8"?>
<svg width="38pt" version="1.1" xmlns="http://www.w3.org/2000/svg" height="38pt" viewBox="0 0 38 38" xmlns:xlink="http://www.w3.org/1999/xlink">
 <defs>
  <clipPath id="Clip0">
   <path d="M0 0 L34.51 0 L34.51 30.83 L0 30.83 L0 0 Z" transform="translate(2, 0)"/>
  </clipPath>
 </defs>
 <g id="Background">
  <g id="markets-finance" clip-path="url(#Clip0)">
   <path style="fill:#bfd5ad; fill-rule:evenodd;stroke:none;" d="M3.48 0.85 C3.90033 0.924992 4.30779 1.05969 4.69 1.25 L4.51 2.36 C4.12957 2.13046 3.71405 1.96493 3.28 1.87 L2.98 3.87 C4.33 4.31 4.98 4.87 4.98 6.05 C4.98 7.44 3.98 8.19 2.42 8.19 L2.37 8.19 L2.18 9.46 L1.43 9.3 L1.6 8.13 C1.0436 8.04337 0.503903 7.87134 0 7.62 L0.17 6.51 C0.677237 6.80466 1.23237 7.00775 1.81 7.11 L2.15 4.88 C0.84 4.44 0.15 3.96 0.15 2.81 C0.15 1.66 1.09 0.81 2.58 0.81 L2.69 0.81 L2.82 0 L3.58 0.17 L3.48 0.85 Z M2.33 3.62 L2.61 1.79 L2.47 1.79 C2.20517 1.72697 1.92603 1.78582 1.70918 1.95039 C1.49233 2.11497 1.36055 2.36798 1.35 2.64 C1.34 3.14 1.57 3.39 2.32 3.66 L2.33 3.62 Z M2.79 5.06 L2.47 7.13 L2.47 7.13 C2.78036 7.22438 3.11722 7.16234 3.3736 6.9636 C3.62999 6.76485 3.77403 6.45409 3.76 6.13 C3.71821 5.60168 3.31486 5.17339 2.79 5.1 L2.79 5.06 Z" transform="translate(7.18, 1.68)"/>
   <path style="fill:#bfd5ad; fill-rule:evenodd;stroke:none;" d="M5.6 1.44 C6.2736 1.56083 6.92673 1.7763 7.54 2.08 L7.25 3.86 C6.63158 3.4901 5.95556 3.22645 5.25 3.08 L4.77 6.23 C6.93 6.94 7.97 7.84 7.97 9.72 C7.97 11.95 6.38 13.14 3.87 13.14 L3.78 13.14 L3.47 15.14 L2.28 14.88 L2.56 13.01 C1.66993 12.8739 0.806336 12.6007 0 12.2 L0.28 10.42 C1.09153 10.9044 1.98165 11.2428 2.91 11.42 L3.45 7.84 C1.36 7.13 0.3 6.37 0.3 4.52 C0.3 2.45 1.8 1.3 4.19 1.3 L4.37 1.3 L4.58 0 L5.79 0.28 L5.6 1.44 Z M3.75 5.88 L4.2 2.94 L3.98 2.94 C2.77 2.94 2.18 3.46 2.18 4.31 C2.18 5.16 2.54 5.45 3.75 5.88 Z M4.49 8.18 L3.98 11.53 L4.03 11.53 C5.41 11.53 6.1 10.96 6.1 9.94 C6.1 9.16 5.78 8.65 4.5 8.18 L4.49 8.18 Z" transform="translate(26.88, 0)"/>
   <path style="fill:#5d9731; fill-rule:evenodd;stroke:none;" d="M4.17 1.09 C4.67344 1.18127 5.16154 1.34285 5.62 1.57 L5.4 2.9 C4.94184 2.62675 4.44182 2.4308 3.92 2.32 L3.56 4.68 C5.18 5.21 5.96 5.89 5.96 7.3 C5.96 8.97 4.77 9.86 2.89 9.86 L2.83 9.86 L2.6 11.39 L1.71 11.19 L1.92 9.79 C1.2523 9.68721 0.604593 9.48143 0 9.18 L0.21 7.85 C0.827818 8.21061 1.50515 8.45784 2.21 8.58 L2.61 5.9 C1.04 5.37 0.25 4.8 0.25 3.41 C0.25 1.86 1.38 1 3.16 1 L3.29 1 L3.45 0 L4.36 0.21 L4.17 1.09 Z M2.78 4.42 L3.12 2.22 L2.95 2.22 C2.04 2.22 1.6 2.61 1.6 3.22 C1.6 3.83 1.87 4.09 2.78 4.44 L2.78 4.42 Z M3.34 6.14 L2.95 8.63 L2.95 8.63 C3.95 8.63 4.5 8.2 4.5 7.44 C4.54 6.9 4.3 6.52 3.34 6.17 L3.34 6.14 Z" transform="translate(30.55, 19.44)"/>
   <path style="fill:#5d9731; fill-rule:evenodd;stroke:none;" d="M5.58 1.4 C6.2536 1.52083 6.90673 1.7363 7.52 2.04 L7.25 3.82 C6.632 3.44925 5.95583 3.18554 5.25 3.04 L4.77 6.22 C6.93 6.93 7.97 7.83 7.97 9.71 C7.97 11.94 6.38 13.13 3.87 13.13 L3.78 13.13 L3.47 15.13 L2.28 14.87 L2.56 13 C1.67011 12.8632 0.806637 12.59 0 12.19 L0.25 10.42 C1.06125 10.905 1.95148 11.2434 2.88 11.42 L3.42 7.84 C1.33 7.13 0.27 6.37 0.27 4.52 C0.27 2.44 1.77 1.3 4.16 1.3 L4.33 1.3 L4.54 0 L5.75 0.28 L5.58 1.4 Z M3.73 5.84 L4.18 2.9 L3.96 2.9 C2.75 2.9 2.16 3.42 2.16 4.27 C2.16 5.12 2.52 5.41 3.73 5.84 L3.73 5.84 Z M4.47 8.14 L3.95 11.46 L4 11.46 C5.38 11.46 6.07 10.89 6.07 9.87 C6.08 9.12 5.75 8.6 4.47 8.14 L4.47 8.14 Z" transform="translate(2, 13.31)"/>
   <path style="fill:#5d9731; fill-rule:evenodd;stroke:none;" d="M8.44 2.12 C9.44904 2.3147 10.4254 2.65138 11.34 3.12 L10.9 5.79 C9.97275 5.23439 8.95858 4.83886 7.9 4.62 L7.17 9.34 C10.41 10.4 11.96 11.75 11.96 14.58 C11.96 17.92 9.58 19.71 5.82 19.71 L5.69 19.71 L5.22 22.77 L3.43 22.38 L3.84 19.58 C2.50464 19.3743 1.20925 18.9627 0 18.36 L0.41 15.69 C1.62854 16.3998 2.96205 16.8905 4.35 17.14 L5.15 11.77 C2.01 10.71 0.43 9.57 0.43 6.77 C0.43 3.66 2.69 1.95 6.26 1.95 L6.52 1.95 L6.83 0 L8.64 0.42 L8.44 2.12 Z M5.67 8.78 L6.34 4.37 L6 4.37 C4.19 4.37 3.3 5.15 3.3 6.37 C3.31 7.54 3.83 8.14 5.67 8.79 L5.67 8.78 Z M6.78 12.23 L6 17.23 L6.08 17.23 C8.15 17.23 9.19 16.37 9.19 14.85 C9.19 13.71 8.7 12.93 6.83 12.23 L6.78 12.23 Z" transform="translate(14.42, 5.69)"/>
  </g>
 </g>
</svg>
