<?xml version="1.0" encoding="UTF-8"?>
<svg width="38pt" version="1.1" xmlns="http://www.w3.org/2000/svg" height="40pt" viewBox="0 0 38 40" xmlns:xlink="http://www.w3.org/1999/xlink">
 <defs/>
 <g id="Background">
  <path style="fill:#5d9731; fill-rule:evenodd;stroke:none;" id=" natural-gas" d="M19.2417 0.449549 C19.3198 0.332731 19.3867 0.208857 19.4417 0.0795493 C19.4417 0.0795493 19.4417 0.0795493 19.3717 0.149549 C19.3202 0.226629 19.2734 0.306778 19.2317 0.389549 C19.2317 0.479549 19.2317 0.499549 19.2317 0.459549 C19.3596 0.168395 19.6676 0 19.9817 0.0495493 C20.291 0.0893498 20.5529 0.297267 20.6617 0.589549 C20.7373 0.942028 20.649 1.30978 20.4217 1.58955 C20.2045 1.90846 20.0107 2.24267 19.8417 2.58955 C19.2158 3.93519 18.8753 5.39585 18.8417 6.87955 C18.7502 8.33394 18.8988 9.79348 19.2817 11.1995 C19.6784 12.6311 20.1798 14.0315 20.7817 15.3895 C21.3284 16.6162 21.9417 17.9095 22.6217 19.2695 C23.282 20.6255 23.8565 22.0216 24.3417 23.4495 C24.8319 24.8518 25.1836 26.2987 25.3917 27.7695 C25.5966 29.2053 25.4909 30.6682 25.0817 32.0595 C24.7075 33.3488 24.044 34.5356 23.1417 35.5295 C22.2441 36.5481 21.1745 37.4011 19.9817 38.0495 C18.8703 38.679 17.6417 39.0738 16.3717 39.2095 L15.5217 39.2095 C15.1892 39.243 14.8542 39.243 14.5217 39.2095 C14.1797 39.1715 13.8437 39.0909 13.5217 38.9695 C13.2473 38.8793 13.032 38.664 12.9417 38.3895 C12.8509 38.1082 12.8761 37.8023 13.0117 37.5395 C13.1624 37.2166 13.3432 36.9086 13.5517 36.6195 L14.2317 35.6195 C14.444 35.3849 14.6286 35.1265 14.7817 34.8495 C15.3295 33.5145 15.4957 32.0535 15.2617 30.6295 C15.1772 29.7932 14.922 28.9832 14.5117 28.2495 C14.105 27.5229 13.675 26.8195 13.2217 26.1395 C12.7659 25.4582 12.3454 24.7539 11.9617 24.0295 C11.5731 23.2897 11.332 22.4814 11.2517 21.6495 C10.7517 22.1495 10.2184 22.7162 9.6517 23.3495 C9.08918 23.967 8.5869 24.6367 8.1517 25.3495 C7.72993 26.0429 7.39412 26.785 7.1517 27.5595 C6.92398 28.2786 6.92398 29.0505 7.1517 29.7695 C7.40341 30.4913 7.77161 31.1669 8.2417 31.7695 C8.7417 32.4362 9.20504 33.1029 9.6317 33.7695 C10.0361 34.3868 10.3462 35.0608 10.5517 35.7695 C10.7275 36.49 10.6049 37.2508 10.2117 37.8795 C9.88568 38.3905 9.42563 38.8021 8.8817 39.0695 C8.36109 39.3213 7.78999 39.4513 7.2117 39.4495 C6.61152 39.4486 6.01488 39.3576 5.4417 39.1795 C4.88207 39.014 4.35218 38.7608 3.8717 38.4295 C2.88479 37.7628 2.07761 36.8629 1.5217 35.8095 C0.956804 34.7529 0.555567 33.6166 0.331702 32.4395 C0.0573378 31.04 0 29.6065 0.161702 28.1895 C0.32166 26.7246 0.65741 25.2842 1.1617 23.8995 C1.66516 22.5134 2.29096 21.1748 3.0317 19.8995 C3.73731 18.6685 4.54338 17.4979 5.4417 16.3995 C6.6217 14.9929 7.83504 13.6329 9.0817 12.3195 C10.3284 11.0062 11.5184 9.64622 12.6517 8.23955 C13.1984 7.57288 13.7317 6.90622 14.2517 6.23955 C14.7717 5.57288 15.3284 4.90622 15.9217 4.23955 C16.4684 3.57288 17.0584 2.94955 17.6917 2.36955 C18.2902 1.8002 18.8114 1.15468 19.2417 0.449549 Z" transform="translate(7, 0)"/>
 </g>
</svg>
