<?xml version="1.0" encoding="UTF-8"?>
<svg width="44pt" version="1.1" xmlns="http://www.w3.org/2000/svg" height="44pt" viewBox="0 0 44 44" xmlns:xlink="http://www.w3.org/1999/xlink">
 <defs>
  <clipPath id="Clip0">
   <path d="M0 0 L38.74 0 L38.74 44.76 L0 44.76 L0 0 Z" transform="translate(3, 0)"/>
  </clipPath>
 </defs>
 <g id="Background">
  <g id="nuclear" clip-path="url(#Clip0)">
   <path style="fill:#5d9731; fill-rule:evenodd;stroke:none;" d="M22.64 6.82 C26.0977 8.79659 29.2646 11.2432 32.05 14.09 C33.87 16 36.05 18.68 35.97 21.47 C35.97 24.61 31.53 24.47 29.41 24.23 C24.86 23.78 20.41 21.81 16.48 19.64 C12.8147 17.6464 9.47609 15.1036 6.58 12.1 C4.71 10.1 2.45 7.31 2.69 4.43 C2.95 1.35 7.69 1.78 9.77 2.03 C14.38 2.61 18.84 4.66 22.84 6.93 C23.71 7.42 24.84 5.93 23.84 5.35 C19.22 2.73 14.11 0.56 8.76 0.19 C6.07 0 2.38 0.53 1.19 3.36 C0 6.19 1.78 9.16 3.41 11.36 C6.32 15.28 10.47 18.29 14.63 20.74 C19.1164 23.5173 24.1461 25.3007 29.38 25.97 C32.2 26.25 35.9 25.85 37.38 23.04 C38.74 20.44 37.05 17.35 35.55 15.23 C32.78 11.3 28.7 8.28 24.64 5.82 L24.04 5.47 C23.18 4.97 21.74 6.3 22.67 6.84 " transform="translate(3, 8.18)"/>
   <path style="fill:#5d9731; fill-rule:evenodd;stroke:none;" d="M15.57 6.91 C19.442 4.60641 23.6799 2.98295 28.1 2.11 C30.29 1.72 34.86 1.24 35.76 4.04 C36.55 6.48 34.01 9.52 32.6 11.18 C29.7314 14.3589 26.3515 17.0358 22.6 19.1 C18.7402 21.4287 14.4977 23.0539 10.07 23.9 C7.88 24.29 3.31 24.77 2.41 21.97 C1.62 19.53 4.16 16.49 5.58 14.83 C8.44912 11.6544 11.8291 8.98083 15.58 6.92 C16.48 6.39 15.52 4.68 14.58 5.21 C10.2738 7.58919 6.4567 10.7617 3.33 14.56 C1.63 16.74 0 19.71 0.91 22.56 C1.82 25.41 5.33 26.16 7.99 26.05 C13.24 25.84 18.32 23.72 22.88 21.23 C27.316 18.8857 31.2607 15.7116 34.5 11.88 C36.31 9.66 38.01 6.74 37.3 3.79 C36.59 0.84 33 0 30.3 0.03 C25.3 0.03 20.25 2.18 15.87 4.49 L14.52 5.24 C13.61 5.75 14.52 7.47 15.52 6.95 " transform="translate(3.25, 8.26)"/>
   <path style="fill:#5d9731; fill-rule:evenodd;stroke:none;" d="M6.3 3.15 C6.3 4.8897 4.8897 6.3 3.15 6.3 C1.4103 6.3 0 4.8897 0 3.15 C0 1.4103 1.4103 0 3.15 0 C4.8897 0 6.3 1.4103 6.3 3.15 " transform="translate(19.16, 18.12)"/>
   <path style="fill:#5d9731; fill-rule:evenodd;stroke:none;" d="M16.2935 20.92 C16.3274 25.2867 15.652 29.6299 14.2935 33.78 C13.4535 36.23 11.9835 39.39 9.2935 40.21 C6.2935 41.12 4.5435 36.46 3.8035 34.45 C2.42858 30.3121 1.77243 25.9694 1.8635 21.61 C1.80364 17.2415 2.47976 12.894 3.8635 8.75 C4.7035 6.3 6.1735 3.14 8.8635 2.32 C11.8635 1.41 13.6135 6.07 14.3535 8.08 C15.7277 12.2181 16.3838 16.5607 16.2935 20.92 C16.2935 21.58 17.9435 22.56 17.9335 21.6 C18.028 16.6047 17.1483 11.6388 15.3435 6.98 C14.2535 4.38 12.4735 1.72 9.6535 0.86 C6.8335 0 4.6535 2.77 3.4735 4.86 C1.2035 8.98 0.5335 13.98 0.3035 18.6 C0 23.6682 0.613149 28.7495 2.1135 33.6 C3.0235 36.44 4.6535 39.88 7.4935 41.25 C14.7835 44.76 17.2335 30.79 17.6935 26.57 C17.861 24.9086 17.9445 23.2398 17.9435 21.57 C17.9435 20.9 16.3135 19.92 16.3035 20.89 " transform="translate(13.2165, 0)"/>
  </g>
 </g>
</svg>
