<?xml version="1.0" encoding="UTF-8"?>
<svg width="44pt" version="1.1" xmlns="http://www.w3.org/2000/svg" height="38pt" viewBox="0 0 44 38" xmlns:xlink="http://www.w3.org/1999/xlink">
 <defs/>
 <g id="Background">
  <path style="fill:#5d9731; fill-rule:evenodd;stroke:none;" id=" open-data" d="M44.6878 9.37 L44.6878 20.05 L39.7578 20.05 L39.7578 14.72 L36.2578 14.72 L36.2578 20.05 L31.3278 20.05 L31.3278 14.72 L24.7878 14.72 L24.7878 17.72 L19.4778 17.72 C18.5478 23.64 15.4778 27.99 11.7578 27.99 C8.4478 27.99 5.5978 24.48 4.3778 19.46 C1.81913 18.8878 0 16.6169 0 13.995 C0 11.3731 1.81913 9.10223 4.3778 8.53 C5.5978 3.53 8.4378 0 11.7578 0 C15.2478 0 18.1978 3.9 19.2978 9.33 L44.6578 9.33 L44.6878 9.37 Z M7.0278 11.18 C5.44274 11.18 4.1578 12.4649 4.1578 14.05 C4.1578 15.6351 5.44274 16.92 7.0278 16.92 C8.61286 16.92 9.8978 15.6351 9.8978 14.05 C9.8978 12.4649 8.61286 11.18 7.0278 11.18 " transform="translate(0, 0)"/>
 </g>
</svg>
