<?xml version="1.0" encoding="UTF-8"?>
<svg width="38pt" version="1.1" xmlns="http://www.w3.org/2000/svg" height="38pt" viewBox="0 0 38 38" xmlns:xlink="http://www.w3.org/1999/xlink">
 <defs/>
 <g id="Background">
  <path style="fill:#5d9731; fill-rule:evenodd;stroke:none;" id=" petroleum" d="M12.6 0.00504835 C14.2364 5.41638e-05 15.8719 0.0801623 17.5 0.245048 C18.8495 0.374387 20.1868 0.608425 21.5 0.945048 C22.4354 1.16301 23.3393 1.49904 24.19 1.94505 C24.7226 2.14781 25.1047 2.62163 25.19 3.18505 C25.1047 3.74847 24.7226 4.22229 24.19 4.42505 C23.3391 4.87056 22.4353 5.20657 21.5 5.42505 C20.187 5.76231 18.8495 5.99635 17.5 6.12505 C15.872 6.29094 14.2364 6.37105 12.6 6.36505 C10.9636 6.37112 9.32799 6.29101 7.7 6.12505 C6.35046 5.99635 5.01304 5.76231 3.7 5.42505 C2.76476 5.20646 1.86092 4.87046 1.01 4.42505 C0.477445 4.22229 0.0953329 3.74847 0.01 3.18505 C0.0953329 2.62163 0.477445 2.14781 1.01 1.94505 C1.8607 1.49914 2.7646 1.16312 3.7 0.945048 C5.01311 0.608069 6.35049 0.374026 7.7 0.245048 C9.32806 0.0801083 10.9636 0 12.6 0.00504835 Z M0.87 6.84505 C2.57527 7.50639 4.34989 7.97269 6.16 8.23505 C8.25083 8.56043 10.364 8.72093 12.48 8.71505 C14.5949 8.72067 16.7073 8.57026 18.8 8.26505 C20.6172 8.0219 22.3953 7.5446 24.09 6.84505 L24.09 15.315 C24.6398 15.5002 25.0531 15.959 25.18 16.525 C25.0787 17.0608 24.6965 17.5004 24.18 17.675 C23.3291 18.1065 22.4244 18.4226 21.49 18.615 C20.171 18.9101 18.8352 19.1238 17.49 19.255 C14.2313 19.5768 10.9487 19.5768 7.69 19.255 C6.34477 19.1242 5.0089 18.9105 3.69 18.615 C2.75559 18.4225 1.85098 18.1064 1 17.675 C0.483486 17.5004 0.101258 17.0608 0 16.525 C0.0617349 16.0332 0.388042 15.6148 0.85 15.435 L0.85 6.84505 L0.87 6.84505 Z M24.09 20.005 L24.09 30.915 C24.6398 31.1002 25.0531 31.559 25.18 32.125 C25.0787 32.6608 24.6965 33.1004 24.18 33.275 C23.3287 33.7057 22.4242 34.0218 21.49 34.215 C20.1708 34.5067 18.835 34.7171 17.49 34.845 C14.2313 35.168 10.9487 35.168 7.69 34.845 C6.34499 34.7174 5.00912 34.507 3.69 34.215 C2.75581 34.0217 1.85131 33.7056 1 33.275 C0.483486 33.1004 0.101258 32.6608 7.10543e-15 32.125 C0.0770232 31.6265 0.405976 31.203 0.87 31.005 L0.87 20.005 C2.57511 20.6669 4.34979 21.1332 6.16 21.395 C8.25071 21.7215 10.364 21.882 12.48 21.875 C14.5949 21.8805 16.7072 21.7301 18.8 21.425 C20.6173 21.1823 22.3955 20.705 24.09 20.005 Z" transform="translate(7.4, 1.99)"/>
 </g>
</svg>
