<?xml version="1.0" encoding="UTF-8"?>
<svg width="38pt" version="1.1" xmlns="http://www.w3.org/2000/svg" height="38pt" viewBox="0 0 38 38" xmlns:xlink="http://www.w3.org/1999/xlink">
 <defs>
  <clipPath id="Clip0">
   <path d="M0 0 L33.48 0 L33.48 31.79 L0 31.79 L0 0 Z" transform="translate(3, 0)"/>
  </clipPath>
 </defs>
 <g id="Background">
  <g id="press-room" clip-path="url(#Clip0)">
   <path style="fill:#bfd5ad; fill-rule:evenodd;stroke:none;" d="M22.13 28.94 L2.79 28.94 L2.79 12.55 C2.7784 11.8915 3.03904 11.2574 3.51038 10.7974 C3.98172 10.3374 4.62198 10.0923 5.28 10.12 L10.1 10.12 L10.1 5.3 C10.0681 4.62591 10.3226 3.96973 10.8007 3.49349 C11.2789 3.01726 11.936 2.76536 12.61 2.8 L17.98 2.8 L18.84 1.94 L18.84 1.94 L20.78 0 L11.2 0 C9.94203 0.068625 8.74558 0.566267 7.81 1.41 L1.4 7.87 C0.560592 8.8074 0.0666448 10.0035 0 11.26 L0 31 C0.00539257 31.4341 0.355948 31.7846 0.79 31.79 L24.13 31.79 C24.5641 31.7846 24.9146 31.4341 24.92 31 L24.92 21.37 L22.12 24.17 L22.12 28.99 L22.13 28.94 Z" transform="translate(3, 0)"/>
   <path style="fill:#5d9731; fill-rule:evenodd;stroke:none;" d="M12.9957 3.64 L12.0557 0 L2.96575 9.09 L0.0657487 20.64 C0 20.7777 0.0281656 20.9418 0.136043 21.0497 C0.243921 21.1576 0.408082 21.1857 0.545749 21.12 L12.1157 18.23 L21.2057 9.14 L17.5657 8.2 L12.9957 3.64 Z M5.08575 18.28 C4.12108 17.8914 3.3534 17.131 2.95575 16.17 L3.95575 12.73 L8.53575 17.31 L5.08575 18.28 Z" transform="translate(11.1043, 4.23)"/>
   <path style="fill:#5d9731; fill-rule:evenodd;stroke:none;" d="M10.88 5.52 L6.3 0.94 L2.66 0 L0 2.66 L0.94 6.3 L5.53 10.88 L9.17 11.82 L11.83 9.16 L10.88 5.52 Z M8.66 6.09 C8.26 6.49 7.27 6.17 6.46 5.36 C5.65 4.55 5.33 3.57 5.73 3.16 C6.13 2.75 7.12 3.08 7.93 3.89 C8.74 4.7 9.08 5.69 8.65 6.09 L8.66 6.09 Z" transform="translate(24.65, 0.05)"/>
  </g>
 </g>
</svg>
