<?xml version="1.0" encoding="UTF-8"?>
<svg width="38pt" version="1.1" xmlns="http://www.w3.org/2000/svg" height="38pt" viewBox="0 0 38 38" xmlns:xlink="http://www.w3.org/1999/xlink">
 <defs/>
 <g id="Background">
  <path style="fill:#5d9731; fill-rule:evenodd;stroke:none;" d="M0.0328827 13.9823 C0 12.0065 0.399317 10.0475 1.20288 8.24227 C1.94156 6.60497 3.01454 5.14028 4.35288 3.94227 C5.71771 2.73987 7.30879 1.82195 9.03288 1.24227 C12.7211 0 16.7147 0 20.4029 1.24227 C22.1094 1.82769 23.683 2.74535 25.0329 3.94227 C26.3712 5.14028 27.4442 6.60497 28.1829 8.24227 C29.74 11.9105 29.74 16.054 28.1829 19.7223 C27.4434 21.3591 26.3706 22.8237 25.0329 24.0223 C23.6768 25.2188 22.0961 26.1332 20.3829 26.7123 C16.6947 27.9545 12.7011 27.9545 9.01288 26.7123 C7.29978 26.133 5.71908 25.2185 4.36288 24.0223 C3.02541 22.8235 1.95258 21.359 1.21288 19.7223 C0.406189 17.9177 0.00346643 15.9587 0.0328827 13.9823 L0.0328827 13.9823 Z M32.0329 28.0723 C31.2929 29.0189 30.6262 29.8756 30.0329 30.6423 C29.4535 31.3674 28.781 32.0129 28.0329 32.5623 C27.2909 33.0911 26.4664 33.4932 25.5929 33.7523 C24.5153 34.0491 23.4003 34.1872 22.2829 34.1623 C21.3374 34.1682 20.3966 34.03 19.4929 33.7523 C18.6028 33.4723 17.7366 33.1212 16.9029 32.7023 C16.0562 32.2823 15.2162 31.8189 14.3829 31.3123 C13.5495 30.8056 12.7129 30.3423 11.8729 29.9223 C11.0258 29.5157 10.1461 29.1812 9.24288 28.9223 C8.32563 28.6426 7.37183 28.501 6.41288 28.5023 C5.77921 28.5026 5.15022 28.6108 4.55288 28.8223 C3.95489 29.0283 3.37325 29.279 2.81288 29.5723 L2.26288 28.9423 C3.09063 28.4038 3.98924 27.9831 4.93288 27.6923 C5.90928 27.4214 6.91978 27.2934 7.93288 27.3123 C9.41666 27.3157 10.8921 27.5346 12.3129 27.9623 C13.7795 28.3956 15.2129 28.8723 16.6129 29.3923 C18.0129 29.9123 19.3662 30.3823 20.6729 30.8023 C21.8524 31.2025 23.0874 31.4151 24.3329 31.4323 C25.0942 31.4415 25.8536 31.3542 26.5929 31.1723 C27.2346 31.008 27.8481 30.7484 28.4129 30.4023 C28.9793 30.0471 29.5028 29.6277 29.9729 29.1523 C30.5019 28.6218 30.9994 28.0609 31.4629 27.4723 L32.0329 28.0723 Z M4.19288 13.9823 C4.18662 15.5532 4.42618 17.1154 4.90288 18.6123 C5.34418 20.0278 6.04251 21.3498 6.96288 22.5123 C7.85723 23.6313 8.97852 24.5481 10.2529 25.2023 C13.0282 26.5486 16.2675 26.5486 19.0429 25.2023 C20.3167 24.5473 21.4379 23.6306 22.3329 22.5123 C23.2527 21.3495 23.951 20.0275 24.3929 18.6123 C25.3417 15.5951 25.3417 12.3594 24.3929 9.34227 C23.9503 7.92731 23.2521 6.60546 22.3329 5.44227 C21.4381 4.32371 20.3169 3.40699 19.0429 2.75227 C16.2675 1.40599 13.0282 1.40599 10.2529 2.75227 C8.97835 3.40623 7.85701 4.32307 6.96288 5.44227 C6.04308 6.60509 5.34482 7.92704 4.90288 9.34227 C4.43193 10.8434 4.19911 12.4091 4.21288 13.9823 L4.19288 13.9823 Z" transform="translate(3, 0)"/>
 </g>
</svg>
