<?xml version="1.0" encoding="UTF-8"?>
<svg width="38pt" version="1.1" xmlns="http://www.w3.org/2000/svg" height="40pt" viewBox="0 0 38 40" xmlns:xlink="http://www.w3.org/1999/xlink">
 <defs/>
 <g id="Background">
  <path style="fill:#5d9731; fill-rule:evenodd;stroke:none;" id=" renewables" d="M24.9425 0.22 C24.6626 0.63666 24.3552 1.03421 24.0225 1.41 C23.6114 1.94094 23.3214 2.55526 23.1725 3.21 C22.6766 5.16982 22.4578 7.18946 22.5225 9.21 C22.5892 11.21 22.5892 13.21 22.5225 15.21 C22.4813 17.1482 22.2298 19.0761 21.7725 20.96 C21.2419 22.9569 20.2091 24.7849 18.7725 26.27 C17.145 28.1287 14.9469 29.3949 12.5225 29.87 C10.0713 30.2802 7.57098 30.3039 5.11249 29.94 C4.48508 30.2928 4.02169 30.8783 3.82249 31.57 C3.58838 32.3421 3.46383 33.1433 3.45249 33.95 C3.43038 34.8366 3.48728 35.7235 3.62249 36.6 C3.75249 37.51 3.89249 38.33 4.03249 39.05 C4.06099 39.1472 4.04176 39.2522 3.98066 39.333 C3.91956 39.4138 3.8238 39.4609 3.72249 39.46 C3.45096 39.5044 3.17402 39.5044 2.90249 39.46 C2.61038 39.4152 2.3249 39.3346 2.05249 39.22 C1.83778 39.1726 1.67465 38.9975 1.64249 38.78 C1.41582 37.1 1.26915 35.3433 1.20249 33.51 C1.12598 31.7198 1.39069 29.9313 1.98249 28.24 C1.32743 26.6823 0.825073 25.0647 0.482487 23.41 C0.124528 21.7454 0 20.039 0.112487 18.34 C0.216306 16.718 0.644775 15.1333 1.37249 13.68 C2.16544 12.1578 3.3671 10.8869 4.84249 10.01 C6.02575 9.30762 7.25523 8.68619 8.52249 8.15 C10.0225 7.48333 11.5658 6.81667 13.1525 6.15 C14.7392 5.48333 16.2592 4.81667 17.7125 4.15 C18.9545 3.59778 20.1207 2.88868 21.1825 2.04 C21.5344 1.75943 21.909 1.50857 22.3025 1.29 C22.7758 1.01667 23.2392 0.766667 23.6925 0.54 C24.0448 0.356108 24.409 0.195757 24.7825 0.06 C25.0125 0 25.0825 0.04 24.9425 0.22 Z M4.60249 27.71 C4.96915 26.9833 5.30249 26.28 5.60249 25.6 C5.78249 25.24 5.94249 24.89 6.08249 24.55 C6.22249 24.21 6.37249 23.86 6.56249 23.5 C6.65249 23.32 6.74249 23.15 6.83249 22.99 C6.92249 22.83 7.01249 22.66 7.10249 22.48 C7.14579 22.2979 7.23933 22.1316 7.37249 22 L7.51249 21.73 L7.64249 21.46 L7.95249 21.02 L8.26249 20.58 C8.34889 20.4025 8.46374 20.2404 8.60249 20.1 C8.72812 19.974 8.84193 19.8368 8.94249 19.69 C9.92639 18.522 10.996 17.4289 12.1425 16.42 L13.9125 14.92 C14.4992 14.42 15.0892 13.8967 15.6825 13.35 C14.9391 13.665 14.2175 14.0291 13.5225 14.44 C12.9358 14.8067 12.2692 15.2367 11.5225 15.73 C10.1879 16.6121 8.99446 17.691 7.98249 18.93 L7.60249 19.41 L7.23249 19.89 C7.14544 20.0673 7.04516 20.2378 6.93249 20.4 C6.80599 20.58 6.70189 20.7748 6.62249 20.98 L6.48249 21.25 L6.34249 21.52 C6.29969 21.6062 6.26617 21.6967 6.24249 21.79 C6.21078 21.8935 6.1521 21.9867 6.07249 22.06 C5.98966 22.2232 5.92268 22.394 5.87249 22.57 C5.87249 22.73 5.75249 22.92 5.66249 23.15 C5.57249 23.38 5.40249 23.89 5.29249 24.27 C5.18249 24.65 5.07249 25.03 4.98249 25.39 C4.89231 25.7828 4.82222 26.18 4.77249 26.58 C4.74105 26.96 4.68426 27.3375 4.60249 27.71 L4.60249 27.71 Z" transform="translate(7, 0)"/>
 </g>
</svg>
