<?xml version="1.0" encoding="UTF-8"?>
<svg width="38pt" version="1.1" xmlns="http://www.w3.org/2000/svg" height="38pt" viewBox="0 0 38 38" xmlns:xlink="http://www.w3.org/1999/xlink">
 <defs>
  <clipPath id="Clip0">
   <path d="M0 0 L34.74 0 L34.74 34.75 L0 34.75 L0 0 Z" transform="translate(2, 0)"/>
  </clipPath>
 </defs>
 <g id="Background">
  <g id="rss" clip-path="url(#Clip0)">
   <path style="fill:none;stroke:#bfd5ad; stroke-width:3; stroke-linecap:butt; stroke-linejoin:miter; stroke-dasharray:none;" d="M4.53001 1.13687e-13 L27.2 1.13687e-13 C29.7074 0 31.74 2.03263 31.74 4.54 L31.74 27.22 C31.74 29.7218 29.7119 31.75 27.21 31.75 L4.53001 31.75 C2.02816 31.75 6.07298e-06 29.7218 6.07298e-06 27.22 L6.07298e-06 4.54 C0 2.03653 2.02654 0.00551426 4.53001 0 L4.53001 1.13687e-13 Z" transform="translate(3.5, 1.5)"/>
   <path style="fill:#5d9731; fill-rule:evenodd;stroke:none;" d="M6.82 3.41 C6.82 5.29336 5.29336 6.82 3.41 6.82 C1.52671 6.82 0 5.29336 0 3.41 C0 1.52671 1.52671 0 3.41 0 C5.29336 0 6.82 1.52671 6.82 3.41 Z" transform="translate(7.67001, 22.26)"/>
   <path style="fill:#5d9731; fill-rule:evenodd;stroke:none;" d="M13.63 15.63 C12.5254 15.63 11.63 14.7346 11.63 13.63 C11.6081 8.3206 7.3094 4.02192 2 4 C0.895431 4 0 3.10457 0 2 C0 0.895431 0.895431 0 2 0 C9.51918 0.010999 15.6135 6.10083 15.63 13.62 C15.6327 14.1522 15.4231 14.6634 15.0478 15.0407 C14.6724 15.4179 14.1622 15.63 13.63 15.63 Z" transform="translate(7.67001, 13.45)"/>
   <path style="fill:#5d9731; fill-rule:evenodd;stroke:none;" d="M21.42 23.42 C20.3154 23.42 19.42 22.5246 19.42 21.42 C19.3871 11.8129 11.6071 4.03292 2 4 C0.895431 4 0 3.10457 0 2 C0 0.895431 0.895431 0 2 0 C13.8137 0.0165098 23.388 9.58634 23.41 21.4 C23.4153 21.9322 23.2083 22.4445 22.8349 22.8236 C22.4614 23.2027 21.9522 23.4174 21.42 23.42 Z" transform="translate(7.66001, 5.66)"/>
  </g>
 </g>
</svg>
