<?xml version="1.0" encoding="UTF-8"?>
<svg width="40pt" version="1.1" xmlns="http://www.w3.org/2000/svg" height="38pt" viewBox="0 0 40 38" xmlns:xlink="http://www.w3.org/1999/xlink">
 <defs>
  <clipPath id="Clip0">
   <path d="M0 0 L38.25 0 L38.25 29.03 L0 29.03 L0 0 Z" transform="translate(2, 0)"/>
  </clipPath>
 </defs>
 <g id="Background">
  <g id="states" clip-path="url(#Clip0)">
   <path style="fill:#5d9731; fill-rule:evenodd;stroke:none;" d="M33.51 4.36 L33.51 4.44 L33.51 4.44 L33.43 4.38 L33.23 4.55 L33.01 4.81 L33.01 4.81 L33.01 4.91 L32.95 4.91 L32.74 5.12 L32.74 5.12 L32.74 5.21 L32.8 5.21 L32.86 5.21 L32.86 5.21 L32.86 5.29 L32.91 5.37 L32.91 5.49 L32.77 5.56 L32.57 5.77 L32.41 5.82 L32.07 5.92 L31.95 5.92 L31.57 5.92 L31.38 5.92 L31.16 6 L30.98 6.05 L30.87 6.17 L30.87 6.24 L31.12 6.42 L31.18 6.5 L31.18 6.56 L31.18 6.56 L31.18 6.71 L30.89 6.98 L30.79 7.06 L30.63 7.22 L30.63 7.33 L30.63 7.39 L30.57 7.39 L30.49 7.39 L30.43 7.09 L30.07 7.42 L29.92 7.59 L29.86 7.68 L29.65 7.61 L29.58 7.35 L29.42 7.35 L29.35 7.29 L29.19 7.35 L29.12 7.35 L28.99 7.68 L28.99 7.87 L29.07 7.87 L29.07 7.87 L28.98 7.87 L28.98 7.94 L28.67 7.94 L28.45 7.88 L28.71 7.88 L28.81 7.88 L28.81 7.88 L28.61 7.88 L28.61 7.67 L28.61 7.61 L28.61 7.46 L29.11 7.34 L29.67 7.25 L29.67 7.14 L29.21 7.14 L28.99 7.07 L28.99 7.02 L28.99 7.02 L28.99 6.97 L28.99 6.97 L28.99 7.26 L28.99 7.14 L28.99 6.98 L28.93 6.87 L28.93 6.65 L28.72 6.13 L28.51 6.06 L28.45 6.11 L28.35 6.46 L28.11 7.06 L28.11 7.06 L28.11 6.8 L28 6.63 L28 6.54 L28 6.42 L28 6.26 L28 6.2 L28.27 6.11 L28.44 6.05 L28.44 6 L28.17 5.96 L28.55 5.96 L28.94 5.85 L28.94 5.62 L28.5 5.5 L28.26 5.44 L28.09 5.35 L28.01 5.35 L28.01 5.26 L28.08 5.26 L28.08 5.26 L27.98 5.08 L27.9 5.08 L27.67 5 L27.49 5 L27.42 4.93 L27.29 4.93 L27.17 4.93 L27.06 4.85 L27.06 4.91 L26.98 4.91 L26.91 5.03 L26.91 5.28 L26.91 5.28 L26.86 5.36 L26.86 5.44 L26.86 5.64 L26.81 5.74 L26.73 5.74 L26.73 5.66 L26.73 5.56 L26.73 5.47 L26.73 5.26 L26.47 5.26 L26.47 5.33 L26.47 5.56 L26.47 5.73 L26.54 5.73 L26.68 5.73 L26.99 5.66 L26.99 5.71 L26.54 5.77 L26.47 5.77 L26.47 5.77 L26.41 5.77 L26.47 5.77 L26.47 5.77 L26.33 5.77 L26.33 5.92 L26.26 6.08 L26.26 6.19 L26.26 6.31 L26.33 6.38 L26.33 6.46 L26.27 6.66 L26.17 6.78 L26.17 6.89 L26.59 7.16 L26.97 7.39 L26.97 7.65 L26.67 7.65 L26.51 7.86 L26.41 8 L26.3 8.14 L26.18 8.41 L26.07 8.5 L26.07 8.5 L25.96 8.5 L25.89 8.5 L25.77 8.5 L25.66 8.42 L25.66 8.42 L25.66 8.36 L25.66 8.16 L25.66 8.09 L25.44 8.04 L25.21 7.91 L25.21 7.75 L25.36 7.64 L25.46 7.64 L25.46 7.64 L25.51 7.64 L25.42 7.41 L25.42 7.06 L25.35 6.83 L25.23 6.83 L25.23 6.6 L25.36 6.47 L25.26 6.47 L25.26 6.38 L25.26 6.1 L25.26 6.1 L25.26 5.98 L25.34 5.79 L25.47 5.65 L25.07 5.65 L24.94 5.65 L24.94 5.55 L25.18 5.4 L25.29 5.32 L25.38 5.18 L25.46 5.06 L25.46 4.93 L25.46 4.93 L25.46 5.03 L25.46 5.1 L25.46 5.24 L25.46 5.33 L25.46 5.33 L25.54 5.27 L25.54 5.27 L25.7 5.04 L25.7 4.95 L25.7 4.85 L25.79 4.85 L26.17 4.85 L26.17 4.77 L26.24 4.68 L26.24 4.68 L26.4 4.62 L26.46 4.68 L26.51 4.68 L26.76 4.68 L26.86 4.75 L26.86 4.75 L26.86 4.66 L26.86 4.66 L26.96 4.66 L27.12 4.66 L27.17 4.66 L27.24 4.66 L27.33 4.66 L27.48 4.66 L27.35 4.66 L27.2 4.56 L27.15 4.47 L27.08 4.32 L27 4.26 L26.81 4.26 L26.81 4.26 L26.87 4.26 L26.81 4.26 L26.81 4.26 L26.81 4.12 L26.81 4.12 L26.74 4.04 L26.66 4.04 L26.56 4.04 L26.4 4.12 L25.81 4.27 L25.63 4.41 L25.56 4.47 L25.48 4.47 L25.48 4.06 L25.28 4.06 L25.13 4.25 L24.93 4.11 L24.67 4.01 L24.62 4.06 L24.43 4.06 L24.43 4.18 L24.43 4.12 L24.43 4 L24.43 4 L24.5 3.94 L24.64 3.79 L24.64 3.71 L24.64 3.71 L24.75 3.64 L24.75 3.64 L24.54 3.64 L24.43 3.71 L24.25 3.9 L24.2 3.9 L23.98 4.12 L23.82 4.22 L23.57 4.3 L23.51 4.3 L23.51 4.37 L23.36 4.45 L23.31 4.45 L23.18 4.45 L23.1 4.28 L23.03 4.03 L22.96 4.03 L22.85 4.14 L22.85 4.24 L22.76 4.17 L22.49 4.31 L22.32 4.41 L22.17 4.41 L22.1 4.41 L22.55 4.02 L22.85 3.68 L22.95 3.61 L23.17 3.26 L23.26 3.17 L23.34 3.17 L23.46 3.17 L23.56 3.17 L23.56 3.17 L23.47 3.04 L23.41 2.8 L23.36 2.6 L22.99 2.6 L22.94 2.69 L22.94 2.75 L22.7 3.07 L22.6 3.26 L22.51 3.26 L22.44 3.09 L22.44 2.98 L22.31 2.91 L22.26 2.81 L22.19 2.81 L22.19 2.81 L22.12 2.89 L22.06 2.89 L22.06 2.72 L22.06 2.64 L21.95 2.64 L21.77 2.59 L21.63 2.59 L21.72 2.59 L21.85 2.59 L21.85 2.59 L21.72 2.59 L21.53 2.59 L21.09 2.59 L21 2.54 L20.82 2.54 L20.68 2.44 L20.68 2.31 L20.68 2.17 L20.68 1.98 L20.56 1.98 L19.17 1.98 L17.1 2.07 L14.96 2 L14.96 2 L12.02 1.76 L10.13 1.44 L8.29 1.13 L7.6 1.01 L7.03 0.86 L6.9 1.28 L5.5 0.74 L4.82 0.39 L4.1 0 L4.1 0.16 L3.87 0.24 L3.81 0.24 L3.76 0.36 L3.67 0.48 L3.6 0.48 L3.6 0.48 L3.69 0.74 L3.74 0.93 L3.74 0.93 L3.66 1.01 L3.66 1.01 L3.77 1.06 L4.13 1.16 L4.13 1.24 L3.79 1.24 L3.17 1.26 L3.17 1.34 L3.17 1.39 L3.17 1.39 L3.17 1.26 L3.23 1.26 L3.23 1.16 L3.23 1.16 L3.16 1.11 L3.1 0.88 L3.05 0.77 L2.97 0.71 L2.88 0.71 L2.77 0.71 L2.6 0.71 L2.39 0.61 L2.39 0.68 L2.19 0.94 L2.03 1.01 L2.2 1.22 L2.4 1.3 L2.4 1.63 L2.4 1.63 L2.25 1.7 L2.06 1.7 L2.4 1.7 L2.4 1.84 L2.19 1.84 L2.33 1.89 L2.4 1.94 L1.84 1.94 L1.84 2 L1.84 2 L1.92 2 L2.13 1.92 L2.37 1.92 L2.37 2.13 L1.94 2.13 L1.94 2.21 L2.33 2.21 L2.33 2.21 L2.17 2.26 L1.96 2.4 L1.75 2.81 L1.6 3.12 L1.46 3.35 L1.27 3.85 L1.12 4.13 L1.04 4.34 L0.86 4.54 L0.86 4.54 L0.86 4.68 L0.86 4.68 L0.86 4.77 L0.86 4.83 L0.8 4.83 L0.8 4.9 L0.8 5.26 L0.73 5.41 L0.73 5.49 L0.73 5.59 L0.78 5.78 L0.78 5.78 L0.78 5.84 L0.72 5.96 L0.78 6.08 L0.78 6.33 L0.73 6.45 L0.73 6.45 L0.73 6.57 L0.73 6.62 L0.32 6.9 L0.07 7.07 L0.07 7.26 L0.14 7.26 L0.19 7.38 L0.19 7.46 L0.11 7.46 L0.02 7.53 L0.02 7.58 L0.25 7.77 L0.33 7.96 L0.33 8.01 L0.16 8.11 L0 8.31 L0 8.39 L0.15 8.47 L0.15 8.57 L0.29 8.85 L0.44 8.97 L0.66 9.12 L0.66 9.47 L0.54 9.57 L0.62 9.57 L0.71 9.73 L0.71 9.73 L0.71 9.62 L0.71 9.62 L0.71 9.71 L0.71 9.71 L0.71 9.66 L0.78 9.58 L0.78 9.58 L0.78 9.81 L0.84 9.98 L0.84 10.05 L0.84 10.05 L0.73 9.97 L0.73 9.97 L0.73 9.71 L0.73 9.71 L0.73 9.86 L0.73 9.92 L0.73 10.01 L0.73 10.09 L0.73 10.39 L0.78 10.5 L0.91 10.61 L1.02 10.66 L1.08 10.72 L1.08 10.87 L1 10.93 L1 10.93 L1 11 L1 11.25 L1.17 11.49 L1.17 11.58 L1.17 11.67 L1.17 11.78 L1.17 12.26 L1.26 12.62 L1.26 12.69 L1.26 12.69 L1.26 12.78 L1.26 12.78 L1.26 12.87 L1.26 13.03 L1.26 13.1 L1.26 13.18 L1.33 13.43 L1.48 13.68 L1.59 13.68 L1.92 13.68 L2.04 13.63 L2.15 13.63 L2.23 13.82 L2.36 13.93 L2.47 13.93 L2.92 13.93 L3.24 14 L3.24 14.05 L3 14.1 L2.83 14.19 L2.77 14.26 L2.88 14.26 L3.06 14.42 L3.13 14.54 L3.49 14.64 L3.91 14.95 L3.91 15.27 L3.4 15.58 L3.4 15.58 L5.19 15.74 L5.12 15.94 L7.83 17.5 L9.4 17.74 L9.4 17.74 L10.07 17.82 L10.13 17.4 L11.4 17.56 L11.55 17.65 L11.55 17.76 L11.62 17.88 L11.77 17.98 L12.19 18.49 L12.55 18.77 L12.55 18.83 L12.55 18.9 L12.55 18.98 L12.55 18.98 L12.64 19.11 L12.64 19.4 L12.64 19.51 L12.76 19.71 L13.3 20.1 L13.68 20.33 L13.77 20.33 L13.84 20.33 L13.94 20.22 L13.99 20.22 L14.15 19.84 L14.23 19.73 L14.28 19.93 L14.4 20.18 L14.4 20.18 L14.4 19.9 L14.4 19.75 L14.46 19.75 L14.74 19.75 L14.74 19.75 L14.89 19.75 L14.96 19.75 L15.12 19.95 L15.12 20.15 L15.12 20.15 L15.12 20.08 L15.12 20.08 L15.19 20.08 L15.3 20.2 L15.45 20.33 L15.53 20.45 L15.53 20.5 L15.77 21.08 L15.77 21.18 L16.04 21.49 L16.04 21.56 L16.22 21.75 L16.27 21.75 L16.35 21.83 L16.35 22.26 L16.4 22.33 L16.4 22.56 L16.47 22.63 L16.64 22.98 L16.64 23.09 L16.76 23.09 L16.91 23.18 L17.07 23.23 L17.33 23.39 L17.69 23.39 L17.75 23.39 L17.94 23.51 L18.04 23.51 L18.14 23.4 L18.36 23.4 L18.52 23.4 L18.52 23.4 L18.29 23.4 L18.23 23.4 L18.11 23.3 L17.99 22.87 L18.19 22.69 L18.53 22.43 L18.53 22.35 L17.97 22.28 L17.92 22.28 L18.06 22.2 L18.14 21.97 L18.09 21.97 L18.09 21.86 L18.15 21.79 L18.23 21.85 L18.37 21.75 L18.37 21.62 L18.32 21.32 L18.32 21 L19.17 21 L19.52 21.14 L19.71 21.31 L19.71 21.31 L19.71 21.24 L19.71 21.24 L19.71 21.18 L19.71 21.18 L19.89 21.18 L20.02 21.18 L20.49 20.89 L20.49 20.77 L20.71 20.6 L20.71 20.6 L20.61 20.46 L20.61 20.35 L20.76 20.28 L20.76 20.28 L20.76 20.39 L20.76 20.39 L20.93 20.39 L20.93 20.39 L21.27 20.24 L21.46 20.24 L21.46 20.24 L22.02 20.16 L22.25 20.24 L22.67 20.32 L22.94 20.32 L22.86 20.45 L23.01 20.54 L23.07 20.54 L23.07 20.37 L23.07 20.37 L22.99 20.28 L22.99 20.28 L23.06 20.28 L23.16 20.33 L23.08 20.33 L23.08 20.39 L23.17 20.26 L23.17 20.26 L23.17 20.19 L23.28 20.19 L23.4 20.19 L23.59 20.43 L23.71 20.43 L23.71 20.43 L23.85 20.43 L23.96 20.32 L23.96 20.32 L24.04 20.32 L24.04 20.32 L24.1 20.44 L24.35 20.44 L24.67 20.36 L24.67 20.36 L24.44 20.36 L24.39 20.2 L24.39 20.2 L24.39 20.28 L24.62 20.37 L24.74 20.37 L24.74 20.55 L24.95 20.47 L25 20.47 L25 20.42 L25 20.36 L24.73 20.25 L24.61 20.15 L24.61 20 L24.69 19.92 L24.77 19.76 L24.84 19.76 L24.84 19.69 L24.84 19.69 L24.78 19.69 L24.67 19.69 L24.67 19.69 L24.62 19.69 L24.57 19.79 L24.57 19.79 L24.52 19.79 L24.47 19.79 L24.47 19.79 L24.4 19.79 L24.35 19.79 L24.25 19.79 L24.1 19.79 L24.02 19.79 L23.97 19.72 L23.97 19.65 L24.1 19.53 L24.15 19.53 L24.15 19.53 L24.34 19.72 L24.48 19.81 L24.56 19.81 L24.68 19.81 L24.68 19.89 L24.68 19.89 L24.81 19.7 L25.16 19.54 L25.24 19.54 L25.37 19.48 L25.37 19.48 L25.45 19.48 L25.45 19.48 L25.58 19.48 L25.58 19.43 L25.58 19.23 L25.63 19.09 L25.7 19.23 L25.7 19.28 L25.75 19.28 L25.98 19.28 L26.06 19.28 L26.26 19.19 L26.47 19.02 L26.47 19.02 L26.26 19.18 L26.02 19.28 L26.02 19.28 L27.14 19.28 L27 19.33 L27.14 19.33 L27.29 19.39 L27.6 19.47 L27.79 19.47 L27.79 19.47 L28.07 19.47 L28.07 19.47 L28.2 19.47 L28.2 19.47 L28.48 19.47 L28.79 19.47 L28.88 19.21 L29.52 19.21 L29.52 19.43 L29.69 19.52 L29.69 19.57 L29.78 19.65 L29.86 19.77 L30.09 19.93 L30.09 20.23 L30.17 20.26 L30.35 20.26 L30.49 20.26 L30.49 20.19 L30.49 20.19 L30.49 20.35 L30.49 20.55 L30.44 20.79 L30.44 20.99 L30.44 21.05 L30.57 21.13 L30.57 21.05 L30.57 21.05 L30.57 20.93 L30.57 20.93 L30.65 20.93 L30.7 21.07 L30.7 21.07 L30.7 21.02 L30.7 21.02 L30.7 21.07 L30.7 21.14 L30.7 21.2 L30.39 21.36 L30.17 21.36 L30.17 21.44 L30.49 21.49 L30.7 21.56 L30.89 21.7 L31.15 21.7 L31.25 21.7 L31.25 21.92 L31.25 22.04 L31.32 22.22 L31.4 22.27 L31.48 22.27 L31.63 22.66 L31.63 22.66 L31.82 22.66 L31.9 22.66 L32.12 22.93 L32.21 23 L32.21 23 L32.21 23.19 L32.21 23.19 L32.28 23.19 L32.37 23.19 L32.7 23.07 L32.77 22.95 L32.77 22.95 L32.68 22.79 L32.68 22.69 L32.79 22.54 L32.88 22.54 L32.81 22.23 L32.81 22.07 L32.81 21.77 L32.76 21.53 L32.71 21.45 L32.49 21.15 L32.27 20.82 L32.01 20.59 L32.01 20.59 L32.01 20.45 L32.01 20.27 L31.86 19.97 L31.78 19.83 L31.72 19.78 L31.72 19.78 L31.58 19.59 L31.39 19.24 L31.39 19.03 L31.39 18.73 L31.39 18.73 L31.26 18.73 L31.19 18.73 L31.19 18.51 L31.19 18.44 L31.01 18.29 L30.81 18.21 L30.81 18.1 L30.99 18.03 L31.18 17.7 L31.23 17.57 L31.31 17.44 L31.38 17.3 L31.46 17.24 L31.46 17.24 L31.46 17.17 L31.53 17.1 L31.53 16.86 L31.53 16.61 L31.53 16.61 L31.6 16.73 L31.84 16.73 L32.07 16.81 L32.07 16.74 L31.92 16.74 L31.92 16.74 L31.92 16.68 L31.99 16.63 L32.05 16.56 L32.12 16.45 L32.24 16.37 L32.24 16.3 L32.29 16.22 L32.34 16.17 L32.34 16.17 L32.39 16.17 L32.19 16.17 L31.99 16.17 L31.99 16.07 L32.21 15.97 L32.36 15.86 L32.46 15.79 L32.61 15.6 L32.69 15.5 L32.78 15.45 L32.78 15.45 L33.08 15.4 L33.16 15.4 L33.16 15.34 L33.21 15.14 L33.28 14.95 L33.54 14.85 L34.17 14.26 L34.17 14.26 L34.04 14.26 L34.04 14.05 L34.17 14.05 L34.17 14.05 L34.28 14.05 L34.4 13.91 L34.4 13.85 L34.3 13.85 L34.17 13.85 L33.91 13.85 L33.91 13.85 L34.17 13.85 L34.17 13.85 L34.17 13.68 L34.17 13.85 L34.26 13.73 L34.26 13.73 L34.26 13.79 L34.26 13.88 L34.46 13.72 L34.46 13.72 L34.52 13.57 L34.68 13.57 L34.84 13.44 L34.84 13.44 L34.72 13.54 L35 13.54 L35.51 13.42 L35.51 13.42 L35.11 13.36 L34.99 13.29 L34.9 13.29 L34.85 13.29 L34.85 13.37 L34.71 13.37 L34.71 13.28 L34.71 13.28 L34.79 13.28 L34.79 13.12 L34.57 13.12 L34.57 13.34 L34.57 13.39 L34.57 13.39 L34.57 13.34 L34.57 13.34 L34.57 13.43 L34.57 13.53 L34.57 13.53 L34.57 13.43 L34.57 13.31 L34.57 13.31 L34.57 13.21 L34.48 13.21 L34.38 13.21 L34.38 13.15 L34.57 13.15 L34.65 13.15 L34.65 13.15 L34.65 13.07 L34.65 12.98 L34.65 12.9 L34.65 12.9 L34.65 13.02 L34.65 13.02 L34.65 12.94 L34.65 12.94 L34.65 12.89 L34.57 12.58 L34.57 12.53 L34.46 12.53 L34.38 12.53 L34.3 12.6 L34.23 12.6 L34.3 12.55 L34.39 12.55 L34.39 12.55 L34.19 12.5 L34.19 12.5 L34.05 12.5 L34.05 12.5 L34.05 11.66 L34.05 11.66 L34.13 11.66 L34.21 11.66 L34.21 11.66 L34.98 11.54 L34.98 11.54 L34.54 11.54 L34.29 11.54 L34.2 11.54 L34.64 11.54 L34.99 11.54 L34.99 11.54 L34.56 11.46 L34.24 11.39 L34.18 11.39 L34.18 11.39 L34.56 11.27 L34.82 11.27 L35.02 11.27 L35.02 11.06 L35.27 10.99 L35.68 10.91 L35.68 10.82 L35.17 10.26 L34.94 10.26 L34.82 10.18 L34.71 10.04 L34.59 9.96 L34.45 9.87 L34.39 9.81 L34.39 9.74 L34.29 9.58 L34.29 9.5 L34.21 9.4 L34.43 9.4 L34.43 9.4 L34.58 9.32 L34.93 9.32 L34.93 9.32 L34.56 9.37 L34.42 9.37 L34.42 9.37 L34.42 9.43 L34.56 9.51 L34.56 9.51 L35.56 9.51 L35.56 9.51 L35.28 9.37 L35.14 9.26 L35.14 9.12 L35.34 9 L35.54 8.89 L35.54 8.82 L35.31 8.52 L35.18 8.27 L35.09 8.19 L34.96 8.19 L34.9 8.19 L34.9 8.19 L34.99 7.88 L35.04 7.67 L35.18 7.67 L35.18 7.8 L35.26 7.8 L35.45 7.7 L35.45 7.7 L35.25 7.64 L35.45 7.46 L35.56 7.35 L35.56 7.35 L35.74 7.27 L35.99 7.27 L35.99 7.27 L35.99 7.19 L36.11 7.19 L36.11 7.19 L35.99 7.19 L35.99 7.38 L35.99 7.38 L35.99 7.43 L35.91 7.43 L35.91 7.43 L35.91 7.37 L35.96 7.31 L36.03 7.2 L36.03 7.2 L35.98 7.25 L35.98 7.31 L35.92 7.36 L35.73 7.47 L35.52 7.56 L35.58 7.56 L35.58 7.77 L35.37 7.77 L35.2 7.68 L35.2 7.68 L35.32 7.76 L35.49 7.76 L35.56 7.69 L35.9 7.47 L36 7.42 L36.07 7.36 L36.13 7.36 L36.23 7.52 L36.35 7.52 L36.65 7.13 L36.88 6.75 L36.88 6.75 L36.88 6.59 L36.95 6.41 L37 6.23 L37 6.23 L37 6.38 L37 6.89 L37.06 6.89 L37.18 6.59 L37.29 6.45 L37.4 6.34 L37.49 6.34 L37.49 6.46 L37.41 6.46 L37.26 6.46 L37.03 6.46 L36.96 6.38 L36.91 6.31 L36.77 6.31 L36.67 6.44 L36.57 6.44 L36.57 6.22 L36.57 6.03 L36.57 5.91 L36.57 5.91 L36.62 5.84 L36.72 5.73 L36.72 5.26 L36.63 5.15 L36.63 4.85 L36.63 4.78 L36.63 4.78 L36.63 4.68 L36.81 4.52 L36.81 4.52 L36.81 4.6 L37.17 4.6 L37.43 4.6 L37.43 4.53 L37.19 4.53 L37.35 4.53 L37.43 4.47 L37.43 4.42 L37.25 4.49 L37.25 4.49 L37.17 4.49 L37.25 4.49 L37.25 4.41 L37.31 4.35 L37.39 4.21 L37.39 3.86 L37.49 3.86 L37.55 3.91 L37.55 3.91 L37.62 3.78 L37.72 3.78 L37.78 3.84 L37.89 3.66 L37.97 3.66 L38.13 3.52 L38.13 3.46 L38.13 3.46 L38.18 3.46 L38.25 3.46 L38.25 3.38 L38.25 3.31 L38.19 3.31 L38.14 3.31 L38.14 3.24 L38.14 3.24 L38.14 3.19 L38.09 3.19 L38.02 3.32 L38.02 3.32 L38.02 3.19 L37.97 3.13 L37.9 3.06 L37.83 2.81 L37.83 2.81 L37.83 2.71 L37.83 2.71 L37.73 2.71 L37.67 2.71 L37.67 2.71 L37.67 2.59 L37.67 2.59 L37.35 1.59 L37.08 1.42 L36.97 1.42 L36.97 1.42 L36.87 1.37 L36.72 1.42 L36.66 1.42 L36.61 1.42 L36.61 1.42 L36.54 1.42 L36.45 1.42 L36.22 2.22 L36.22 2.26 L36.22 2.31 L36.22 2.31 L36.22 2.38 L36.32 2.7 L36.32 2.88 L36.18 3.04 L36.18 3.09 L36.17 3.09 L36.17 3.26 L36.07 3.16 L35.97 3.16 L35.97 3.26 L35.97 3.34 L35.89 3.34 L35.83 3.4 L35.83 3.4 L35.83 3.18 L35.83 3.06 L35.77 3.06 L35.77 3.26 L35.77 3.42 L35.77 3.63 Z M26.77 18.87 L26.77 18.87 Z M34.77 12.93 L34.77 12.93 L34.7 12.93 L34.77 12.93 Z M34.28 12.88 L34.39 12.76 L34.51 12.82 L34.58 12.95 L34.24 12.95 L34.28 12.88 Z M31.78 16.45 L31.78 16.63 L31.78 16.63 L31.85 16.26 L31.85 16.26 L31.78 16.45 Z M34.38 10.29 L34.38 10.35 L34.25 10.67 L34.25 10.67 L34.25 10.6 L34.25 10.6 L34.31 10.68 L34.31 10.9 L34.31 10.9 L34.31 10.7 L34.2 10.7 L34.2 10.7 L34.2 10.94 L34.15 10.94 L34.22 10.67 L34.16 10.67 L34.01 10.56 L33.91 10.56 L33.91 10.68 L33.91 10.68 L33.91 10.95 L33.91 10.95 L33.91 10.75 L33.91 10.63 L33.91 10.53 L33.86 10.37 L33.79 10.18 L33.79 10.1 L33.79 10.01 L33.79 9.7 L33.79 9.7 L33.79 9.64 L33.93 9.55 L33.93 9.55 L33.93 9.41 L33.99 9.41 L33.99 9.41 L33.92 9.52 L33.92 9.59 L33.92 9.64 L33.92 9.72 L33.92 9.82 L33.99 9.82 L33.99 10 L33.99 10 L33.89 10.06 L33.89 10.06 L33.97 10.06 L33.97 10.06 L34.13 10.13 L34.38 10.29 Z M35.38 7.42 L35.38 7.42 L35.3 7.37 L35.46 6.72 L35.46 7.37 L35.46 7.42 L35.38 7.42 Z M36.99 6.67 L36.99 6.67 Z" transform="translate(2, 0)"/>
   <path style="fill:#5d9731; fill-rule:evenodd;stroke:none;" d="M0 0.35 L0.1 0.7 L0.1 0.86 L0.35 1.03 L0.43 0.86 L0.87 0.6 L0.7 0.27 L0.18 0 L0.18 0.27 L0 0.35 Z" transform="translate(5.75, 24.52)"/>
   <path style="fill:#5d9731; fill-rule:evenodd;stroke:none;" d="M0.18 0.35 L0.43 0.35 L0.53 0.17 L0.26 0.09 L0.18 0.09 L0.1 0 L0 0.09 L0.1 0.26 L0.18 0.35 Z" transform="translate(5.32, 23.92)"/>
   <path style="fill:#5d9731; fill-rule:evenodd;stroke:none;" d="M0 0.17 L0.35 0.17 L0.43 0 L0.09 0 L0 0.17 Z" transform="translate(4.8, 23.75)"/>
   <path style="fill:#5d9731; fill-rule:evenodd;stroke:none;" d="M0 0.17 L0.18 0.27 L0.35 0.27 L0.44 0.1 L0.27 0 L0.1 0.1 L0 0.17 Z" transform="translate(2.99, 22.97)"/>
   <path style="fill:#5d9731; fill-rule:evenodd;stroke:none;" d="M0.18 0.35 L0.43 0.35 L0.43 0.18 L0.25 0 L0 0.1 L0.18 0.35 Z" transform="translate(4.12, 23.4)"/>
   <path style="fill:#5d9731; fill-rule:evenodd;stroke:none;" d="M0.53 1.38 L0.78 1.63 L1.04 2.08 L1.38 2.16 L1.38 2.68 L0.95 2.68 L0.95 2.33 L0.88 2.33 L0 2.68 L0.27 2.93 L0.27 3.28 L0.61 3.45 L1.13 3.53 L1.47 3.28 L1.56 3.88 L1.21 3.97 L1.13 4.14 L0.95 4.22 L0.7 4.06 L0.53 4.39 L0.1 4.83 L0.35 5.26 L0.27 5.44 L0.61 5.77 L1.04 5.77 L1.21 6.04 L1.13 6.2 L1.21 6.46 L1.56 6.29 L1.91 6.64 L2.42 6.37 L2.25 6.72 L2.25 7.07 L1.56 7.59 L1.3 7.93 L1.04 7.93 L0.61 8.27 L0.18 8.35 L0 8.53 L0.18 8.62 L1.04 8.27 L1.56 8.02 L2.59 7.32 L3.36 6.46 L3.45 6.29 L3.2 6.29 L3.97 5.17 L4.14 5.09 L4.14 5.26 L3.89 5.44 L3.79 5.94 L3.97 5.87 L3.79 6.04 L3.89 6.12 L4.41 5.77 L4.67 5.69 L4.74 5.44 L4.67 5.26 L5.17 5.17 L5.78 5.52 L6.3 5.34 L6.55 5.44 L6.9 5.44 L7.85 5.87 L8.03 6.04 L8.28 6.37 L8.79 6.72 L8.97 6.89 L9.58 7.24 L10.17 6.98 L10.17 6.64 L10.01 6.29 L9.74 6.2 L9.48 6.2 L9.13 5.94 L8.79 5.69 L8.1 5 L7.93 5.09 L7.76 5.34 L7.58 5.52 L6.98 5.17 L6.98 5 L6.47 5.17 L6.3 4.31 L5.87 2.41 L5.52 1.12 L5.34 0.52 L4.84 0.27 L4.57 0.43 L3.72 0.27 L3.45 0.35 L3.2 0.27 L3.2 0.18 L2.42 0 L2.33 0.18 L1.91 0.18 L1.56 0.43 L1.3 0.7 L1.21 0.95 L1.04 1.12 L0.7 1.12 L0.53 1.38 Z" transform="translate(8.41, 19.95)"/>
   <path style="fill:#5d9731; fill-rule:evenodd;stroke:none;" d="M0.12 0.11 C0.126155 0.0939017 0.126155 0.0760983 0.12 0.06 C0.12 0.06 0.01 0.06 0 0.06 C0.00488269 0.092034 0.0225131 0.120732 0.0488813 0.139566 C0.0752495 0.158401 0.108114 0.165771 0.14 0.16 C0.19 0.16 0.25 0.08 0.21 0.04 C0.17 0 0.21 0.04 0.12 0.12 " transform="translate(8.05, 28.5)"/>
   <path style="fill:#5d9731; fill-rule:evenodd;stroke:none;" d="M0.42 0.07 C0.330414 0.0577941 0.239586 0.0577941 0.15 0.07 C0.120793 0.10085 0.120793 0.14915 0.15 0.18 C0.136834 0.166562 0.118813 0.15899 0.1 0.15899 C0.0811872 0.15899 0.0631662 0.166562 0.05 0.18 C0.0484277 0.203307 0.0484277 0.226693 0.05 0.25 C0.030496 0.263565 0.0135647 0.280496 8.52651e-14 0.3 L0 0.3 C0.026287 0.306364 0.053713 0.306364 0.08 0.3 C0.13 0.25 0.2 0.22 0.25 0.18 C0.289267 0.161739 0.323565 0.1343 0.35 0.1 L0.43 0.1 C0.43 0.1 0.43 0.1 0.43 0.05 C0.43 0 0.43 0.05 0.43 0.05 L0.43 0.05 L0.42 0.07 Z" transform="translate(7.57, 28.57)"/>
   <path style="fill:#5d9731; fill-rule:evenodd;stroke:none;" d="M0.41 0.122223 C0.41 0.122223 0.47 0.0322229 0.41 0.0122229 C0.331543 0 0.254344 0.0406307 0.22 0.112223 C0.20925 0.134318 0.20925 0.160128 0.22 0.182223 L0.17 0.182223 C0.154127 0.189498 0.135873 0.189498 0.12 0.182223 C0.0937298 0.194339 0.0699812 0.211302 0.05 0.232223 C0.05 0.232223 0 0.232223 0.05 0.232223 C0.146888 0.214431 0.180657 0.190793 0.21 0.162223 C0.262148 0.148079 0.312483 0.127945 0.36 0.102223 C0.36 0.102223 0.41 0.0422229 0.45 0.0322229 L0.45 0.0322229 L0.41 0.122223 Z" transform="translate(7.07, 28.7978)"/>
  </g>
 </g>
</svg>
