<?xml version="1.0" encoding="UTF-8"?>
<svg width="38pt" version="1.1" xmlns="http://www.w3.org/2000/svg" height="40pt" viewBox="0 0 38 40" xmlns:xlink="http://www.w3.org/1999/xlink">
 <defs>
  <clipPath id="Clip0">
   <path d="M0 0 L36.0951 0 L36.0951 39.3565 L0 39.3565 L0 0 Z" transform="translate(0, 0)"/>
  </clipPath>
 </defs>
 <g id="Background">
  <g id="teachers" clip-path="url(#Clip0)">
   <path style="fill:#5d9731; fill-rule:evenodd;stroke:none;" d="M1.61 6.34516 C1.49191 5.0559 1.25422 3.78041 0.9 2.53516 C0.42 1.14516 0 0.535159 0.19 0.245159 C0.725254 0 1.3567 0.115898 1.77 0.535159 C1.80253 0.934498 1.80253 1.33582 1.77 1.73516 C1.83 2.05516 2.48 6.22516 2.48 6.54516 C2.48 6.86516 1.61 6.34516 1.61 6.34516 Z" transform="translate(17.59, 1.95484)"/>
   <path style="fill:#bfd5ad; fill-rule:evenodd;stroke:none;" d="M7.47 28.29 C8.78801 30.1998 10.7117 31.6091 12.93 32.29 C13.3797 32.4303 13.849 32.4978 14.32 32.49 C15.4 32.42 18.15 32.29 19.83 32.36 C20.2167 32.3655 20.6019 32.4091 20.98 32.49 C21.9339 32.6765 22.9188 32.6284 23.85 32.35 C24.4137 32.202 24.9368 31.9285 25.38 31.55 C26.4623 30.4107 27.4805 29.2121 28.43 27.96 C30.0668 25.9215 31.5668 23.7768 32.92 21.54 C33.3369 20.8582 33.6725 20.1299 33.92 19.37 C34.6651 15.7619 34.4549 12.0218 33.31 8.52 C33.13 7.98 32.92 7.45 32.69 6.92 C32.55 6.6 32.39 6.29 32.23 5.98 C30.6149 3.1831 27.9273 1.16739 24.79 0.4 C22.4 0.02 19.89 1.65 17.7 1.61 C14.33 1.61 11.8 0 9.16 0.61 C6.52 1.22 4.43 4.01 3.56 5.71 C3.38 6.02333 3.21 6.35667 3.05 6.71 C2.89 7.06333 2.74333 7.39667 2.61 7.71 C2.52 7.94 2.43 8.17 2.34 8.4 C0 14.76 2.08 19.4 4.26 23.08 C5.16 24.59 6.09 25.92 6.73 27.08 C6.95156 27.4982 7.19869 27.9023 7.47 28.29 Z" transform="translate(1.43, 6.68)"/>
   <path style="fill:#5d9731; fill-rule:evenodd;stroke:none;" d="M3.56 9.01 C4.59183 9.46022 5.68297 9.75994 6.8 9.9 C8.97746 10.0217 11.1482 9.56268 13.09 8.57 C14.56 7.91 15.73 7.22 16.26 6.99 C16.3443 6.94696 16.4358 6.91984 16.53 6.91 C17.4214 7.27292 18.2755 7.7217 19.08 8.25 C19.53 7.44 18.7 6.69 17.82 6.25 C17.3525 5.98648 16.8558 5.7784 16.34 5.63 L16.17 5.63 C15.78 5.51 15.7 4.63 13.91 2.26 C13.7995 2.1153 13.6792 1.97831 13.55 1.85 C11.86 0.16 8.64 0 6.55 0.12 C6.05 0.12 5.63 0.2 5.3 0.25 C4 0.44 1.73 1.94 0.64 2.71 L0 3.17 C0.297281 4.39903 0.772284 5.57812 1.41 6.67 L1.51 6.83 C1.73502 7.17882 1.98219 7.51284 2.25 7.83 C2.65439 8.25775 3.09246 8.65235 3.56 9.01 L3.56 9.01 Z" transform="translate(0, 0)"/>
  </g>
 </g>
</svg>
