<?xml version="1.0" encoding="UTF-8"?>
<svg width="30pt" version="1.1" xmlns="http://www.w3.org/2000/svg" height="30pt" viewBox="0 0 30 30" xmlns:xlink="http://www.w3.org/1999/xlink">
 <defs/>
 <g id="Background">
  <path style="fill:#0097d7; fill-rule:evenodd;stroke:none;" id=" twitter" d="M30 28.29 C29.9945 29.2321 29.2321 29.9945 28.29 30 L1.71 30 C0.767865 29.9945 0.00546179 29.2321 1.13687e-13 28.29 L0 1.71 C0.00546179 0.767865 0.767865 0.00546179 1.71 0 L28.28 0 C29.2221 0.00546179 29.9845 0.767865 29.99 1.71 L29.99 28.28 L30 28.29 Z M26.33 8.19 C25.5196 8.54915 24.6601 8.78509 23.78 8.89 C24.7047 8.33585 25.3975 7.4655 25.73 6.44 C24.8617 6.95748 23.9114 7.32274 22.92 7.52 C21.6774 6.20236 19.7591 5.77149 18.0724 6.43121 C16.3858 7.09093 15.2688 8.70899 15.25 10.52 C15.2491 10.8564 15.286 11.1918 15.36 11.52 C11.7941 11.3447 8.47089 9.66131 6.22 6.89 C5.04338 8.91574 5.64307 11.5071 7.59 12.81 C6.8882 12.7856 6.20243 12.5936 5.59 12.25 L5.59 12.31 C5.58605 14.4205 7.07154 16.2408 9.14 16.66 C8.48806 16.8382 7.80409 16.8656 7.14 16.74 C7.72056 18.5455 9.38382 19.7829 11.28 19.82 C9.70865 21.0538 7.76786 21.7231 5.77 21.72 C5.41578 21.7214 5.0618 21.7014 4.71 21.66 C8.5978 24.1547 13.5385 24.324 17.5879 22.1012 C21.6373 19.8784 24.1472 15.6193 24.13 11 C24.13 10.81 24.13 10.62 24.13 10.43 C24.9898 9.81502 25.7345 9.05338 26.33 8.18 L26.33 8.19 Z" transform="translate(0, 0)"/>
 </g>
</svg>
