<?xml version="1.0" encoding="UTF-8"?>
<svg width="38pt" version="1.1" xmlns="http://www.w3.org/2000/svg" height="38pt" viewBox="0 0 38 38" xmlns:xlink="http://www.w3.org/1999/xlink">
 <defs>
  <clipPath id="Clip0">
   <path d="M0 0 L30 0 L30 30 L0 30 L0 0 Z" transform="translate(4, 0)"/>
  </clipPath>
 </defs>
 <g id="Background">
  <g id="upcoming" clip-path="url(#Clip0)">
   <path style="fill:#5d9731; fill-rule:evenodd;stroke:none;" d="M1.96 0 L28.04 0 C29.1225 0 30 0.877522 30 1.96 L30 28.04 C30 29.1225 29.1225 30 28.04 30 L1.96 30 C0.877522 30 0 29.1225 0 28.04 L0 1.96 C0 0.877522 0.877522 0 1.96 0 Z" transform="translate(4, 0)"/>
   <path style="fill:#5d9731; fill-rule:evenodd;stroke:none;" d="M0 0 L0.98 0 L3.4 3.53 L3.4 0 L4.36 0 L4.36 5.4 L3.5 5.4 L0.96 1.68 L0.96 5.4 L0 5.4 L0 0 Z" transform="translate(22.64, 2.82)"/>
   <path style="fill:#5d9731; fill-rule:evenodd;stroke:none;" d="M2.03 0 L3.13 0 L5.11 5.28 L4.07 5.47 L3.56 4.05 L1.51 4.05 L1.04 5.42 L0 5.42 L2.03 0 Z" transform="translate(15.16, 2.8)"/>
   <path style="fill:#5d9731; fill-rule:evenodd;stroke:none;" d="M0.65 4.58 C0.867195 4.60851 1.08502 4.53219 1.23693 4.37436 C1.38884 4.21653 1.45679 3.99595 1.42 3.78 L1.42 0 L2.42 0 L2.42 3.91 C2.4561 4.35033 2.28807 4.78286 1.96418 5.08333 C1.64029 5.38381 1.19639 5.51898 0.76 5.45 C0.552382 5.44868 0.345147 5.43197 0.14 5.4 L0 4.5 C0.21115 4.5605 0.430483 4.58749 0.65 4.58 L0.65 4.58 Z" transform="translate(10.56, 2.81)"/>
   <path style="fill:#ffffff; fill-rule:evenodd;stroke:none;" d="M0 0 L25.3 0 L25.3 16.96 L0 16.96 L0 0 Z" transform="translate(6.35, 10.69)"/>
   <path style="fill:#5d9731; fill-rule:evenodd;stroke:none;" d="M0.74 0 L0 2.09 L1.47 2.09 L0.74 0 Z" transform="translate(16.96, 3.91)"/>
   <path style="fill:#ffffff; fill-rule:evenodd;stroke:none;" d="M0.73 5.45 C1.16639 5.51898 1.61029 5.38381 1.93418 5.08333 C2.25807 4.78286 2.4261 4.35033 2.39 3.91 L2.39 0 L1.39 0 L1.39 3.78 C1.42679 3.99595 1.35884 4.21653 1.20693 4.37436 C1.05502 4.53219 0.837195 4.60851 0.62 4.58 C0.410499 4.58442 0.201518 4.55745 0 4.5 L0.14 5.4 C0.335245 5.43053 0.532402 5.44723 0.73 5.45 L0.73 5.45 Z" transform="translate(10.62, 2.82)"/>
   <path style="fill:#ffffff; fill-rule:evenodd;stroke:none;" d="M1.58 4.06 L3.58 4.06 L4.1 5.48 L5.1 5.29 L3.1 0 L2 0 L0 5.42 L1 5.42 L1.58 4.06 Z M2.58 1.13 L3.31 3.22 L1.91 3.22 L2.58 1.13 Z" transform="translate(15.09, 2.79)"/>
   <path style="fill:#ffffff; fill-rule:evenodd;stroke:none;" d="M0.96 1.68 L3.5 5.4 L4.36 5.4 L4.36 0 L3.4 0 L3.4 3.53 L0.98 0 L0 0 L0 5.4 L0.96 5.4 L0.96 1.68 Z" transform="translate(22.64, 2.82)"/>
   <path style="fill:#5d9731; fill-rule:evenodd;stroke:none;" d="M2.14 1.76 L2.14 9.54 L3.94 9.54 L3.94 0 L2.35 0 L0 1.09 L0.2 2.51 L2.14 1.76 Z" transform="translate(12.22, 14.46)"/>
   <path style="fill:#5d9731; fill-rule:evenodd;stroke:none;" d="M4.59 1.55 L1.1 9.29 L2.83 9.63 L6.51 1.4 L6.51 0 L0 0 L0.23 1.55 L4.59 1.55 Z" transform="translate(18.98, 14.47)"/>
  </g>
 </g>
</svg>
