<?xml version="1.0" encoding="UTF-8"?>
<svg width="38pt" version="1.1" xmlns="http://www.w3.org/2000/svg" height="38pt" viewBox="0 0 38 38" xmlns:xlink="http://www.w3.org/1999/xlink">
 <defs>
  <clipPath id="Clip0">
   <path d="M0 0 L37.01 0 L37.01 26.6354 L0 26.6354 L0 0 Z" transform="translate(1, 0)"/>
  </clipPath>
 </defs>
 <g id="Background">
  <g id="whats-new" clip-path="url(#Clip0)">
   <path style="fill:#5d9731; fill-rule:evenodd;stroke:none;" d="M0.0285334 5.63309 L1.07853 5.63309 C1.1466 5.63329 1.2033 5.58096 1.20853 5.51309 L1.20853 2.16309 L3.20853 5.57309 C3.23102 5.61217 3.27351 5.63534 3.31853 5.63309 L4.44853 5.63309 C4.5166 5.63329 4.5733 5.58096 4.57853 5.51309 L4.57853 0.123091 C4.57865 0.0894539 4.56464 0.0573122 4.53993 0.0344969 C4.51521 0.0116816 4.48205 0.00028749 4.44853 0.00309078 L3.44853 0.00309078 C3.4132 0 3.37831 0.0127002 3.35322 0.0377815 C3.32814 0.0628629 3.31544 0.0977553 3.31853 0.133091 L3.31853 3.41309 L1.41853 0.0730908 C1.39456 0.035574 1.35306 0.012935 1.30853 0.0130908 L0.128533 0.0130908 C0.0948966 0.0129738 0.0627549 0.0269798 0.0399395 0.0516964 C0.0171242 0.0764131 0.00573012 0.109571 0.00853341 0.143091 L0.00853341 5.53309 C0 5.56774 0.00732988 5.60439 0.0285334 5.63309 Z" transform="translate(10.7115, 4.42227)"/>
   <path style="fill:#5d9731; fill-rule:evenodd;stroke:none;" d="M0.139334 5.68788 L4.21933 5.68788 C4.25285 5.69069 4.28601 5.67929 4.31073 5.65648 C4.33544 5.63366 4.34945 5.60152 4.34933 5.56788 L4.34933 4.56788 C4.35214 4.53436 4.34074 4.5012 4.31793 4.47649 C4.29511 4.45177 4.26297 4.43777 4.22933 4.43788 L1.36933 4.43788 L1.36933 3.30788 L3.85933 3.30788 C3.93113 3.30788 3.98933 3.24968 3.98933 3.17788 L3.98933 2.23788 C3.98954 2.16982 3.9372 2.11312 3.86933 2.10788 L1.37933 2.10788 L1.37933 1.21788 L4.13933 1.21788 C4.21113 1.21788 4.26933 1.15968 4.26933 1.08788 L4.26933 0.0878824 C4.25073 0.0335399 4.19623 0 4.13933 0.00788241 L0.139334 0.00788241 C0.103998 0.00479163 0.0691058 0.0174918 0.0440245 0.0425732 C0.0189432 0.0676545 0.00624296 0.102547 0.00933374 0.137882 L0.00933374 5.52788 C0 5.56717 0.0094541 5.60857 0.0349187 5.63991 C0.0603833 5.67125 0.0989665 5.68898 0.139334 5.68788 Z" transform="translate(16.4307, 4.36748)"/>
   <path style="fill:#5d9731; fill-rule:evenodd;stroke:none;" d="M2.82628 5.56333 L3.47628 2.40333 L3.54628 2.05333 L4.26628 5.56333 C4.28046 5.62325 4.33473 5.66499 4.39628 5.66333 L5.47628 5.66333 C5.53497 5.66616 5.58826 5.62927 5.60628 5.57333 L7.12628 0.183333 C7.14255 0.148473 7.14255 0.108194 7.12628 0.0733333 C7.09453 0.0587828 7.05802 0.0587828 7.02628 0.0733333 L5.88628 0.0733333 C5.82473 0.0716768 5.77046 0.113421 5.75628 0.173333 L5.03628 3.29333 L5.03628 3.48333 L4.24628 0.123333 C4.23299 0.0670054 4.18408 0.0262403 4.12628 0.0233333 L2.93628 0.0233333 C2.87848 0.0262403 2.82956 0.0670054 2.81628 0.123333 L2.17628 3.38333 L1.43628 0.113333 C1.42209 0.0534214 1.36782 0.0116768 1.30628 0.0133333 L0.116277 0.0133333 C0.0842771 0 0.0482771 0 0.0162771 0.0133333 C1.13687e-13 0.0481936 0 0.0884731 0.0162771 0.123333 L1.54628 5.51333 C1.56029 5.56772 1.61015 5.60511 1.66628 5.60333 L2.66628 5.60333 C2.72178 5.63457 2.79201 5.61701 2.82628 5.56333 L2.82628 5.56333 Z" transform="translate(21.3237, 4.39203)"/>
   <path style="fill:#5d9731; fill-rule:evenodd;stroke:none;" d="M0.693963 5.43063 C1.20271 5.79391 1.81971 5.97372 2.44396 5.94063 C3.05488 5.97865 3.65886 5.7939 4.14396 5.42063 C4.53705 5.09598 4.76145 4.6104 4.75396 4.10063 C4.77868 3.63902 4.58182 3.19328 4.22396 2.90063 C3.9243 2.69109 3.58338 2.5479 3.22396 2.48063 L2.27396 2.26063 C2.04017 2.21622 1.81209 2.14578 1.59396 2.05063 C1.46879 1.99415 1.38989 1.8679 1.39396 1.73063 C1.39018 1.57533 1.47046 1.43007 1.60396 1.35063 C2.00107 1.17008 2.45686 1.17008 2.85396 1.35063 C3.08114 1.45906 3.22528 1.68891 3.22396 1.94063 C3.2292 2.0085 3.2859 2.06083 3.35396 2.06063 L4.43396 2.06063 C4.50576 2.06063 4.56396 2.00243 4.56396 1.93063 C4.57435 1.37696 4.31753 0.852153 3.87396 0.520633 C3.42334 0.196133 2.87911 0.027597 2.32396 0.0406331 C1.72973 0 1.14162 0.181779 0.673963 0.550633 C0.297523 0.876596 0.0850811 1.35276 0.0939629 1.85063 C0.0579536 2.34979 0.285511 2.83146 0.693963 3.12063 C1.07476 3.33678 1.49144 3.48245 1.92396 3.55063 L2.51396 3.68063 C2.76106 3.72028 3.00055 3.79786 3.22396 3.91063 C3.33252 3.97072 3.3982 4.08663 3.39396 4.21063 C3.4007 4.4514 3.23808 4.66405 3.00396 4.72063 C2.80277 4.77963 2.59355 4.80663 2.38396 4.80063 C2.06847 4.83635 1.7534 4.73011 1.52396 4.51063 C1.42164 4.36612 1.35952 4.19702 1.34396 4.02063 C1.33402 3.95674 1.27862 3.90986 1.21396 3.91063 L0.133963 3.91063 C0.0986275 3.90754 0.063735 3.92024 0.0386536 3.94532 C0.0135723 3.97041 0.00087211 4.0053 0.00396289 4.04063 C0 4.58729 0.256138 5.10328 0.693963 5.43063 L0.693963 5.43063 Z" transform="translate(28.926, 4.25473)"/>
   <path style="fill:#5d9731; fill-rule:evenodd;stroke:none;" d="M0 0 L11.06 0 L11.06 2.06 L0 2.06 L0 0 Z" transform="translate(10.46, 12.5254)"/>
   <path style="fill:#5d9731; fill-rule:evenodd;stroke:none;" d="M0 0 L11.06 0 L11.06 2.07 L0 2.07 L0 0 Z" transform="translate(10.46, 16.1954)"/>
   <path style="fill:#5d9731; fill-rule:evenodd;stroke:none;" d="M0 0 L11.06 0 L11.06 2.07 L0 2.07 L0 0 Z" transform="translate(10.46, 19.6554)"/>
   <path style="fill:#5d9731; fill-rule:evenodd;stroke:none;" d="M35.72 0.00535936 L5.95 0.00535936 C5.2486 0.00535936 4.68 0.573958 4.68 1.27536 L4.68 4.13536 L1.27 4.13536 C0.568598 4.13536 0 4.70396 0 5.40536 L0 23.0254 C0.00551208 25.0207 1.62463 26.6354 3.62 26.6354 L33.39 26.6354 C35.3854 26.6354 37.0045 25.0207 37.01 23.0254 L37.01 1.27536 C37.01 0.93504 36.8735 0.608943 36.631 0.370188 C36.3885 0.131433 36.0603 0 35.72 0.00535936 L35.72 0.00535936 Z M4.72 23.0054 C4.70933 23.5918 4.23647 24.0647 3.65 24.0754 C3.05906 24.0754 2.58 23.5963 2.58 23.0054 L2.58 6.67536 L4.72 6.67536 L4.72 23.0254 L4.72 23.0054 Z M33.42 24.0754 L7.06 24.0754 C7.16678 23.7288 7.22072 23.368 7.22 23.0054 L7.22 2.54536 L34.45 2.54536 L34.45 12.5454 L22.69 12.5454 L22.69 21.7454 L34.45 21.7454 L34.45 23.0454 C34.4288 23.624 33.9589 24.0851 33.38 24.0954 L33.42 24.0754 Z" transform="translate(1, 0)"/>
  </g>
 </g>
</svg>
