<?xml version="1.0" encoding="UTF-8"?>
<svg width="30pt" version="1.1" xmlns="http://www.w3.org/2000/svg" height="30pt" viewBox="0 0 30 30" xmlns:xlink="http://www.w3.org/1999/xlink">
 <defs/>
 <g id="Background">
  <path style="fill:#0097d7; fill-rule:evenodd;stroke:none;" d="M30 26.84 C30 28.4969 28.6569 29.84 27 29.84 L3 29.84 C1.34315 29.84 0 28.4969 0 26.84 L1.13687e-13 3 C0 1.34315 1.34315 0 3 0 L27 2.84217e-14 C28.6569 0 30 1.34315 30 3 L30 26.84 Z M15 7.16 C15 7.16 19.63 7.16 22.72 7.38 C23.5505 7.38655 24.3447 7.72079 24.93 8.31 C25.4018 8.95497 25.7043 9.70792 25.81 10.5 C25.9469 11.6852 26.0203 12.8769 26.03 14.07 L26.03 15.74 C26.0202 16.9331 25.9468 18.1248 25.81 19.31 C25.7048 20.1022 25.4022 20.8552 24.93 21.5 C24.3447 22.0892 23.5505 22.4234 22.72 22.43 C19.63 22.65 15 22.66 15 22.66 L15 22.66 C15 22.66 9.26 22.61 7.5 22.44 C6.60351 22.4281 5.74115 22.0945 5.07 21.5 C4.59747 20.8555 4.29483 20.1023 4.19 19.31 C4.05292 18.1248 3.97948 16.9331 3.97 15.74 L3.97 14.07 C3.97942 12.8769 4.05286 11.6852 4.19 10.5 C4.29525 9.70781 4.59784 8.95476 5.07 8.31 C5.65527 7.72079 6.44954 7.38655 7.28 7.38 C10.37 7.16 15 7.16 15 7.16 L15 7.16 Z M12.72 11.58 L18.72 14.69 L12.72 17.78 L12.72 11.58 L12.72 11.58 Z" transform="translate(0, 0)"/>
 </g>
</svg>
