<?xml version="1.0" standalone="no"?>
<!DOCTYPE svg PUBLIC "-//W3C//DTD SVG 20010904//EN"
 "http://www.w3.org/TR/2001/REC-SVG-20010904/DTD/svg10.dtd">
<svg version="1.0" xmlns="http://www.w3.org/2000/svg"
 width="260.000000pt" height="260.000000pt" viewBox="0 0 260.000000 260.000000"
 preserveAspectRatio="xMidYMid meet">
<metadata>
Created by potrace 1.11, written by Peter Selinger 2001-2013
</metadata>
<g transform="translate(0.000000,260.000000) scale(0.100000,-0.100000)"
fill="#000000" stroke="none">
<path d="M0 1300 l0 -1300 1300 0 1300 0 0 1300 0 1300 -1300 0 -1300 0 0
-1300z m1215 265 c41 -40 33 -105 -16 -130 -41 -22 -73 -18 -103 11 -32 33
-34 81 -5 118 28 36 89 37 124 1z m-575 -278 c74 -27 170 -122 193 -191 9 -27
17 -67 17 -88 l0 -38 -296 0 -297 0 7 -71 c10 -100 40 -188 83 -247 113 -152
291 -175 425 -54 50 45 88 58 88 29 0 -19 -107 -113 -154 -136 -105 -49 -261
-45 -371 9 -182 88 -269 281 -220 488 20 85 45 130 111 201 111 120 259 155
414 98z m610 -329 c0 -200 3 -373 6 -386 8 -27 52 -52 94 -52 23 0 30 -4 30
-20 0 -19 -7 -20 -220 -20 -208 0 -220 1 -220 19 0 15 10 19 57 23 96 8 93 -3
93 363 0 366 3 355 -93 363 -46 4 -57 8 -57 22 0 16 13 19 94 25 52 4 110 11
128 15 18 4 45 8 61 9 l27 1 0 -362z m642 332 c62 -23 138 -94 165 -155 15
-34 18 -81 23 -303 5 -246 6 -265 24 -278 11 -8 23 -14 26 -14 9 0 47 37 59
57 7 14 13 15 22 6 9 -9 6 -22 -11 -58 -33 -69 -95 -101 -165 -85 -42 10 -93
53 -101 87 -6 22 -8 21 -53 -18 -61 -55 -103 -72 -176 -72 -73 0 -125 24 -178
82 -40 44 -52 87 -45 162 9 92 73 145 238 197 58 18 125 41 150 51 l45 17 3
65 c3 77 -15 118 -71 163 -33 26 -45 30 -100 29 -36 0 -76 -7 -93 -16 -37 -19
-87 -72 -108 -114 -16 -33 -39 -43 -51 -23 -9 14 35 107 69 147 15 17 54 46
88 62 75 38 158 42 240 11z"/>
<path d="M375 1235 c-22 -15 -45 -35 -52 -44 -24 -31 -51 -96 -58 -138 l-7
-43 223 0 222 0 -6 51 c-8 63 -41 123 -90 163 -34 27 -47 31 -115 34 -70 3
-81 1 -117 -23z"/>
<path d="M1820 880 c-151 -57 -180 -86 -180 -184 0 -138 109 -194 225 -115 52
36 56 50 53 200 l-3 135 -95 -36z"/>
</g>
</svg>
